<?xml version="1.0" encoding="UTF-8" standalone="no"?><svg xmlns="http://www.w3.org/2000/svg" xmlns:xlink="http://www.w3.org/1999/xlink" contentStyleType="text/css" height="785px" preserveAspectRatio="none" style="width:997px;height:785px;background:#FFFFFF;" version="1.1" viewBox="0 0 997 785" width="997px" zoomAndPan="magnify"><defs/><g><!--cluster AasxPackageLogic--><g id="cluster_AasxPackageLogic"><path d="M8.5,49.04 L155.5,49.04 A3.75,3.75 0 0 1 158,51.54 L165,71.3369 L976.5,71.3369 A2.5,2.5 0 0 1 979,73.8369 L979,402.54 A2.5,2.5 0 0 1 976.5,405.04 L8.5,405.04 A2.5,2.5 0 0 1 6,402.54 L6,51.54 A2.5,2.5 0 0 1 8.5,49.04 " fill="none" style="stroke:#000000;stroke-width:1.5;"/><line style="stroke:#000000;stroke-width:1.5;" x1="6" x2="165" y1="71.3369" y2="71.3369"/><text fill="#000000" font-family="sans-serif" font-size="14" font-weight="bold" lengthAdjust="spacing" textLength="146" x="10" y="64.0351">AasxPackageLogic</text></g><!--cluster AasxPackageExplorer--><g id="cluster_AasxPackageExplorer"><path d="M490.5,500.04 L661.5,500.04 A3.75,3.75 0 0 1 664,502.54 L671,522.3369 L987.5,522.3369 A2.5,2.5 0 0 1 990,524.8369 L990,775.54 A2.5,2.5 0 0 1 987.5,778.04 L490.5,778.04 A2.5,2.5 0 0 1 488,775.54 L488,502.54 A2.5,2.5 0 0 1 490.5,500.04 " fill="none" style="stroke:#000000;stroke-width:1.5;"/><line style="stroke:#000000;stroke-width:1.5;" x1="488" x2="671" y1="522.3369" y2="522.3369"/><text fill="#000000" font-family="sans-serif" font-size="14" font-weight="bold" lengthAdjust="spacing" textLength="170" x="492" y="515.0351">AasxPackageExplorer</text></g><!--class MainWindowLogic--><g id="elem_MainWindowLogic"><rect codeLine="4" fill="#F1F1F1" height="64.2969" id="MainWindowLogic" rx="2.5" ry="2.5" style="stroke:#181818;stroke-width:0.5;" width="154" x="22" y="84.04"/><ellipse cx="37" cy="100.04" fill="#ADD1B2" rx="11" ry="11" style="stroke:#181818;stroke-width:1.0;"/><path d="M39.9688,105.6806 Q39.3906,105.9775 38.75,106.1181 Q38.1094,106.2744 37.4063,106.2744 Q34.9063,106.2744 33.5781,104.6337 Q32.2656,102.9775 32.2656,99.8525 Q32.2656,96.7275 33.5781,95.0712 Q34.9063,93.415 37.4063,93.415 Q38.1094,93.415 38.75,93.5712 Q39.4063,93.7275 39.9688,94.0244 L39.9688,96.7431 Q39.3438,96.165 38.75,95.8994 Q38.1563,95.6181 37.5313,95.6181 Q36.1875,95.6181 35.5,96.6962 Q34.8125,97.7587 34.8125,99.8525 Q34.8125,101.9462 35.5,103.0244 Q36.1875,104.0869 37.5313,104.0869 Q38.1563,104.0869 38.75,103.8212 Q39.3438,103.54 39.9688,102.9619 L39.9688,105.6806 Z " fill="#000000"/><text fill="#000000" font-family="sans-serif" font-size="14" lengthAdjust="spacing" textLength="122" x="51" y="104.8867">MainWindowLogic</text><line style="stroke:#181818;stroke-width:0.5;" x1="23" x2="175" y1="116.04" y2="116.04"/><text fill="#000000" font-family="sans-serif" font-size="14" lengthAdjust="spacing" textLength="108" x="28" y="133.0351">PackageCentral</text><line style="stroke:#181818;stroke-width:0.5;" x1="23" x2="175" y1="140.3369" y2="140.3369"/></g><g id="elem_GMN4"><path d="M791.5,88.54 L791.5,143.9384 L962.5,143.9384 L962.5,98.54 L952.5,88.54 L791.5,88.54 " fill="#FEFFDD" style="stroke:#181818;stroke-width:0.5;"/><path d="M952.5,88.54 L952.5,98.54 L962.5,98.54 L952.5,88.54 " fill="#FEFFDD" style="stroke:#181818;stroke-width:1.0;"/><text fill="#000000" font-family="sans-serif" font-size="13" lengthAdjust="spacing" textLength="146" x="797.5" y="105.6069">Base class for abstract</text><text fill="#000000" font-family="sans-serif" font-size="13" lengthAdjust="spacing" textLength="137" x="797.5" y="120.7397">(non-UI) main window</text><text fill="#000000" font-family="sans-serif" font-size="13" lengthAdjust="spacing" textLength="58" x="797.5" y="135.8725">handling.</text></g><!--class MainWindowTools--><g id="elem_MainWindowTools"><rect codeLine="13" fill="#F1F1F1" height="48" id="MainWindowTools" rx="2.5" ry="2.5" style="stroke:#181818;stroke-width:0.5;" width="156" x="22" y="212.54"/><ellipse cx="37" cy="228.54" fill="#ADD1B2" rx="11" ry="11" style="stroke:#181818;stroke-width:1.0;"/><path d="M39.9688,234.1806 Q39.3906,234.4775 38.75,234.6181 Q38.1094,234.7744 37.4063,234.7744 Q34.9063,234.7744 33.5781,233.1337 Q32.2656,231.4775 32.2656,228.3525 Q32.2656,225.2275 33.5781,223.5712 Q34.9063,221.915 37.4063,221.915 Q38.1094,221.915 38.75,222.0712 Q39.4063,222.2275 39.9688,222.5244 L39.9688,225.2431 Q39.3438,224.665 38.75,224.3994 Q38.1563,224.1181 37.5313,224.1181 Q36.1875,224.1181 35.5,225.1962 Q34.8125,226.2587 34.8125,228.3525 Q34.8125,230.4462 35.5,231.5244 Q36.1875,232.5869 37.5313,232.5869 Q38.1563,232.5869 38.75,232.3212 Q39.3438,232.04 39.9688,231.4619 L39.9688,234.1806 Z " fill="#000000"/><text fill="#000000" font-family="sans-serif" font-size="14" lengthAdjust="spacing" textLength="124" x="51" y="233.3867">MainWindowTools</text><line style="stroke:#181818;stroke-width:0.5;" x1="23" x2="177" y1="244.54" y2="244.54"/><line style="stroke:#181818;stroke-width:0.5;" x1="23" x2="177" y1="252.54" y2="252.54"/></g><g id="elem_GMN8"><path d="M213.5,209.04 L213.5,232.54 L178.12,236.54 L213.5,240.54 L213.5,264.4384 A0,0 0 0 0 213.5,264.4384 L388.5,264.4384 A0,0 0 0 0 388.5,264.4384 L388.5,219.04 L378.5,209.04 L213.5,209.04 A0,0 0 0 0 213.5,209.04 " fill="#FEFFDD" style="stroke:#181818;stroke-width:0.5;"/><path d="M378.5,209.04 L378.5,219.04 L388.5,219.04 L378.5,209.04 " fill="#FEFFDD" style="stroke:#181818;stroke-width:0.5;"/><text fill="#000000" font-family="sans-serif" font-size="13" lengthAdjust="spacing" textLength="139" x="219.5" y="226.1069">Some tools (Andreas,</text><text fill="#000000" font-family="sans-serif" font-size="13" lengthAdjust="spacing" textLength="109" x="219.5" y="241.2397">security) used by</text><text fill="#000000" font-family="sans-serif" font-size="13" lengthAdjust="spacing" textLength="154" x="219.5" y="256.3725">multiple menu functions</text></g><!--class MainWindowDispatch--><g id="elem_MainWindowDispatch"><rect codeLine="22" fill="#F1F1F1" height="64.2969" id="MainWindowDispatch" rx="2.5" ry="2.5" style="stroke:#181818;stroke-width:0.5;" width="281" x="22.5" y="325.04"/><ellipse cx="85.25" cy="341.04" fill="#ADD1B2" rx="11" ry="11" style="stroke:#181818;stroke-width:1.0;"/><path d="M88.2188,346.6806 Q87.6406,346.9775 87,347.1181 Q86.3594,347.2744 85.6563,347.2744 Q83.1563,347.2744 81.8281,345.6337 Q80.5156,343.9775 80.5156,340.8525 Q80.5156,337.7275 81.8281,336.0712 Q83.1563,334.415 85.6563,334.415 Q86.3594,334.415 87,334.5712 Q87.6563,334.7275 88.2188,335.0244 L88.2188,337.7431 Q87.5938,337.165 87,336.8994 Q86.4063,336.6181 85.7813,336.6181 Q84.4375,336.6181 83.75,337.6962 Q83.0625,338.7587 83.0625,340.8525 Q83.0625,342.9462 83.75,344.0244 Q84.4375,345.0869 85.7813,345.0869 Q86.4063,345.0869 87,344.8212 Q87.5938,344.54 88.2188,343.9619 L88.2188,346.6806 Z " fill="#000000"/><text fill="#000000" font-family="sans-serif" font-size="14" lengthAdjust="spacing" textLength="147" x="105.75" y="345.8867">MainWindowDispatch</text><line style="stroke:#181818;stroke-width:0.5;" x1="23.5" x2="302.5" y1="357.04" y2="357.04"/><line style="stroke:#181818;stroke-width:0.5;" x1="23.5" x2="302.5" y1="365.04" y2="365.04"/><ellipse cx="33.5" cy="378.6884" fill="#84BE84" rx="3" ry="3" style="stroke:#038048;stroke-width:1.0;"/><text fill="#000000" font-family="sans-serif" font-size="14" lengthAdjust="spacing" textLength="255" x="42.5" y="382.0351">CommandBinding_GeneralDispatch()</text></g><g id="elem_GMN13"><path d="M339,329.54 L339,353.04 L303.75,357.04 L339,361.04 L339,384.9384 A0,0 0 0 0 339,384.9384 L599,384.9384 A0,0 0 0 0 599,384.9384 L599,339.54 L589,329.54 L339,329.54 A0,0 0 0 0 339,329.54 " fill="#FEFFDD" style="stroke:#181818;stroke-width:0.5;"/><path d="M589,329.54 L589,339.54 L599,339.54 L589,329.54 " fill="#FEFFDD" style="stroke:#181818;stroke-width:0.5;"/><text fill="#000000" font-family="sans-serif" font-size="13" lengthAdjust="spacing" textLength="139" x="345" y="346.6069">Abstract menu items.</text><text fill="#000000" font-family="sans-serif" font-size="13" lengthAdjust="spacing" textLength="165" x="345" y="361.7397">Inner core of menu items.</text><text fill="#000000" font-family="sans-serif" font-size="13" lengthAdjust="spacing" textLength="239" x="345" y="376.8725">Will be wrapped in WPF, HTML, Toolkit.</text></g><!--class IMainWindow--><g id="elem_IMainWindow"><rect codeLine="35" fill="#F1F1F1" height="64.2969" id="IMainWindow" rx="2.5" ry="2.5" style="stroke:#181818;stroke-width:0.5;" width="187" x="211.5" y="84.04"/><ellipse cx="256.25" cy="100.04" fill="#ADD1B2" rx="11" ry="11" style="stroke:#181818;stroke-width:1.0;"/><path d="M259.2188,105.6806 Q258.6406,105.9775 258,106.1181 Q257.3594,106.2744 256.6563,106.2744 Q254.1563,106.2744 252.8281,104.6337 Q251.5156,102.9775 251.5156,99.8525 Q251.5156,96.7275 252.8281,95.0712 Q254.1563,93.415 256.6563,93.415 Q257.3594,93.415 258,93.5712 Q258.6563,93.7275 259.2188,94.0244 L259.2188,96.7431 Q258.5938,96.165 258,95.8994 Q257.4063,95.6181 256.7813,95.6181 Q255.4375,95.6181 254.75,96.6962 Q254.0625,97.7587 254.0625,99.8525 Q254.0625,101.9462 254.75,103.0244 Q255.4375,104.0869 256.7813,104.0869 Q257.4063,104.0869 258,103.8212 Q258.5938,103.54 259.2188,102.9619 L259.2188,105.6806 Z " fill="#000000"/><text fill="#000000" font-family="sans-serif" font-size="14" lengthAdjust="spacing" textLength="89" x="276.75" y="104.8867">IMainWindow</text><line style="stroke:#181818;stroke-width:0.5;" x1="212.5" x2="397.5" y1="116.04" y2="116.04"/><line style="stroke:#181818;stroke-width:0.5;" x1="212.5" x2="397.5" y1="124.04" y2="124.04"/><text fill="#000000" font-family="sans-serif" font-size="14" lengthAdjust="spacing" textLength="175" x="217.5" y="141.0351">UiLoadPackageWithNew()</text></g><g id="elem_GMN19"><path d="M434,88.54 L434,112.04 L398.74,116.04 L434,120.04 L434,143.9384 A0,0 0 0 0 434,143.9384 L756,143.9384 A0,0 0 0 0 756,143.9384 L756,98.54 L746,88.54 L434,88.54 A0,0 0 0 0 434,88.54 " fill="#FEFFDD" style="stroke:#181818;stroke-width:0.5;"/><path d="M746,88.54 L746,98.54 L756,98.54 L746,88.54 " fill="#FEFFDD" style="stroke:#181818;stroke-width:0.5;"/><text fill="#000000" font-family="sans-serif" font-size="13" lengthAdjust="spacing" textLength="297" x="440" y="105.6069">An main window needs implement this to allow</text><text fill="#000000" font-family="sans-serif" font-size="13" lengthAdjust="spacing" textLength="256" x="440" y="120.7397">business logic to trigger important state</text><text fill="#000000" font-family="sans-serif" font-size="13" lengthAdjust="spacing" textLength="257" x="440" y="135.8725">changes visible to the user, e.g. loading.</text></g><!--class MainWindowXamlCs--><g id="elem_MainWindowXamlCs"><rect codeLine="48" fill="#F1F1F1" height="64.2969" id="MainWindowXamlCs" rx="2.5" ry="2.5" style="stroke:#181818;stroke-width:0.5;" width="202" x="540" y="546.04"/><ellipse cx="568.05" cy="562.04" fill="#ADD1B2" rx="11" ry="11" style="stroke:#181818;stroke-width:1.0;"/><path d="M571.0188,567.6806 Q570.4406,567.9775 569.8,568.1181 Q569.1594,568.2744 568.4563,568.2744 Q565.9563,568.2744 564.6281,566.6338 Q563.3156,564.9775 563.3156,561.8525 Q563.3156,558.7275 564.6281,557.0713 Q565.9563,555.415 568.4563,555.415 Q569.1594,555.415 569.8,555.5713 Q570.4563,555.7275 571.0188,556.0244 L571.0188,558.7431 Q570.3938,558.165 569.8,557.8994 Q569.2063,557.6181 568.5813,557.6181 Q567.2375,557.6181 566.55,558.6963 Q565.8625,559.7588 565.8625,561.8525 Q565.8625,563.9463 566.55,565.0244 Q567.2375,566.0869 568.5813,566.0869 Q569.2063,566.0869 569.8,565.8213 Q570.3938,565.54 571.0188,564.9619 L571.0188,567.6806 Z " fill="#000000"/><text fill="#000000" font-family="sans-serif" font-size="14" lengthAdjust="spacing" textLength="141" x="584.95" y="566.8867">MainWindow.xaml.cs</text><line style="stroke:#181818;stroke-width:0.5;" x1="541" x2="741" y1="578.04" y2="578.04"/><text fill="#000000" font-family="sans-serif" font-size="14" lengthAdjust="spacing" textLength="190" x="546" y="595.0351">MainWindowDispatch _logic</text><line style="stroke:#181818;stroke-width:0.5;" x1="541" x2="741" y1="602.3369" y2="602.3369"/></g><g id="elem_GMN24"><path d="M777.5,535.04 L777.5,574.04 L742.03,578.04 L777.5,582.04 L777.5,620.7041 A0,0 0 0 0 777.5,620.7041 L928.5,620.7041 A0,0 0 0 0 928.5,620.7041 L928.5,545.04 L918.5,535.04 L777.5,535.04 A0,0 0 0 0 777.5,535.04 " fill="#FEFFDD" style="stroke:#181818;stroke-width:0.5;"/><path d="M918.5,535.04 L918.5,545.04 L928.5,545.04 L918.5,535.04 " fill="#FEFFDD" style="stroke:#181818;stroke-width:0.5;"/><text fill="#000000" font-family="sans-serif" font-size="13" lengthAdjust="spacing" textLength="121" x="783.5" y="552.1069">Main window to the</text><text fill="#000000" font-family="sans-serif" font-size="13" lengthAdjust="spacing" textLength="103" x="783.5" y="567.2397">WPF application.</text><text fill="#000000" font-family="sans-serif" font-size="13" lengthAdjust="spacing" textLength="105" x="783.5" y="582.3725">Contains all glue</text><text fill="#000000" font-family="sans-serif" font-size="13" lengthAdjust="spacing" textLength="130" x="783.5" y="597.5053">logic between library</text><text fill="#000000" font-family="sans-serif" font-size="13" lengthAdjust="spacing" textLength="64" x="783.5" y="612.6381">elements.</text></g><!--class MainWindowCommandBindingsCs--><g id="elem_MainWindowCommandBindingsCs"><rect codeLine="61" fill="#F1F1F1" height="64.2969" id="MainWindowCommandBindingsCs" rx="2.5" ry="2.5" style="stroke:#181818;stroke-width:0.5;" width="273" x="504.5" y="698.04"/><ellipse cx="519.5" cy="714.04" fill="#ADD1B2" rx="11" ry="11" style="stroke:#181818;stroke-width:1.0;"/><path d="M522.4688,719.6806 Q521.8906,719.9775 521.25,720.1181 Q520.6094,720.2744 519.9063,720.2744 Q517.4063,720.2744 516.0781,718.6338 Q514.7656,716.9775 514.7656,713.8525 Q514.7656,710.7275 516.0781,709.0713 Q517.4063,707.415 519.9063,707.415 Q520.6094,707.415 521.25,707.5713 Q521.9063,707.7275 522.4688,708.0244 L522.4688,710.7431 Q521.8438,710.165 521.25,709.8994 Q520.6563,709.6181 520.0313,709.6181 Q518.6875,709.6181 518,710.6963 Q517.3125,711.7588 517.3125,713.8525 Q517.3125,715.9463 518,717.0244 Q518.6875,718.0869 520.0313,718.0869 Q520.6563,718.0869 521.25,717.8213 Q521.8438,717.54 522.4688,716.9619 L522.4688,719.6806 Z " fill="#000000"/><text fill="#000000" font-family="sans-serif" font-size="14" lengthAdjust="spacing" textLength="241" x="533.5" y="718.8867">MainWindow.CommandBindings.cs</text><line style="stroke:#181818;stroke-width:0.5;" x1="505.5" x2="776.5" y1="730.04" y2="730.04"/><line style="stroke:#181818;stroke-width:0.5;" x1="505.5" x2="776.5" y1="738.04" y2="738.04"/><text fill="#000000" font-family="sans-serif" font-size="14" lengthAdjust="spacing" textLength="255" x="510.5" y="755.0351">CommandBinding_GeneralDispatch()</text></g><g id="elem_GMN29"><path d="M812.5,710.04 L812.5,726.04 L777.83,730.04 L812.5,734.04 L812.5,750.3056 A0,0 0 0 0 812.5,750.3056 L973.5,750.3056 A0,0 0 0 0 973.5,750.3056 L973.5,720.04 L963.5,710.04 L812.5,710.04 A0,0 0 0 0 812.5,710.04 " fill="#FEFFDD" style="stroke:#181818;stroke-width:0.5;"/><path d="M963.5,710.04 L963.5,720.04 L973.5,720.04 L963.5,710.04 " fill="#FEFFDD" style="stroke:#181818;stroke-width:0.5;"/><text fill="#000000" font-family="sans-serif" font-size="13" lengthAdjust="spacing" textLength="136" x="818.5" y="727.1069">Menu functions which</text><text fill="#000000" font-family="sans-serif" font-size="13" lengthAdjust="spacing" textLength="126" x="818.5" y="742.2397">involve a lot of WPF.</text></g><!--link MainWindowLogic to GMN4--><g id="link_MainWindowLogic_GMN4"><path d="M127.46,84.04 C148.35,63.09 178.69,37.55 211.5,26.04 C268.64,6 699.03,6.95 756.5,26.04 C793.42,38.31 828.18,66.78 850.79,88.44 " fill="none" id="MainWindowLogic-GMN4" style="stroke:#181818;stroke-width:1.0;stroke-dasharray:7.0,7.0;"/></g><!--reverse link MainWindowLogic to MainWindowTools--><g id="link_MainWindowLogic_MainWindowTools"><path codeLine="20" d="M99.43,168.33 C99.56,183.74 99.7,199.88 99.81,212.48 " fill="none" id="MainWindowLogic-backto-MainWindowTools" style="stroke:#181818;stroke-width:1.0;"/><polygon fill="none" points="92.43,168.23,99.26,148.17,106.43,168.11,92.43,168.23" style="stroke:#181818;stroke-width:1.0;"/></g><!--reverse link MainWindowTools to MainWindowDispatch--><g id="link_MainWindowTools_MainWindowDispatch"><path codeLine="31" d="M121.7,278.36 C129.81,293.61 138.87,310.66 146.44,324.9 " fill="none" id="MainWindowTools-backto-MainWindowDispatch" style="stroke:#181818;stroke-width:1.0;"/><polygon fill="none" points="115.5,281.61,112.3,260.67,127.87,275.04,115.5,281.61" style="stroke:#181818;stroke-width:1.0;"/></g><!--reverse link IMainWindow to MainWindowDispatch--><g id="link_IMainWindow_MainWindowDispatch"><path codeLine="33" d="M355.09,151.24 C392.4,181.06 432.66,225.45 406,264.04 C390.49,286.5 335.35,308.28 281.52,325 " fill="none" id="IMainWindow-backto-MainWindowDispatch" style="stroke:#181818;stroke-width:1.0;"/><polygon fill="#181818" points="351.03,148.04,355.6174,156.7552,354.9551,151.1373,360.5731,150.475,351.03,148.04" style="stroke:#181818;stroke-width:1.0;"/><text fill="#000000" font-family="sans-serif" font-size="13" lengthAdjust="spacing" textLength="30" x="415" y="241.1069">uses</text></g><!--reverse link IMainWindow to MainWindowXamlCs--><g id="link_IMainWindow_MainWindowXamlCs"><path codeLine="59" d="M418.36,150.24 C519.6,180.7 652,222.96 652,235.54 C652,235.54 652,235.54 652,453.04 C652,484.81 648.37,520.98 645.28,546.02 " fill="none" id="IMainWindow-backto-MainWindowXamlCs" style="stroke:#181818;stroke-width:1.0;"/><polygon fill="none" points="416.05,156.85,398.9,144.41,420.07,143.44,416.05,156.85" style="stroke:#181818;stroke-width:1.0;"/></g><!--reverse link MainWindowXamlCs to MainWindowCommandBindingsCs--><g id="link_MainWindowXamlCs_MainWindowCommandBindingsCs"><path codeLine="69" d="M641,623.22 C641,647.25 641,676.39 641,698 " fill="none" id="MainWindowXamlCs-backto-MainWindowCommandBindingsCs" style="stroke:#181818;stroke-width:1.0;"/><polygon fill="#181818" points="641,610.12,637,616.12,641,622.12,645,616.12,641,610.12" style="stroke:#181818;stroke-width:1.0;"/><text fill="#000000" font-family="sans-serif" font-size="13" lengthAdjust="spacing" textLength="40" x="642" y="664.1069">partial</text></g><!--reverse link MainWindowDispatch to MainWindowXamlCs--><g id="link_MainWindowDispatch_MainWindowXamlCs"><path codeLine="71" d="M235.31,391.17 C326.95,433.16 483.72,504.98 573.18,545.97 " fill="none" id="MainWindowDispatch-backto-MainWindowXamlCs" style="stroke:#181818;stroke-width:1.0;"/><polygon fill="#181818" points="230.72,389.07,237.2302,396.4604,235.264,391.1562,240.5681,389.19,230.72,389.07" style="stroke:#181818;stroke-width:1.0;"/></g><!--SRC=[bLHDRzim3BtxLn0z9LlY7r3aacRh5Y0P0gn5TYjacR69of8XoN6AjVzzb9Cq_hhiPf2F8jzxf4iXNqM6i1Jkj3j_Rqn64lv6aLJ2ETWAqdlIgQcl2O0BSeNQMw6YZqWRZs0foprd7uH3E1SVZ0MHE4P93voQQAFdp-if5FmgrCsp7Cw5JXNfB8vGfn0U6tP_CaQvRgFVfa3m8GwJfKuj2ZVZi4DPMV9lKwWSff2ySQoebATI8HIeApXKMdeoshNwzNaktkVpGVl1LD_8bSBBl97bAwnCKJ2N1yundPSVg945ke8cqxvKowispLZaiN0nXzUQwq0QYs0ElToUb884eRQYB9aUwxZVFSxWvzDsCuCmvYlvU9HOmw5Fx3fS5ArlGLZCHq5m7pJzrA5T4GHufeqHwMKxzkJpNrYFaDPj-q4ZfWweO7UOgGUVasDNGIZ5MSOdbIEDt4urnd3AyrCPAyH5ndh1HSuBxi1WoRkKeOCZEKeKDkWSmzHs1XXdCRyYqjwkVKHHEJo4xwTIiGNsTWjtDxxnIHGgbkuEH7iV_d1qvHenHjHxQHZqzTYsnBYC6tpUFG8xh4YAiAh1-fNHdh4kI0EPgXhSMPG4VOseGL5YXGqRZsSvNPjdn-7thiNdoSUOTfVQ3Kdt01V-_tiBsyvbGfqJAyPnqaUZZWY2gVfm3wpC-7vVnF_IuJKSxXvAOJtnZoiQyMWnAii_]--></g></svg>