<?xml version="1.0" encoding="UTF-8" standalone="no"?><svg xmlns="http://www.w3.org/2000/svg" xmlns:xlink="http://www.w3.org/1999/xlink" contentStyleType="text/css" height="1786px" preserveAspectRatio="none" style="width:1283px;height:1786px;background:#FFFFFF;" version="1.1" viewBox="0 0 1283 1786" width="1283px" zoomAndPan="magnify"><defs/><g><rect fill="#FFFFFF" height="333.5938" style="stroke:#181818;stroke-width:1.0;" width="10" x="209.5" y="151.6953"/><rect fill="#FFFFFF" height="332.3281" style="stroke:#181818;stroke-width:1.0;" width="10" x="209.5" y="560.6875"/><rect fill="#FFFFFF" height="14" style="stroke:#181818;stroke-width:1.0;" width="10" x="209.5" y="1039.6797"/><rect fill="#FFFFFF" height="243.9297" style="stroke:#181818;stroke-width:1.0;" width="10" x="209.5" y="1082.8125"/><rect fill="#FFFFFF" height="191.6641" style="stroke:#181818;stroke-width:1.0;" width="10" x="214.5" y="1135.0781"/><rect fill="#FFFFFF" height="278.9297" style="stroke:#181818;stroke-width:1.0;" width="10" x="209.5" y="1402.1406"/><rect fill="#FFFFFF" height="172.6641" style="stroke:#181818;stroke-width:1.0;" width="10" x="370.5" y="195.9609"/><rect fill="#FFFFFF" height="99.2656" style="stroke:#181818;stroke-width:1.0;" width="10" x="531.5" y="255.3594"/><rect fill="#FFFFFF" height="158.5313" style="stroke:#181818;stroke-width:1.0;" width="10" x="531.5" y="618.9531"/><rect fill="#FFFFFF" height="157.5313" style="stroke:#181818;stroke-width:1.0;" width="10" x="531.5" y="1169.2109"/><rect fill="#FFFFFF" height="196.0977" style="stroke:#181818;stroke-width:1.0;" width="10" x="531.5" y="1470.9727"/><rect fill="#FFFFFF" height="56.1328" style="stroke:#181818;stroke-width:1.0;" width="10" x="663.5" y="284.4922"/><rect fill="#FFFFFF" height="115.3984" style="stroke:#181818;stroke-width:1.0;" width="10" x="663.5" y="648.0859"/><rect fill="#FFFFFF" height="114.3984" style="stroke:#181818;stroke-width:1.0;" width="10" x="663.5" y="1198.3438"/><rect fill="#FFFFFF" height="142.3984" style="stroke:#181818;stroke-width:1.0;" width="10" x="663.5" y="1510.6719"/><rect fill="#FFFFFF" height="258.9297" style="stroke:#181818;stroke-width:1.0;" width="10" x="857.5" y="589.8203"/><rect fill="#FFFFFF" height="249.7969" style="stroke:#181818;stroke-width:1.0;" width="10" x="857.5" y="1431.2734"/><rect fill="#FFFFFF" height="961.8516" style="stroke:#181818;stroke-width:1.0;" width="10" x="989.5" y="677.2188"/><rect fill="#FFFFFF" height="71.2656" style="stroke:#181818;stroke-width:1.0;" width="10" x="994.5" y="1227.4766"/><rect fill="#FFFFFF" height="874.4531" style="stroke:#181818;stroke-width:1.0;" width="10" x="1133.5" y="721.4844"/><rect fill="#FFFFFF" height="100.3984" style="stroke:#181818;stroke-width:1.0;" width="10" x="1138.5" y="953.2813"/><rect fill="none" height="394.9922" style="stroke:#000000;stroke-width:1.5;" width="739.5" x="10" y="98.2969"/><rect fill="none" height="393.7266" style="stroke:#000000;stroke-width:1.5;" width="1205.5" x="10" y="507.2891"/><rect fill="none" height="419.7266" style="stroke:#000000;stroke-width:1.5;" width="1267.5" x="10" y="915.0156"/><rect fill="none" height="340.3281" style="stroke:#000000;stroke-width:1.5;" width="1205.5" x="10" y="1348.7422"/><line style="stroke:#181818;stroke-width:0.5;stroke-dasharray:5.0,5.0;" x1="39" x2="39" y1="81.2969" y2="1706.0703"/><line style="stroke:#181818;stroke-width:0.5;stroke-dasharray:5.0,5.0;" x1="90" x2="90" y1="81.2969" y2="1706.0703"/><line style="stroke:#181818;stroke-width:0.5;stroke-dasharray:5.0,5.0;" x1="214.5" x2="214.5" y1="81.2969" y2="1706.0703"/><line style="stroke:#181818;stroke-width:0.5;stroke-dasharray:5.0,5.0;" x1="375" x2="375" y1="81.2969" y2="1706.0703"/><line style="stroke:#181818;stroke-width:0.5;stroke-dasharray:5.0,5.0;" x1="536.5" x2="536.5" y1="81.2969" y2="1706.0703"/><line style="stroke:#181818;stroke-width:0.5;stroke-dasharray:5.0,5.0;" x1="668.5" x2="668.5" y1="81.2969" y2="1706.0703"/><line style="stroke:#181818;stroke-width:0.5;stroke-dasharray:5.0,5.0;" x1="862" x2="862" y1="81.2969" y2="1706.0703"/><line style="stroke:#181818;stroke-width:0.5;stroke-dasharray:5.0,5.0;" x1="994.5" x2="994.5" y1="81.2969" y2="1706.0703"/><line style="stroke:#181818;stroke-width:0.5;stroke-dasharray:5.0,5.0;" x1="1138.5" x2="1138.5" y1="81.2969" y2="1706.0703"/><text fill="#000000" font-family="sans-serif" font-size="14" lengthAdjust="spacing" textLength="32" x="20" y="77.9951">User</text><ellipse cx="39" cy="13.5" fill="#E2E2F0" rx="8" ry="8" style="stroke:#181818;stroke-width:0.5;"/><path d="M39,21.5 L39,48.5 M26,29.5 L52,29.5 M39,48.5 L26,63.5 M39,48.5 L52,63.5 " fill="none" style="stroke:#181818;stroke-width:0.5;"/><text fill="#000000" font-family="sans-serif" font-size="14" lengthAdjust="spacing" textLength="32" x="20" y="1718.0654">User</text><ellipse cx="39" cy="1729.8672" fill="#E2E2F0" rx="8" ry="8" style="stroke:#181818;stroke-width:0.5;"/><path d="M39,1737.8672 L39,1764.8672 M26,1745.8672 L52,1745.8672 M39,1764.8672 L26,1779.8672 M39,1764.8672 L52,1779.8672 " fill="none" style="stroke:#181818;stroke-width:0.5;"/><text fill="#000000" font-family="sans-serif" font-size="14" lengthAdjust="spacing" textLength="39" x="68" y="77.9951">Timer</text><ellipse cx="90.5" cy="49" fill="#E2E2F0" rx="12" ry="12" style="stroke:#181818;stroke-width:0.5;"/><polygon fill="#181818" points="86.5,37,92.5,32,90.5,37,92.5,42,86.5,37" style="stroke:#181818;stroke-width:1.0;"/><text fill="#000000" font-family="sans-serif" font-size="14" lengthAdjust="spacing" textLength="39" x="68" y="1718.0654">Timer</text><ellipse cx="90.5" cy="1737.3672" fill="#E2E2F0" rx="12" ry="12" style="stroke:#181818;stroke-width:0.5;"/><polygon fill="#181818" points="86.5,1725.3672,92.5,1720.3672,90.5,1725.3672,92.5,1730.3672,86.5,1725.3672" style="stroke:#181818;stroke-width:1.0;"/><rect fill="#E2E2F0" height="30.2969" rx="2.5" ry="2.5" style="stroke:#181818;stroke-width:0.5;" width="120" x="154.5" y="50"/><text fill="#000000" font-family="sans-serif" font-size="14" lengthAdjust="spacing" textLength="106" x="161.5" y="69.9951">MainWindow.cs</text><rect fill="#E2E2F0" height="30.2969" rx="2.5" ry="2.5" style="stroke:#181818;stroke-width:0.5;" width="120" x="154.5" y="1705.0703"/><text fill="#000000" font-family="sans-serif" font-size="14" lengthAdjust="spacing" textLength="106" x="161.5" y="1725.0654">MainWindow.cs</text><rect fill="#E2E2F0" height="46.5938" rx="2.5" ry="2.5" style="stroke:#181818;stroke-width:0.5;" width="99" x="326" y="33.7031"/><text fill="#000000" font-family="sans-serif" font-size="14" lengthAdjust="spacing" textLength="72" x="339.5" y="53.6982">VisualAasx</text><text fill="#000000" font-family="sans-serif" font-size="14" lengthAdjust="spacing" textLength="85" x="333" y="69.9951">Elements.cs</text><rect fill="#E2E2F0" height="46.5938" rx="2.5" ry="2.5" style="stroke:#181818;stroke-width:0.5;" width="99" x="326" y="1705.0703"/><text fill="#000000" font-family="sans-serif" font-size="14" lengthAdjust="spacing" textLength="72" x="339.5" y="1725.0654">VisualAasx</text><text fill="#000000" font-family="sans-serif" font-size="14" lengthAdjust="spacing" textLength="85" x="333" y="1741.3623">Elements.cs</text><rect fill="#E2E2F0" height="30.2969" rx="2.5" ry="2.5" style="stroke:#181818;stroke-width:0.5;" width="84" x="494.5" y="50"/><text fill="#000000" font-family="sans-serif" font-size="14" lengthAdjust="spacing" textLength="70" x="501.5" y="69.9951">Plugins.cs</text><rect fill="#E2E2F0" height="30.2969" rx="2.5" ry="2.5" style="stroke:#181818;stroke-width:0.5;" width="84" x="494.5" y="1705.0703"/><text fill="#000000" font-family="sans-serif" font-size="14" lengthAdjust="spacing" textLength="70" x="501.5" y="1725.0654">Plugins.cs</text><rect fill="#E2E2F0" height="46.5938" rx="2.5" ry="2.5" style="stroke:#181818;stroke-width:0.5;" width="142" x="597.5" y="33.7031"/><text fill="#000000" font-family="sans-serif" font-size="14" lengthAdjust="spacing" textLength="128" x="604.5" y="53.6982">AasxPluginGeneric</text><text fill="#000000" font-family="sans-serif" font-size="14" lengthAdjust="spacing" textLength="109" x="614" y="69.9951">Forms.Plugin.cs</text><rect fill="#E2E2F0" height="46.5938" rx="2.5" ry="2.5" style="stroke:#181818;stroke-width:0.5;" width="142" x="597.5" y="1705.0703"/><text fill="#000000" font-family="sans-serif" font-size="14" lengthAdjust="spacing" textLength="128" x="604.5" y="1725.0654">AasxPluginGeneric</text><text fill="#000000" font-family="sans-serif" font-size="14" lengthAdjust="spacing" textLength="109" x="614" y="1741.3623">Forms.Plugin.cs</text><rect fill="#E2E2F0" height="46.5938" rx="2.5" ry="2.5" style="stroke:#181818;stroke-width:0.5;" width="107" x="809" y="33.7031"/><text fill="#000000" font-family="sans-serif" font-size="14" lengthAdjust="spacing" textLength="89" x="818" y="53.6982">DispEditAasx</text><text fill="#000000" font-family="sans-serif" font-size="14" lengthAdjust="spacing" textLength="93" x="816" y="69.9951">Entity.xaml.cs</text><rect fill="#E2E2F0" height="46.5938" rx="2.5" ry="2.5" style="stroke:#181818;stroke-width:0.5;" width="107" x="809" y="1705.0703"/><text fill="#000000" font-family="sans-serif" font-size="14" lengthAdjust="spacing" textLength="89" x="818" y="1725.0654">DispEditAasx</text><text fill="#000000" font-family="sans-serif" font-size="14" lengthAdjust="spacing" textLength="93" x="816" y="1741.3623">Entity.xaml.cs</text><rect fill="#E2E2F0" height="62.8906" rx="2.5" ry="2.5" style="stroke:#181818;stroke-width:0.5;" width="134" x="927.5" y="17.4063"/><text fill="#000000" font-family="sans-serif" font-size="14" lengthAdjust="spacing" textLength="74" x="957.5" y="37.4014">AasxPlugin</text><text fill="#000000" font-family="sans-serif" font-size="14" lengthAdjust="spacing" textLength="97" x="946" y="53.6982">GenericForms</text><text fill="#000000" font-family="sans-serif" font-size="14" lengthAdjust="spacing" textLength="120" x="934.5" y="69.9951">...AnyUiControl.cs</text><rect fill="#E2E2F0" height="62.8906" rx="2.5" ry="2.5" style="stroke:#181818;stroke-width:0.5;" width="134" x="927.5" y="1705.0703"/><text fill="#000000" font-family="sans-serif" font-size="14" lengthAdjust="spacing" textLength="74" x="957.5" y="1725.0654">AasxPlugin</text><text fill="#000000" font-family="sans-serif" font-size="14" lengthAdjust="spacing" textLength="97" x="946" y="1741.3623">GenericForms</text><text fill="#000000" font-family="sans-serif" font-size="14" lengthAdjust="spacing" textLength="120" x="934.5" y="1757.6592">...AnyUiControl.cs</text><rect fill="#E2E2F0" height="46.5938" rx="2.5" ry="2.5" style="stroke:#181818;stroke-width:0.5;" width="134" x="1071.5" y="33.7031"/><text fill="#000000" font-family="sans-serif" font-size="14" lengthAdjust="spacing" textLength="120" x="1078.5" y="53.6982">AnyUiWpf/Html.cs</text><text fill="#000000" font-family="sans-serif" font-size="14" lengthAdjust="spacing" textLength="67" x="1105" y="69.9951">instances</text><rect fill="#E2E2F0" height="46.5938" rx="2.5" ry="2.5" style="stroke:#181818;stroke-width:0.5;" width="134" x="1071.5" y="1705.0703"/><text fill="#000000" font-family="sans-serif" font-size="14" lengthAdjust="spacing" textLength="120" x="1078.5" y="1725.0654">AnyUiWpf/Html.cs</text><text fill="#000000" font-family="sans-serif" font-size="14" lengthAdjust="spacing" textLength="67" x="1105" y="1741.3623">instances</text><rect fill="#FFFFFF" height="333.5938" style="stroke:#181818;stroke-width:1.0;" width="10" x="209.5" y="151.6953"/><rect fill="#FFFFFF" height="332.3281" style="stroke:#181818;stroke-width:1.0;" width="10" x="209.5" y="560.6875"/><rect fill="#FFFFFF" height="14" style="stroke:#181818;stroke-width:1.0;" width="10" x="209.5" y="1039.6797"/><rect fill="#FFFFFF" height="243.9297" style="stroke:#181818;stroke-width:1.0;" width="10" x="209.5" y="1082.8125"/><rect fill="#FFFFFF" height="191.6641" style="stroke:#181818;stroke-width:1.0;" width="10" x="214.5" y="1135.0781"/><rect fill="#FFFFFF" height="278.9297" style="stroke:#181818;stroke-width:1.0;" width="10" x="209.5" y="1402.1406"/><rect fill="#FFFFFF" height="172.6641" style="stroke:#181818;stroke-width:1.0;" width="10" x="370.5" y="195.9609"/><rect fill="#FFFFFF" height="99.2656" style="stroke:#181818;stroke-width:1.0;" width="10" x="531.5" y="255.3594"/><rect fill="#FFFFFF" height="158.5313" style="stroke:#181818;stroke-width:1.0;" width="10" x="531.5" y="618.9531"/><rect fill="#FFFFFF" height="157.5313" style="stroke:#181818;stroke-width:1.0;" width="10" x="531.5" y="1169.2109"/><rect fill="#FFFFFF" height="196.0977" style="stroke:#181818;stroke-width:1.0;" width="10" x="531.5" y="1470.9727"/><rect fill="#FFFFFF" height="56.1328" style="stroke:#181818;stroke-width:1.0;" width="10" x="663.5" y="284.4922"/><rect fill="#FFFFFF" height="115.3984" style="stroke:#181818;stroke-width:1.0;" width="10" x="663.5" y="648.0859"/><rect fill="#FFFFFF" height="114.3984" style="stroke:#181818;stroke-width:1.0;" width="10" x="663.5" y="1198.3438"/><rect fill="#FFFFFF" height="142.3984" style="stroke:#181818;stroke-width:1.0;" width="10" x="663.5" y="1510.6719"/><rect fill="#FFFFFF" height="258.9297" style="stroke:#181818;stroke-width:1.0;" width="10" x="857.5" y="589.8203"/><rect fill="#FFFFFF" height="249.7969" style="stroke:#181818;stroke-width:1.0;" width="10" x="857.5" y="1431.2734"/><rect fill="#FFFFFF" height="961.8516" style="stroke:#181818;stroke-width:1.0;" width="10" x="989.5" y="677.2188"/><rect fill="#FFFFFF" height="71.2656" style="stroke:#181818;stroke-width:1.0;" width="10" x="994.5" y="1227.4766"/><rect fill="#FFFFFF" height="874.4531" style="stroke:#181818;stroke-width:1.0;" width="10" x="1133.5" y="721.4844"/><rect fill="#FFFFFF" height="100.3984" style="stroke:#181818;stroke-width:1.0;" width="10" x="1138.5" y="953.2813"/><path d="M10,98.2969 L234,98.2969 L234,105.4297 L224,115.4297 L10,115.4297 L10,98.2969 " fill="#EEEEEE" style="stroke:#000000;stroke-width:1.5;"/><rect fill="none" height="394.9922" style="stroke:#000000;stroke-width:1.5;" width="739.5" x="10" y="98.2969"/><text fill="#000000" font-family="sans-serif" font-size="13" font-weight="bold" lengthAdjust="spacing" textLength="179" x="25" y="111.3638">seq: Preparation of tree</text><polygon fill="#181818" points="197.5,147.6953,207.5,151.6953,197.5,155.6953,201.5,151.6953" style="stroke:#181818;stroke-width:1.0;"/><line style="stroke:#181818;stroke-width:1.0;" x1="39" x2="203.5" y1="151.6953" y2="151.6953"/><text fill="#000000" font-family="sans-serif" font-size="13" lengthAdjust="spacing" textLength="31" x="46" y="131.4966">Load</text><text fill="#000000" font-family="sans-serif" font-size="13" lengthAdjust="spacing" textLength="35" x="46" y="146.6294">AASX</text><polygon fill="#181818" points="358.5,191.9609,368.5,195.9609,358.5,199.9609,362.5,195.9609" style="stroke:#181818;stroke-width:1.0;"/><line style="stroke:#181818;stroke-width:1.0;" x1="219.5" x2="364.5" y1="195.9609" y2="195.9609"/><text fill="#000000" font-family="sans-serif" font-size="13" lengthAdjust="spacing" textLength="126" x="226.5" y="175.7622">add VisualElements</text><text fill="#000000" font-family="sans-serif" font-size="13" lengthAdjust="spacing" textLength="90" x="226.5" y="190.895">from shell env</text><polygon fill="#181818" points="519.5,251.3594,529.5,255.3594,519.5,259.3594,523.5,255.3594" style="stroke:#181818;stroke-width:1.0;"/><line style="stroke:#181818;stroke-width:1.0;" x1="380.5" x2="525.5" y1="255.3594" y2="255.3594"/><text fill="#000000" font-family="sans-serif" font-size="13" lengthAdjust="spacing" textLength="86" x="387.5" y="220.0278">InvokeAction(</text><text fill="#000000" font-family="sans-serif" font-size="13" lengthAdjust="spacing" textLength="73" x="387.5" y="235.1606">"call-check-</text><text fill="#000000" font-family="sans-serif" font-size="13" lengthAdjust="spacing" textLength="128" x="387.5" y="250.2935">visualextension", ...)</text><polygon fill="#181818" points="651.5,280.4922,661.5,284.4922,651.5,288.4922,655.5,284.4922" style="stroke:#181818;stroke-width:1.0;"/><line style="stroke:#181818;stroke-width:1.0;" x1="541.5" x2="657.5" y1="284.4922" y2="284.4922"/><text fill="#000000" font-family="sans-serif" font-size="13" lengthAdjust="spacing" textLength="103" x="548.5" y="279.4263">InvokeAction(...)</text><line style="stroke:#181818;stroke-width:1.0;" x1="673.5" x2="715.5" y1="313.625" y2="313.625"/><line style="stroke:#181818;stroke-width:1.0;" x1="715.5" x2="715.5" y1="313.625" y2="326.625"/><line style="stroke:#181818;stroke-width:1.0;" x1="674.5" x2="715.5" y1="326.625" y2="326.625"/><polygon fill="#181818" points="684.5,322.625,674.5,326.625,684.5,330.625,680.5,326.625" style="stroke:#181818;stroke-width:1.0;"/><text fill="#000000" font-family="sans-serif" font-size="13" lengthAdjust="spacing" textLength="29" x="680.5" y="308.5591">Init()</text><polygon fill="#181818" points="552.5,336.625,542.5,340.625,552.5,344.625,548.5,340.625" style="stroke:#181818;stroke-width:1.0;"/><line style="stroke:#181818;stroke-width:1.0;" x1="546.5" x2="667.5" y1="340.625" y2="340.625"/><polygon fill="#181818" points="391.5,350.625,381.5,354.625,391.5,358.625,387.5,354.625" style="stroke:#181818;stroke-width:1.0;"/><line style="stroke:#181818;stroke-width:1.0;" x1="385.5" x2="535.5" y1="354.625" y2="354.625"/><polygon fill="#181818" points="230.5,364.625,220.5,368.625,230.5,372.625,226.5,368.625" style="stroke:#181818;stroke-width:1.0;"/><line style="stroke:#181818;stroke-width:1.0;" x1="224.5" x2="374.5" y1="368.625" y2="368.625"/><line style="stroke:#181818;stroke-width:1.0;" x1="177.5" x2="219.5" y1="443.1563" y2="443.1563"/><line style="stroke:#181818;stroke-width:1.0;" x1="177.5" x2="177.5" y1="443.1563" y2="456.1563"/><line style="stroke:#181818;stroke-width:1.0;" x1="177.5" x2="218.5" y1="456.1563" y2="456.1563"/><polygon fill="#181818" points="210.5,452.1563,220.5,456.1563,210.5,460.1563,214.5,456.1563" style="stroke:#181818;stroke-width:1.0;"/><text fill="#000000" font-family="sans-serif" font-size="13" lengthAdjust="spacing" textLength="90" x="119.5" y="392.6919">displayed tree</text><text fill="#000000" font-family="sans-serif" font-size="13" lengthAdjust="spacing" textLength="83" x="119.5" y="407.8247">items have a</text><text fill="#000000" font-family="sans-serif" font-size="13" lengthAdjust="spacing" textLength="96" x="119.5" y="422.9575">VisualElement-</text><text fill="#000000" font-family="sans-serif" font-size="13" lengthAdjust="spacing" textLength="100" x="119.5" y="438.0903">PluginExtension</text><polygon fill="#181818" points="50,481.2891,40,485.2891,50,489.2891,46,485.2891" style="stroke:#181818;stroke-width:1.0;"/><line style="stroke:#181818;stroke-width:1.0;" x1="44" x2="213.5" y1="485.2891" y2="485.2891"/><text fill="#000000" font-family="sans-serif" font-size="13" lengthAdjust="spacing" textLength="90" x="56" y="480.2231">tree displayed</text><path d="M10,507.2891 L270,507.2891 L270,514.4219 L260,524.4219 L10,524.4219 L10,507.2891 " fill="#EEEEEE" style="stroke:#000000;stroke-width:1.5;"/><rect fill="none" height="393.7266" style="stroke:#000000;stroke-width:1.5;" width="1205.5" x="10" y="507.2891"/><text fill="#000000" font-family="sans-serif" font-size="13" font-weight="bold" lengthAdjust="spacing" textLength="215" x="25" y="520.356">seq: Click on VisualExtension</text><polygon fill="#181818" points="197.5,556.6875,207.5,560.6875,197.5,564.6875,201.5,560.6875" style="stroke:#181818;stroke-width:1.0;"/><line style="stroke:#181818;stroke-width:1.0;" x1="39" x2="203.5" y1="560.6875" y2="560.6875"/><text fill="#000000" font-family="sans-serif" font-size="13" lengthAdjust="spacing" textLength="88" x="46" y="540.4888">Click gray box</text><text fill="#000000" font-family="sans-serif" font-size="13" lengthAdjust="spacing" textLength="41" x="46" y="555.6216">in tree</text><polygon fill="#181818" points="845.5,585.8203,855.5,589.8203,845.5,593.8203,849.5,589.8203" style="stroke:#181818;stroke-width:1.0;"/><line style="stroke:#181818;stroke-width:1.0;" x1="219.5" x2="851.5" y1="589.8203" y2="589.8203"/><text fill="#000000" font-family="sans-serif" font-size="13" lengthAdjust="spacing" textLength="217" x="226.5" y="584.7544">DisplayOrEditVisualAasxElement()</text><polygon fill="#181818" points="552.5,614.9531,542.5,618.9531,552.5,622.9531,548.5,618.9531" style="stroke:#181818;stroke-width:1.0;"/><line style="stroke:#181818;stroke-width:1.0;" x1="546.5" x2="856.5" y1="618.9531" y2="618.9531"/><text fill="#000000" font-family="sans-serif" font-size="13" lengthAdjust="spacing" textLength="276" x="558.5" y="613.8872">InvokeAction("fill-anyui-visualextension", ...)</text><polygon fill="#181818" points="651.5,644.0859,661.5,648.0859,651.5,652.0859,655.5,648.0859" style="stroke:#181818;stroke-width:1.0;"/><line style="stroke:#181818;stroke-width:1.0;" x1="541.5" x2="657.5" y1="648.0859" y2="648.0859"/><text fill="#000000" font-family="sans-serif" font-size="13" lengthAdjust="spacing" textLength="99" x="548.5" y="643.02">InvokeAction(..)</text><polygon fill="#181818" points="977.5,673.2188,987.5,677.2188,977.5,681.2188,981.5,677.2188" style="stroke:#181818;stroke-width:1.0;"/><line style="stroke:#181818;stroke-width:1.0;" x1="673.5" x2="983.5" y1="677.2188" y2="677.2188"/><text fill="#000000" font-family="sans-serif" font-size="13" lengthAdjust="spacing" textLength="42" x="680.5" y="672.1528">Start()</text><polygon fill="#181818" points="1121.5,717.4844,1131.5,721.4844,1121.5,725.4844,1125.5,721.4844" style="stroke:#181818;stroke-width:1.0;"/><line style="stroke:#181818;stroke-width:1.0;" x1="999.5" x2="1127.5" y1="721.4844" y2="721.4844"/><text fill="#000000" font-family="sans-serif" font-size="13" lengthAdjust="spacing" textLength="41" x="1006.5" y="701.2856">create</text><text fill="#000000" font-family="sans-serif" font-size="13" lengthAdjust="spacing" textLength="60" x="1006.5" y="716.4185">elements</text><polygon fill="#181818" points="1010.5,731.4844,1000.5,735.4844,1010.5,739.4844,1006.5,735.4844" style="stroke:#181818;stroke-width:1.0;"/><line style="stroke:#181818;stroke-width:1.0;" x1="1004.5" x2="1132.5" y1="735.4844" y2="735.4844"/><polygon fill="#181818" points="684.5,745.4844,674.5,749.4844,684.5,753.4844,680.5,749.4844" style="stroke:#181818;stroke-width:1.0;"/><line style="stroke:#181818;stroke-width:1.0;" x1="678.5" x2="988.5" y1="749.4844" y2="749.4844"/><polygon fill="#181818" points="552.5,759.4844,542.5,763.4844,552.5,767.4844,548.5,763.4844" style="stroke:#181818;stroke-width:1.0;"/><line style="stroke:#181818;stroke-width:1.0;" x1="546.5" x2="667.5" y1="763.4844" y2="763.4844"/><polygon fill="#181818" points="845.5,773.4844,855.5,777.4844,845.5,781.4844,849.5,777.4844" style="stroke:#181818;stroke-width:1.0;"/><line style="stroke:#181818;stroke-width:1.0;" x1="536.5" x2="851.5" y1="777.4844" y2="777.4844"/><line style="stroke:#181818;stroke-width:1.0;" x1="867.5" x2="909.5" y1="821.75" y2="821.75"/><line style="stroke:#181818;stroke-width:1.0;" x1="909.5" x2="909.5" y1="821.75" y2="834.75"/><line style="stroke:#181818;stroke-width:1.0;" x1="868.5" x2="909.5" y1="834.75" y2="834.75"/><polygon fill="#181818" points="878.5,830.75,868.5,834.75,878.5,838.75,874.5,834.75" style="stroke:#181818;stroke-width:1.0;"/><text fill="#000000" font-family="sans-serif" font-size="13" lengthAdjust="spacing" textLength="108" x="874.5" y="801.5513">render extension</text><text fill="#000000" font-family="sans-serif" font-size="13" lengthAdjust="spacing" textLength="63" x="874.5" y="816.6841">on screen</text><polygon fill="#181818" points="230.5,844.75,220.5,848.75,230.5,852.75,226.5,848.75" style="stroke:#181818;stroke-width:1.0;"/><line style="stroke:#181818;stroke-width:1.0;" x1="224.5" x2="861.5" y1="848.75" y2="848.75"/><polygon fill="#181818" points="50,889.0156,40,893.0156,50,897.0156,46,893.0156" style="stroke:#181818;stroke-width:1.0;"/><line style="stroke:#181818;stroke-width:1.0;" x1="44" x2="213.5" y1="893.0156" y2="893.0156"/><text fill="#000000" font-family="sans-serif" font-size="13" lengthAdjust="spacing" textLength="98" x="56" y="872.8169">panel for plugin</text><text fill="#000000" font-family="sans-serif" font-size="13" lengthAdjust="spacing" textLength="60" x="56" y="887.9497">displayed</text><path d="M10,915.0156 L402,915.0156 L402,922.1484 L392,932.1484 L10,932.1484 L10,915.0156 " fill="#EEEEEE" style="stroke:#000000;stroke-width:1.5;"/><rect fill="none" height="419.7266" style="stroke:#000000;stroke-width:1.5;" width="1267.5" x="10" y="915.0156"/><text fill="#000000" font-family="sans-serif" font-size="13" font-weight="bold" lengthAdjust="spacing" textLength="347" x="25" y="928.0825">seq: Click on element inside(!) VisualExtension</text><polygon fill="#181818" points="1126.5,949.2813,1136.5,953.2813,1126.5,957.2813,1130.5,953.2813" style="stroke:#181818;stroke-width:1.0;"/><line style="stroke:#181818;stroke-width:1.0;" x1="39" x2="1132.5" y1="953.2813" y2="953.2813"/><text fill="#000000" font-family="sans-serif" font-size="13" lengthAdjust="spacing" textLength="68" x="46" y="948.2153">click inside</text><line style="stroke:#181818;stroke-width:1.0;" x1="1148.5" x2="1190.5" y1="997.5469" y2="997.5469"/><line style="stroke:#181818;stroke-width:1.0;" x1="1190.5" x2="1190.5" y1="997.5469" y2="1010.5469"/><line style="stroke:#181818;stroke-width:1.0;" x1="1149.5" x2="1190.5" y1="1010.5469" y2="1010.5469"/><polygon fill="#181818" points="1159.5,1006.5469,1149.5,1010.5469,1159.5,1014.5469,1155.5,1010.5469" style="stroke:#181818;stroke-width:1.0;"/><text fill="#000000" font-family="sans-serif" font-size="13" lengthAdjust="spacing" textLength="107" x="1155.5" y="977.3481">AnyUiUIElement.</text><text fill="#000000" font-family="sans-serif" font-size="13" lengthAdjust="spacing" textLength="110" x="1155.5" y="992.481">SetValueLambda</text><polygon fill="#181818" points="230.5,1035.6797,220.5,1039.6797,230.5,1043.6797,226.5,1039.6797" style="stroke:#181818;stroke-width:1.0;"/><line style="stroke:#181818;stroke-width:1.0;" x1="224.5" x2="1137.5" y1="1039.6797" y2="1039.6797"/><text fill="#000000" font-family="sans-serif" font-size="13" lengthAdjust="spacing" textLength="428" x="236.5" y="1034.6138">WishForOutsideAction.Add(AnyUiLambdaActionPluginUpdateAnyUi)</text><polygon fill="#181818" points="1121.5,1049.6797,1131.5,1053.6797,1121.5,1057.6797,1125.5,1053.6797" style="stroke:#181818;stroke-width:1.0;"/><line style="stroke:#181818;stroke-width:1.0;" x1="214.5" x2="1127.5" y1="1053.6797" y2="1053.6797"/><polygon fill="#181818" points="197.5,1078.8125,207.5,1082.8125,197.5,1086.8125,201.5,1082.8125" style="stroke:#181818;stroke-width:1.0;"/><line style="stroke:#181818;stroke-width:1.0;" x1="90.5" x2="203.5" y1="1082.8125" y2="1082.8125"/><text fill="#000000" font-family="sans-serif" font-size="13" lengthAdjust="spacing" textLength="76" x="97.5" y="1077.7466">MainTimer()</text><line style="stroke:#181818;stroke-width:1.0;" x1="219.5" x2="266.5" y1="1122.0781" y2="1122.0781"/><line style="stroke:#181818;stroke-width:1.0;" x1="266.5" x2="266.5" y1="1122.0781" y2="1135.0781"/><line style="stroke:#181818;stroke-width:1.0;" x1="225.5" x2="266.5" y1="1135.0781" y2="1135.0781"/><polygon fill="#181818" points="235.5,1131.0781,225.5,1135.0781,235.5,1139.0781,231.5,1135.0781" style="stroke:#181818;stroke-width:1.0;"/><text fill="#000000" font-family="sans-serif" font-size="13" lengthAdjust="spacing" textLength="73" x="231.5" y="1101.8794">MainTimer_</text><text fill="#000000" font-family="sans-serif" font-size="13" lengthAdjust="spacing" textLength="137" x="231.5" y="1117.0122">HandleLambdaAction</text><polygon fill="#181818" points="519.5,1165.2109,529.5,1169.2109,519.5,1173.2109,523.5,1169.2109" style="stroke:#181818;stroke-width:1.0;"/><line style="stroke:#181818;stroke-width:1.0;" x1="224.5" x2="525.5" y1="1169.2109" y2="1169.2109"/><text fill="#000000" font-family="sans-serif" font-size="13" lengthAdjust="spacing" textLength="288" x="231.5" y="1164.145">InvokeAction("update-anyui-visualextension")</text><polygon fill="#181818" points="651.5,1194.3438,661.5,1198.3438,651.5,1202.3438,655.5,1198.3438" style="stroke:#181818;stroke-width:1.0;"/><line style="stroke:#181818;stroke-width:1.0;" x1="541.5" x2="657.5" y1="1198.3438" y2="1198.3438"/><text fill="#000000" font-family="sans-serif" font-size="13" lengthAdjust="spacing" textLength="63" x="548.5" y="1193.2778">Invoke(...)</text><polygon fill="#181818" points="982.5,1223.4766,992.5,1227.4766,982.5,1231.4766,986.5,1227.4766" style="stroke:#181818;stroke-width:1.0;"/><line style="stroke:#181818;stroke-width:1.0;" x1="673.5" x2="988.5" y1="1227.4766" y2="1227.4766"/><text fill="#000000" font-family="sans-serif" font-size="13" lengthAdjust="spacing" textLength="85" x="680.5" y="1222.4106">Update(args)</text><line style="stroke:#181818;stroke-width:1.0;" x1="1004.5" x2="1046.5" y1="1271.7422" y2="1271.7422"/><line style="stroke:#181818;stroke-width:1.0;" x1="1046.5" x2="1046.5" y1="1271.7422" y2="1284.7422"/><line style="stroke:#181818;stroke-width:1.0;" x1="1005.5" x2="1046.5" y1="1284.7422" y2="1284.7422"/><polygon fill="#181818" points="1015.5,1280.7422,1005.5,1284.7422,1015.5,1288.7422,1011.5,1284.7422" style="stroke:#181818;stroke-width:1.0;"/><text fill="#000000" font-family="sans-serif" font-size="13" lengthAdjust="spacing" textLength="92" x="1011.5" y="1251.5435">change values</text><text fill="#000000" font-family="sans-serif" font-size="13" lengthAdjust="spacing" textLength="75" x="1011.5" y="1266.6763">or structure</text><polygon fill="#181818" points="684.5,1294.7422,674.5,1298.7422,684.5,1302.7422,680.5,1298.7422" style="stroke:#181818;stroke-width:1.0;"/><line style="stroke:#181818;stroke-width:1.0;" x1="678.5" x2="988.5" y1="1298.7422" y2="1298.7422"/><polygon fill="#181818" points="552.5,1308.7422,542.5,1312.7422,552.5,1316.7422,548.5,1312.7422" style="stroke:#181818;stroke-width:1.0;"/><line style="stroke:#181818;stroke-width:1.0;" x1="546.5" x2="667.5" y1="1312.7422" y2="1312.7422"/><polygon fill="#181818" points="225.5,1322.7422,215.5,1326.7422,225.5,1330.7422,221.5,1326.7422" style="stroke:#181818;stroke-width:1.0;"/><line style="stroke:#181818;stroke-width:1.0;" x1="219.5" x2="535.5" y1="1326.7422" y2="1326.7422"/><path d="M10,1348.7422 L426,1348.7422 L426,1355.875 L416,1365.875 L10,1365.875 L10,1348.7422 " fill="#EEEEEE" style="stroke:#000000;stroke-width:1.5;"/><rect fill="none" height="340.3281" style="stroke:#000000;stroke-width:1.5;" width="1205.5" x="10" y="1348.7422"/><text fill="#000000" font-family="sans-serif" font-size="13" font-weight="bold" lengthAdjust="spacing" textLength="371" x="25" y="1361.8091">seq: Click on something else than VisualExtension</text><polygon fill="#181818" points="197.5,1398.1406,207.5,1402.1406,197.5,1406.1406,201.5,1402.1406" style="stroke:#181818;stroke-width:1.0;"/><line style="stroke:#181818;stroke-width:1.0;" x1="39" x2="203.5" y1="1402.1406" y2="1402.1406"/><text fill="#000000" font-family="sans-serif" font-size="13" lengthAdjust="spacing" textLength="67" x="46" y="1381.9419">click some</text><text fill="#000000" font-family="sans-serif" font-size="13" lengthAdjust="spacing" textLength="129" x="46" y="1397.0747">other VisualElement</text><polygon fill="#181818" points="845.5,1427.2734,855.5,1431.2734,845.5,1435.2734,849.5,1431.2734" style="stroke:#181818;stroke-width:1.0;"/><line style="stroke:#181818;stroke-width:1.0;" x1="219.5" x2="851.5" y1="1431.2734" y2="1431.2734"/><text fill="#000000" font-family="sans-serif" font-size="13" lengthAdjust="spacing" textLength="217" x="226.5" y="1426.2075">DisplayOrEditVisualAasxElement()</text><polygon fill="#181818" points="552.5,1466.9727,542.5,1470.9727,552.5,1474.9727,548.5,1470.9727" style="stroke:#181818;stroke-width:1.0;"/><line style="stroke:#181818;stroke-width:1.0;" x1="546.5" x2="856.5" y1="1470.9727" y2="1470.9727"/><text fill="#000000" font-family="sans-serif" font-size="13" lengthAdjust="spacing" textLength="297" x="558.5" y="1465.9067">InvokeAction("dispose-anyui-visual-extension")</text><path d="M872,1444.2734 L872,1484.2734 L1099,1484.2734 L1099,1454.2734 L1089,1444.2734 L872,1444.2734 " fill="#FFAAAA" style="stroke:#181818;stroke-width:0.5;"/><path d="M1089,1444.2734 L1089,1454.2734 L1099,1454.2734 L1089,1444.2734 " fill="#FFAAAA" style="stroke:#181818;stroke-width:0.5;"/><text fill="#000000" font-family="sans-serif" font-size="13" lengthAdjust="spacing" textLength="202" x="878" y="1461.3403">TODO : PackageExplorer seems</text><text fill="#000000" font-family="sans-serif" font-size="13" lengthAdjust="spacing" textLength="149" x="878" y="1476.4731">NOT to implement this!</text><polygon fill="#181818" points="651.5,1506.6719,661.5,1510.6719,651.5,1514.6719,655.5,1510.6719" style="stroke:#181818;stroke-width:1.0;"/><line style="stroke:#181818;stroke-width:1.0;" x1="541.5" x2="657.5" y1="1510.6719" y2="1510.6719"/><text fill="#000000" font-family="sans-serif" font-size="13" lengthAdjust="spacing" textLength="103" x="548.5" y="1505.606">InvokeAction(...)</text><line style="stroke:#181818;stroke-width:1.0;" x1="673.5" x2="715.5" y1="1539.8047" y2="1539.8047"/><line style="stroke:#181818;stroke-width:1.0;" x1="715.5" x2="715.5" y1="1539.8047" y2="1552.8047"/><line style="stroke:#181818;stroke-width:1.0;" x1="674.5" x2="715.5" y1="1552.8047" y2="1552.8047"/><polygon fill="#181818" points="684.5,1548.8047,674.5,1552.8047,684.5,1556.8047,680.5,1552.8047" style="stroke:#181818;stroke-width:1.0;"/><text fill="#000000" font-family="sans-serif" font-size="13" lengthAdjust="spacing" textLength="59" x="680.5" y="1534.7388">dispose()</text><polygon fill="#181818" points="1121.5,1577.9375,1131.5,1581.9375,1121.5,1585.9375,1125.5,1581.9375" style="stroke:#181818;stroke-width:1.0;"/><line style="stroke:#181818;stroke-width:1.0;" x1="673.5" x2="1127.5" y1="1581.9375" y2="1581.9375"/><text fill="#000000" font-family="sans-serif" font-size="13" lengthAdjust="spacing" textLength="59" x="680.5" y="1576.8716">dispose()</text><polygon fill="#181818" points="684.5,1591.9375,674.5,1595.9375,684.5,1599.9375,680.5,1595.9375" style="stroke:#181818;stroke-width:1.0;"/><line style="stroke:#181818;stroke-width:1.0;" x1="678.5" x2="1137.5" y1="1595.9375" y2="1595.9375"/><polygon fill="#181818" points="977.5,1621.0703,987.5,1625.0703,977.5,1629.0703,981.5,1625.0703" style="stroke:#181818;stroke-width:1.0;"/><line style="stroke:#181818;stroke-width:1.0;" x1="673.5" x2="983.5" y1="1625.0703" y2="1625.0703"/><text fill="#000000" font-family="sans-serif" font-size="13" lengthAdjust="spacing" textLength="59" x="680.5" y="1620.0044">dispose()</text><polygon fill="#181818" points="684.5,1635.0703,674.5,1639.0703,684.5,1643.0703,680.5,1639.0703" style="stroke:#181818;stroke-width:1.0;"/><line style="stroke:#181818;stroke-width:1.0;" x1="678.5" x2="993.5" y1="1639.0703" y2="1639.0703"/><polygon fill="#181818" points="552.5,1649.0703,542.5,1653.0703,552.5,1657.0703,548.5,1653.0703" style="stroke:#181818;stroke-width:1.0;"/><line style="stroke:#181818;stroke-width:1.0;" x1="546.5" x2="667.5" y1="1653.0703" y2="1653.0703"/><polygon fill="#181818" points="845.5,1663.0703,855.5,1667.0703,845.5,1671.0703,849.5,1667.0703" style="stroke:#181818;stroke-width:1.0;"/><line style="stroke:#181818;stroke-width:1.0;" x1="536.5" x2="851.5" y1="1667.0703" y2="1667.0703"/><polygon fill="#181818" points="225.5,1677.0703,215.5,1681.0703,225.5,1685.0703,221.5,1681.0703" style="stroke:#181818;stroke-width:1.0;"/><line style="stroke:#181818;stroke-width:1.0;" x1="219.5" x2="861.5" y1="1681.0703" y2="1681.0703"/><!--SRC=[jLTDRzim3BtxLt3P9G6Mx5uC0u9-R0EsfK3RTGS3WsOpYL1RzYGvI_xzQCjs95jgWXOhUgX5yL4YtwDObkX2meD26IM5qBB8u9xdz5KogNd2IoOqJBunBXwvI8k_YqHDW2auhhWxVt1LiMp9r3uMrndcABJgV8wspkBwtcRLXej-U_lfxgczZU4J2fGyYSLD8NErC8kTxwURilbsdQ-uAgzJhjlZ2StrOR5dUTQvsHkCEHGzxk8tqMEnM2oMul30BqqIEq1xRG1LMnxBzVlFkeaV2xghPY91o_DECnb56rbK9IZySm6t4Wc5QLu8ADQW9M8KGLC_c7-qgW8NyBLWQIoMoxkVj8Cbck-OHhjmj0os2m6CIqH0B4rRGxSOYxKiSb1Rp390iMkG-X0U41CBV2QAsbQQGdqHk-89bqbzmMai9WdBidconUHf7ejTuunxZKAHVV8EAEkp5hcFtj6cNOSUdG9rj1X6id0if9v4lGcE24CqhgUpSSmFyoDAPqin6C6J7aBeRZHoTwvg5P9yF5eRE7jsH4CKXqyfYIDZ1qmRsX5VDUOAjco7m6BX48IAPSvstHMhP-aGjSOwGaVE4MskeaWT9LncF7a2aa4RU1HeA0VZi97i0B-BVIqt8v-WDbnbZ5i3OLwPSwzaRHabT3gpmJq0fd0UWwM98LKdQqwIOE9GyVapWXXn1AAW6aPY66bgh0HR1tQJe-FMJSlSVO3YD4DBKuv_XrUZ45WYaLnZWJQBVRZD_X0eaSxgfwCxTER1sS8Y3ahOKyk1W4FozRF0opf9MY22ztMF1Sb0KQPGZ2NiUTASGtZi8QdImuKPh6bUADity3MwRIiAb06UulJDx3abEvHe48nRvAT11DRNmBtv- -5Bgz55BEvG_s1PXLzP_ZjbfXgEjvE4HwwszEQlAbt7Dv9PBDDqshWO3BDgoljGfdIunZXGffKbDwIJzo5f78krxeY0VfifRdJw-gEnkBt90VMC1NwCNx7up4IQeNthu1rRwRZ0WPT_KZLP2xIvrptvBtpixGPn0QQgKoOtQXPiIPvM5sXsn-QPR9dO8EngGjAOHLfJMbQ9hYHwJpPiNSSjGswCJlF26SLjBoTd4sDuXiLHcDxXvg6A7FMMYmsr4OMWAMjd3mAcVzG8b5-zfHtEx7B-iFpIaU2SeU3KM30KJDs92-KgPdw-P2WH299ljXhUtjmiwQUdmltgQaNXRbdon3PulI-pGbBE5DRJNx_h- -eUT04yBzksJjLHRrepbR69y5zcyi14tYR47if7ScvVXEFMeBoQmI6ahC1KCHRt6O6wpT496SEhTNnwL3dtVmtlY75Yo6XVAQ_oePqQ_W40]--></g></svg>