<?xml version="1.0" encoding="UTF-8" standalone="no"?><svg xmlns="http://www.w3.org/2000/svg" xmlns:xlink="http://www.w3.org/1999/xlink" contentStyleType="text/css" height="1721px" preserveAspectRatio="none" style="width:3482px;height:1721px;background:#FFFFFF;" version="1.1" viewBox="0 0 3482 1721" width="3482px" zoomAndPan="magnify"><defs/><g><!--cluster AasxPackageLogic--><g id="cluster_AasxPackageLogic"><path d="M8.5,349 L155.5,349 A3.75,3.75 0 0 1 158,351.5 L165,371.2969 L975.5,371.2969 A2.5,2.5 0 0 1 978,373.7969 L978,739 A2.5,2.5 0 0 1 975.5,741.5 L8.5,741.5 A2.5,2.5 0 0 1 6,739 L6,351.5 A2.5,2.5 0 0 1 8.5,349 " fill="none" style="stroke:#000000;stroke-width:1.5;"/><line style="stroke:#000000;stroke-width:1.5;" x1="6" x2="165" y1="371.2969" y2="371.2969"/><text fill="#000000" font-family="sans-serif" font-size="14" font-weight="bold" lengthAdjust="spacing" textLength="146" x="10" y="363.9951">AasxPackageLogic</text></g><!--cluster AasxPackageExplorer--><g id="cluster_AasxPackageExplorer"><path d="M1004.5,6 L1175.5,6 A3.75,3.75 0 0 1 1178,8.5 L1185,28.2969 L3389.5,28.2969 A2.5,2.5 0 0 1 3392,30.7969 L3392,1711.5 A2.5,2.5 0 0 1 3389.5,1714 L1004.5,1714 A2.5,2.5 0 0 1 1002,1711.5 L1002,8.5 A2.5,2.5 0 0 1 1004.5,6 " fill="none" style="stroke:#000000;stroke-width:1.5;"/><line style="stroke:#000000;stroke-width:1.5;" x1="1002" x2="1185" y1="28.2969" y2="28.2969"/><text fill="#000000" font-family="sans-serif" font-size="14" font-weight="bold" lengthAdjust="spacing" textLength="170" x="1006" y="20.9951">AasxPackageExplorer</text></g><!--cluster AnyUiHtml--><g id="cluster_AnyUiHtml"><path d="M1936.5,985.5 L2017.5,985.5 A3.75,3.75 0 0 1 2020,988 L2027,1007.7969 L2384.5,1007.7969 A2.5,2.5 0 0 1 2387,1010.2969 L2387,1082 A2.5,2.5 0 0 1 2384.5,1084.5 L1936.5,1084.5 A2.5,2.5 0 0 1 1934,1082 L1934,988 A2.5,2.5 0 0 1 1936.5,985.5 " fill="none" style="stroke:#000000;stroke-width:1.5;"/><line style="stroke:#000000;stroke-width:1.5;" x1="1934" x2="2027" y1="1007.7969" y2="1007.7969"/><text fill="#000000" font-family="sans-serif" font-size="14" font-weight="bold" lengthAdjust="spacing" textLength="80" x="1938" y="1000.4951">AnyUiHtml</text></g><!--cluster wwwroot--><g id="cluster_wwwroot"><path d="M2246.5,1427 L2322.5,1427 A3.75,3.75 0 0 1 2325,1429.5 L2332,1449.2969 L3029.5,1449.2969 A2.5,2.5 0 0 1 3032,1451.7969 L3032,1679.5 A2.5,2.5 0 0 1 3029.5,1682 L2246.5,1682 A2.5,2.5 0 0 1 2244,1679.5 L2244,1429.5 A2.5,2.5 0 0 1 2246.5,1427 " fill="none" style="stroke:#000000;stroke-width:1.5;"/><line style="stroke:#000000;stroke-width:1.5;" x1="2244" x2="2332" y1="1449.2969" y2="1449.2969"/><text fill="#000000" font-family="sans-serif" font-size="14" font-weight="bold" lengthAdjust="spacing" textLength="75" x="2248" y="1441.9951">wwwroot</text></g><!--class MainWindowLogic--><g id="elem_MainWindowLogic"><rect codeLine="4" fill="#F1F1F1" height="64.2969" id="MainWindowLogic" rx="2.5" ry="2.5" style="stroke:#181818;stroke-width:0.5;" width="154" x="22" y="384"/><ellipse cx="37" cy="400" fill="#ADD1B2" rx="11" ry="11" style="stroke:#181818;stroke-width:1.0;"/><path d="M39.9688,405.6406 Q39.3906,405.9375 38.75,406.0781 Q38.1094,406.2344 37.4063,406.2344 Q34.9063,406.2344 33.5781,404.5938 Q32.2656,402.9375 32.2656,399.8125 Q32.2656,396.6875 33.5781,395.0313 Q34.9063,393.375 37.4063,393.375 Q38.1094,393.375 38.75,393.5313 Q39.4063,393.6875 39.9688,393.9844 L39.9688,396.7031 Q39.3438,396.125 38.75,395.8594 Q38.1563,395.5781 37.5313,395.5781 Q36.1875,395.5781 35.5,396.6563 Q34.8125,397.7188 34.8125,399.8125 Q34.8125,401.9063 35.5,402.9844 Q36.1875,404.0469 37.5313,404.0469 Q38.1563,404.0469 38.75,403.7813 Q39.3438,403.5 39.9688,402.9219 L39.9688,405.6406 Z " fill="#000000"/><text fill="#000000" font-family="sans-serif" font-size="14" lengthAdjust="spacing" textLength="122" x="51" y="404.8467">MainWindowLogic</text><line style="stroke:#181818;stroke-width:0.5;" x1="23" x2="175" y1="416" y2="416"/><text fill="#000000" font-family="sans-serif" font-size="14" lengthAdjust="spacing" textLength="108" x="28" y="432.9951">PackageCentral</text><line style="stroke:#181818;stroke-width:0.5;" x1="23" x2="175" y1="440.2969" y2="440.2969"/></g><g id="elem_GMN4"><path d="M211.5,388.5 L211.5,412 L176.34,416 L211.5,420 L211.5,443.8984 A0,0 0 0 0 211.5,443.8984 L382.5,443.8984 A0,0 0 0 0 382.5,443.8984 L382.5,398.5 L372.5,388.5 L211.5,388.5 A0,0 0 0 0 211.5,388.5 " fill="#FEFFDD" style="stroke:#181818;stroke-width:0.5;"/><path d="M372.5,388.5 L372.5,398.5 L382.5,398.5 L372.5,388.5 " fill="#FEFFDD" style="stroke:#181818;stroke-width:0.5;"/><text fill="#000000" font-family="sans-serif" font-size="13" lengthAdjust="spacing" textLength="146" x="217.5" y="405.5669">Base class for abstract</text><text fill="#000000" font-family="sans-serif" font-size="13" lengthAdjust="spacing" textLength="137" x="217.5" y="420.6997">(non-UI) main window</text><text fill="#000000" font-family="sans-serif" font-size="13" lengthAdjust="spacing" textLength="58" x="217.5" y="435.8325">handling.</text></g><!--class MainWindowTools--><g id="elem_MainWindowTools"><rect codeLine="13" fill="#F1F1F1" height="48" id="MainWindowTools" rx="2.5" ry="2.5" style="stroke:#181818;stroke-width:0.5;" width="156" x="40" y="529"/><ellipse cx="55" cy="545" fill="#ADD1B2" rx="11" ry="11" style="stroke:#181818;stroke-width:1.0;"/><path d="M57.9688,550.6406 Q57.3906,550.9375 56.75,551.0781 Q56.1094,551.2344 55.4063,551.2344 Q52.9063,551.2344 51.5781,549.5938 Q50.2656,547.9375 50.2656,544.8125 Q50.2656,541.6875 51.5781,540.0313 Q52.9063,538.375 55.4063,538.375 Q56.1094,538.375 56.75,538.5313 Q57.4063,538.6875 57.9688,538.9844 L57.9688,541.7031 Q57.3438,541.125 56.75,540.8594 Q56.1563,540.5781 55.5313,540.5781 Q54.1875,540.5781 53.5,541.6563 Q52.8125,542.7188 52.8125,544.8125 Q52.8125,546.9063 53.5,547.9844 Q54.1875,549.0469 55.5313,549.0469 Q56.1563,549.0469 56.75,548.7813 Q57.3438,548.5 57.9688,547.9219 L57.9688,550.6406 Z " fill="#000000"/><text fill="#000000" font-family="sans-serif" font-size="14" lengthAdjust="spacing" textLength="124" x="69" y="549.8467">MainWindowTools</text><line style="stroke:#181818;stroke-width:0.5;" x1="41" x2="195" y1="561" y2="561"/><line style="stroke:#181818;stroke-width:0.5;" x1="41" x2="195" y1="569" y2="569"/></g><g id="elem_GMN8"><path d="M231.5,525.5 L231.5,549 L196.12,553 L231.5,557 L231.5,580.8984 A0,0 0 0 0 231.5,580.8984 L406.5,580.8984 A0,0 0 0 0 406.5,580.8984 L406.5,535.5 L396.5,525.5 L231.5,525.5 A0,0 0 0 0 231.5,525.5 " fill="#FEFFDD" style="stroke:#181818;stroke-width:0.5;"/><path d="M396.5,525.5 L396.5,535.5 L406.5,535.5 L396.5,525.5 " fill="#FEFFDD" style="stroke:#181818;stroke-width:0.5;"/><text fill="#000000" font-family="sans-serif" font-size="13" lengthAdjust="spacing" textLength="139" x="237.5" y="542.5669">Some tools (Andreas,</text><text fill="#000000" font-family="sans-serif" font-size="13" lengthAdjust="spacing" textLength="109" x="237.5" y="557.6997">security) used by</text><text fill="#000000" font-family="sans-serif" font-size="13" lengthAdjust="spacing" textLength="154" x="237.5" y="572.8325">multiple menu functions</text></g><!--class MainWindowDispatch--><g id="elem_MainWindowDispatch"><rect codeLine="22" fill="#F1F1F1" height="64.2969" id="MainWindowDispatch" rx="2.5" ry="2.5" style="stroke:#181818;stroke-width:0.5;" width="281" x="335.5" y="661.5"/><ellipse cx="398.25" cy="677.5" fill="#ADD1B2" rx="11" ry="11" style="stroke:#181818;stroke-width:1.0;"/><path d="M401.2188,683.1406 Q400.6406,683.4375 400,683.5781 Q399.3594,683.7344 398.6563,683.7344 Q396.1563,683.7344 394.8281,682.0938 Q393.5156,680.4375 393.5156,677.3125 Q393.5156,674.1875 394.8281,672.5313 Q396.1563,670.875 398.6563,670.875 Q399.3594,670.875 400,671.0313 Q400.6563,671.1875 401.2188,671.4844 L401.2188,674.2031 Q400.5938,673.625 400,673.3594 Q399.4063,673.0781 398.7813,673.0781 Q397.4375,673.0781 396.75,674.1563 Q396.0625,675.2188 396.0625,677.3125 Q396.0625,679.4063 396.75,680.4844 Q397.4375,681.5469 398.7813,681.5469 Q399.4063,681.5469 400,681.2813 Q400.5938,681 401.2188,680.4219 L401.2188,683.1406 Z " fill="#000000"/><text fill="#000000" font-family="sans-serif" font-size="14" lengthAdjust="spacing" textLength="147" x="418.75" y="682.3467">MainWindowDispatch</text><line style="stroke:#181818;stroke-width:0.5;" x1="336.5" x2="615.5" y1="693.5" y2="693.5"/><line style="stroke:#181818;stroke-width:0.5;" x1="336.5" x2="615.5" y1="701.5" y2="701.5"/><ellipse cx="346.5" cy="715.1484" fill="#84BE84" rx="3" ry="3" style="stroke:#038048;stroke-width:1.0;"/><text fill="#000000" font-family="sans-serif" font-size="14" lengthAdjust="spacing" textLength="255" x="355.5" y="718.4951">CommandBinding_GeneralDispatch()</text></g><g id="elem_GMN13"><path d="M652,666 L652,689.5 L616.75,693.5 L652,697.5 L652,721.3984 A0,0 0 0 0 652,721.3984 L912,721.3984 A0,0 0 0 0 912,721.3984 L912,676 L902,666 L652,666 A0,0 0 0 0 652,666 " fill="#FEFFDD" style="stroke:#181818;stroke-width:0.5;"/><path d="M902,666 L902,676 L912,676 L902,666 " fill="#FEFFDD" style="stroke:#181818;stroke-width:0.5;"/><text fill="#000000" font-family="sans-serif" font-size="13" lengthAdjust="spacing" textLength="139" x="658" y="683.0669">Abstract menu items.</text><text fill="#000000" font-family="sans-serif" font-size="13" lengthAdjust="spacing" textLength="165" x="658" y="698.1997">Inner core of menu items.</text><text fill="#000000" font-family="sans-serif" font-size="13" lengthAdjust="spacing" textLength="239" x="658" y="713.3325">Will be wrapped in WPF, HTML, Toolkit.</text></g><!--class IMainWindow--><g id="elem_IMainWindow"><rect codeLine="35" fill="#F1F1F1" height="64.2969" id="IMainWindow" rx="2.5" ry="2.5" style="stroke:#181818;stroke-width:0.5;" width="187" x="417.5" y="384"/><ellipse cx="462.25" cy="400" fill="#ADD1B2" rx="11" ry="11" style="stroke:#181818;stroke-width:1.0;"/><path d="M465.2188,405.6406 Q464.6406,405.9375 464,406.0781 Q463.3594,406.2344 462.6563,406.2344 Q460.1563,406.2344 458.8281,404.5938 Q457.5156,402.9375 457.5156,399.8125 Q457.5156,396.6875 458.8281,395.0313 Q460.1563,393.375 462.6563,393.375 Q463.3594,393.375 464,393.5313 Q464.6563,393.6875 465.2188,393.9844 L465.2188,396.7031 Q464.5938,396.125 464,395.8594 Q463.4063,395.5781 462.7813,395.5781 Q461.4375,395.5781 460.75,396.6563 Q460.0625,397.7188 460.0625,399.8125 Q460.0625,401.9063 460.75,402.9844 Q461.4375,404.0469 462.7813,404.0469 Q463.4063,404.0469 464,403.7813 Q464.5938,403.5 465.2188,402.9219 L465.2188,405.6406 Z " fill="#000000"/><text fill="#000000" font-family="sans-serif" font-size="14" lengthAdjust="spacing" textLength="89" x="482.75" y="404.8467">IMainWindow</text><line style="stroke:#181818;stroke-width:0.5;" x1="418.5" x2="603.5" y1="416" y2="416"/><line style="stroke:#181818;stroke-width:0.5;" x1="418.5" x2="603.5" y1="424" y2="424"/><text fill="#000000" font-family="sans-serif" font-size="14" lengthAdjust="spacing" textLength="175" x="423.5" y="440.9951">UiLoadPackageWithNew()</text></g><g id="elem_GMN19"><path d="M640,388.5 L640,412 L604.74,416 L640,420 L640,443.8984 A0,0 0 0 0 640,443.8984 L962,443.8984 A0,0 0 0 0 962,443.8984 L962,398.5 L952,388.5 L640,388.5 A0,0 0 0 0 640,388.5 " fill="#FEFFDD" style="stroke:#181818;stroke-width:0.5;"/><path d="M952,388.5 L952,398.5 L962,398.5 L952,388.5 " fill="#FEFFDD" style="stroke:#181818;stroke-width:0.5;"/><text fill="#000000" font-family="sans-serif" font-size="13" lengthAdjust="spacing" textLength="297" x="646" y="405.5669">An main window needs implement this to allow</text><text fill="#000000" font-family="sans-serif" font-size="13" lengthAdjust="spacing" textLength="256" x="646" y="420.6997">business logic to trigger important state</text><text fill="#000000" font-family="sans-serif" font-size="13" lengthAdjust="spacing" textLength="257" x="646" y="435.8325">changes visible to the user, e.g. loading.</text></g><!--class Program--><g id="elem_Program"><rect codeLine="48" fill="#F1F1F1" height="129.4844" id="Program" rx="2.5" ry="2.5" style="stroke:#181818;stroke-width:0.5;" width="180" x="1819" y="157"/><ellipse cx="1875.75" cy="173" fill="#ADD1B2" rx="11" ry="11" style="stroke:#181818;stroke-width:1.0;"/><path d="M1878.7188,178.6406 Q1878.1406,178.9375 1877.5,179.0781 Q1876.8594,179.2344 1876.1563,179.2344 Q1873.6563,179.2344 1872.3281,177.5938 Q1871.0156,175.9375 1871.0156,172.8125 Q1871.0156,169.6875 1872.3281,168.0313 Q1873.6563,166.375 1876.1563,166.375 Q1876.8594,166.375 1877.5,166.5313 Q1878.1563,166.6875 1878.7188,166.9844 L1878.7188,169.7031 Q1878.0938,169.125 1877.5,168.8594 Q1876.9063,168.5781 1876.2813,168.5781 Q1874.9375,168.5781 1874.25,169.6563 Q1873.5625,170.7188 1873.5625,172.8125 Q1873.5625,174.9063 1874.25,175.9844 Q1874.9375,177.0469 1876.2813,177.0469 Q1876.9063,177.0469 1877.5,176.7813 Q1878.0938,176.5 1878.7188,175.9219 L1878.7188,178.6406 Z " fill="#000000"/><text fill="#000000" font-family="sans-serif" font-size="14" lengthAdjust="spacing" textLength="58" x="1896.25" y="177.8467">Program</text><line style="stroke:#181818;stroke-width:0.5;" x1="1820" x2="1998" y1="189" y2="189"/><ellipse cx="1830" cy="202.6484" fill="none" rx="3" ry="3" style="stroke:#038048;stroke-width:1.0;"/><text fill="#000000" font-family="sans-serif" font-size="14" lengthAdjust="spacing" textLength="54" x="1839" y="205.9951">Options</text><ellipse cx="1830" cy="218.9453" fill="none" rx="3" ry="3" style="stroke:#038048;stroke-width:1.0;"/><text fill="#000000" font-family="sans-serif" font-size="14" lengthAdjust="spacing" textLength="35" x="1839" y="222.292">Prefs</text><line style="stroke:#181818;stroke-width:0.5;" x1="1820" x2="1998" y1="229.5938" y2="229.5938"/><text fill="#000000" font-family="sans-serif" font-size="14" lengthAdjust="spacing" textLength="145" x="1825" y="246.5889">void SignalNewData()</text><text fill="#000000" font-family="sans-serif" font-size="14" lengthAdjust="spacing" textLength="74" x="1825" y="262.8857">void Main()</text><text fill="#000000" font-family="sans-serif" font-size="14" lengthAdjust="spacing" textLength="168" x="1825" y="279.1826">void CreateHostBuilder()</text></g><g id="elem_GMN24"><path d="M1801,41 L1801,96.3984 A0,0 0 0 0 1801,96.3984 L1905,96.3984 L1909,156.79 L1913,96.3984 L2017,96.3984 A0,0 0 0 0 2017,96.3984 L2017,51 L2007,41 L1801,41 A0,0 0 0 0 1801,41 " fill="#FEFFDD" style="stroke:#181818;stroke-width:0.5;"/><path d="M2007,41 L2007,51 L2017,51 L2007,41 " fill="#FEFFDD" style="stroke:#181818;stroke-width:0.5;"/><text fill="#000000" font-family="sans-serif" font-size="13" lengthAdjust="spacing" textLength="64" x="1807" y="58.0669">Singleton.</text><text fill="#000000" font-family="sans-serif" font-size="13" lengthAdjust="spacing" textLength="93" x="1807" y="73.1997">Program start.</text><text fill="#000000" font-family="sans-serif" font-size="13" lengthAdjust="spacing" textLength="195" x="1807" y="88.3325">Dispatching events to session.</text></g><!--class Startup--><g id="elem_Startup"><rect codeLine="62" fill="#F1F1F1" height="48" id="Startup" rx="2.5" ry="2.5" style="stroke:#181818;stroke-width:0.5;" width="82" x="2093" y="392"/><ellipse cx="2108" cy="408" fill="#ADD1B2" rx="11" ry="11" style="stroke:#181818;stroke-width:1.0;"/><path d="M2110.9688,413.6406 Q2110.3906,413.9375 2109.75,414.0781 Q2109.1094,414.2344 2108.4063,414.2344 Q2105.9063,414.2344 2104.5781,412.5938 Q2103.2656,410.9375 2103.2656,407.8125 Q2103.2656,404.6875 2104.5781,403.0313 Q2105.9063,401.375 2108.4063,401.375 Q2109.1094,401.375 2109.75,401.5313 Q2110.4063,401.6875 2110.9688,401.9844 L2110.9688,404.7031 Q2110.3438,404.125 2109.75,403.8594 Q2109.1563,403.5781 2108.5313,403.5781 Q2107.1875,403.5781 2106.5,404.6563 Q2105.8125,405.7188 2105.8125,407.8125 Q2105.8125,409.9063 2106.5,410.9844 Q2107.1875,412.0469 2108.5313,412.0469 Q2109.1563,412.0469 2109.75,411.7813 Q2110.3438,411.5 2110.9688,410.9219 L2110.9688,413.6406 Z " fill="#000000"/><text fill="#000000" font-family="sans-serif" font-size="14" lengthAdjust="spacing" textLength="50" x="2122" y="412.8467">Startup</text><line style="stroke:#181818;stroke-width:0.5;" x1="2094" x2="2174" y1="424" y2="424"/><line style="stroke:#181818;stroke-width:0.5;" x1="2094" x2="2174" y1="432" y2="432"/></g><g id="elem_GMN28"><path d="M2070,209 L2070,234.1328 A0,0 0 0 0 2070,234.1328 L2130,234.1328 L2134,391.99 L2138,234.1328 L2198,234.1328 A0,0 0 0 0 2198,234.1328 L2198,219 L2188,209 L2070,209 A0,0 0 0 0 2070,209 " fill="#FEFFDD" style="stroke:#181818;stroke-width:0.5;"/><path d="M2188,209 L2188,219 L2198,219 L2188,209 " fill="#FEFFDD" style="stroke:#181818;stroke-width:0.5;"/><text fill="#000000" font-family="sans-serif" font-size="13" lengthAdjust="spacing" textLength="107" x="2076" y="226.0669">Boiler plate code</text></g><!--class AppRazor--><g id="elem_AppRazor"><rect codeLine="67" fill="#F1F1F1" height="56.2656" id="AppRazor" rx="2.5" ry="2.5" style="stroke:#181818;stroke-width:0.5;" width="98" x="2122" y="525"/><ellipse cx="2137" cy="545.1328" fill="#ADD1B2" rx="11" ry="11" style="stroke:#181818;stroke-width:1.0;"/><path d="M2139.9688,550.7734 Q2139.3906,551.0703 2138.75,551.2109 Q2138.1094,551.3672 2137.4063,551.3672 Q2134.9063,551.3672 2133.5781,549.7266 Q2132.2656,548.0703 2132.2656,544.9453 Q2132.2656,541.8203 2133.5781,540.1641 Q2134.9063,538.5078 2137.4063,538.5078 Q2138.1094,538.5078 2138.75,538.6641 Q2139.4063,538.8203 2139.9688,539.1172 L2139.9688,541.8359 Q2139.3438,541.2578 2138.75,540.9922 Q2138.1563,540.7109 2137.5313,540.7109 Q2136.1875,540.7109 2135.5,541.7891 Q2134.8125,542.8516 2134.8125,544.9453 Q2134.8125,547.0391 2135.5,548.1172 Q2136.1875,549.1797 2137.5313,549.1797 Q2138.1563,549.1797 2138.75,548.9141 Q2139.3438,548.6328 2139.9688,548.0547 L2139.9688,550.7734 Z " fill="#000000"/><text fill="#000000" font-family="sans-serif" font-size="12" font-style="italic" lengthAdjust="spacing" textLength="55" x="2156.5" y="541.1387">«Razor*»</text><text fill="#000000" font-family="sans-serif" font-size="14" lengthAdjust="spacing" textLength="66" x="2151" y="556.9639">App.razor</text><line style="stroke:#181818;stroke-width:0.5;" x1="2123" x2="2219" y1="565.2656" y2="565.2656"/><line style="stroke:#181818;stroke-width:0.5;" x1="2123" x2="2219" y1="573.2656" y2="573.2656"/></g><!--class BlazorSession--><g id="elem_BlazorSession"><rect codeLine="69" fill="#F1F1F1" height="210.9688" id="BlazorSession" rx="2.5" ry="2.5" style="stroke:#181818;stroke-width:0.5;" width="287" x="1422.5" y="939"/><ellipse cx="1512.75" cy="955" fill="#ADD1B2" rx="11" ry="11" style="stroke:#181818;stroke-width:1.0;"/><path d="M1515.7188,960.6406 Q1515.1406,960.9375 1514.5,961.0781 Q1513.8594,961.2344 1513.1563,961.2344 Q1510.6563,961.2344 1509.3281,959.5938 Q1508.0156,957.9375 1508.0156,954.8125 Q1508.0156,951.6875 1509.3281,950.0313 Q1510.6563,948.375 1513.1563,948.375 Q1513.8594,948.375 1514.5,948.5313 Q1515.1563,948.6875 1515.7188,948.9844 L1515.7188,951.7031 Q1515.0938,951.125 1514.5,950.8594 Q1513.9063,950.5781 1513.2813,950.5781 Q1511.9375,950.5781 1511.25,951.6563 Q1510.5625,952.7188 1510.5625,954.8125 Q1510.5625,956.9063 1511.25,957.9844 Q1511.9375,959.0469 1513.2813,959.0469 Q1513.9063,959.0469 1514.5,958.7813 Q1515.0938,958.5 1515.7188,957.9219 L1515.7188,960.6406 Z " fill="#000000"/><text fill="#000000" font-family="sans-serif" font-size="14" lengthAdjust="spacing" textLength="98" x="1533.25" y="959.8467">BlazorSession</text><line style="stroke:#181818;stroke-width:0.5;" x1="1423.5" x2="1708.5" y1="971" y2="971"/><text fill="#000000" font-family="sans-serif" font-size="14" lengthAdjust="spacing" textLength="97" x="1428.5" y="987.9951">SessionId : int</text><text fill="#000000" font-family="sans-serif" font-size="14" lengthAdjust="spacing" textLength="196" x="1428.5" y="1004.292">Logic : MainWindowDispatch</text><text fill="#000000" font-family="sans-serif" font-size="14" lengthAdjust="spacing" textLength="275" x="1428.5" y="1020.5889">DisplayElements : BlazorVisualElements</text><text fill="#000000" font-family="sans-serif" font-size="14" lengthAdjust="spacing" textLength="198" x="1428.5" y="1036.8857">MainMenu : AasxMenuBlazor</text><text fill="#000000" font-family="sans-serif" font-size="14" lengthAdjust="spacing" textLength="225" x="1428.5" y="1053.1826">DynamicMenu : AasxMenuBlazor</text><text fill="#000000" font-family="sans-serif" font-size="14" lengthAdjust="spacing" textLength="244" x="1428.5" y="1069.4795">DisplayData : AnyUiDisplayDataHtml</text><text fill="#000000" font-family="sans-serif" font-size="14" lengthAdjust="spacing" textLength="222" x="1428.5" y="1085.7764">ElementPanel : AnyUiStackPanel</text><text fill="#000000" font-family="sans-serif" font-size="14" lengthAdjust="spacing" textLength="108" x="1428.5" y="1102.0732">EditMode : bool</text><text fill="#000000" font-family="sans-serif" font-size="14" lengthAdjust="spacing" textLength="109" x="1428.5" y="1118.3701">HintMode : bool</text><line style="stroke:#181818;stroke-width:0.5;" x1="1423.5" x2="1708.5" y1="1125.6719" y2="1125.6719"/><text fill="#000000" font-family="sans-serif" font-size="14" lengthAdjust="spacing" textLength="267" x="1428.5" y="1142.667">PrepareDisplayDataAndElementPanel()</text></g><g id="elem_GMN33"><path d="M1422.5,806.5 L1422.5,861.8984 A0,0 0 0 0 1422.5,861.8984 L1521.05,861.8984 L1542.41,938.85 L1529.05,861.8984 L1615.5,861.8984 A0,0 0 0 0 1615.5,861.8984 L1615.5,816.5 L1605.5,806.5 L1422.5,806.5 A0,0 0 0 0 1422.5,806.5 " fill="#FEFFDD" style="stroke:#181818;stroke-width:0.5;"/><path d="M1605.5,806.5 L1605.5,816.5 L1615.5,816.5 L1605.5,806.5 " fill="#FEFFDD" style="stroke:#181818;stroke-width:0.5;"/><text fill="#000000" font-family="sans-serif" font-size="13" lengthAdjust="spacing" textLength="168" x="1428.5" y="823.5669">This is the top instance for</text><text fill="#000000" font-family="sans-serif" font-size="13" lengthAdjust="spacing" textLength="135" x="1428.5" y="838.6997">holding session data.</text><text fill="#000000" font-family="sans-serif" font-size="13" lengthAdjust="spacing" textLength="162" x="1428.5" y="853.8325">Injected into razor pages.</text></g><!--class BlazorSessionCommandBindings--><g id="elem_BlazorSessionCommandBindings"><rect codeLine="88" fill="#F1F1F1" height="64.2969" id="BlazorSessionCommandBindings" rx="2.5" ry="2.5" style="stroke:#181818;stroke-width:0.5;" width="285" x="1018.5" y="1259.5"/><ellipse cx="1033.5" cy="1275.5" fill="#ADD1B2" rx="11" ry="11" style="stroke:#181818;stroke-width:1.0;"/><path d="M1036.4688,1281.1406 Q1035.8906,1281.4375 1035.25,1281.5781 Q1034.6094,1281.7344 1033.9063,1281.7344 Q1031.4063,1281.7344 1030.0781,1280.0938 Q1028.7656,1278.4375 1028.7656,1275.3125 Q1028.7656,1272.1875 1030.0781,1270.5313 Q1031.4063,1268.875 1033.9063,1268.875 Q1034.6094,1268.875 1035.25,1269.0313 Q1035.9063,1269.1875 1036.4688,1269.4844 L1036.4688,1272.2031 Q1035.8438,1271.625 1035.25,1271.3594 Q1034.6563,1271.0781 1034.0313,1271.0781 Q1032.6875,1271.0781 1032,1272.1563 Q1031.3125,1273.2188 1031.3125,1275.3125 Q1031.3125,1277.4063 1032,1278.4844 Q1032.6875,1279.5469 1034.0313,1279.5469 Q1034.6563,1279.5469 1035.25,1279.2813 Q1035.8438,1279 1036.4688,1278.4219 L1036.4688,1281.1406 Z " fill="#000000"/><text fill="#000000" font-family="sans-serif" font-size="14" lengthAdjust="spacing" textLength="253" x="1047.5" y="1280.3467">BlazorSession.CommandBindings.cs</text><line style="stroke:#181818;stroke-width:0.5;" x1="1019.5" x2="1302.5" y1="1291.5" y2="1291.5"/><line style="stroke:#181818;stroke-width:0.5;" x1="1019.5" x2="1302.5" y1="1299.5" y2="1299.5"/><text fill="#000000" font-family="sans-serif" font-size="14" lengthAdjust="spacing" textLength="255" x="1024.5" y="1316.4951">CommandBinding_GeneralDispatch()</text></g><g id="elem_GMN37"><path d="M1338.5,1271.5 L1338.5,1287.5 L1303.61,1291.5 L1338.5,1295.5 L1338.5,1311.7656 A0,0 0 0 0 1338.5,1311.7656 L1499.5,1311.7656 A0,0 0 0 0 1499.5,1311.7656 L1499.5,1281.5 L1489.5,1271.5 L1338.5,1271.5 A0,0 0 0 0 1338.5,1271.5 " fill="#FEFFDD" style="stroke:#181818;stroke-width:0.5;"/><path d="M1489.5,1271.5 L1489.5,1281.5 L1499.5,1281.5 L1489.5,1271.5 " fill="#FEFFDD" style="stroke:#181818;stroke-width:0.5;"/><text fill="#000000" font-family="sans-serif" font-size="13" lengthAdjust="spacing" textLength="136" x="1344.5" y="1288.5669">Menu functions which</text><text fill="#000000" font-family="sans-serif" font-size="13" lengthAdjust="spacing" textLength="135" x="1344.5" y="1303.6997">involve a lot of HTML.</text></g><!--class BlazorVisualElements--><g id="elem_BlazorVisualElements"><rect codeLine="100" fill="#F1F1F1" height="129.4844" id="BlazorVisualElements" rx="2.5" ry="2.5" style="stroke:#181818;stroke-width:0.5;" width="183" x="2584.5" y="1227"/><ellipse cx="2600.85" cy="1243" fill="#ADD1B2" rx="11" ry="11" style="stroke:#181818;stroke-width:1.0;"/><path d="M2603.8188,1248.6406 Q2603.2406,1248.9375 2602.6,1249.0781 Q2601.9594,1249.2344 2601.2563,1249.2344 Q2598.7563,1249.2344 2597.4281,1247.5938 Q2596.1156,1245.9375 2596.1156,1242.8125 Q2596.1156,1239.6875 2597.4281,1238.0313 Q2598.7563,1236.375 2601.2563,1236.375 Q2601.9594,1236.375 2602.6,1236.5313 Q2603.2563,1236.6875 2603.8188,1236.9844 L2603.8188,1239.7031 Q2603.1938,1239.125 2602.6,1238.8594 Q2602.0063,1238.5781 2601.3813,1238.5781 Q2600.0375,1238.5781 2599.35,1239.6563 Q2598.6625,1240.7188 2598.6625,1242.8125 Q2598.6625,1244.9063 2599.35,1245.9844 Q2600.0375,1247.0469 2601.3813,1247.0469 Q2602.0063,1247.0469 2602.6,1246.7813 Q2603.1938,1246.5 2603.8188,1245.9219 L2603.8188,1248.6406 Z " fill="#000000"/><text fill="#000000" font-family="sans-serif" font-size="14" lengthAdjust="spacing" textLength="148" x="2615.15" y="1247.8467">BlazorVisualElements</text><line style="stroke:#181818;stroke-width:0.5;" x1="2585.5" x2="2766.5" y1="1259" y2="1259"/><ellipse cx="2595.5" cy="1272.6484" fill="none" rx="3" ry="3" style="stroke:#038048;stroke-width:1.0;"/><text fill="#000000" font-family="sans-serif" font-size="14" lengthAdjust="spacing" textLength="70" x="2604.5" y="1275.9951">TreeItems</text><ellipse cx="2595.5" cy="1288.9453" fill="none" rx="3" ry="3" style="stroke:#038048;stroke-width:1.0;"/><text fill="#000000" font-family="sans-serif" font-size="14" lengthAdjust="spacing" textLength="91" x="2604.5" y="1292.292">SelectedItem</text><ellipse cx="2595.5" cy="1305.2422" fill="none" rx="3" ry="3" style="stroke:#038048;stroke-width:1.0;"/><text fill="#000000" font-family="sans-serif" font-size="14" lengthAdjust="spacing" textLength="99" x="2604.5" y="1308.5889">SelectedItems</text><line style="stroke:#181818;stroke-width:0.5;" x1="2585.5" x2="2766.5" y1="1315.8906" y2="1315.8906"/><text fill="#000000" font-family="sans-serif" font-size="14" lengthAdjust="spacing" textLength="159" x="2590.5" y="1332.8857">RebuildAasxElements()</text><text fill="#000000" font-family="sans-serif" font-size="14" lengthAdjust="spacing" textLength="171" x="2590.5" y="1349.1826">TrySelectVisualElement()</text></g><g id="elem_GMN43"><path d="M2786,1032 L2786,1057.1328 A0,0 0 0 0 2786,1057.1328 L2868.06,1057.1328 L2729.5,1226.87 L2876.06,1057.1328 L2978,1057.1328 A0,0 0 0 0 2978,1057.1328 L2978,1042 L2968,1032 L2786,1032 A0,0 0 0 0 2786,1032 " fill="#FEFFDD" style="stroke:#181818;stroke-width:0.5;"/><path d="M2968,1032 L2968,1042 L2978,1042 L2968,1032 " fill="#FEFFDD" style="stroke:#181818;stroke-width:0.5;"/><text fill="#000000" font-family="sans-serif" font-size="13" lengthAdjust="spacing" textLength="171" x="2792" y="1049.0669">Management of tree items</text></g><!--class Index--><g id="elem_Index"><rect codeLine="112" fill="#F1F1F1" height="56.2656" id="Index" rx="2.5" ry="2.5" style="stroke:#181818;stroke-width:0.5;" width="108" x="2011" y="665.5"/><ellipse cx="2026" cy="685.6328" fill="#ADD1B2" rx="11" ry="11" style="stroke:#181818;stroke-width:1.0;"/><path d="M2028.9688,691.2734 Q2028.3906,691.5703 2027.75,691.7109 Q2027.1094,691.8672 2026.4063,691.8672 Q2023.9063,691.8672 2022.5781,690.2266 Q2021.2656,688.5703 2021.2656,685.4453 Q2021.2656,682.3203 2022.5781,680.6641 Q2023.9063,679.0078 2026.4063,679.0078 Q2027.1094,679.0078 2027.75,679.1641 Q2028.4063,679.3203 2028.9688,679.6172 L2028.9688,682.3359 Q2028.3438,681.7578 2027.75,681.4922 Q2027.1563,681.2109 2026.5313,681.2109 Q2025.1875,681.2109 2024.5,682.2891 Q2023.8125,683.3516 2023.8125,685.4453 Q2023.8125,687.5391 2024.5,688.6172 Q2025.1875,689.6797 2026.5313,689.6797 Q2027.1563,689.6797 2027.75,689.4141 Q2028.3438,689.1328 2028.9688,688.5547 L2028.9688,691.2734 Z " fill="#000000"/><text fill="#000000" font-family="sans-serif" font-size="12" font-style="italic" lengthAdjust="spacing" textLength="80" x="2038" y="681.6387">«RazorPage»</text><text fill="#000000" font-family="sans-serif" font-size="14" lengthAdjust="spacing" textLength="37" x="2059.5" y="697.4639">Index</text><line style="stroke:#181818;stroke-width:0.5;" x1="2012" x2="2118" y1="705.7656" y2="705.7656"/><line style="stroke:#181818;stroke-width:0.5;" x1="2012" x2="2118" y1="713.7656" y2="713.7656"/></g><g id="elem_GMN47"><path d="M1945,533 L1945,573.2656 A0,0 0 0 0 1945,573.2656 L2018.81,573.2656 L2055.38,665.31 L2026.81,573.2656 L2087,573.2656 A0,0 0 0 0 2087,573.2656 L2087,543 L2077,533 L1945,533 A0,0 0 0 0 1945,533 " fill="#FEFFDD" style="stroke:#181818;stroke-width:0.5;"/><path d="M2077,533 L2077,543 L2087,543 L2077,533 " fill="#FEFFDD" style="stroke:#181818;stroke-width:0.5;"/><text fill="#000000" font-family="sans-serif" font-size="13" lengthAdjust="spacing" textLength="119" x="1951" y="550.0669">Main content page</text><text fill="#000000" font-family="sans-serif" font-size="13" lengthAdjust="spacing" textLength="121" x="1951" y="565.1997">Aim: View in MVVM</text></g><!--class MainLayout--><g id="elem_MainLayout"><rect codeLine="124" fill="#F1F1F1" height="56.2656" id="MainLayout" rx="2.5" ry="2.5" style="stroke:#181818;stroke-width:0.5;" width="109" x="3266.5" y="806"/><ellipse cx="3281.5" cy="826.1328" fill="#ADD1B2" rx="11" ry="11" style="stroke:#181818;stroke-width:1.0;"/><path d="M3284.4688,831.7734 Q3283.8906,832.0703 3283.25,832.2109 Q3282.6094,832.3672 3281.9063,832.3672 Q3279.4063,832.3672 3278.0781,830.7266 Q3276.7656,829.0703 3276.7656,825.9453 Q3276.7656,822.8203 3278.0781,821.1641 Q3279.4063,819.5078 3281.9063,819.5078 Q3282.6094,819.5078 3283.25,819.6641 Q3283.9063,819.8203 3284.4688,820.1172 L3284.4688,822.8359 Q3283.8438,822.2578 3283.25,821.9922 Q3282.6563,821.7109 3282.0313,821.7109 Q3280.6875,821.7109 3280,822.7891 Q3279.3125,823.8516 3279.3125,825.9453 Q3279.3125,828.0391 3280,829.1172 Q3280.6875,830.1797 3282.0313,830.1797 Q3282.6563,830.1797 3283.25,829.9141 Q3283.8438,829.6328 3284.4688,829.0547 L3284.4688,831.7734 Z " fill="#000000"/><text fill="#000000" font-family="sans-serif" font-size="12" font-style="italic" lengthAdjust="spacing" textLength="57" x="3305.5" y="822.1387">«Layout»</text><text fill="#000000" font-family="sans-serif" font-size="14" lengthAdjust="spacing" textLength="77" x="3295.5" y="837.9639">MainLayout</text><line style="stroke:#181818;stroke-width:0.5;" x1="3267.5" x2="3374.5" y1="846.2656" y2="846.2656"/><line style="stroke:#181818;stroke-width:0.5;" x1="3267.5" x2="3374.5" y1="854.2656" y2="854.2656"/></g><g id="elem_GMN54"><path d="M3202.5,658 L3202.5,728.5313 L3375.5,728.5313 L3375.5,668 L3365.5,658 L3202.5,658 " fill="#FEFFDD" style="stroke:#181818;stroke-width:0.5;"/><path d="M3365.5,658 L3365.5,668 L3375.5,668 L3365.5,658 " fill="#FEFFDD" style="stroke:#181818;stroke-width:1.0;"/><text fill="#000000" font-family="sans-serif" font-size="13" lengthAdjust="spacing" textLength="90" x="3208.5" y="675.0669">Blazor feature</text><text fill="#000000" font-family="sans-serif" font-size="13" lengthAdjust="spacing" textLength="152" x="3208.5" y="690.1997">Hosts pages as content</text><text fill="#000000" font-family="sans-serif" font-size="13" lengthAdjust="spacing" textLength="141" x="3208.5" y="705.3325">Provides Functions via</text><text fill="#000000" font-family="sans-serif" font-size="13" lengthAdjust="spacing" textLength="134" x="3208.5" y="720.4653">CascadingParameter</text></g><!--class Tree--><g id="elem_Tree"><rect codeLine="132" fill="#F1F1F1" height="56.2656" id="Tree" rx="2.5" ry="2.5" style="stroke:#181818;stroke-width:0.5;" width="149" x="2601.5" y="1016.5"/><ellipse cx="2616.5" cy="1036.6328" fill="#ADD1B2" rx="11" ry="11" style="stroke:#181818;stroke-width:1.0;"/><path d="M2619.4688,1042.2734 Q2618.8906,1042.5703 2618.25,1042.7109 Q2617.6094,1042.8672 2616.9063,1042.8672 Q2614.4063,1042.8672 2613.0781,1041.2266 Q2611.7656,1039.5703 2611.7656,1036.4453 Q2611.7656,1033.3203 2613.0781,1031.6641 Q2614.4063,1030.0078 2616.9063,1030.0078 Q2617.6094,1030.0078 2618.25,1030.1641 Q2618.9063,1030.3203 2619.4688,1030.6172 L2619.4688,1033.3359 Q2618.8438,1032.7578 2618.25,1032.4922 Q2617.6563,1032.2109 2617.0313,1032.2109 Q2615.6875,1032.2109 2615,1033.2891 Q2614.3125,1034.3516 2614.3125,1036.4453 Q2614.3125,1038.5391 2615,1039.6172 Q2615.6875,1040.6797 2617.0313,1040.6797 Q2617.6563,1040.6797 2618.25,1040.4141 Q2618.8438,1040.1328 2619.4688,1039.5547 L2619.4688,1042.2734 Z " fill="#000000"/><text fill="#000000" font-family="sans-serif" font-size="12" font-style="italic" lengthAdjust="spacing" textLength="121" x="2628.5" y="1032.6387">«RazorComponent»</text><text fill="#000000" font-family="sans-serif" font-size="14" lengthAdjust="spacing" textLength="32" x="2673" y="1048.4639">Tree</text><line style="stroke:#181818;stroke-width:0.5;" x1="2602.5" x2="2749.5" y1="1056.7656" y2="1056.7656"/><line style="stroke:#181818;stroke-width:0.5;" x1="2602.5" x2="2749.5" y1="1064.7656" y2="1064.7656"/></g><g id="elem_GMN58"><path d="M2835,814 L2835,854.2656 L3011,854.2656 L3011,824 L3001,814 L2835,814 " fill="#FEFFDD" style="stroke:#181818;stroke-width:0.5;"/><path d="M3001,814 L3001,824 L3011,824 L3001,814 " fill="#FEFFDD" style="stroke:#181818;stroke-width:1.0;"/><text fill="#000000" font-family="sans-serif" font-size="13" lengthAdjust="spacing" textLength="143" x="2841" y="831.0669">Generic component to</text><text fill="#000000" font-family="sans-serif" font-size="13" lengthAdjust="spacing" textLength="155" x="2841" y="846.1997">manage hierachical tree</text></g><!--class TreeOfAasxVisualElements--><g id="elem_TreeOfAasxVisualElements"><rect codeLine="138" fill="#F1F1F1" height="56.2656" id="TreeOfAasxVisualElements" rx="2.5" ry="2.5" style="stroke:#181818;stroke-width:0.5;" width="216" x="2400" y="806"/><ellipse cx="2415" cy="826.1328" fill="#ADD1B2" rx="11" ry="11" style="stroke:#181818;stroke-width:1.0;"/><path d="M2417.9688,831.7734 Q2417.3906,832.0703 2416.75,832.2109 Q2416.1094,832.3672 2415.4063,832.3672 Q2412.9063,832.3672 2411.5781,830.7266 Q2410.2656,829.0703 2410.2656,825.9453 Q2410.2656,822.8203 2411.5781,821.1641 Q2412.9063,819.5078 2415.4063,819.5078 Q2416.1094,819.5078 2416.75,819.6641 Q2417.4063,819.8203 2417.9688,820.1172 L2417.9688,822.8359 Q2417.3438,822.2578 2416.75,821.9922 Q2416.1563,821.7109 2415.5313,821.7109 Q2414.1875,821.7109 2413.5,822.7891 Q2412.8125,823.8516 2412.8125,825.9453 Q2412.8125,828.0391 2413.5,829.1172 Q2414.1875,830.1797 2415.5313,830.1797 Q2416.1563,830.1797 2416.75,829.9141 Q2417.3438,829.6328 2417.9688,829.0547 L2417.9688,831.7734 Z " fill="#000000"/><text fill="#000000" font-family="sans-serif" font-size="12" font-style="italic" lengthAdjust="spacing" textLength="121" x="2460.5" y="822.1387">«RazorComponent»</text><text fill="#000000" font-family="sans-serif" font-size="14" lengthAdjust="spacing" textLength="184" x="2429" y="837.9639">TreeOfAasxVisualElements</text><line style="stroke:#181818;stroke-width:0.5;" x1="2401" x2="2615" y1="846.2656" y2="846.2656"/><line style="stroke:#181818;stroke-width:0.5;" x1="2401" x2="2615" y1="854.2656" y2="854.2656"/></g><g id="elem_GMN62"><path d="M2422.5,673.5 L2422.5,713.7656 A0,0 0 0 0 2422.5,713.7656 L2504,713.7656 L2508,805.81 L2512,713.7656 L2593.5,713.7656 A0,0 0 0 0 2593.5,713.7656 L2593.5,683.5 L2583.5,673.5 L2422.5,673.5 A0,0 0 0 0 2422.5,673.5 " fill="#FEFFDD" style="stroke:#181818;stroke-width:0.5;"/><path d="M2583.5,673.5 L2583.5,683.5 L2593.5,683.5 L2583.5,673.5 " fill="#FEFFDD" style="stroke:#181818;stroke-width:0.5;"/><text fill="#000000" font-family="sans-serif" font-size="13" lengthAdjust="spacing" textLength="149" x="2428.5" y="690.5669">Specialized component</text><text fill="#000000" font-family="sans-serif" font-size="13" lengthAdjust="spacing" textLength="150" x="2428.5" y="705.6997">for AasxVisualElements</text></g><!--class MultiLineText--><g id="elem_MultiLineText"><rect codeLine="144" fill="#F1F1F1" height="56.2656" id="MultiLineText" rx="2.5" ry="2.5" style="stroke:#181818;stroke-width:0.5;" width="149" x="3045.5" y="806"/><ellipse cx="3060.5" cy="826.1328" fill="#ADD1B2" rx="11" ry="11" style="stroke:#181818;stroke-width:1.0;"/><path d="M3063.4688,831.7734 Q3062.8906,832.0703 3062.25,832.2109 Q3061.6094,832.3672 3060.9063,832.3672 Q3058.4063,832.3672 3057.0781,830.7266 Q3055.7656,829.0703 3055.7656,825.9453 Q3055.7656,822.8203 3057.0781,821.1641 Q3058.4063,819.5078 3060.9063,819.5078 Q3061.6094,819.5078 3062.25,819.6641 Q3062.9063,819.8203 3063.4688,820.1172 L3063.4688,822.8359 Q3062.8438,822.2578 3062.25,821.9922 Q3061.6563,821.7109 3061.0313,821.7109 Q3059.6875,821.7109 3059,822.7891 Q3058.3125,823.8516 3058.3125,825.9453 Q3058.3125,828.0391 3059,829.1172 Q3059.6875,830.1797 3061.0313,830.1797 Q3061.6563,830.1797 3062.25,829.9141 Q3062.8438,829.6328 3063.4688,829.0547 L3063.4688,831.7734 Z " fill="#000000"/><text fill="#000000" font-family="sans-serif" font-size="12" font-style="italic" lengthAdjust="spacing" textLength="121" x="3072.5" y="822.1387">«RazorComponent»</text><text fill="#000000" font-family="sans-serif" font-size="14" lengthAdjust="spacing" textLength="90" x="3088" y="837.9639">MultiLineText</text><line style="stroke:#181818;stroke-width:0.5;" x1="3046.5" x2="3193.5" y1="846.2656" y2="846.2656"/><line style="stroke:#181818;stroke-width:0.5;" x1="3046.5" x2="3193.5" y1="854.2656" y2="854.2656"/></g><!--class Modal--><g id="elem_Modal"><rect codeLine="146" fill="#F1F1F1" height="56.2656" id="Modal" rx="2.5" ry="2.5" style="stroke:#181818;stroke-width:0.5;" width="149" x="2651.5" y="806"/><ellipse cx="2666.5" cy="826.1328" fill="#ADD1B2" rx="11" ry="11" style="stroke:#181818;stroke-width:1.0;"/><path d="M2669.4688,831.7734 Q2668.8906,832.0703 2668.25,832.2109 Q2667.6094,832.3672 2666.9063,832.3672 Q2664.4063,832.3672 2663.0781,830.7266 Q2661.7656,829.0703 2661.7656,825.9453 Q2661.7656,822.8203 2663.0781,821.1641 Q2664.4063,819.5078 2666.9063,819.5078 Q2667.6094,819.5078 2668.25,819.6641 Q2668.9063,819.8203 2669.4688,820.1172 L2669.4688,822.8359 Q2668.8438,822.2578 2668.25,821.9922 Q2667.6563,821.7109 2667.0313,821.7109 Q2665.6875,821.7109 2665,822.7891 Q2664.3125,823.8516 2664.3125,825.9453 Q2664.3125,828.0391 2665,829.1172 Q2665.6875,830.1797 2667.0313,830.1797 Q2667.6563,830.1797 2668.25,829.9141 Q2668.8438,829.6328 2669.4688,829.0547 L2669.4688,831.7734 Z " fill="#000000"/><text fill="#000000" font-family="sans-serif" font-size="12" font-style="italic" lengthAdjust="spacing" textLength="121" x="2678.5" y="822.1387">«RazorComponent»</text><text fill="#000000" font-family="sans-serif" font-size="14" lengthAdjust="spacing" textLength="41" x="2718.5" y="837.9639">Modal</text><line style="stroke:#181818;stroke-width:0.5;" x1="2652.5" x2="2799.5" y1="846.2656" y2="846.2656"/><line style="stroke:#181818;stroke-width:0.5;" x1="2652.5" x2="2799.5" y1="854.2656" y2="854.2656"/></g><g id="elem_GMN67"><path d="M3029,673.5 L3029,713.7656 L3167,713.7656 L3167,683.5 L3157,673.5 L3029,673.5 " fill="#FEFFDD" style="stroke:#181818;stroke-width:0.5;"/><path d="M3157,673.5 L3157,683.5 L3167,683.5 L3157,673.5 " fill="#FEFFDD" style="stroke:#181818;stroke-width:1.0;"/><text fill="#000000" font-family="sans-serif" font-size="13" lengthAdjust="spacing" textLength="113" x="3035" y="690.5669">Generic display of</text><text fill="#000000" font-family="sans-serif" font-size="13" lengthAdjust="spacing" textLength="100" x="3035" y="705.6997">modal contents</text></g><!--class DynamicMenuItem--><g id="elem_DynamicMenuItem"><rect codeLine="152" fill="#F1F1F1" height="56.2656" id="DynamicMenuItem" rx="2.5" ry="2.5" style="stroke:#181818;stroke-width:0.5;" width="160" x="2406" y="1016.5"/><ellipse cx="2421" cy="1036.6328" fill="#ADD1B2" rx="11" ry="11" style="stroke:#181818;stroke-width:1.0;"/><path d="M2423.9688,1042.2734 Q2423.3906,1042.5703 2422.75,1042.7109 Q2422.1094,1042.8672 2421.4063,1042.8672 Q2418.9063,1042.8672 2417.5781,1041.2266 Q2416.2656,1039.5703 2416.2656,1036.4453 Q2416.2656,1033.3203 2417.5781,1031.6641 Q2418.9063,1030.0078 2421.4063,1030.0078 Q2422.1094,1030.0078 2422.75,1030.1641 Q2423.4063,1030.3203 2423.9688,1030.6172 L2423.9688,1033.3359 Q2423.3438,1032.7578 2422.75,1032.4922 Q2422.1563,1032.2109 2421.5313,1032.2109 Q2420.1875,1032.2109 2419.5,1033.2891 Q2418.8125,1034.3516 2418.8125,1036.4453 Q2418.8125,1038.5391 2419.5,1039.6172 Q2420.1875,1040.6797 2421.5313,1040.6797 Q2422.1563,1040.6797 2422.75,1040.4141 Q2423.3438,1040.1328 2423.9688,1039.5547 L2423.9688,1042.2734 Z " fill="#000000"/><text fill="#000000" font-family="sans-serif" font-size="12" font-style="italic" lengthAdjust="spacing" textLength="121" x="2438.5" y="1032.6387">«RazorComponent»</text><text fill="#000000" font-family="sans-serif" font-size="14" lengthAdjust="spacing" textLength="128" x="2435" y="1048.4639">DynamicMenuItem</text><line style="stroke:#181818;stroke-width:0.5;" x1="2407" x2="2565" y1="1056.7656" y2="1056.7656"/><line style="stroke:#181818;stroke-width:0.5;" x1="2407" x2="2565" y1="1064.7656" y2="1064.7656"/></g><g id="elem_GMN71"><path d="M2153.5,821.5 L2153.5,846.6328 L2364.5,846.6328 L2364.5,831.5 L2354.5,821.5 L2153.5,821.5 " fill="#FEFFDD" style="stroke:#181818;stroke-width:0.5;"/><path d="M2354.5,821.5 L2354.5,831.5 L2364.5,831.5 L2354.5,821.5 " fill="#FEFFDD" style="stroke:#181818;stroke-width:1.0;"/><text fill="#000000" font-family="sans-serif" font-size="13" lengthAdjust="spacing" textLength="190" x="2159.5" y="838.5669">Rendering of AasxMenu items</text></g><!--class AnyUiRenderStar--><g id="elem_AnyUiRenderStar"><rect codeLine="157" fill="#F1F1F1" height="56.2656" id="AnyUiRenderStar" rx="2.5" ry="2.5" style="stroke:#181818;stroke-width:0.5;" width="149" x="1201.5" y="806"/><ellipse cx="1216.5" cy="826.1328" fill="#ADD1B2" rx="11" ry="11" style="stroke:#181818;stroke-width:1.0;"/><path d="M1219.4688,831.7734 Q1218.8906,832.0703 1218.25,832.2109 Q1217.6094,832.3672 1216.9063,832.3672 Q1214.4063,832.3672 1213.0781,830.7266 Q1211.7656,829.0703 1211.7656,825.9453 Q1211.7656,822.8203 1213.0781,821.1641 Q1214.4063,819.5078 1216.9063,819.5078 Q1217.6094,819.5078 1218.25,819.6641 Q1218.9063,819.8203 1219.4688,820.1172 L1219.4688,822.8359 Q1218.8438,822.2578 1218.25,821.9922 Q1217.6563,821.7109 1217.0313,821.7109 Q1215.6875,821.7109 1215,822.7891 Q1214.3125,823.8516 1214.3125,825.9453 Q1214.3125,828.0391 1215,829.1172 Q1215.6875,830.1797 1217.0313,830.1797 Q1217.6563,830.1797 1218.25,829.9141 Q1218.8438,829.6328 1219.4688,829.0547 L1219.4688,831.7734 Z " fill="#000000"/><text fill="#000000" font-family="sans-serif" font-size="12" font-style="italic" lengthAdjust="spacing" textLength="121" x="1228.5" y="822.1387">«RazorComponent»</text><text fill="#000000" font-family="sans-serif" font-size="14" lengthAdjust="spacing" textLength="96" x="1241" y="837.9639">AnyUiRender*</text><line style="stroke:#181818;stroke-width:0.5;" x1="1202.5" x2="1349.5" y1="846.2656" y2="846.2656"/><line style="stroke:#181818;stroke-width:0.5;" x1="1202.5" x2="1349.5" y1="854.2656" y2="854.2656"/></g><g id="elem_GMN75"><path d="M1267,681 L1267,706.1328 L1523,706.1328 L1523,691 L1513,681 L1267,681 " fill="#FEFFDD" style="stroke:#181818;stroke-width:0.5;"/><path d="M1513,681 L1513,691 L1523,691 L1513,681 " fill="#FEFFDD" style="stroke:#181818;stroke-width:1.0;"/><text fill="#000000" font-family="sans-serif" font-size="13" lengthAdjust="spacing" textLength="235" x="1273" y="698.0669">Recursive rendering of AnyUi widgets</text></g><!--class AnyUiDialogueDataStar--><g id="elem_AnyUiDialogueDataStar"><rect codeLine="162" fill="#F1F1F1" height="48" id="AnyUiDialogueDataStar" rx="2.5" ry="2.5" style="stroke:#181818;stroke-width:0.5;" width="170" x="1745" y="1020.5"/><ellipse cx="1760" cy="1036.5" fill="#ADD1B2" rx="11" ry="11" style="stroke:#181818;stroke-width:1.0;"/><path d="M1762.9688,1042.1406 Q1762.3906,1042.4375 1761.75,1042.5781 Q1761.1094,1042.7344 1760.4063,1042.7344 Q1757.9063,1042.7344 1756.5781,1041.0938 Q1755.2656,1039.4375 1755.2656,1036.3125 Q1755.2656,1033.1875 1756.5781,1031.5313 Q1757.9063,1029.875 1760.4063,1029.875 Q1761.1094,1029.875 1761.75,1030.0313 Q1762.4063,1030.1875 1762.9688,1030.4844 L1762.9688,1033.2031 Q1762.3438,1032.625 1761.75,1032.3594 Q1761.1563,1032.0781 1760.5313,1032.0781 Q1759.1875,1032.0781 1758.5,1033.1563 Q1757.8125,1034.2188 1757.8125,1036.3125 Q1757.8125,1038.4063 1758.5,1039.4844 Q1759.1875,1040.5469 1760.5313,1040.5469 Q1761.1563,1040.5469 1761.75,1040.2813 Q1762.3438,1040 1762.9688,1039.4219 L1762.9688,1042.1406 Z " fill="#000000"/><text fill="#000000" font-family="sans-serif" font-size="14" lengthAdjust="spacing" textLength="138" x="1774" y="1041.3467">AnyUiDialogueData*</text><line style="stroke:#181818;stroke-width:0.5;" x1="1746" x2="1914" y1="1052.5" y2="1052.5"/><line style="stroke:#181818;stroke-width:0.5;" x1="1746" x2="1914" y1="1060.5" y2="1060.5"/></g><g id="elem_GMN79"><path d="M1794,814 L1794,854.2656 A0,0 0 0 0 1794,854.2656 L1875.92,854.2656 L1836.14,1020.21 L1883.92,854.2656 L1976,854.2656 A0,0 0 0 0 1976,854.2656 L1976,824 L1966,814 L1794,814 A0,0 0 0 0 1794,814 " fill="#FEFFDD" style="stroke:#181818;stroke-width:0.5;"/><path d="M1966,814 L1966,824 L1976,824 L1966,814 " fill="#FEFFDD" style="stroke:#181818;stroke-width:0.5;"/><text fill="#000000" font-family="sans-serif" font-size="13" lengthAdjust="spacing" textLength="150" x="1800" y="831.0669">Derived classes holding</text><text fill="#000000" font-family="sans-serif" font-size="13" lengthAdjust="spacing" textLength="161" x="1800" y="846.1997">abstracted dialogue infos</text></g><!--class AnyUiFlyoutStar--><g id="elem_AnyUiFlyoutStar"><rect codeLine="168" fill="#F1F1F1" height="56.2656" id="AnyUiFlyoutStar" rx="2.5" ry="2.5" style="stroke:#181818;stroke-width:0.5;" width="149" x="1017.5" y="806"/><ellipse cx="1032.5" cy="826.1328" fill="#ADD1B2" rx="11" ry="11" style="stroke:#181818;stroke-width:1.0;"/><path d="M1035.4688,831.7734 Q1034.8906,832.0703 1034.25,832.2109 Q1033.6094,832.3672 1032.9063,832.3672 Q1030.4063,832.3672 1029.0781,830.7266 Q1027.7656,829.0703 1027.7656,825.9453 Q1027.7656,822.8203 1029.0781,821.1641 Q1030.4063,819.5078 1032.9063,819.5078 Q1033.6094,819.5078 1034.25,819.6641 Q1034.9063,819.8203 1035.4688,820.1172 L1035.4688,822.8359 Q1034.8438,822.2578 1034.25,821.9922 Q1033.6563,821.7109 1033.0313,821.7109 Q1031.6875,821.7109 1031,822.7891 Q1030.3125,823.8516 1030.3125,825.9453 Q1030.3125,828.0391 1031,829.1172 Q1031.6875,830.1797 1033.0313,830.1797 Q1033.6563,830.1797 1034.25,829.9141 Q1034.8438,829.6328 1035.4688,829.0547 L1035.4688,831.7734 Z " fill="#000000"/><text fill="#000000" font-family="sans-serif" font-size="12" font-style="italic" lengthAdjust="spacing" textLength="121" x="1044.5" y="822.1387">«RazorComponent»</text><text fill="#000000" font-family="sans-serif" font-size="14" lengthAdjust="spacing" textLength="86" x="1062" y="837.9639">AnyUiFlyout*</text><line style="stroke:#181818;stroke-width:0.5;" x1="1018.5" x2="1165.5" y1="846.2656" y2="846.2656"/><line style="stroke:#181818;stroke-width:0.5;" x1="1018.5" x2="1165.5" y1="854.2656" y2="854.2656"/></g><g id="elem_GMN83"><path d="M1018.5,673.5 L1018.5,713.7656 A0,0 0 0 0 1018.5,713.7656 L1116.41,713.7656 L1098.48,805.81 L1124.41,713.7656 L1231.5,713.7656 A0,0 0 0 0 1231.5,713.7656 L1231.5,683.5 L1221.5,673.5 L1018.5,673.5 A0,0 0 0 0 1018.5,673.5 " fill="#FEFFDD" style="stroke:#181818;stroke-width:0.5;"/><path d="M1221.5,673.5 L1221.5,683.5 L1231.5,683.5 L1221.5,673.5 " fill="#FEFFDD" style="stroke:#181818;stroke-width:0.5;"/><text fill="#000000" font-family="sans-serif" font-size="13" lengthAdjust="spacing" textLength="188" x="1024.5" y="690.5669">Handcrafted modal dialogues</text><text fill="#000000" font-family="sans-serif" font-size="13" lengthAdjust="spacing" textLength="114" x="1024.5" y="705.6997">to input user data</text></g><!--class StylePile--><g id="elem_StylePile"><rect codeLine="174" fill="#F1F1F1" height="48" id="StylePile" rx="2.5" ry="2.5" style="stroke:#181818;stroke-width:0.5;" width="89" x="1534.5" y="1267.5"/><ellipse cx="1549.5" cy="1283.5" fill="#ADD1B2" rx="11" ry="11" style="stroke:#181818;stroke-width:1.0;"/><path d="M1552.4688,1289.1406 Q1551.8906,1289.4375 1551.25,1289.5781 Q1550.6094,1289.7344 1549.9063,1289.7344 Q1547.4063,1289.7344 1546.0781,1288.0938 Q1544.7656,1286.4375 1544.7656,1283.3125 Q1544.7656,1280.1875 1546.0781,1278.5313 Q1547.4063,1276.875 1549.9063,1276.875 Q1550.6094,1276.875 1551.25,1277.0313 Q1551.9063,1277.1875 1552.4688,1277.4844 L1552.4688,1280.2031 Q1551.8438,1279.625 1551.25,1279.3594 Q1550.6563,1279.0781 1550.0313,1279.0781 Q1548.6875,1279.0781 1548,1280.1563 Q1547.3125,1281.2188 1547.3125,1283.3125 Q1547.3125,1285.4063 1548,1286.4844 Q1548.6875,1287.5469 1550.0313,1287.5469 Q1550.6563,1287.5469 1551.25,1287.2813 Q1551.8438,1287 1552.4688,1286.4219 L1552.4688,1289.1406 Z " fill="#000000"/><text fill="#000000" font-family="sans-serif" font-size="14" lengthAdjust="spacing" textLength="57" x="1563.5" y="1288.3467">StylePile</text><line style="stroke:#181818;stroke-width:0.5;" x1="1535.5" x2="1622.5" y1="1299.5" y2="1299.5"/><line style="stroke:#181818;stroke-width:0.5;" x1="1535.5" x2="1622.5" y1="1307.5" y2="1307.5"/></g><g id="elem_GMN87"><path d="M1126.5,1024.5 L1126.5,1064.7656 L1349.5,1064.7656 L1349.5,1034.5 L1339.5,1024.5 L1126.5,1024.5 " fill="#FEFFDD" style="stroke:#181818;stroke-width:0.5;"/><path d="M1339.5,1024.5 L1339.5,1034.5 L1349.5,1034.5 L1339.5,1024.5 " fill="#FEFFDD" style="stroke:#181818;stroke-width:1.0;"/><text fill="#000000" font-family="sans-serif" font-size="13" lengthAdjust="spacing" textLength="202" x="1132.5" y="1041.5669">Composing of style="..." strings</text><text fill="#000000" font-family="sans-serif" font-size="13" lengthAdjust="spacing" textLength="190" x="1132.5" y="1056.6997">out of individual C# attributes</text></g><!--class AasxMenuBlazor--><g id="elem_AasxMenuBlazor"><rect codeLine="180" fill="#F1F1F1" height="64.2969" id="AasxMenuBlazor" rx="2.5" ry="2.5" style="stroke:#181818;stroke-width:0.5;" width="146" x="1817" y="1259.5"/><ellipse cx="1832" cy="1275.5" fill="#ADD1B2" rx="11" ry="11" style="stroke:#181818;stroke-width:1.0;"/><path d="M1834.9688,1281.1406 Q1834.3906,1281.4375 1833.75,1281.5781 Q1833.1094,1281.7344 1832.4063,1281.7344 Q1829.9063,1281.7344 1828.5781,1280.0938 Q1827.2656,1278.4375 1827.2656,1275.3125 Q1827.2656,1272.1875 1828.5781,1270.5313 Q1829.9063,1268.875 1832.4063,1268.875 Q1833.1094,1268.875 1833.75,1269.0313 Q1834.4063,1269.1875 1834.9688,1269.4844 L1834.9688,1272.2031 Q1834.3438,1271.625 1833.75,1271.3594 Q1833.1563,1271.0781 1832.5313,1271.0781 Q1831.1875,1271.0781 1830.5,1272.1563 Q1829.8125,1273.2188 1829.8125,1275.3125 Q1829.8125,1277.4063 1830.5,1278.4844 Q1831.1875,1279.5469 1832.5313,1279.5469 Q1833.1563,1279.5469 1833.75,1279.2813 Q1834.3438,1279 1834.9688,1278.4219 L1834.9688,1281.1406 Z " fill="#000000"/><text fill="#000000" font-family="sans-serif" font-size="14" lengthAdjust="spacing" textLength="114" x="1846" y="1280.3467">AasxMenuBlazor</text><line style="stroke:#181818;stroke-width:0.5;" x1="1818" x2="1962" y1="1291.5" y2="1291.5"/><text fill="#000000" font-family="sans-serif" font-size="14" lengthAdjust="spacing" textLength="119" x="1823" y="1308.4951">Menu: AasxMenu</text><line style="stroke:#181818;stroke-width:0.5;" x1="1818" x2="1962" y1="1315.7969" y2="1315.7969"/></g><g id="elem_GMN100"><path d="M3056.5,1610 L3056.5,1635.1328 L3375.5,1635.1328 L3375.5,1620 L3365.5,1610 L3056.5,1610 " fill="#FEFFDD" style="stroke:#181818;stroke-width:0.5;"/><path d="M3365.5,1610 L3365.5,1620 L3375.5,1620 L3365.5,1610 " fill="#FEFFDD" style="stroke:#181818;stroke-width:1.0;"/><text fill="#000000" font-family="sans-serif" font-size="13" lengthAdjust="spacing" textLength="298" x="3062.5" y="1627.0669">Files here will be automatically served via HTTP</text></g><!--class ToBeDone--><g id="elem_ToBeDone"><rect codeLine="240" fill="#F1F1F1" height="48" id="ToBeDone" rx="2.5" ry="2.5" style="stroke:#181818;stroke-width:0.5;" width="107" x="2011.5" y="810"/><ellipse cx="2026.5" cy="826" fill="#ADD1B2" rx="11" ry="11" style="stroke:#181818;stroke-width:1.0;"/><path d="M2029.4688,831.6406 Q2028.8906,831.9375 2028.25,832.0781 Q2027.6094,832.2344 2026.9063,832.2344 Q2024.4063,832.2344 2023.0781,830.5938 Q2021.7656,828.9375 2021.7656,825.8125 Q2021.7656,822.6875 2023.0781,821.0313 Q2024.4063,819.375 2026.9063,819.375 Q2027.6094,819.375 2028.25,819.5313 Q2028.9063,819.6875 2029.4688,819.9844 L2029.4688,822.7031 Q2028.8438,822.125 2028.25,821.8594 Q2027.6563,821.5781 2027.0313,821.5781 Q2025.6875,821.5781 2025,822.6563 Q2024.3125,823.7188 2024.3125,825.8125 Q2024.3125,827.9063 2025,828.9844 Q2025.6875,830.0469 2027.0313,830.0469 Q2027.6563,830.0469 2028.25,829.7813 Q2028.8438,829.5 2029.4688,828.9219 L2029.4688,831.6406 Z " fill="#000000"/><text fill="#000000" font-family="sans-serif" font-size="14" lengthAdjust="spacing" textLength="75" x="2040.5" y="830.8467">ToBeDone</text><line style="stroke:#181818;stroke-width:0.5;" x1="2012.5" x2="2117.5" y1="842" y2="842"/><line style="stroke:#181818;stroke-width:0.5;" x1="2012.5" x2="2117.5" y1="850" y2="850"/></g><!--class AnyUiDisplayDataHtml--><g id="elem_AnyUiDisplayDataHtml"><rect codeLine="120" fill="#F1F1F1" height="48" id="AnyUiDisplayDataHtml" rx="2.5" ry="2.5" style="stroke:#181818;stroke-width:0.5;" width="182" x="2189" y="1020.5"/><ellipse cx="2204" cy="1036.5" fill="#ADD1B2" rx="11" ry="11" style="stroke:#181818;stroke-width:1.0;"/><path d="M2206.9688,1042.1406 Q2206.3906,1042.4375 2205.75,1042.5781 Q2205.1094,1042.7344 2204.4063,1042.7344 Q2201.9063,1042.7344 2200.5781,1041.0938 Q2199.2656,1039.4375 2199.2656,1036.3125 Q2199.2656,1033.1875 2200.5781,1031.5313 Q2201.9063,1029.875 2204.4063,1029.875 Q2205.1094,1029.875 2205.75,1030.0313 Q2206.4063,1030.1875 2206.9688,1030.4844 L2206.9688,1033.2031 Q2206.3438,1032.625 2205.75,1032.3594 Q2205.1563,1032.0781 2204.5313,1032.0781 Q2203.1875,1032.0781 2202.5,1033.1563 Q2201.8125,1034.2188 2201.8125,1036.3125 Q2201.8125,1038.4063 2202.5,1039.4844 Q2203.1875,1040.5469 2204.5313,1040.5469 Q2205.1563,1040.5469 2205.75,1040.2813 Q2206.3438,1040 2206.9688,1039.4219 L2206.9688,1042.1406 Z " fill="#000000"/><text fill="#000000" font-family="sans-serif" font-size="14" lengthAdjust="spacing" textLength="150" x="2218" y="1041.3467">AnyUiDisplayDataHtml</text><line style="stroke:#181818;stroke-width:0.5;" x1="2190" x2="2370" y1="1052.5" y2="1052.5"/><line style="stroke:#181818;stroke-width:0.5;" x1="2190" x2="2370" y1="1060.5" y2="1060.5"/></g><!--class AnyUiDisplayContextHtml--><g id="elem_AnyUiDisplayContextHtml"><rect codeLine="121" fill="#F1F1F1" height="48" id="AnyUiDisplayContextHtml" rx="2.5" ry="2.5" style="stroke:#181818;stroke-width:0.5;" width="204" x="1950" y="1020.5"/><ellipse cx="1965" cy="1036.5" fill="#ADD1B2" rx="11" ry="11" style="stroke:#181818;stroke-width:1.0;"/><path d="M1967.9688,1042.1406 Q1967.3906,1042.4375 1966.75,1042.5781 Q1966.1094,1042.7344 1965.4063,1042.7344 Q1962.9063,1042.7344 1961.5781,1041.0938 Q1960.2656,1039.4375 1960.2656,1036.3125 Q1960.2656,1033.1875 1961.5781,1031.5313 Q1962.9063,1029.875 1965.4063,1029.875 Q1966.1094,1029.875 1966.75,1030.0313 Q1967.4063,1030.1875 1967.9688,1030.4844 L1967.9688,1033.2031 Q1967.3438,1032.625 1966.75,1032.3594 Q1966.1563,1032.0781 1965.5313,1032.0781 Q1964.1875,1032.0781 1963.5,1033.1563 Q1962.8125,1034.2188 1962.8125,1036.3125 Q1962.8125,1038.4063 1963.5,1039.4844 Q1964.1875,1040.5469 1965.5313,1040.5469 Q1966.1563,1040.5469 1966.75,1040.2813 Q1967.3438,1040 1967.9688,1039.4219 L1967.9688,1042.1406 Z " fill="#000000"/><text fill="#000000" font-family="sans-serif" font-size="14" lengthAdjust="spacing" textLength="172" x="1979" y="1041.3467">AnyUiDisplayContextHtml</text><line style="stroke:#181818;stroke-width:0.5;" x1="1951" x2="2153" y1="1052.5" y2="1052.5"/><line style="stroke:#181818;stroke-width:0.5;" x1="1951" x2="2153" y1="1060.5" y2="1060.5"/></g><!--class MainLayoutJs--><g id="elem_MainLayoutJs"><rect codeLine="187" fill="#F1F1F1" height="56.2656" id="MainLayoutJs" rx="2.5" ry="2.5" style="stroke:#181818;stroke-width:0.5;" width="126" x="2716" y="1470"/><ellipse cx="2731" cy="1490.1328" fill="#ADD1B2" rx="11" ry="11" style="stroke:#181818;stroke-width:1.0;"/><path d="M2733.9688,1495.7734 Q2733.3906,1496.0703 2732.75,1496.2109 Q2732.1094,1496.3672 2731.4063,1496.3672 Q2728.9063,1496.3672 2727.5781,1494.7266 Q2726.2656,1493.0703 2726.2656,1489.9453 Q2726.2656,1486.8203 2727.5781,1485.1641 Q2728.9063,1483.5078 2731.4063,1483.5078 Q2732.1094,1483.5078 2732.75,1483.6641 Q2733.4063,1483.8203 2733.9688,1484.1172 L2733.9688,1486.8359 Q2733.3438,1486.2578 2732.75,1485.9922 Q2732.1563,1485.7109 2731.5313,1485.7109 Q2730.1875,1485.7109 2729.5,1486.7891 Q2728.8125,1487.8516 2728.8125,1489.9453 Q2728.8125,1492.0391 2729.5,1493.1172 Q2730.1875,1494.1797 2731.5313,1494.1797 Q2732.1563,1494.1797 2732.75,1493.9141 Q2733.3438,1493.6328 2733.9688,1493.0547 L2733.9688,1495.7734 Z " fill="#000000"/><text fill="#000000" font-family="sans-serif" font-size="12" font-style="italic" lengthAdjust="spacing" textLength="76" x="2754" y="1486.1387">«JavaScript»</text><text fill="#000000" font-family="sans-serif" font-size="14" lengthAdjust="spacing" textLength="94" x="2745" y="1501.9639">main-layout.js</text><line style="stroke:#181818;stroke-width:0.5;" x1="2717" x2="2841" y1="1510.2656" y2="1510.2656"/><line style="stroke:#181818;stroke-width:0.5;" x1="2717" x2="2841" y1="1518.2656" y2="1518.2656"/></g><!--class BlazorModalJs--><g id="elem_BlazorModalJs"><rect codeLine="189" fill="#F1F1F1" height="56.2656" id="BlazorModalJs" rx="2.5" ry="2.5" style="stroke:#181818;stroke-width:0.5;" width="136" x="2545" y="1470"/><ellipse cx="2560" cy="1490.1328" fill="#ADD1B2" rx="11" ry="11" style="stroke:#181818;stroke-width:1.0;"/><path d="M2562.9688,1495.7734 Q2562.3906,1496.0703 2561.75,1496.2109 Q2561.1094,1496.3672 2560.4063,1496.3672 Q2557.9063,1496.3672 2556.5781,1494.7266 Q2555.2656,1493.0703 2555.2656,1489.9453 Q2555.2656,1486.8203 2556.5781,1485.1641 Q2557.9063,1483.5078 2560.4063,1483.5078 Q2561.1094,1483.5078 2561.75,1483.6641 Q2562.4063,1483.8203 2562.9688,1484.1172 L2562.9688,1486.8359 Q2562.3438,1486.2578 2561.75,1485.9922 Q2561.1563,1485.7109 2560.5313,1485.7109 Q2559.1875,1485.7109 2558.5,1486.7891 Q2557.8125,1487.8516 2557.8125,1489.9453 Q2557.8125,1492.0391 2558.5,1493.1172 Q2559.1875,1494.1797 2560.5313,1494.1797 Q2561.1563,1494.1797 2561.75,1493.9141 Q2562.3438,1493.6328 2562.9688,1493.0547 L2562.9688,1495.7734 Z " fill="#000000"/><text fill="#000000" font-family="sans-serif" font-size="12" font-style="italic" lengthAdjust="spacing" textLength="76" x="2588" y="1486.1387">«JavaScript»</text><text fill="#000000" font-family="sans-serif" font-size="14" lengthAdjust="spacing" textLength="104" x="2574" y="1501.9639">blazor-modal.js</text><line style="stroke:#181818;stroke-width:0.5;" x1="2546" x2="2680" y1="1510.2656" y2="1510.2656"/><line style="stroke:#181818;stroke-width:0.5;" x1="2546" x2="2680" y1="1518.2656" y2="1518.2656"/></g><!--class KeyboardJs--><g id="elem_KeyboardJs"><rect codeLine="191" fill="#F1F1F1" height="56.2656" id="KeyboardJs" rx="2.5" ry="2.5" style="stroke:#181818;stroke-width:0.5;" width="111" x="2877.5" y="1470"/><ellipse cx="2892.5" cy="1490.1328" fill="#ADD1B2" rx="11" ry="11" style="stroke:#181818;stroke-width:1.0;"/><path d="M2895.4688,1495.7734 Q2894.8906,1496.0703 2894.25,1496.2109 Q2893.6094,1496.3672 2892.9063,1496.3672 Q2890.4063,1496.3672 2889.0781,1494.7266 Q2887.7656,1493.0703 2887.7656,1489.9453 Q2887.7656,1486.8203 2889.0781,1485.1641 Q2890.4063,1483.5078 2892.9063,1483.5078 Q2893.6094,1483.5078 2894.25,1483.6641 Q2894.9063,1483.8203 2895.4688,1484.1172 L2895.4688,1486.8359 Q2894.8438,1486.2578 2894.25,1485.9922 Q2893.6563,1485.7109 2893.0313,1485.7109 Q2891.6875,1485.7109 2891,1486.7891 Q2890.3125,1487.8516 2890.3125,1489.9453 Q2890.3125,1492.0391 2891,1493.1172 Q2891.6875,1494.1797 2893.0313,1494.1797 Q2893.6563,1494.1797 2894.25,1493.9141 Q2894.8438,1493.6328 2895.4688,1493.0547 L2895.4688,1495.7734 Z " fill="#000000"/><text fill="#000000" font-family="sans-serif" font-size="12" font-style="italic" lengthAdjust="spacing" textLength="76" x="2908" y="1486.1387">«JavaScript»</text><text fill="#000000" font-family="sans-serif" font-size="14" lengthAdjust="spacing" textLength="79" x="2906.5" y="1501.9639">keyboard.js</text><line style="stroke:#181818;stroke-width:0.5;" x1="2878.5" x2="2987.5" y1="1510.2656" y2="1510.2656"/><line style="stroke:#181818;stroke-width:0.5;" x1="2878.5" x2="2987.5" y1="1518.2656" y2="1518.2656"/></g><!--class TreeStyleCss--><g id="elem_TreeStyleCss"><rect codeLine="193" fill="#F1F1F1" height="48" id="TreeStyleCss" rx="2.5" ry="2.5" style="stroke:#181818;stroke-width:0.5;" width="121" x="2388.5" y="1474"/><ellipse cx="2403.5" cy="1490" fill="#ADD1B2" rx="11" ry="11" style="stroke:#181818;stroke-width:1.0;"/><path d="M2406.4688,1495.6406 Q2405.8906,1495.9375 2405.25,1496.0781 Q2404.6094,1496.2344 2403.9063,1496.2344 Q2401.4063,1496.2344 2400.0781,1494.5938 Q2398.7656,1492.9375 2398.7656,1489.8125 Q2398.7656,1486.6875 2400.0781,1485.0313 Q2401.4063,1483.375 2403.9063,1483.375 Q2404.6094,1483.375 2405.25,1483.5313 Q2405.9063,1483.6875 2406.4688,1483.9844 L2406.4688,1486.7031 Q2405.8438,1486.125 2405.25,1485.8594 Q2404.6563,1485.5781 2404.0313,1485.5781 Q2402.6875,1485.5781 2402,1486.6563 Q2401.3125,1487.7188 2401.3125,1489.8125 Q2401.3125,1491.9063 2402,1492.9844 Q2402.6875,1494.0469 2404.0313,1494.0469 Q2404.6563,1494.0469 2405.25,1493.7813 Q2405.8438,1493.5 2406.4688,1492.9219 L2406.4688,1495.6406 Z " fill="#000000"/><text fill="#000000" font-family="sans-serif" font-size="14" lengthAdjust="spacing" textLength="89" x="2417.5" y="1494.8467">treeStyle.css</text><line style="stroke:#181818;stroke-width:0.5;" x1="2389.5" x2="2508.5" y1="1506" y2="1506"/><line style="stroke:#181818;stroke-width:0.5;" x1="2389.5" x2="2508.5" y1="1514" y2="1514"/></g><!--class SiteCss--><g id="elem_SiteCss"><rect codeLine="195" fill="#F1F1F1" height="48" id="SiteCss" rx="2.5" ry="2.5" style="stroke:#181818;stroke-width:0.5;" width="85" x="2268.5" y="1474"/><ellipse cx="2283.5" cy="1490" fill="#ADD1B2" rx="11" ry="11" style="stroke:#181818;stroke-width:1.0;"/><path d="M2286.4688,1495.6406 Q2285.8906,1495.9375 2285.25,1496.0781 Q2284.6094,1496.2344 2283.9063,1496.2344 Q2281.4063,1496.2344 2280.0781,1494.5938 Q2278.7656,1492.9375 2278.7656,1489.8125 Q2278.7656,1486.6875 2280.0781,1485.0313 Q2281.4063,1483.375 2283.9063,1483.375 Q2284.6094,1483.375 2285.25,1483.5313 Q2285.9063,1483.6875 2286.4688,1483.9844 L2286.4688,1486.7031 Q2285.8438,1486.125 2285.25,1485.8594 Q2284.6563,1485.5781 2284.0313,1485.5781 Q2282.6875,1485.5781 2282,1486.6563 Q2281.3125,1487.7188 2281.3125,1489.8125 Q2281.3125,1491.9063 2282,1492.9844 Q2282.6875,1494.0469 2284.0313,1494.0469 Q2284.6563,1494.0469 2285.25,1493.7813 Q2285.8438,1493.5 2286.4688,1492.9219 L2286.4688,1495.6406 Z " fill="#000000"/><text fill="#000000" font-family="sans-serif" font-size="14" lengthAdjust="spacing" textLength="53" x="2297.5" y="1494.8467">site.css</text><line style="stroke:#181818;stroke-width:0.5;" x1="2269.5" x2="2352.5" y1="1506" y2="1506"/><line style="stroke:#181818;stroke-width:0.5;" x1="2269.5" x2="2352.5" y1="1514" y2="1514"/></g><g id="elem_GMN97"><path d="M2268,1587 L2268,1657.5313 A0,0 0 0 0 2268,1657.5313 L2464,1657.5313 A0,0 0 0 0 2464,1657.5313 L2464,1597 L2454,1587 L2354.5,1587 L2321.35,1522.04 L2346.5,1587 L2268,1587 A0,0 0 0 0 2268,1587 " fill="#FEFFDD" style="stroke:#181818;stroke-width:0.5;"/><path d="M2454,1587 L2454,1597 L2464,1597 L2454,1587 " fill="#FEFFDD" style="stroke:#181818;stroke-width:0.5;"/><text fill="#000000" font-family="sans-serif" font-size="13" lengthAdjust="spacing" textLength="140" x="2274" y="1604.0669">General place for CSS</text><text fill="#000000" font-family="sans-serif" font-size="13" lengthAdjust="spacing" textLength="65" x="2274" y="1619.1997">definitions</text><text fill="#000000" font-family="sans-serif" font-size="13" lengthAdjust="spacing" textLength="175" x="2274" y="1634.3325">overwriting some bootstrap</text><text fill="#000000" font-family="sans-serif" font-size="13" lengthAdjust="spacing" textLength="65" x="2274" y="1649.4653">definitions</text></g><!--reverse link MainWindowLogic to MainWindowTools--><g id="link_MainWindowLogic_MainWindowTools"><path codeLine="20" d="M106.2,468.16 C109.14,489.07 112.4,512.21 114.74,528.87 " fill="none" id="MainWindowLogic-backto-MainWindowTools" style="stroke:#181818;stroke-width:1.0;"/><polygon fill="none" points="99.26,469.09,103.41,448.31,113.13,467.14,99.26,469.09" style="stroke:#181818;stroke-width:1.0;"/></g><!--reverse link MainWindowTools to MainWindowDispatch--><g id="link_MainWindowTools_MainWindowDispatch"><path codeLine="31" d="M196.29,584.29 C255.42,607.16 336.29,638.45 395.87,661.5 " fill="none" id="MainWindowTools-backto-MainWindowDispatch" style="stroke:#181818;stroke-width:1.0;"/><polygon fill="none" points="193.65,590.77,177.52,577.03,198.7,577.71,193.65,590.77" style="stroke:#181818;stroke-width:1.0;"/></g><!--reverse link IMainWindow to MainWindowDispatch--><g id="link_IMainWindow_MainWindowDispatch"><path codeLine="33" d="M506.4,453.18 C499.49,507.62 486.52,609.66 479.99,661.12 " fill="none" id="IMainWindow-backto-MainWindowDispatch" style="stroke:#181818;stroke-width:1.0;"/><polygon fill="#181818" points="507.05,448.07,501.9496,456.4953,506.421,453.0303,509.8861,457.5017,507.05,448.07" style="stroke:#181818;stroke-width:1.0;"/><text fill="#000000" font-family="sans-serif" font-size="13" lengthAdjust="spacing" textLength="30" x="497" y="557.5669">uses</text></g><!--reverse link BlazorSession to BlazorSessionCommandBindings--><g id="link_BlazorSession_BlazorSessionCommandBindings"><path codeLine="96" d="M1411.15,1139.17 C1340.87,1181.69 1262.48,1229.11 1212.5,1259.35 " fill="none" id="BlazorSession-backto-BlazorSessionCommandBindings" style="stroke:#181818;stroke-width:1.0;"/><polygon fill="#181818" points="1422.36,1132.4,1415.1559,1132.0814,1412.0911,1138.6088,1419.2951,1138.9274,1422.36,1132.4" style="stroke:#181818;stroke-width:1.0;"/><text fill="#000000" font-family="sans-serif" font-size="13" lengthAdjust="spacing" textLength="40" x="1340" y="1193.0669">partial</text></g><!--reverse link MainWindowDispatch to BlazorSessionCommandBindings--><g id="link_MainWindowDispatch_BlazorSessionCommandBindings"><path codeLine="98" d="M515.76,729.1 C638.16,835.59 1008.03,1157.41 1125.08,1259.25 " fill="none" id="MainWindowDispatch-backto-BlazorSessionCommandBindings" style="stroke:#181818;stroke-width:1.0;"/><polygon fill="#181818" points="511.86,725.7,516.0376,734.6189,515.637,728.9763,521.2797,728.5757,511.86,725.7" style="stroke:#181818;stroke-width:1.0;"/><text fill="#000000" font-family="sans-serif" font-size="13" lengthAdjust="spacing" textLength="30" x="718" y="905.0669">uses</text></g><!--link GMN54 to MainLayout--><g id="link_GMN54_MainLayout"><path d="M3303.69,729.16 C3307.24,738.69 3310.67,749.12 3313,759 C3316.59,774.22 3318.58,791.58 3319.67,805.66 " fill="none" id="GMN54-MainLayout" style="stroke:#181818;stroke-width:1.0;stroke-dasharray:7.0,7.0;"/></g><!--link GMN58 to Tree--><g id="link_GMN58_Tree"><path d="M2889.75,854.11 C2857.35,873.49 2807.49,905.33 2769,939 C2741.77,962.83 2714.73,994.32 2696.89,1016.48 " fill="none" id="GMN58-Tree" style="stroke:#181818;stroke-width:1.0;stroke-dasharray:7.0,7.0;"/></g><!--link GMN67 to Modal--><g id="link_GMN67_Modal"><path d="M3121.14,713.54 C3137.81,726.11 3161.44,741.65 3185,749.5 C3236.4,766.63 3341.12,736.52 3304,776 C3266.94,815.42 2871.29,796.66 2818,806 C2812.34,806.99 2806.54,808.21 2800.73,809.57 " fill="none" id="GMN67-Modal" style="stroke:#181818;stroke-width:1.0;stroke-dasharray:7.0,7.0;"/></g><!--link GMN71 to DynamicMenuItem--><g id="link_GMN71_DynamicMenuItem"><path d="M2274.51,846.55 C2299.14,865.13 2348.36,903.19 2387,939 C2413.95,963.97 2442.59,994.72 2462.1,1016.38 " fill="none" id="GMN71-DynamicMenuItem" style="stroke:#181818;stroke-width:1.0;stroke-dasharray:7.0,7.0;"/></g><!--link GMN75 to AnyUiRenderStar--><g id="link_GMN75_AnyUiRenderStar"><path d="M1382.19,706.37 C1368.87,718.94 1347.66,739.63 1331,759 C1318.16,773.93 1304.96,791.59 1294.71,805.92 " fill="none" id="GMN75-AnyUiRenderStar" style="stroke:#181818;stroke-width:1.0;stroke-dasharray:7.0,7.0;"/></g><!--link GMN87 to StylePile--><g id="link_GMN87_StylePile"><path d="M1249.71,1064.57 C1270.84,1097.24 1318.6,1163.58 1377,1197 C1432.23,1228.6 1461.28,1196.26 1517,1227 C1534.94,1236.9 1550.98,1253.65 1562.24,1267.47 " fill="none" id="GMN87-StylePile" style="stroke:#181818;stroke-width:1.0;stroke-dasharray:7.0,7.0;"/></g><!--link wwwroot to GMN100--><g id="link_wwwroot_GMN100"><path d="M3032.1484,1504.199 C3032.2779,1504.2817 3032.4089,1504.3652 3032.5412,1504.4496 C3033.0704,1504.7873 3033.6217,1505.139 3034.1942,1505.5043 C3035.3393,1506.2349 3036.5696,1507.0199 3037.8792,1507.8555 C3040.4985,1509.5267 3043.435,1511.4003 3046.6419,1513.4464 C3059.4694,1521.6309 3076.6225,1532.5756 3095.0975,1544.3638 C3132.0475,1567.94 3174.285,1594.89 3197.78,1609.88 " fill="none" id="wwwroot-GMN100" style="stroke:#181818;stroke-width:1.0;stroke-dasharray:7.0,7.0;"/></g><!--reverse link Program to BlazorSession--><g id="link_Program_BlazorSession"><path codeLine="208" d="M1806.45,253.89 C1734.84,282.91 1652,333.98 1652,415 C1652,415 1652,415 1652,835 C1652,870.34 1641.31,906.67 1627.47,938.91 " fill="none" id="Program-backto-BlazorSession" style="stroke:#181818;stroke-width:1.0;"/><polygon fill="#181818" points="1818.75,249.08,1811.7041,247.5455,1807.5776,253.4593,1814.6236,254.9938,1818.75,249.08" style="stroke:#181818;stroke-width:1.0;"/><text fill="#000000" font-family="sans-serif" font-size="13" lengthAdjust="spacing" textLength="24" x="1606.9484" y="928.031">1..n</text></g><!--reverse link MainWindowDispatch to BlazorSession--><g id="link_MainWindowDispatch_BlazorSession"><path codeLine="210" d="M540.5,727.94 C647.67,782.9 858.58,888.3 939,909 C1123.67,956.53 1183.57,886.9 1367,939 C1385.49,944.25 1404.23,951.35 1422.44,959.39 " fill="none" id="MainWindowDispatch-backto-BlazorSession" style="stroke:#181818;stroke-width:1.0;"/><polygon fill="#181818" points="535.79,725.52,541.9826,733.1784,540.2419,727.7961,545.6243,726.0554,535.79,725.52" style="stroke:#181818;stroke-width:1.0;"/></g><!--reverse link IMainWindow to BlazorSession--><g id="link_IMainWindow_BlazorSession"><path codeLine="211" d="M623.8,449.13 C758.26,487.64 965,547.56 965,552 C965,552 965,552 965,835 C965,1019.55 1192.05,880.26 1367,939 C1385.4,945.18 1404.17,952.9 1422.46,961.34 " fill="none" id="IMainWindow-backto-BlazorSession" style="stroke:#181818;stroke-width:1.0;"/><polygon fill="none" points="621.82,455.85,604.52,443.62,625.67,442.39,621.82,455.85" style="stroke:#181818;stroke-width:1.0;"/></g><!--reverse link BlazorSession to BlazorVisualElements--><g id="link_BlazorSession_BlazorVisualElements"><path codeLine="213" d="M1722.05,1147.96 C1724.03,1148.67 1726.02,1149.35 1728,1150 C1834.85,1184.95 2121.38,1166.64 2233,1180 C2349.6,1193.95 2379.41,1197.22 2493,1227 C2523.09,1234.89 2555.33,1245.37 2584.23,1255.53 " fill="none" id="BlazorSession-backto-BlazorVisualElements" style="stroke:#181818;stroke-width:1.0;"/><polygon fill="#181818" points="1709.92,1143.28,1714.073,1149.1751,1721.112,1147.609,1716.959,1141.7138,1709.92,1143.28" style="stroke:#181818;stroke-width:1.0;"/><text fill="#000000" font-family="sans-serif" font-size="13" lengthAdjust="spacing" textLength="106" x="2360" y="1193.0669">DisplayElements</text></g><!--reverse link BlazorSession to AasxMenuBlazor--><g id="link_BlazorSession_AasxMenuBlazor"><path codeLine="214" d="M1576.64,1162.9 C1581.51,1175.39 1588.12,1187.11 1597,1197 C1626.48,1229.82 1739.99,1259.23 1816.76,1275.95 " fill="none" id="BlazorSession-backto-AasxMenuBlazor" style="stroke:#181818;stroke-width:1.0;"/><polygon fill="#181818" points="1572.31,1150.2,1570.4537,1157.1681,1576.1719,1161.5616,1578.0281,1154.5935,1572.31,1150.2" style="stroke:#181818;stroke-width:1.0;"/><text fill="#000000" font-family="sans-serif" font-size="13" lengthAdjust="spacing" textLength="65" x="1598" y="1193.0669">MainMenu</text></g><!--link Program to Index--><g id="link_Program_Index"><path codeLine="216" d="M1897.55,286.04 C1887.28,360.94 1880.27,487.1 1928,581 C1945.68,615.78 1979.63,643.54 2009.31,662.65 " fill="none" id="Program-to-Index" style="stroke:#181818;stroke-width:1.0;"/><polygon fill="#181818" points="2013.66,665.41,2008.1876,657.2214,2009.4329,662.7395,2003.9148,663.9848,2013.66,665.41" style="stroke:#181818;stroke-width:1.0;"/><text fill="#000000" font-family="sans-serif" font-size="13" lengthAdjust="spacing" textLength="37" x="1899" y="491.0669">starts</text></g><!--link Program to Startup--><g id="link_Program_Startup"><path codeLine="218" d="M1983.3,286.07 C2023.97,320.86 2072.2,362.12 2102.94,388.43 " fill="none" id="Program-to-Startup" style="stroke:#181818;stroke-width:1.0;"/><polygon fill="#181818" points="2106.98,391.88,2102.7306,382.9951,2103.1767,388.6343,2097.5374,389.0804,2106.98,391.88" style="stroke:#181818;stroke-width:1.0;"/><text fill="#000000" font-family="sans-serif" font-size="13" lengthAdjust="spacing" textLength="30" x="2035" y="329.0669">uses</text></g><!--link Startup to AppRazor--><g id="link_Startup_AppRazor"><path codeLine="219" d="M2140.36,440.21 C2146.38,462.17 2155.47,495.32 2162.18,519.83 " fill="none" id="Startup-to-AppRazor" style="stroke:#181818;stroke-width:1.0;"/><polygon fill="#181818" points="2163.58,524.92,2165.0417,515.1802,2162.2499,520.1002,2157.3299,517.3084,2163.58,524.92" style="stroke:#181818;stroke-width:1.0;"/><text fill="#000000" font-family="sans-serif" font-size="13" lengthAdjust="spacing" textLength="91" x="2155" y="491.0669">defines routes</text></g><!--link AppRazor to Index--><g id="link_AppRazor_Index"><path codeLine="221" d="M2150.31,581.03 C2132.77,603.95 2107.59,636.85 2089.13,660.97 " fill="none" id="AppRazor-to-Index" style="stroke:#181818;stroke-width:1.0;"/><polygon fill="#181818" points="2086,665.06,2094.6382,660.329,2089.0319,661.0842,2088.2768,655.4779,2086,665.06" style="stroke:#181818;stroke-width:1.0;"/><text fill="#000000" font-family="sans-serif" font-size="13" lengthAdjust="spacing" textLength="41" x="2125" y="624.0669">routes</text></g><!--link Index to BlazorSession--><g id="link_Index_BlazorSession"><path codeLine="223" d="M2010.77,702.9 C1942.4,715.66 1823.82,745.16 1741,806 C1734.16,811.02 1687.48,874.53 1644.05,934.61 " fill="none" id="Index-to-BlazorSession" style="stroke:#181818;stroke-width:1.0;"/><polygon fill="#181818" points="1640.93,938.93,1649.4491,933.9879,1643.8632,934.8808,1642.9704,929.2948,1640.93,938.93" style="stroke:#181818;stroke-width:1.0;"/><text fill="#000000" font-family="sans-serif" font-size="13" lengthAdjust="spacing" textLength="34" x="1742" y="838.5669">views</text></g><!--link Index to MainLayout--><g id="link_Index_MainLayout"><path codeLine="224" d="M2119.16,705.82 C2185.99,719.2 2303.28,740.74 2405,749.5 C2450.78,753.44 3188.88,743.13 3232,759 C3255.84,767.77 3277.85,785.93 3294.01,802.06 " fill="none" id="Index-to-MainLayout" style="stroke:#181818;stroke-width:1.0;"/><polygon fill="#181818" points="3297.57,805.68,3294.0902,796.4664,3294.056,802.1231,3288.3992,802.0888,3297.57,805.68" style="stroke:#181818;stroke-width:1.0;"/><text fill="#000000" font-family="sans-serif" font-size="13" lengthAdjust="spacing" textLength="30" x="3263" y="772.0669">uses</text></g><!--link Index to TreeOfAasxVisualElements--><g id="link_Index_TreeOfAasxVisualElements"><path codeLine="225" d="M2119.32,711.48 C2193.36,734.63 2326.97,776.4 2416.58,804.42 " fill="none" id="Index-to-TreeOfAasxVisualElements" style="stroke:#181818;stroke-width:1.0;"/><polygon fill="#181818" points="2421.62,805.99,2414.2339,799.475,2416.8501,804.4905,2411.8347,807.1068,2421.62,805.99" style="stroke:#181818;stroke-width:1.0;"/><text fill="#000000" font-family="sans-serif" font-size="13" lengthAdjust="spacing" textLength="30" x="2314" y="772.0669">uses</text></g><!--link Index to AnyUiFlyoutStar--><g id="link_Index_AnyUiFlyoutStar"><path codeLine="226" d="M2010.62,699.76 C1907.93,709.88 1678.49,733.31 1486,759 C1351.36,776.97 1316.57,776.37 1184,806 C1179.91,806.91 1175.74,807.91 1171.54,808.96 " fill="none" id="Index-to-AnyUiFlyoutStar" style="stroke:#181818;stroke-width:1.0;"/><polygon fill="#181818" points="1166.6,810.22,1176.3118,811.8572,1171.4431,808.9771,1174.3232,804.1083,1166.6,810.22" style="stroke:#181818;stroke-width:1.0;"/><text fill="#000000" font-family="sans-serif" font-size="13" lengthAdjust="spacing" textLength="30" x="1487" y="772.0669">uses</text></g><!--link TreeOfAasxVisualElements to AnyUiDialogueDataStar--><g id="link_TreeOfAasxVisualElements_AnyUiDialogueDataStar"><path codeLine="228" d="M2433.48,862.04 C2385.9,878.22 2322.56,897.75 2265,909 C2120.03,937.33 2067.7,876.2 1934,939 C1897.86,955.97 1867.15,991.06 1848.67,1015.88 " fill="none" id="TreeOfAasxVisualElements-to-AnyUiDialogueDataStar" style="stroke:#181818;stroke-width:1.0;"/><polygon fill="#181818" points="1845.59,1020.08,1854.1514,1015.2114,1848.5579,1016.0562,1847.7132,1010.4627,1845.59,1020.08" style="stroke:#181818;stroke-width:1.0;"/><text fill="#000000" font-family="sans-serif" font-size="13" lengthAdjust="spacing" textLength="56" x="2333" y="905.0669">works on</text></g><!--link TreeOfAasxVisualElements to Tree--><g id="link_TreeOfAasxVisualElements_Tree"><path codeLine="230" d="M2529.96,862.26 C2558.32,897.46 2608,959.11 2641.45,1000.62 " fill="none" id="TreeOfAasxVisualElements-to-Tree" style="stroke:#181818;stroke-width:1.0;"/><polygon fill="none" points="2646.93,996.27,2654.03,1016.24,2636.03,1005.05,2646.93,996.27" style="stroke:#181818;stroke-width:1.0;"/><text fill="#000000" font-family="sans-serif" font-size="13" lengthAdjust="spacing" textLength="37" x="2568" y="905.0669">wraps</text></g><!--link Index to MultiLineText--><g id="link_Index_MultiLineText"><path codeLine="232" d="M2119.01,704.44 C2185.93,716.47 2303.55,736.72 2405,749.5 C2681.28,784.31 2755.51,753.58 3029,806 C3032.76,806.72 3036.58,807.53 3040.42,808.41 " fill="none" id="Index-to-MultiLineText" style="stroke:#181818;stroke-width:1.0;"/><polygon fill="#181818" points="3045.3,809.56,3037.4515,803.6101,3040.4322,808.418,3035.6243,811.3986,3045.3,809.56" style="stroke:#181818;stroke-width:1.0;"/><text fill="#000000" font-family="sans-serif" font-size="13" lengthAdjust="spacing" textLength="30" x="2804" y="772.0669">uses</text></g><!--link Index to AnyUiRenderStar--><g id="link_Index_AnyUiRenderStar"><path codeLine="233" d="M2010.56,700.83 C1893.63,714.97 1610.15,752.17 1377,806 C1370.03,807.61 1362.81,809.36 1355.59,811.18 " fill="none" id="Index-to-AnyUiRenderStar" style="stroke:#181818;stroke-width:1.0;"/><polygon fill="#181818" points="1350.59,812.44,1360.2973,814.1041,1355.4365,811.2105,1358.3301,806.3497,1350.59,812.44" style="stroke:#181818;stroke-width:1.0;"/><text fill="#000000" font-family="sans-serif" font-size="13" lengthAdjust="spacing" textLength="30" x="1603" y="772.0669">uses</text></g><!--link AnyUiRenderStar to BlazorSession--><g id="link_AnyUiRenderStar_BlazorSession"><path codeLine="235" d="M1220.89,862.14 C1200.86,875.59 1186.18,892.47 1200,909 C1248.38,966.85 1295.67,914.52 1367,939 C1383.78,944.76 1400.88,951.77 1417.66,959.41 " fill="none" id="AnyUiRenderStar-to-BlazorSession" style="stroke:#181818;stroke-width:1.0;"/><polygon fill="#181818" points="1422.38,961.58,1415.8698,954.1896,1417.836,959.4938,1412.5319,961.46,1422.38,961.58" style="stroke:#181818;stroke-width:1.0;"/><text fill="#000000" font-family="sans-serif" font-size="13" lengthAdjust="spacing" textLength="141" x="1201" y="905.0669">renders ElementPanel</text></g><!--link Tree to BlazorVisualElements--><g id="link_Tree_BlazorVisualElements"><path codeLine="238" d="M2676,1072.66 C2676,1108.37 2676,1172.38 2676,1221.8 " fill="none" id="Tree-to-BlazorVisualElements" style="stroke:#181818;stroke-width:1.0;"/><polygon fill="#181818" points="2676,1226.84,2680,1217.84,2676,1221.84,2672,1217.84,2676,1226.84" style="stroke:#181818;stroke-width:1.0;"/><text fill="#000000" font-family="sans-serif" font-size="13" lengthAdjust="spacing" textLength="49" x="2677" y="1193.0669">renders</text></g><!--reverse link ToBeDone to AnyUiDisplayContextHtml--><g id="link_ToBeDone_AnyUiDisplayContextHtml"><path codeLine="241" d="M2062.74,871.25 C2060.07,914.1 2055.7,984.14 2053.45,1020.29 " fill="none" id="ToBeDone-backto-AnyUiDisplayContextHtml" style="stroke:#181818;stroke-width:1.0;"/><polygon fill="#181818" points="2063.56,858.11,2059.1919,863.8476,2062.8082,870.0864,2067.1762,864.3488,2063.56,858.11" style="stroke:#181818;stroke-width:1.0;"/><text fill="#000000" font-family="sans-serif" font-size="13" lengthAdjust="spacing" textLength="94" x="2062" y="905.0669">displayContext</text></g><!--reverse link ToBeDone to AnyUiDisplayDataHtml--><g id="link_ToBeDone_AnyUiDisplayDataHtml"><path codeLine="242" d="M2125.74,864.41 C2139.37,872.39 2153.26,881.71 2165,892 C2209.07,930.64 2247.32,988.53 2266.62,1020.4 " fill="none" id="ToBeDone-backto-AnyUiDisplayDataHtml" style="stroke:#181818;stroke-width:1.0;"/><polygon fill="#181818" points="2114.4,858.03,2117.6626,864.4608,2124.8536,863.9225,2121.591,857.4917,2114.4,858.03" style="stroke:#181818;stroke-width:1.0;"/><text fill="#000000" font-family="sans-serif" font-size="13" lengthAdjust="spacing" textLength="75" x="2181" y="905.0669">displayData</text></g><!--link Index to ToBeDone--><g id="link_Index_ToBeDone"><path codeLine="244" d="M2065,721.53 C2065,745.49 2065,780.35 2065,804.69 " fill="none" id="Index-to-ToBeDone" style="stroke:#181818;stroke-width:1.0;"/><polygon fill="#181818" points="2065,809.72,2069,800.72,2065,804.72,2061,800.72,2065,809.72" style="stroke:#181818;stroke-width:1.0;"/><text fill="#000000" font-family="sans-serif" font-size="13" lengthAdjust="spacing" textLength="52" x="2066" y="772.0669">includes</text></g><!--link AnyUiRenderStar to StylePile--><g id="link_AnyUiRenderStar_StylePile"><path codeLine="246" d="M1206.83,862.07 C1155.47,883.74 1091.87,914.45 1077,939 C1028.42,1019.21 1016.69,1078.19 1077,1150 C1204.68,1302.02 1341.37,1134.44 1517,1227 C1533.43,1235.66 1548.13,1250.24 1559.09,1263.25 " fill="none" id="AnyUiRenderStar-to-StylePile" style="stroke:#181818;stroke-width:1.0;"/><polygon fill="#181818" points="1562.37,1267.23,1559.7228,1257.7436,1559.186,1263.3749,1553.5546,1262.838,1562.37,1267.23" style="stroke:#181818;stroke-width:1.0;"/><text fill="#000000" font-family="sans-serif" font-size="13" lengthAdjust="spacing" textLength="30" x="1078" y="1049.0669">uses</text></g><!--link Index to StylePile--><g id="link_Index_StylePile"><path codeLine="247" d="M2010.78,706.11 C1930.49,723.03 1775.12,754.77 1642,776 C1589.58,784.36 1440.84,766.84 1405,806 C1375.65,838.07 1364.05,1162.89 1391,1197 C1426.68,1242.17 1466.92,1198.62 1517,1227 C1533.04,1236.09 1547.62,1250.55 1558.61,1263.37 " fill="none" id="Index-to-StylePile" style="stroke:#181818;stroke-width:1.0;"/><polygon fill="#181818" points="1561.91,1267.3,1559.1866,1257.8352,1558.695,1263.4706,1553.0596,1262.9791,1561.91,1267.3" style="stroke:#181818;stroke-width:1.0;"/><text fill="#000000" font-family="sans-serif" font-size="13" lengthAdjust="spacing" textLength="30" x="1385" y="905.0669">uses</text></g><!--link DynamicMenuItem to StylePile--><g id="link_DynamicMenuItem_StylePile"><path codeLine="248" d="M2468.85,1072.56 C2451.49,1097.36 2422.24,1132.75 2387,1150 C2325.63,1180.03 2148.73,1171.03 2081,1180 C1955.47,1196.63 1923.5,1199.03 1800,1227 C1740.46,1240.49 1673.19,1260.52 1628.67,1274.47 " fill="none" id="DynamicMenuItem-to-StylePile" style="stroke:#181818;stroke-width:1.0;"/><polygon fill="#181818" points="1623.9,1275.97,1633.6853,1277.0868,1628.6699,1274.4705,1631.2861,1269.455,1623.9,1275.97" style="stroke:#181818;stroke-width:1.0;"/><text fill="#000000" font-family="sans-serif" font-size="13" lengthAdjust="spacing" textLength="30" x="2082" y="1193.0669">uses</text></g><!--link DynamicMenuItem to SiteCss--><g id="link_DynamicMenuItem_SiteCss"><path codeLine="249" d="M2480.73,1072.76 C2474.45,1103.43 2462.89,1154.52 2448,1197 C2411.7,1300.59 2352.93,1417.28 2325.71,1469.34 " fill="none" id="DynamicMenuItem-to-SiteCss" style="stroke:#181818;stroke-width:1.0;"/><polygon fill="#181818" points="2323.33,1473.88,2331.0435,1467.7561,2325.6458,1469.4486,2323.9533,1464.0509,2323.33,1473.88" style="stroke:#181818;stroke-width:1.0;"/><text fill="#000000" font-family="sans-serif" font-size="13" lengthAdjust="spacing" textLength="30" x="2437" y="1296.0669">uses</text></g><!--link DynamicMenuItem to AasxMenuBlazor--><g id="link_DynamicMenuItem_AasxMenuBlazor"><path codeLine="250" d="M2468.33,1072.68 C2450.81,1097.2 2421.63,1132.08 2387,1150 C2303.66,1193.12 2268.82,1156.38 2178,1180 C2102.76,1199.57 2020.24,1232.48 1962.89,1257.3 " fill="none" id="DynamicMenuItem-to-AasxMenuBlazor" style="stroke:#181818;stroke-width:1.0;"/><polygon fill="#181818" points="1958.12,1259.38,1967.9684,1259.4743,1962.7083,1257.3932,1964.7895,1252.1331,1958.12,1259.38" style="stroke:#181818;stroke-width:1.0;"/><text fill="#000000" font-family="sans-serif" font-size="13" lengthAdjust="spacing" textLength="49" x="2179" y="1193.0669">renders</text></g><!--link MainLayout to MainLayoutJs--><g id="link_MainLayout_MainLayoutJs"><path codeLine="252" d="M3321.47,862.28 C3322.63,965.59 3320.81,1330.63 3239,1403 C3223.23,1416.95 2879.25,1402.45 2860,1411 C2834.56,1422.31 2813.33,1445.8 2798.99,1465.38 " fill="none" id="MainLayout-to-MainLayoutJs" style="stroke:#181818;stroke-width:1.0;"/><polygon fill="#181818" points="2795.86,1469.75,2804.3593,1464.7739,2798.777,1465.6891,2797.8619,1460.1067,2795.86,1469.75" style="stroke:#181818;stroke-width:1.0;"/><text fill="#000000" font-family="sans-serif" font-size="13" lengthAdjust="spacing" textLength="30" x="3308" y="1193.0669">uses</text></g><!--link MainLayout to DynamicMenuItem--><g id="link_MainLayout_DynamicMenuItem"><path codeLine="253" d="M3266.39,849.9 C3249.09,854.25 3229.83,858.71 3212,862 C2935.46,913.01 2834.74,811.71 2584,939 C2551.29,955.6 2523.75,987.75 2506.27,1012.03 " fill="none" id="MainLayout-to-DynamicMenuItem" style="stroke:#181818;stroke-width:1.0;"/><polygon fill="#181818" points="2503.34,1016.16,2511.8194,1011.1501,2506.2408,1012.0875,2505.3034,1006.5088,2503.34,1016.16" style="stroke:#181818;stroke-width:1.0;"/><text fill="#000000" font-family="sans-serif" font-size="13" lengthAdjust="spacing" textLength="30" x="2695" y="905.0669">uses</text></g><!--link Index to Modal--><g id="link_Index_Modal"><path codeLine="255" d="M2119.1,703.39 C2220.65,720.46 2446.49,760.21 2634,806 C2638.07,806.99 2642.22,808.05 2646.41,809.15 " fill="none" id="Index-to-Modal" style="stroke:#181818;stroke-width:1.0;"/><polygon fill="#181818" points="2651.34,810.47,2643.6723,804.2889,2646.5084,809.1835,2641.6138,812.0196,2651.34,810.47" style="stroke:#181818;stroke-width:1.0;"/></g><!--link Index to BlazorModalJs--><g id="link_Index_BlazorModalJs"><path codeLine="256" d="M2119.17,705.65 C2186.02,718.85 2303.32,740.22 2405,749.5 C2598.91,767.2 2648.82,744.57 2843,759 C2930.32,765.49 3230,745.44 3230,833 C3230,833 3230,833 3230,1292.5 C3230,1534.31 2910.92,1294.55 2699,1411 C2674.57,1424.42 2652.47,1446.87 2636.79,1465.47 " fill="none" id="Index-to-BlazorModalJs" style="stroke:#181818;stroke-width:1.0;"/><polygon fill="#181818" points="2633.34,1469.62,2642.173,1465.2635,2636.5395,1465.7777,2636.0253,1460.1443,2633.34,1469.62" style="stroke:#181818;stroke-width:1.0;"/></g><!--link MainLayout to KeyboardJs--><g id="link_MainLayout_KeyboardJs"><path codeLine="258" d="M3332.46,862.07 C3369.55,954.47 3475.16,1259.59 3318,1403 C3304.66,1415.17 3008.91,1402.45 2993,1411 C2971.42,1422.6 2955.94,1445.77 2946.12,1465.15 " fill="none" id="MainLayout-to-KeyboardJs" style="stroke:#181818;stroke-width:1.0;"/><polygon fill="#181818" points="2943.75,1469.98,2951.3044,1463.6609,2945.9517,1465.4908,2944.1217,1460.1382,2943.75,1469.98" style="stroke:#181818;stroke-width:1.0;"/></g><!--link StylePile to SiteCss--><g id="link_StylePile_SiteCss"><path codeLine="260" d="M1628.9,1307 C1673.66,1319.97 1741.17,1339.43 1800,1356 C1970.19,1403.93 2172.73,1459.33 2263.21,1484 " fill="none" id="StylePile-SiteCss" style="stroke:#181818;stroke-width:1.0;"/><polygon fill="#181818" points="1623.83,1305.53,1631.35,1311.89,1628.63,1306.93,1633.59,1304.21,1623.83,1305.53" style="stroke:#181818;stroke-width:1.0;"/><polygon fill="#181818" points="2268.22,1485.36,2260.5912,1479.131,2263.3965,1484.0432,2258.4843,1486.8486,2268.22,1485.36" style="stroke:#181818;stroke-width:1.0;"/><text fill="#000000" font-family="sans-serif" font-size="13" lengthAdjust="spacing" textLength="57" x="1955" y="1399.0669">co-exists</text></g><!--SRC=[bLTRSnet57xVNw6XBqbgcEahusR6nd7jr6wOGEp7ZjWLe5X8Ev80ayJ_lT-HLh0NYDEdtJrNdTkdioNFd_X2i0lkdiVn_SuiPCw-Prckk7FidalzA7LXjed1M2Kv4jfRhhANJ1ilc9MBfGVtaZl1elBSMCPd3bAvPs2zqKRtlzo-PIjOPTjW5kGbruMIUZ78X2uO6UjwdngZNDFHnAm4yqHdRovqOGLtPo0xaQ-jzBktREr4mMOxq5PhvMMf15i9lMRpjSwzDDhL_BNZFF_HxtVSTqvr9Lt9VRuCQVcTZSngXLWkmKCu__ubj422aj2Rj-rKNQJSX6D9BrPk0FAjXXxBZHNCp5kyHwaKcmcsjRmi4Hxo-3Y-FcCtq_kxCqR7V99-S3Im44Cxi7IuBBiz4Dbv_wWG6r9EztceQr02liWxmukgEnwbN_uZjaU2rlNoCor4uPXSeJg8r3E_b0vLPLmfS24_Mpkf1TofK1YmF4mja24e6Uivb9pdy03X7Bsq48vjf9Cp9OBqKj2fxHaJWyK0LdZHwhMNB2kxW_3XkLGeWJtCmjYQXUMhB1RxKnbxYDx7LipfRMDamIPoeRb2x5VSSyHVaIbPXwyHsjMB6-FyvLggGjX3ehmfgRjnI2MyqLJroZF5QJqHKaKWnCG6UGivGssS98ts74r8RrtMxLyQgH1SgIXpkIb4HwbtKPO3oxyPssFSCNnzfWzsVXwUxzw_JvANYWYJw3saftg_BT0oKbFPurWDZxLU34VntOVO0mvYqUI3T6kk4Xc2f7rF0p4CfQBNA4b6TfglP7wI7NrGKOYjTrzaZNJZLmf2bQinrq8bAIGlVmeK4YYalqUsm9nXda2vGNnD2hgXv5RKh0EUwfRRjPvIprFRBmC56KEXTIu2W1906aKzc-hB2fYCGF5Lv3wW0AeVIiLAjAxhTa2lKQD14wdS87UXnWsXbamOyV-BSFSDl6NRfGIAW2xrngYDO1ppw0db2B_gfswSXBq37FtqR4F4RRt4RPGTWQtprzNhk7Qqz-BGJwqGjuJ5uMiYLCW_KJe44laiPZJTr8l9K820gTr5qOQJTblSSurY1bH4XZnSntkWKznRNOZdD9TZw60q6tO0jxdHdYnHVn0AozMGFKYnfHla_k7XlcPq3uRK_M4mAFZewiJST9aZylVi0_-bVdFUyPrPUvmslZIF6bFFvW37jQLp4aAwsDJKe5KK4H8tiW3rUjzT6ycfjqRSvG7ZnnoOARomdOHH6LE-q0kbqJ3QF4beRI1MdjW4iBHAXAAmfKJZ0tzpha9bZhhuDAVADnlf5RUJKkHeO_aDKxrt3JeXGTTOTs6YHUSEz-KKkJ_cAicP0WV_jGmKiQ3KWnH_qApgq3r03OHf25vnyHdgy05eW_64s2UQl1UwAsgyYpVIWK0NtAk-i1Sw2T2n3Qza1Cj8iH3-bDChLCGire8QlkQwJgO3rBrTmS66QaXcqAK9mi5A6p6uHMK1GpWtfxnVAvgJcjz8-8MGRu1nkULpSXNhbXmwEWWQMkeIiqZhKRXKZYmEEoN6s1JgPeCtL-NFaSIVlS5WqCCxPPM0ZoOSJC9NJ2awber-Ozo3FrjxqOsqTLj_hwwEmpLE658jPcoxtLfZV0sLUhHHzbK0bC7NU9STiEOZ3Tr7lk6JtCgISiJOGNKMNFP3Vf9kF4OOafyhFudTp71R9CM_g- -kra67u2Ba5RTkr9ecoiYvcg338Enb9lWWDWjvmwhXlQ5BfvfJP1X3MgqCeyc41LOXvbBBjAUYB1jXj_Wv2ii4_JvXO_7KZMLRF0HPNv5hNgcogGQCNQCxqDy2VolRwkU4ho75FO6Zsc5hiJG9XCutq-cuLlkqrjBrtljZCD2zrYfvuZ9ltURDNvSVNVx9RQ85pSFs8df4iTcfrK8REdGVJh__lhgIXt5ZTqrUjOsdhIDz4ck_P0zZCP1PQyB4P7jMtNnYnc_YD4yyHDh5rjNujIkuyd_WdRopEf9j74eBr4aBUwKsQ49rQ-oJOrIddwZ_YCSZSRHh8-JcfNVyhBLh8fsrJJ-MlNXLkCP_GHRFMPFlPAjIs-y2vb9S0P-pz18xwVYsHALl44zhfGLihq64UcRsclGNbgjrSIhkFSvtqzTXjQxuNvQ907P28bQgFLlxFDQwjjd47_S6Mo9j-wdgjROXUEzCJWNw7PS7PC-oGxZdpSXoqnVFqj70lsJ_0G00]--></g></svg>