<?xml version="1.0" encoding="UTF-8" standalone="no"?><svg xmlns="http://www.w3.org/2000/svg" xmlns:xlink="http://www.w3.org/1999/xlink" contentStyleType="text/css" height="1892px" preserveAspectRatio="none" style="width:3563px;height:1892px;background:#FFFFFF;" version="1.1" viewBox="0 0 3563 1892" width="3563px" zoomAndPan="magnify"><defs/><g><!--cluster AasxPackageLogic--><g id="cluster_AasxPackageLogic"><path d="M8.5,349 L155.5,349 A3.75,3.75 0 0 1 158,351.5 L165,371.2969 L976.5,371.2969 A2.5,2.5 0 0 1 979,373.7969 L979,739 A2.5,2.5 0 0 1 976.5,741.5 L8.5,741.5 A2.5,2.5 0 0 1 6,739 L6,351.5 A2.5,2.5 0 0 1 8.5,349 " fill="none" style="stroke:#000000;stroke-width:1.5;"/><line style="stroke:#000000;stroke-width:1.5;" x1="6" x2="165" y1="371.2969" y2="371.2969"/><text fill="#000000" font-family="sans-serif" font-size="14" font-weight="bold" lengthAdjust="spacing" textLength="146" x="10" y="363.9951">AasxPackageLogic</text></g><!--cluster AasxPackageExplorer--><g id="cluster_AasxPackageExplorer"><path d="M1005.5,6 L1176.5,6 A3.75,3.75 0 0 1 1179,8.5 L1186,28.2969 L3553.5,28.2969 A2.5,2.5 0 0 1 3556,30.7969 L3556,1882.5 A2.5,2.5 0 0 1 3553.5,1885 L1005.5,1885 A2.5,2.5 0 0 1 1003,1882.5 L1003,8.5 A2.5,2.5 0 0 1 1005.5,6 " fill="none" style="stroke:#000000;stroke-width:1.5;"/><line style="stroke:#000000;stroke-width:1.5;" x1="1003" x2="1186" y1="28.2969" y2="28.2969"/><text fill="#000000" font-family="sans-serif" font-size="14" font-weight="bold" lengthAdjust="spacing" textLength="170" x="1007" y="20.9951">AasxPackageExplorer</text></g><!--cluster AnyUiHtml--><g id="cluster_AnyUiHtml"><path d="M1680.5,1015.5 L1761.5,1015.5 A3.75,3.75 0 0 1 1764,1018 L1771,1037.7969 L2128.5,1037.7969 A2.5,2.5 0 0 1 2131,1040.2969 L2131,1112 A2.5,2.5 0 0 1 2128.5,1114.5 L1680.5,1114.5 A2.5,2.5 0 0 1 1678,1112 L1678,1018 A2.5,2.5 0 0 1 1680.5,1015.5 " fill="none" style="stroke:#000000;stroke-width:1.5;"/><line style="stroke:#000000;stroke-width:1.5;" x1="1678" x2="1771" y1="1037.7969" y2="1037.7969"/><text fill="#000000" font-family="sans-serif" font-size="14" font-weight="bold" lengthAdjust="spacing" textLength="80" x="1682" y="1030.4951">AnyUiHtml</text></g><!--cluster wwwroot--><g id="cluster_wwwroot"><path d="M2023.5,1598 L2099.5,1598 A3.75,3.75 0 0 1 2102,1600.5 L2109,1620.2969 L2806.5,1620.2969 A2.5,2.5 0 0 1 2809,1622.7969 L2809,1850.5 A2.5,2.5 0 0 1 2806.5,1853 L2023.5,1853 A2.5,2.5 0 0 1 2021,1850.5 L2021,1600.5 A2.5,2.5 0 0 1 2023.5,1598 " fill="none" style="stroke:#000000;stroke-width:1.5;"/><line style="stroke:#000000;stroke-width:1.5;" x1="2021" x2="2109" y1="1620.2969" y2="1620.2969"/><text fill="#000000" font-family="sans-serif" font-size="14" font-weight="bold" lengthAdjust="spacing" textLength="75" x="2025" y="1612.9951">wwwroot</text></g><!--class MainWindowLogic--><g id="elem_MainWindowLogic"><rect codeLine="4" fill="#F1F1F1" height="64.2969" id="MainWindowLogic" rx="2.5" ry="2.5" style="stroke:#181818;stroke-width:0.5;" width="154" x="22" y="384"/><ellipse cx="37" cy="400" fill="#ADD1B2" rx="11" ry="11" style="stroke:#181818;stroke-width:1.0;"/><path d="M39.9688,405.6406 Q39.3906,405.9375 38.75,406.0781 Q38.1094,406.2344 37.4063,406.2344 Q34.9063,406.2344 33.5781,404.5938 Q32.2656,402.9375 32.2656,399.8125 Q32.2656,396.6875 33.5781,395.0313 Q34.9063,393.375 37.4063,393.375 Q38.1094,393.375 38.75,393.5313 Q39.4063,393.6875 39.9688,393.9844 L39.9688,396.7031 Q39.3438,396.125 38.75,395.8594 Q38.1563,395.5781 37.5313,395.5781 Q36.1875,395.5781 35.5,396.6563 Q34.8125,397.7188 34.8125,399.8125 Q34.8125,401.9063 35.5,402.9844 Q36.1875,404.0469 37.5313,404.0469 Q38.1563,404.0469 38.75,403.7813 Q39.3438,403.5 39.9688,402.9219 L39.9688,405.6406 Z " fill="#000000"/><text fill="#000000" font-family="sans-serif" font-size="14" lengthAdjust="spacing" textLength="122" x="51" y="404.8467">MainWindowLogic</text><line style="stroke:#181818;stroke-width:0.5;" x1="23" x2="175" y1="416" y2="416"/><text fill="#000000" font-family="sans-serif" font-size="14" lengthAdjust="spacing" textLength="108" x="28" y="432.9951">PackageCentral</text><line style="stroke:#181818;stroke-width:0.5;" x1="23" x2="175" y1="440.2969" y2="440.2969"/></g><g id="elem_GMN4"><path d="M791.5,388.5 L791.5,443.8984 L962.5,443.8984 L962.5,398.5 L952.5,388.5 L791.5,388.5 " fill="#FEFFDD" style="stroke:#181818;stroke-width:0.5;"/><path d="M952.5,388.5 L952.5,398.5 L962.5,398.5 L952.5,388.5 " fill="#FEFFDD" style="stroke:#181818;stroke-width:1.0;"/><text fill="#000000" font-family="sans-serif" font-size="13" lengthAdjust="spacing" textLength="146" x="797.5" y="405.5669">Base class for abstract</text><text fill="#000000" font-family="sans-serif" font-size="13" lengthAdjust="spacing" textLength="137" x="797.5" y="420.6997">(non-UI) main window</text><text fill="#000000" font-family="sans-serif" font-size="13" lengthAdjust="spacing" textLength="58" x="797.5" y="435.8325">handling.</text></g><!--class MainWindowTools--><g id="elem_MainWindowTools"><rect codeLine="13" fill="#F1F1F1" height="48" id="MainWindowTools" rx="2.5" ry="2.5" style="stroke:#181818;stroke-width:0.5;" width="156" x="31" y="529"/><ellipse cx="46" cy="545" fill="#ADD1B2" rx="11" ry="11" style="stroke:#181818;stroke-width:1.0;"/><path d="M48.9688,550.6406 Q48.3906,550.9375 47.75,551.0781 Q47.1094,551.2344 46.4063,551.2344 Q43.9063,551.2344 42.5781,549.5938 Q41.2656,547.9375 41.2656,544.8125 Q41.2656,541.6875 42.5781,540.0313 Q43.9063,538.375 46.4063,538.375 Q47.1094,538.375 47.75,538.5313 Q48.4063,538.6875 48.9688,538.9844 L48.9688,541.7031 Q48.3438,541.125 47.75,540.8594 Q47.1563,540.5781 46.5313,540.5781 Q45.1875,540.5781 44.5,541.6563 Q43.8125,542.7188 43.8125,544.8125 Q43.8125,546.9063 44.5,547.9844 Q45.1875,549.0469 46.5313,549.0469 Q47.1563,549.0469 47.75,548.7813 Q48.3438,548.5 48.9688,547.9219 L48.9688,550.6406 Z " fill="#000000"/><text fill="#000000" font-family="sans-serif" font-size="14" lengthAdjust="spacing" textLength="124" x="60" y="549.8467">MainWindowTools</text><line style="stroke:#181818;stroke-width:0.5;" x1="32" x2="186" y1="561" y2="561"/><line style="stroke:#181818;stroke-width:0.5;" x1="32" x2="186" y1="569" y2="569"/></g><g id="elem_GMN8"><path d="M222.5,525.5 L222.5,549 L187.12,553 L222.5,557 L222.5,580.8984 A0,0 0 0 0 222.5,580.8984 L397.5,580.8984 A0,0 0 0 0 397.5,580.8984 L397.5,535.5 L387.5,525.5 L222.5,525.5 A0,0 0 0 0 222.5,525.5 " fill="#FEFFDD" style="stroke:#181818;stroke-width:0.5;"/><path d="M387.5,525.5 L387.5,535.5 L397.5,535.5 L387.5,525.5 " fill="#FEFFDD" style="stroke:#181818;stroke-width:0.5;"/><text fill="#000000" font-family="sans-serif" font-size="13" lengthAdjust="spacing" textLength="139" x="228.5" y="542.5669">Some tools (Andreas,</text><text fill="#000000" font-family="sans-serif" font-size="13" lengthAdjust="spacing" textLength="109" x="228.5" y="557.6997">security) used by</text><text fill="#000000" font-family="sans-serif" font-size="13" lengthAdjust="spacing" textLength="154" x="228.5" y="572.8325">multiple menu functions</text></g><!--class MainWindowDispatch--><g id="elem_MainWindowDispatch"><rect codeLine="22" fill="#F1F1F1" height="64.2969" id="MainWindowDispatch" rx="2.5" ry="2.5" style="stroke:#181818;stroke-width:0.5;" width="281" x="333.5" y="661.5"/><ellipse cx="396.25" cy="677.5" fill="#ADD1B2" rx="11" ry="11" style="stroke:#181818;stroke-width:1.0;"/><path d="M399.2188,683.1406 Q398.6406,683.4375 398,683.5781 Q397.3594,683.7344 396.6563,683.7344 Q394.1563,683.7344 392.8281,682.0938 Q391.5156,680.4375 391.5156,677.3125 Q391.5156,674.1875 392.8281,672.5313 Q394.1563,670.875 396.6563,670.875 Q397.3594,670.875 398,671.0313 Q398.6563,671.1875 399.2188,671.4844 L399.2188,674.2031 Q398.5938,673.625 398,673.3594 Q397.4063,673.0781 396.7813,673.0781 Q395.4375,673.0781 394.75,674.1563 Q394.0625,675.2188 394.0625,677.3125 Q394.0625,679.4063 394.75,680.4844 Q395.4375,681.5469 396.7813,681.5469 Q397.4063,681.5469 398,681.2813 Q398.5938,681 399.2188,680.4219 L399.2188,683.1406 Z " fill="#000000"/><text fill="#000000" font-family="sans-serif" font-size="14" lengthAdjust="spacing" textLength="147" x="416.75" y="682.3467">MainWindowDispatch</text><line style="stroke:#181818;stroke-width:0.5;" x1="334.5" x2="613.5" y1="693.5" y2="693.5"/><line style="stroke:#181818;stroke-width:0.5;" x1="334.5" x2="613.5" y1="701.5" y2="701.5"/><ellipse cx="344.5" cy="715.1484" fill="#84BE84" rx="3" ry="3" style="stroke:#038048;stroke-width:1.0;"/><text fill="#000000" font-family="sans-serif" font-size="14" lengthAdjust="spacing" textLength="255" x="353.5" y="718.4951">CommandBinding_GeneralDispatch()</text></g><g id="elem_GMN13"><path d="M650,666 L650,689.5 L614.75,693.5 L650,697.5 L650,721.3984 A0,0 0 0 0 650,721.3984 L910,721.3984 A0,0 0 0 0 910,721.3984 L910,676 L900,666 L650,666 A0,0 0 0 0 650,666 " fill="#FEFFDD" style="stroke:#181818;stroke-width:0.5;"/><path d="M900,666 L900,676 L910,676 L900,666 " fill="#FEFFDD" style="stroke:#181818;stroke-width:0.5;"/><text fill="#000000" font-family="sans-serif" font-size="13" lengthAdjust="spacing" textLength="139" x="656" y="683.0669">Abstract menu items.</text><text fill="#000000" font-family="sans-serif" font-size="13" lengthAdjust="spacing" textLength="165" x="656" y="698.1997">Inner core of menu items.</text><text fill="#000000" font-family="sans-serif" font-size="13" lengthAdjust="spacing" textLength="239" x="656" y="713.3325">Will be wrapped in WPF, HTML, Toolkit.</text></g><!--class IMainWindow--><g id="elem_IMainWindow"><rect codeLine="35" fill="#F1F1F1" height="64.2969" id="IMainWindow" rx="2.5" ry="2.5" style="stroke:#181818;stroke-width:0.5;" width="187" x="211.5" y="384"/><ellipse cx="256.25" cy="400" fill="#ADD1B2" rx="11" ry="11" style="stroke:#181818;stroke-width:1.0;"/><path d="M259.2188,405.6406 Q258.6406,405.9375 258,406.0781 Q257.3594,406.2344 256.6563,406.2344 Q254.1563,406.2344 252.8281,404.5938 Q251.5156,402.9375 251.5156,399.8125 Q251.5156,396.6875 252.8281,395.0313 Q254.1563,393.375 256.6563,393.375 Q257.3594,393.375 258,393.5313 Q258.6563,393.6875 259.2188,393.9844 L259.2188,396.7031 Q258.5938,396.125 258,395.8594 Q257.4063,395.5781 256.7813,395.5781 Q255.4375,395.5781 254.75,396.6563 Q254.0625,397.7188 254.0625,399.8125 Q254.0625,401.9063 254.75,402.9844 Q255.4375,404.0469 256.7813,404.0469 Q257.4063,404.0469 258,403.7813 Q258.5938,403.5 259.2188,402.9219 L259.2188,405.6406 Z " fill="#000000"/><text fill="#000000" font-family="sans-serif" font-size="14" lengthAdjust="spacing" textLength="89" x="276.75" y="404.8467">IMainWindow</text><line style="stroke:#181818;stroke-width:0.5;" x1="212.5" x2="397.5" y1="416" y2="416"/><line style="stroke:#181818;stroke-width:0.5;" x1="212.5" x2="397.5" y1="424" y2="424"/><text fill="#000000" font-family="sans-serif" font-size="14" lengthAdjust="spacing" textLength="175" x="217.5" y="440.9951">UiLoadPackageWithNew()</text></g><g id="elem_GMN19"><path d="M434,388.5 L434,412 L398.74,416 L434,420 L434,443.8984 A0,0 0 0 0 434,443.8984 L756,443.8984 A0,0 0 0 0 756,443.8984 L756,398.5 L746,388.5 L434,388.5 A0,0 0 0 0 434,388.5 " fill="#FEFFDD" style="stroke:#181818;stroke-width:0.5;"/><path d="M746,388.5 L746,398.5 L756,398.5 L746,388.5 " fill="#FEFFDD" style="stroke:#181818;stroke-width:0.5;"/><text fill="#000000" font-family="sans-serif" font-size="13" lengthAdjust="spacing" textLength="297" x="440" y="405.5669">An main window needs implement this to allow</text><text fill="#000000" font-family="sans-serif" font-size="13" lengthAdjust="spacing" textLength="256" x="440" y="420.6997">business logic to trigger important state</text><text fill="#000000" font-family="sans-serif" font-size="13" lengthAdjust="spacing" textLength="257" x="440" y="435.8325">changes visible to the user, e.g. loading.</text></g><!--class Program--><g id="elem_Program"><rect codeLine="48" fill="#F1F1F1" height="129.4844" id="Program" rx="2.5" ry="2.5" style="stroke:#181818;stroke-width:0.5;" width="180" x="1477" y="157"/><ellipse cx="1533.75" cy="173" fill="#ADD1B2" rx="11" ry="11" style="stroke:#181818;stroke-width:1.0;"/><path d="M1536.7188,178.6406 Q1536.1406,178.9375 1535.5,179.0781 Q1534.8594,179.2344 1534.1563,179.2344 Q1531.6563,179.2344 1530.3281,177.5938 Q1529.0156,175.9375 1529.0156,172.8125 Q1529.0156,169.6875 1530.3281,168.0313 Q1531.6563,166.375 1534.1563,166.375 Q1534.8594,166.375 1535.5,166.5313 Q1536.1563,166.6875 1536.7188,166.9844 L1536.7188,169.7031 Q1536.0938,169.125 1535.5,168.8594 Q1534.9063,168.5781 1534.2813,168.5781 Q1532.9375,168.5781 1532.25,169.6563 Q1531.5625,170.7188 1531.5625,172.8125 Q1531.5625,174.9063 1532.25,175.9844 Q1532.9375,177.0469 1534.2813,177.0469 Q1534.9063,177.0469 1535.5,176.7813 Q1536.0938,176.5 1536.7188,175.9219 L1536.7188,178.6406 Z " fill="#000000"/><text fill="#000000" font-family="sans-serif" font-size="14" lengthAdjust="spacing" textLength="58" x="1554.25" y="177.8467">Program</text><line style="stroke:#181818;stroke-width:0.5;" x1="1478" x2="1656" y1="189" y2="189"/><ellipse cx="1488" cy="202.6484" fill="none" rx="3" ry="3" style="stroke:#038048;stroke-width:1.0;"/><text fill="#000000" font-family="sans-serif" font-size="14" lengthAdjust="spacing" textLength="54" x="1497" y="205.9951">Options</text><ellipse cx="1488" cy="218.9453" fill="none" rx="3" ry="3" style="stroke:#038048;stroke-width:1.0;"/><text fill="#000000" font-family="sans-serif" font-size="14" lengthAdjust="spacing" textLength="35" x="1497" y="222.292">Prefs</text><line style="stroke:#181818;stroke-width:0.5;" x1="1478" x2="1656" y1="229.5938" y2="229.5938"/><text fill="#000000" font-family="sans-serif" font-size="14" lengthAdjust="spacing" textLength="145" x="1483" y="246.5889">void SignalNewData()</text><text fill="#000000" font-family="sans-serif" font-size="14" lengthAdjust="spacing" textLength="74" x="1483" y="262.8857">void Main()</text><text fill="#000000" font-family="sans-serif" font-size="14" lengthAdjust="spacing" textLength="168" x="1483" y="279.1826">void CreateHostBuilder()</text></g><g id="elem_GMN24"><path d="M1459,41 L1459,96.3984 A0,0 0 0 0 1459,96.3984 L1563,96.3984 L1567,156.79 L1571,96.3984 L1675,96.3984 A0,0 0 0 0 1675,96.3984 L1675,51 L1665,41 L1459,41 A0,0 0 0 0 1459,41 " fill="#FEFFDD" style="stroke:#181818;stroke-width:0.5;"/><path d="M1665,41 L1665,51 L1675,51 L1665,41 " fill="#FEFFDD" style="stroke:#181818;stroke-width:0.5;"/><text fill="#000000" font-family="sans-serif" font-size="13" lengthAdjust="spacing" textLength="64" x="1465" y="58.0669">Singleton.</text><text fill="#000000" font-family="sans-serif" font-size="13" lengthAdjust="spacing" textLength="93" x="1465" y="73.1997">Program start.</text><text fill="#000000" font-family="sans-serif" font-size="13" lengthAdjust="spacing" textLength="195" x="1465" y="88.3325">Dispatching events to session.</text></g><!--class Startup--><g id="elem_Startup"><rect codeLine="62" fill="#F1F1F1" height="48" id="Startup" rx="2.5" ry="2.5" style="stroke:#181818;stroke-width:0.5;" width="82" x="1679" y="392"/><ellipse cx="1694" cy="408" fill="#ADD1B2" rx="11" ry="11" style="stroke:#181818;stroke-width:1.0;"/><path d="M1696.9688,413.6406 Q1696.3906,413.9375 1695.75,414.0781 Q1695.1094,414.2344 1694.4063,414.2344 Q1691.9063,414.2344 1690.5781,412.5938 Q1689.2656,410.9375 1689.2656,407.8125 Q1689.2656,404.6875 1690.5781,403.0313 Q1691.9063,401.375 1694.4063,401.375 Q1695.1094,401.375 1695.75,401.5313 Q1696.4063,401.6875 1696.9688,401.9844 L1696.9688,404.7031 Q1696.3438,404.125 1695.75,403.8594 Q1695.1563,403.5781 1694.5313,403.5781 Q1693.1875,403.5781 1692.5,404.6563 Q1691.8125,405.7188 1691.8125,407.8125 Q1691.8125,409.9063 1692.5,410.9844 Q1693.1875,412.0469 1694.5313,412.0469 Q1695.1563,412.0469 1695.75,411.7813 Q1696.3438,411.5 1696.9688,410.9219 L1696.9688,413.6406 Z " fill="#000000"/><text fill="#000000" font-family="sans-serif" font-size="14" lengthAdjust="spacing" textLength="50" x="1708" y="412.8467">Startup</text><line style="stroke:#181818;stroke-width:0.5;" x1="1680" x2="1760" y1="424" y2="424"/><line style="stroke:#181818;stroke-width:0.5;" x1="1680" x2="1760" y1="432" y2="432"/></g><g id="elem_GMN28"><path d="M1692,209 L1692,234.1328 A0,0 0 0 0 1692,234.1328 L1749.8,234.1328 L1724.3,391.99 L1757.8,234.1328 L1820,234.1328 A0,0 0 0 0 1820,234.1328 L1820,219 L1810,209 L1692,209 A0,0 0 0 0 1692,209 " fill="#FEFFDD" style="stroke:#181818;stroke-width:0.5;"/><path d="M1810,209 L1810,219 L1820,219 L1810,209 " fill="#FEFFDD" style="stroke:#181818;stroke-width:0.5;"/><text fill="#000000" font-family="sans-serif" font-size="13" lengthAdjust="spacing" textLength="107" x="1698" y="226.0669">Boiler plate code</text></g><!--class AppRazor--><g id="elem_AppRazor"><rect codeLine="67" fill="#F1F1F1" height="56.2656" id="AppRazor" rx="2.5" ry="2.5" style="stroke:#181818;stroke-width:0.5;" width="98" x="1671" y="525"/><ellipse cx="1686" cy="545.1328" fill="#ADD1B2" rx="11" ry="11" style="stroke:#181818;stroke-width:1.0;"/><path d="M1688.9688,550.7734 Q1688.3906,551.0703 1687.75,551.2109 Q1687.1094,551.3672 1686.4063,551.3672 Q1683.9063,551.3672 1682.5781,549.7266 Q1681.2656,548.0703 1681.2656,544.9453 Q1681.2656,541.8203 1682.5781,540.1641 Q1683.9063,538.5078 1686.4063,538.5078 Q1687.1094,538.5078 1687.75,538.6641 Q1688.4063,538.8203 1688.9688,539.1172 L1688.9688,541.8359 Q1688.3438,541.2578 1687.75,540.9922 Q1687.1563,540.7109 1686.5313,540.7109 Q1685.1875,540.7109 1684.5,541.7891 Q1683.8125,542.8516 1683.8125,544.9453 Q1683.8125,547.0391 1684.5,548.1172 Q1685.1875,549.1797 1686.5313,549.1797 Q1687.1563,549.1797 1687.75,548.9141 Q1688.3438,548.6328 1688.9688,548.0547 L1688.9688,550.7734 Z " fill="#000000"/><text fill="#000000" font-family="sans-serif" font-size="12" font-style="italic" lengthAdjust="spacing" textLength="55" x="1705.5" y="541.1387">«Razor*»</text><text fill="#000000" font-family="sans-serif" font-size="14" lengthAdjust="spacing" textLength="66" x="1700" y="556.9639">App.razor</text><line style="stroke:#181818;stroke-width:0.5;" x1="1672" x2="1768" y1="565.2656" y2="565.2656"/><line style="stroke:#181818;stroke-width:0.5;" x1="1672" x2="1768" y1="573.2656" y2="573.2656"/></g><!--class BlazorSession--><g id="elem_BlazorSession"><rect codeLine="69" fill="#F1F1F1" height="210.9688" id="BlazorSession" rx="2.5" ry="2.5" style="stroke:#181818;stroke-width:0.5;" width="287" x="1019.5" y="969"/><ellipse cx="1109.75" cy="985" fill="#ADD1B2" rx="11" ry="11" style="stroke:#181818;stroke-width:1.0;"/><path d="M1112.7188,990.6406 Q1112.1406,990.9375 1111.5,991.0781 Q1110.8594,991.2344 1110.1563,991.2344 Q1107.6563,991.2344 1106.3281,989.5938 Q1105.0156,987.9375 1105.0156,984.8125 Q1105.0156,981.6875 1106.3281,980.0313 Q1107.6563,978.375 1110.1563,978.375 Q1110.8594,978.375 1111.5,978.5313 Q1112.1563,978.6875 1112.7188,978.9844 L1112.7188,981.7031 Q1112.0938,981.125 1111.5,980.8594 Q1110.9063,980.5781 1110.2813,980.5781 Q1108.9375,980.5781 1108.25,981.6563 Q1107.5625,982.7188 1107.5625,984.8125 Q1107.5625,986.9063 1108.25,987.9844 Q1108.9375,989.0469 1110.2813,989.0469 Q1110.9063,989.0469 1111.5,988.7813 Q1112.0938,988.5 1112.7188,987.9219 L1112.7188,990.6406 Z " fill="#000000"/><text fill="#000000" font-family="sans-serif" font-size="14" lengthAdjust="spacing" textLength="98" x="1130.25" y="989.8467">BlazorSession</text><line style="stroke:#181818;stroke-width:0.5;" x1="1020.5" x2="1305.5" y1="1001" y2="1001"/><text fill="#000000" font-family="sans-serif" font-size="14" lengthAdjust="spacing" textLength="97" x="1025.5" y="1017.9951">SessionId : int</text><text fill="#000000" font-family="sans-serif" font-size="14" lengthAdjust="spacing" textLength="196" x="1025.5" y="1034.292">Logic : MainWindowDispatch</text><text fill="#000000" font-family="sans-serif" font-size="14" lengthAdjust="spacing" textLength="275" x="1025.5" y="1050.5889">DisplayElements : BlazorVisualElements</text><text fill="#000000" font-family="sans-serif" font-size="14" lengthAdjust="spacing" textLength="198" x="1025.5" y="1066.8857">MainMenu : AasxMenuBlazor</text><text fill="#000000" font-family="sans-serif" font-size="14" lengthAdjust="spacing" textLength="225" x="1025.5" y="1083.1826">DynamicMenu : AasxMenuBlazor</text><text fill="#000000" font-family="sans-serif" font-size="14" lengthAdjust="spacing" textLength="244" x="1025.5" y="1099.4795">DisplayData : AnyUiDisplayDataHtml</text><text fill="#000000" font-family="sans-serif" font-size="14" lengthAdjust="spacing" textLength="222" x="1025.5" y="1115.7764">ElementPanel : AnyUiStackPanel</text><text fill="#000000" font-family="sans-serif" font-size="14" lengthAdjust="spacing" textLength="108" x="1025.5" y="1132.0732">EditMode : bool</text><text fill="#000000" font-family="sans-serif" font-size="14" lengthAdjust="spacing" textLength="109" x="1025.5" y="1148.3701">HintMode : bool</text><line style="stroke:#181818;stroke-width:0.5;" x1="1020.5" x2="1305.5" y1="1155.6719" y2="1155.6719"/><text fill="#000000" font-family="sans-serif" font-size="14" lengthAdjust="spacing" textLength="267" x="1025.5" y="1172.667">PrepareDisplayDataAndElementPanel()</text></g><g id="elem_GMN33"><path d="M1530.5,821.5 L1530.5,876.8984 L1723.5,876.8984 L1723.5,831.5 L1713.5,821.5 L1530.5,821.5 " fill="#FEFFDD" style="stroke:#181818;stroke-width:0.5;"/><path d="M1713.5,821.5 L1713.5,831.5 L1723.5,831.5 L1713.5,821.5 " fill="#FEFFDD" style="stroke:#181818;stroke-width:1.0;"/><text fill="#000000" font-family="sans-serif" font-size="13" lengthAdjust="spacing" textLength="168" x="1536.5" y="838.5669">This is the top instance for</text><text fill="#000000" font-family="sans-serif" font-size="13" lengthAdjust="spacing" textLength="135" x="1536.5" y="853.6997">holding session data.</text><text fill="#000000" font-family="sans-serif" font-size="13" lengthAdjust="spacing" textLength="162" x="1536.5" y="868.8325">Injected into razor pages.</text></g><!--class BlazorSessionCommandBindings--><g id="elem_BlazorSessionCommandBindings"><rect codeLine="88" fill="#F1F1F1" height="64.2969" id="BlazorSessionCommandBindings" rx="2.5" ry="2.5" style="stroke:#181818;stroke-width:0.5;" width="285" x="1019.5" y="1289.5"/><ellipse cx="1034.5" cy="1305.5" fill="#ADD1B2" rx="11" ry="11" style="stroke:#181818;stroke-width:1.0;"/><path d="M1037.4688,1311.1406 Q1036.8906,1311.4375 1036.25,1311.5781 Q1035.6094,1311.7344 1034.9063,1311.7344 Q1032.4063,1311.7344 1031.0781,1310.0938 Q1029.7656,1308.4375 1029.7656,1305.3125 Q1029.7656,1302.1875 1031.0781,1300.5313 Q1032.4063,1298.875 1034.9063,1298.875 Q1035.6094,1298.875 1036.25,1299.0313 Q1036.9063,1299.1875 1037.4688,1299.4844 L1037.4688,1302.2031 Q1036.8438,1301.625 1036.25,1301.3594 Q1035.6563,1301.0781 1035.0313,1301.0781 Q1033.6875,1301.0781 1033,1302.1563 Q1032.3125,1303.2188 1032.3125,1305.3125 Q1032.3125,1307.4063 1033,1308.4844 Q1033.6875,1309.5469 1035.0313,1309.5469 Q1035.6563,1309.5469 1036.25,1309.2813 Q1036.8438,1309 1037.4688,1308.4219 L1037.4688,1311.1406 Z " fill="#000000"/><text fill="#000000" font-family="sans-serif" font-size="14" lengthAdjust="spacing" textLength="253" x="1048.5" y="1310.3467">BlazorSession.CommandBindings.cs</text><line style="stroke:#181818;stroke-width:0.5;" x1="1020.5" x2="1303.5" y1="1321.5" y2="1321.5"/><line style="stroke:#181818;stroke-width:0.5;" x1="1020.5" x2="1303.5" y1="1329.5" y2="1329.5"/><text fill="#000000" font-family="sans-serif" font-size="14" lengthAdjust="spacing" textLength="255" x="1025.5" y="1346.4951">CommandBinding_GeneralDispatch()</text></g><g id="elem_GMN37"><path d="M1339.5,1301.5 L1339.5,1317.5 L1304.61,1321.5 L1339.5,1325.5 L1339.5,1341.7656 A0,0 0 0 0 1339.5,1341.7656 L1500.5,1341.7656 A0,0 0 0 0 1500.5,1341.7656 L1500.5,1311.5 L1490.5,1301.5 L1339.5,1301.5 A0,0 0 0 0 1339.5,1301.5 " fill="#FEFFDD" style="stroke:#181818;stroke-width:0.5;"/><path d="M1490.5,1301.5 L1490.5,1311.5 L1500.5,1311.5 L1490.5,1301.5 " fill="#FEFFDD" style="stroke:#181818;stroke-width:0.5;"/><text fill="#000000" font-family="sans-serif" font-size="13" lengthAdjust="spacing" textLength="136" x="1345.5" y="1318.5669">Menu functions which</text><text fill="#000000" font-family="sans-serif" font-size="13" lengthAdjust="spacing" textLength="135" x="1345.5" y="1333.6997">involve a lot of HTML.</text></g><!--class BlazorVisualElements--><g id="elem_BlazorVisualElements"><rect codeLine="100" fill="#F1F1F1" height="129.4844" id="BlazorVisualElements" rx="2.5" ry="2.5" style="stroke:#181818;stroke-width:0.5;" width="183" x="2177.5" y="1257"/><ellipse cx="2193.85" cy="1273" fill="#ADD1B2" rx="11" ry="11" style="stroke:#181818;stroke-width:1.0;"/><path d="M2196.8188,1278.6406 Q2196.2406,1278.9375 2195.6,1279.0781 Q2194.9594,1279.2344 2194.2563,1279.2344 Q2191.7563,1279.2344 2190.4281,1277.5938 Q2189.1156,1275.9375 2189.1156,1272.8125 Q2189.1156,1269.6875 2190.4281,1268.0313 Q2191.7563,1266.375 2194.2563,1266.375 Q2194.9594,1266.375 2195.6,1266.5313 Q2196.2563,1266.6875 2196.8188,1266.9844 L2196.8188,1269.7031 Q2196.1938,1269.125 2195.6,1268.8594 Q2195.0063,1268.5781 2194.3813,1268.5781 Q2193.0375,1268.5781 2192.35,1269.6563 Q2191.6625,1270.7188 2191.6625,1272.8125 Q2191.6625,1274.9063 2192.35,1275.9844 Q2193.0375,1277.0469 2194.3813,1277.0469 Q2195.0063,1277.0469 2195.6,1276.7813 Q2196.1938,1276.5 2196.8188,1275.9219 L2196.8188,1278.6406 Z " fill="#000000"/><text fill="#000000" font-family="sans-serif" font-size="14" lengthAdjust="spacing" textLength="148" x="2208.15" y="1277.8467">BlazorVisualElements</text><line style="stroke:#181818;stroke-width:0.5;" x1="2178.5" x2="2359.5" y1="1289" y2="1289"/><ellipse cx="2188.5" cy="1302.6484" fill="none" rx="3" ry="3" style="stroke:#038048;stroke-width:1.0;"/><text fill="#000000" font-family="sans-serif" font-size="14" lengthAdjust="spacing" textLength="70" x="2197.5" y="1305.9951">TreeItems</text><ellipse cx="2188.5" cy="1318.9453" fill="none" rx="3" ry="3" style="stroke:#038048;stroke-width:1.0;"/><text fill="#000000" font-family="sans-serif" font-size="14" lengthAdjust="spacing" textLength="91" x="2197.5" y="1322.292">SelectedItem</text><ellipse cx="2188.5" cy="1335.2422" fill="none" rx="3" ry="3" style="stroke:#038048;stroke-width:1.0;"/><text fill="#000000" font-family="sans-serif" font-size="14" lengthAdjust="spacing" textLength="99" x="2197.5" y="1338.5889">SelectedItems</text><line style="stroke:#181818;stroke-width:0.5;" x1="2178.5" x2="2359.5" y1="1345.8906" y2="1345.8906"/><text fill="#000000" font-family="sans-serif" font-size="14" lengthAdjust="spacing" textLength="159" x="2183.5" y="1362.8857">RebuildAasxElements()</text><text fill="#000000" font-family="sans-serif" font-size="14" lengthAdjust="spacing" textLength="171" x="2183.5" y="1379.1826">TrySelectVisualElement()</text></g><g id="elem_GMN43"><path d="M2476,1062 L2476,1087.1328 L2668,1087.1328 L2668,1072 L2658,1062 L2476,1062 " fill="#FEFFDD" style="stroke:#181818;stroke-width:0.5;"/><path d="M2658,1062 L2658,1072 L2668,1072 L2658,1062 " fill="#FEFFDD" style="stroke:#181818;stroke-width:1.0;"/><text fill="#000000" font-family="sans-serif" font-size="13" lengthAdjust="spacing" textLength="171" x="2482" y="1079.0669">Management of tree items</text></g><!--class Index--><g id="elem_Index"><rect codeLine="112" fill="#F1F1F1" height="56.2656" id="Index" rx="2.5" ry="2.5" style="stroke:#181818;stroke-width:0.5;" width="108" x="1743" y="665.5"/><ellipse cx="1758" cy="685.6328" fill="#ADD1B2" rx="11" ry="11" style="stroke:#181818;stroke-width:1.0;"/><path d="M1760.9688,691.2734 Q1760.3906,691.5703 1759.75,691.7109 Q1759.1094,691.8672 1758.4063,691.8672 Q1755.9063,691.8672 1754.5781,690.2266 Q1753.2656,688.5703 1753.2656,685.4453 Q1753.2656,682.3203 1754.5781,680.6641 Q1755.9063,679.0078 1758.4063,679.0078 Q1759.1094,679.0078 1759.75,679.1641 Q1760.4063,679.3203 1760.9688,679.6172 L1760.9688,682.3359 Q1760.3438,681.7578 1759.75,681.4922 Q1759.1563,681.2109 1758.5313,681.2109 Q1757.1875,681.2109 1756.5,682.2891 Q1755.8125,683.3516 1755.8125,685.4453 Q1755.8125,687.5391 1756.5,688.6172 Q1757.1875,689.6797 1758.5313,689.6797 Q1759.1563,689.6797 1759.75,689.4141 Q1760.3438,689.1328 1760.9688,688.5547 L1760.9688,691.2734 Z " fill="#000000"/><text fill="#000000" font-family="sans-serif" font-size="12" font-style="italic" lengthAdjust="spacing" textLength="80" x="1770" y="681.6387">«RazorPage»</text><text fill="#000000" font-family="sans-serif" font-size="14" lengthAdjust="spacing" textLength="37" x="1791.5" y="697.4639">Index</text><line style="stroke:#181818;stroke-width:0.5;" x1="1744" x2="1850" y1="705.7656" y2="705.7656"/><line style="stroke:#181818;stroke-width:0.5;" x1="1744" x2="1850" y1="713.7656" y2="713.7656"/></g><g id="elem_GMN47"><path d="M1804,533 L1804,573.2656 A0,0 0 0 0 1804,573.2656 L1860.15,573.2656 L1812.31,665.31 L1868.15,573.2656 L1946,573.2656 A0,0 0 0 0 1946,573.2656 L1946,543 L1936,533 L1804,533 A0,0 0 0 0 1804,533 " fill="#FEFFDD" style="stroke:#181818;stroke-width:0.5;"/><path d="M1936,533 L1936,543 L1946,543 L1936,533 " fill="#FEFFDD" style="stroke:#181818;stroke-width:0.5;"/><text fill="#000000" font-family="sans-serif" font-size="13" lengthAdjust="spacing" textLength="119" x="1810" y="550.0669">Main content page</text><text fill="#000000" font-family="sans-serif" font-size="13" lengthAdjust="spacing" textLength="121" x="1810" y="565.1997">Aim: View in MVVM</text></g><!--class MainLayout--><g id="elem_MainLayout"><rect codeLine="124" fill="#F1F1F1" height="56.2656" id="MainLayout" rx="2.5" ry="2.5" style="stroke:#181818;stroke-width:0.5;" width="109" x="3430.5" y="821"/><ellipse cx="3445.5" cy="841.1328" fill="#ADD1B2" rx="11" ry="11" style="stroke:#181818;stroke-width:1.0;"/><path d="M3448.4688,846.7734 Q3447.8906,847.0703 3447.25,847.2109 Q3446.6094,847.3672 3445.9063,847.3672 Q3443.4063,847.3672 3442.0781,845.7266 Q3440.7656,844.0703 3440.7656,840.9453 Q3440.7656,837.8203 3442.0781,836.1641 Q3443.4063,834.5078 3445.9063,834.5078 Q3446.6094,834.5078 3447.25,834.6641 Q3447.9063,834.8203 3448.4688,835.1172 L3448.4688,837.8359 Q3447.8438,837.2578 3447.25,836.9922 Q3446.6563,836.7109 3446.0313,836.7109 Q3444.6875,836.7109 3444,837.7891 Q3443.3125,838.8516 3443.3125,840.9453 Q3443.3125,843.0391 3444,844.1172 Q3444.6875,845.1797 3446.0313,845.1797 Q3446.6563,845.1797 3447.25,844.9141 Q3447.8438,844.6328 3448.4688,844.0547 L3448.4688,846.7734 Z " fill="#000000"/><text fill="#000000" font-family="sans-serif" font-size="12" font-style="italic" lengthAdjust="spacing" textLength="57" x="3469.5" y="837.1387">«Layout»</text><text fill="#000000" font-family="sans-serif" font-size="14" lengthAdjust="spacing" textLength="77" x="3459.5" y="852.9639">MainLayout</text><line style="stroke:#181818;stroke-width:0.5;" x1="3431.5" x2="3538.5" y1="861.2656" y2="861.2656"/><line style="stroke:#181818;stroke-width:0.5;" x1="3431.5" x2="3538.5" y1="869.2656" y2="869.2656"/></g><g id="elem_GMN54"><path d="M3366.5,658 L3366.5,728.5313 A0,0 0 0 0 3366.5,728.5313 L3456.26,728.5313 L3479.36,820.95 L3464.26,728.5313 L3539.5,728.5313 A0,0 0 0 0 3539.5,728.5313 L3539.5,668 L3529.5,658 L3366.5,658 A0,0 0 0 0 3366.5,658 " fill="#FEFFDD" style="stroke:#181818;stroke-width:0.5;"/><path d="M3529.5,658 L3529.5,668 L3539.5,668 L3529.5,658 " fill="#FEFFDD" style="stroke:#181818;stroke-width:0.5;"/><text fill="#000000" font-family="sans-serif" font-size="13" lengthAdjust="spacing" textLength="150" x="3372.5" y="675.0669">Organizes pages layout</text><text fill="#000000" font-family="sans-serif" font-size="13" lengthAdjust="spacing" textLength="152" x="3372.5" y="690.1997">Hosts pages as content</text><text fill="#000000" font-family="sans-serif" font-size="13" lengthAdjust="spacing" textLength="141" x="3372.5" y="705.3325">Provides Functions via</text><text fill="#000000" font-family="sans-serif" font-size="13" lengthAdjust="spacing" textLength="134" x="3372.5" y="720.4653">CascadingParameter</text></g><!--class MainMenu--><g id="elem_MainMenu"><rect codeLine="132" fill="#F1F1F1" height="56.2656" id="MainMenu" rx="2.5" ry="2.5" style="stroke:#181818;stroke-width:0.5;" width="149" x="3133.5" y="1046.5"/><ellipse cx="3148.5" cy="1066.6328" fill="#ADD1B2" rx="11" ry="11" style="stroke:#181818;stroke-width:1.0;"/><path d="M3151.4688,1072.2734 Q3150.8906,1072.5703 3150.25,1072.7109 Q3149.6094,1072.8672 3148.9063,1072.8672 Q3146.4063,1072.8672 3145.0781,1071.2266 Q3143.7656,1069.5703 3143.7656,1066.4453 Q3143.7656,1063.3203 3145.0781,1061.6641 Q3146.4063,1060.0078 3148.9063,1060.0078 Q3149.6094,1060.0078 3150.25,1060.1641 Q3150.9063,1060.3203 3151.4688,1060.6172 L3151.4688,1063.3359 Q3150.8438,1062.7578 3150.25,1062.4922 Q3149.6563,1062.2109 3149.0313,1062.2109 Q3147.6875,1062.2109 3147,1063.2891 Q3146.3125,1064.3516 3146.3125,1066.4453 Q3146.3125,1068.5391 3147,1069.6172 Q3147.6875,1070.6797 3149.0313,1070.6797 Q3149.6563,1070.6797 3150.25,1070.4141 Q3150.8438,1070.1328 3151.4688,1069.5547 L3151.4688,1072.2734 Z " fill="#000000"/><text fill="#000000" font-family="sans-serif" font-size="12" font-style="italic" lengthAdjust="spacing" textLength="121" x="3160.5" y="1062.6387">«RazorComponent»</text><text fill="#000000" font-family="sans-serif" font-size="14" lengthAdjust="spacing" textLength="71" x="3185.5" y="1078.4639">MainMenu</text><line style="stroke:#181818;stroke-width:0.5;" x1="3134.5" x2="3281.5" y1="1086.7656" y2="1086.7656"/><line style="stroke:#181818;stroke-width:0.5;" x1="3134.5" x2="3281.5" y1="1094.7656" y2="1094.7656"/></g><g id="elem_GMN58"><path d="M3024,821.5 L3024,876.8984 A0,0 0 0 0 3024,876.8984 L3110.58,876.8984 L3195.11,1046.32 L3118.58,876.8984 L3180,876.8984 A0,0 0 0 0 3180,876.8984 L3180,831.5 L3170,821.5 L3024,821.5 A0,0 0 0 0 3024,821.5 " fill="#FEFFDD" style="stroke:#181818;stroke-width:0.5;"/><path d="M3170,821.5 L3170,831.5 L3180,831.5 L3170,821.5 " fill="#FEFFDD" style="stroke:#181818;stroke-width:0.5;"/><text fill="#000000" font-family="sans-serif" font-size="13" lengthAdjust="spacing" textLength="135" x="3030" y="838.5669">Hosts menu items to</text><text fill="#000000" font-family="sans-serif" font-size="13" lengthAdjust="spacing" textLength="128" x="3030" y="853.6997">dynamically created</text><text fill="#000000" font-family="sans-serif" font-size="13" lengthAdjust="spacing" textLength="81" x="3030" y="868.8325">main menue</text></g><!--class StatusBar--><g id="elem_StatusBar"><rect codeLine="141" fill="#F1F1F1" height="56.2656" id="StatusBar" rx="2.5" ry="2.5" style="stroke:#181818;stroke-width:0.5;" width="149" x="3317.5" y="1046.5"/><ellipse cx="3332.5" cy="1066.6328" fill="#ADD1B2" rx="11" ry="11" style="stroke:#181818;stroke-width:1.0;"/><path d="M3335.4688,1072.2734 Q3334.8906,1072.5703 3334.25,1072.7109 Q3333.6094,1072.8672 3332.9063,1072.8672 Q3330.4063,1072.8672 3329.0781,1071.2266 Q3327.7656,1069.5703 3327.7656,1066.4453 Q3327.7656,1063.3203 3329.0781,1061.6641 Q3330.4063,1060.0078 3332.9063,1060.0078 Q3333.6094,1060.0078 3334.25,1060.1641 Q3334.9063,1060.3203 3335.4688,1060.6172 L3335.4688,1063.3359 Q3334.8438,1062.7578 3334.25,1062.4922 Q3333.6563,1062.2109 3333.0313,1062.2109 Q3331.6875,1062.2109 3331,1063.2891 Q3330.3125,1064.3516 3330.3125,1066.4453 Q3330.3125,1068.5391 3331,1069.6172 Q3331.6875,1070.6797 3333.0313,1070.6797 Q3333.6563,1070.6797 3334.25,1070.4141 Q3334.8438,1070.1328 3335.4688,1069.5547 L3335.4688,1072.2734 Z " fill="#000000"/><text fill="#000000" font-family="sans-serif" font-size="12" font-style="italic" lengthAdjust="spacing" textLength="121" x="3344.5" y="1062.6387">«RazorComponent»</text><text fill="#000000" font-family="sans-serif" font-size="14" lengthAdjust="spacing" textLength="67" x="3371.5" y="1078.4639">StatusBar</text><line style="stroke:#181818;stroke-width:0.5;" x1="3318.5" x2="3465.5" y1="1086.7656" y2="1086.7656"/><line style="stroke:#181818;stroke-width:0.5;" x1="3318.5" x2="3465.5" y1="1094.7656" y2="1094.7656"/></g><g id="elem_GMN63"><path d="M3215,806 L3215,891.6641 A0,0 0 0 0 3215,891.6641 L3317.36,891.6641 L3381.46,1046.41 L3325.36,891.6641 L3395,891.6641 A0,0 0 0 0 3395,891.6641 L3395,816 L3385,806 L3215,806 A0,0 0 0 0 3215,806 " fill="#FEFFDD" style="stroke:#181818;stroke-width:0.5;"/><path d="M3385,806 L3385,816 L3395,816 L3385,806 " fill="#FEFFDD" style="stroke:#181818;stroke-width:0.5;"/><text fill="#000000" font-family="sans-serif" font-size="13" lengthAdjust="spacing" textLength="126" x="3221" y="823.0669">Shows status line in</text><text fill="#000000" font-family="sans-serif" font-size="13" lengthAdjust="spacing" textLength="42" x="3221" y="838.1997">colors.</text><text fill="#000000" font-family="sans-serif" font-size="13" lengthAdjust="spacing" textLength="153" x="3221" y="853.3325">Separate component to</text><text fill="#000000" font-family="sans-serif" font-size="13" lengthAdjust="spacing" textLength="159" x="3221" y="868.4653">minimize overhead when</text><text fill="#000000" font-family="sans-serif" font-size="13" lengthAdjust="spacing" textLength="83" x="3221" y="883.5981">render state.</text></g><!--class Tree--><g id="elem_Tree"><rect codeLine="153" fill="#F1F1F1" height="56.2656" id="Tree" rx="2.5" ry="2.5" style="stroke:#181818;stroke-width:0.5;" width="149" x="2949.5" y="1046.5"/><ellipse cx="2964.5" cy="1066.6328" fill="#ADD1B2" rx="11" ry="11" style="stroke:#181818;stroke-width:1.0;"/><path d="M2967.4688,1072.2734 Q2966.8906,1072.5703 2966.25,1072.7109 Q2965.6094,1072.8672 2964.9063,1072.8672 Q2962.4063,1072.8672 2961.0781,1071.2266 Q2959.7656,1069.5703 2959.7656,1066.4453 Q2959.7656,1063.3203 2961.0781,1061.6641 Q2962.4063,1060.0078 2964.9063,1060.0078 Q2965.6094,1060.0078 2966.25,1060.1641 Q2966.9063,1060.3203 2967.4688,1060.6172 L2967.4688,1063.3359 Q2966.8438,1062.7578 2966.25,1062.4922 Q2965.6563,1062.2109 2965.0313,1062.2109 Q2963.6875,1062.2109 2963,1063.2891 Q2962.3125,1064.3516 2962.3125,1066.4453 Q2962.3125,1068.5391 2963,1069.6172 Q2963.6875,1070.6797 2965.0313,1070.6797 Q2965.6563,1070.6797 2966.25,1070.4141 Q2966.8438,1070.1328 2967.4688,1069.5547 L2967.4688,1072.2734 Z " fill="#000000"/><text fill="#000000" font-family="sans-serif" font-size="12" font-style="italic" lengthAdjust="spacing" textLength="121" x="2976.5" y="1062.6387">«RazorComponent»</text><text fill="#000000" font-family="sans-serif" font-size="14" lengthAdjust="spacing" textLength="32" x="3021" y="1078.4639">Tree</text><line style="stroke:#181818;stroke-width:0.5;" x1="2950.5" x2="3097.5" y1="1086.7656" y2="1086.7656"/><line style="stroke:#181818;stroke-width:0.5;" x1="2950.5" x2="3097.5" y1="1094.7656" y2="1094.7656"/></g><g id="elem_GMN68"><path d="M2813,829 L2813,869.2656 A0,0 0 0 0 2813,869.2656 L2907.49,869.2656 L3009.03,1046.29 L2915.49,869.2656 L2989,869.2656 A0,0 0 0 0 2989,869.2656 L2989,839 L2979,829 L2813,829 A0,0 0 0 0 2813,829 " fill="#FEFFDD" style="stroke:#181818;stroke-width:0.5;"/><path d="M2979,829 L2979,839 L2989,839 L2979,829 " fill="#FEFFDD" style="stroke:#181818;stroke-width:0.5;"/><text fill="#000000" font-family="sans-serif" font-size="13" lengthAdjust="spacing" textLength="143" x="2819" y="846.0669">Generic component to</text><text fill="#000000" font-family="sans-serif" font-size="13" lengthAdjust="spacing" textLength="155" x="2819" y="861.1997">manage hierachical tree</text></g><!--class TreeOfAasxVisualElements--><g id="elem_TreeOfAasxVisualElements"><rect codeLine="159" fill="#F1F1F1" height="56.2656" id="TreeOfAasxVisualElements" rx="2.5" ry="2.5" style="stroke:#181818;stroke-width:0.5;" width="216" x="2562" y="821"/><ellipse cx="2577" cy="841.1328" fill="#ADD1B2" rx="11" ry="11" style="stroke:#181818;stroke-width:1.0;"/><path d="M2579.9688,846.7734 Q2579.3906,847.0703 2578.75,847.2109 Q2578.1094,847.3672 2577.4063,847.3672 Q2574.9063,847.3672 2573.5781,845.7266 Q2572.2656,844.0703 2572.2656,840.9453 Q2572.2656,837.8203 2573.5781,836.1641 Q2574.9063,834.5078 2577.4063,834.5078 Q2578.1094,834.5078 2578.75,834.6641 Q2579.4063,834.8203 2579.9688,835.1172 L2579.9688,837.8359 Q2579.3438,837.2578 2578.75,836.9922 Q2578.1563,836.7109 2577.5313,836.7109 Q2576.1875,836.7109 2575.5,837.7891 Q2574.8125,838.8516 2574.8125,840.9453 Q2574.8125,843.0391 2575.5,844.1172 Q2576.1875,845.1797 2577.5313,845.1797 Q2578.1563,845.1797 2578.75,844.9141 Q2579.3438,844.6328 2579.9688,844.0547 L2579.9688,846.7734 Z " fill="#000000"/><text fill="#000000" font-family="sans-serif" font-size="12" font-style="italic" lengthAdjust="spacing" textLength="121" x="2622.5" y="837.1387">«RazorComponent»</text><text fill="#000000" font-family="sans-serif" font-size="14" lengthAdjust="spacing" textLength="184" x="2591" y="852.9639">TreeOfAasxVisualElements</text><line style="stroke:#181818;stroke-width:0.5;" x1="2563" x2="2777" y1="861.2656" y2="861.2656"/><line style="stroke:#181818;stroke-width:0.5;" x1="2563" x2="2777" y1="869.2656" y2="869.2656"/></g><g id="elem_GMN72"><path d="M2584.5,673.5 L2584.5,713.7656 A0,0 0 0 0 2584.5,713.7656 L2666,713.7656 L2670,820.86 L2674,713.7656 L2755.5,713.7656 A0,0 0 0 0 2755.5,713.7656 L2755.5,683.5 L2745.5,673.5 L2584.5,673.5 A0,0 0 0 0 2584.5,673.5 " fill="#FEFFDD" style="stroke:#181818;stroke-width:0.5;"/><path d="M2745.5,673.5 L2745.5,683.5 L2755.5,683.5 L2745.5,673.5 " fill="#FEFFDD" style="stroke:#181818;stroke-width:0.5;"/><text fill="#000000" font-family="sans-serif" font-size="13" lengthAdjust="spacing" textLength="149" x="2590.5" y="690.5669">Specialized component</text><text fill="#000000" font-family="sans-serif" font-size="13" lengthAdjust="spacing" textLength="150" x="2590.5" y="705.6997">for AasxVisualElements</text></g><!--class MultiLineText--><g id="elem_MultiLineText"><rect codeLine="165" fill="#F1F1F1" height="56.2656" id="MultiLineText" rx="2.5" ry="2.5" style="stroke:#181818;stroke-width:0.5;" width="149" x="1239.5" y="821"/><ellipse cx="1254.5" cy="841.1328" fill="#ADD1B2" rx="11" ry="11" style="stroke:#181818;stroke-width:1.0;"/><path d="M1257.4688,846.7734 Q1256.8906,847.0703 1256.25,847.2109 Q1255.6094,847.3672 1254.9063,847.3672 Q1252.4063,847.3672 1251.0781,845.7266 Q1249.7656,844.0703 1249.7656,840.9453 Q1249.7656,837.8203 1251.0781,836.1641 Q1252.4063,834.5078 1254.9063,834.5078 Q1255.6094,834.5078 1256.25,834.6641 Q1256.9063,834.8203 1257.4688,835.1172 L1257.4688,837.8359 Q1256.8438,837.2578 1256.25,836.9922 Q1255.6563,836.7109 1255.0313,836.7109 Q1253.6875,836.7109 1253,837.7891 Q1252.3125,838.8516 1252.3125,840.9453 Q1252.3125,843.0391 1253,844.1172 Q1253.6875,845.1797 1255.0313,845.1797 Q1255.6563,845.1797 1256.25,844.9141 Q1256.8438,844.6328 1257.4688,844.0547 L1257.4688,846.7734 Z " fill="#000000"/><text fill="#000000" font-family="sans-serif" font-size="12" font-style="italic" lengthAdjust="spacing" textLength="121" x="1266.5" y="837.1387">«RazorComponent»</text><text fill="#000000" font-family="sans-serif" font-size="14" lengthAdjust="spacing" textLength="90" x="1282" y="852.9639">MultiLineText</text><line style="stroke:#181818;stroke-width:0.5;" x1="1240.5" x2="1387.5" y1="861.2656" y2="861.2656"/><line style="stroke:#181818;stroke-width:0.5;" x1="1240.5" x2="1387.5" y1="869.2656" y2="869.2656"/></g><!--class Modal--><g id="elem_Modal"><rect codeLine="167" fill="#F1F1F1" height="56.2656" id="Modal" rx="2.5" ry="2.5" style="stroke:#181818;stroke-width:0.5;" width="149" x="2377.5" y="821"/><ellipse cx="2392.5" cy="841.1328" fill="#ADD1B2" rx="11" ry="11" style="stroke:#181818;stroke-width:1.0;"/><path d="M2395.4688,846.7734 Q2394.8906,847.0703 2394.25,847.2109 Q2393.6094,847.3672 2392.9063,847.3672 Q2390.4063,847.3672 2389.0781,845.7266 Q2387.7656,844.0703 2387.7656,840.9453 Q2387.7656,837.8203 2389.0781,836.1641 Q2390.4063,834.5078 2392.9063,834.5078 Q2393.6094,834.5078 2394.25,834.6641 Q2394.9063,834.8203 2395.4688,835.1172 L2395.4688,837.8359 Q2394.8438,837.2578 2394.25,836.9922 Q2393.6563,836.7109 2393.0313,836.7109 Q2391.6875,836.7109 2391,837.7891 Q2390.3125,838.8516 2390.3125,840.9453 Q2390.3125,843.0391 2391,844.1172 Q2391.6875,845.1797 2393.0313,845.1797 Q2393.6563,845.1797 2394.25,844.9141 Q2394.8438,844.6328 2395.4688,844.0547 L2395.4688,846.7734 Z " fill="#000000"/><text fill="#000000" font-family="sans-serif" font-size="12" font-style="italic" lengthAdjust="spacing" textLength="121" x="2404.5" y="837.1387">«RazorComponent»</text><text fill="#000000" font-family="sans-serif" font-size="14" lengthAdjust="spacing" textLength="41" x="2444.5" y="852.9639">Modal</text><line style="stroke:#181818;stroke-width:0.5;" x1="2378.5" x2="2525.5" y1="861.2656" y2="861.2656"/><line style="stroke:#181818;stroke-width:0.5;" x1="2378.5" x2="2525.5" y1="869.2656" y2="869.2656"/></g><g id="elem_GMN77"><path d="M2399,673.5 L2399,713.7656 A0,0 0 0 0 2399,713.7656 L2462.01,713.7656 L2454.83,820.86 L2470.01,713.7656 L2537,713.7656 A0,0 0 0 0 2537,713.7656 L2537,683.5 L2527,673.5 L2399,673.5 A0,0 0 0 0 2399,673.5 " fill="#FEFFDD" style="stroke:#181818;stroke-width:0.5;"/><path d="M2527,673.5 L2527,683.5 L2537,683.5 L2527,673.5 " fill="#FEFFDD" style="stroke:#181818;stroke-width:0.5;"/><text fill="#000000" font-family="sans-serif" font-size="13" lengthAdjust="spacing" textLength="113" x="2405" y="690.5669">Generic display of</text><text fill="#000000" font-family="sans-serif" font-size="13" lengthAdjust="spacing" textLength="100" x="2405" y="705.6997">modal contents</text></g><!--class DynamicMenuItem--><g id="elem_DynamicMenuItem"><rect codeLine="173" fill="#F1F1F1" height="56.2656" id="DynamicMenuItem" rx="2.5" ry="2.5" style="stroke:#181818;stroke-width:0.5;" width="160" x="2396" y="1293.5"/><ellipse cx="2411" cy="1313.6328" fill="#ADD1B2" rx="11" ry="11" style="stroke:#181818;stroke-width:1.0;"/><path d="M2413.9688,1319.2734 Q2413.3906,1319.5703 2412.75,1319.7109 Q2412.1094,1319.8672 2411.4063,1319.8672 Q2408.9063,1319.8672 2407.5781,1318.2266 Q2406.2656,1316.5703 2406.2656,1313.4453 Q2406.2656,1310.3203 2407.5781,1308.6641 Q2408.9063,1307.0078 2411.4063,1307.0078 Q2412.1094,1307.0078 2412.75,1307.1641 Q2413.4063,1307.3203 2413.9688,1307.6172 L2413.9688,1310.3359 Q2413.3438,1309.7578 2412.75,1309.4922 Q2412.1563,1309.2109 2411.5313,1309.2109 Q2410.1875,1309.2109 2409.5,1310.2891 Q2408.8125,1311.3516 2408.8125,1313.4453 Q2408.8125,1315.5391 2409.5,1316.6172 Q2410.1875,1317.6797 2411.5313,1317.6797 Q2412.1563,1317.6797 2412.75,1317.4141 Q2413.3438,1317.1328 2413.9688,1316.5547 L2413.9688,1319.2734 Z " fill="#000000"/><text fill="#000000" font-family="sans-serif" font-size="12" font-style="italic" lengthAdjust="spacing" textLength="121" x="2428.5" y="1309.6387">«RazorComponent»</text><text fill="#000000" font-family="sans-serif" font-size="14" lengthAdjust="spacing" textLength="128" x="2425" y="1325.4639">DynamicMenuItem</text><line style="stroke:#181818;stroke-width:0.5;" x1="2397" x2="2555" y1="1333.7656" y2="1333.7656"/><line style="stroke:#181818;stroke-width:0.5;" x1="2397" x2="2555" y1="1341.7656" y2="1341.7656"/></g><g id="elem_GMN81"><path d="M2703.5,1062 L2703.5,1087.1328 L2914.5,1087.1328 L2914.5,1072 L2904.5,1062 L2703.5,1062 " fill="#FEFFDD" style="stroke:#181818;stroke-width:0.5;"/><path d="M2904.5,1062 L2904.5,1072 L2914.5,1072 L2904.5,1062 " fill="#FEFFDD" style="stroke:#181818;stroke-width:1.0;"/><text fill="#000000" font-family="sans-serif" font-size="13" lengthAdjust="spacing" textLength="190" x="2709.5" y="1079.0669">Rendering of AasxMenu items</text></g><!--class AnyUiRenderStar--><g id="elem_AnyUiRenderStar"><rect codeLine="178" fill="#F1F1F1" height="56.2656" id="AnyUiRenderStar" rx="2.5" ry="2.5" style="stroke:#181818;stroke-width:0.5;" width="149" x="1055.5" y="821"/><ellipse cx="1070.5" cy="841.1328" fill="#ADD1B2" rx="11" ry="11" style="stroke:#181818;stroke-width:1.0;"/><path d="M1073.4688,846.7734 Q1072.8906,847.0703 1072.25,847.2109 Q1071.6094,847.3672 1070.9063,847.3672 Q1068.4063,847.3672 1067.0781,845.7266 Q1065.7656,844.0703 1065.7656,840.9453 Q1065.7656,837.8203 1067.0781,836.1641 Q1068.4063,834.5078 1070.9063,834.5078 Q1071.6094,834.5078 1072.25,834.6641 Q1072.9063,834.8203 1073.4688,835.1172 L1073.4688,837.8359 Q1072.8438,837.2578 1072.25,836.9922 Q1071.6563,836.7109 1071.0313,836.7109 Q1069.6875,836.7109 1069,837.7891 Q1068.3125,838.8516 1068.3125,840.9453 Q1068.3125,843.0391 1069,844.1172 Q1069.6875,845.1797 1071.0313,845.1797 Q1071.6563,845.1797 1072.25,844.9141 Q1072.8438,844.6328 1073.4688,844.0547 L1073.4688,846.7734 Z " fill="#000000"/><text fill="#000000" font-family="sans-serif" font-size="12" font-style="italic" lengthAdjust="spacing" textLength="121" x="1082.5" y="837.1387">«RazorComponent»</text><text fill="#000000" font-family="sans-serif" font-size="14" lengthAdjust="spacing" textLength="96" x="1095" y="852.9639">AnyUiRender*</text><line style="stroke:#181818;stroke-width:0.5;" x1="1056.5" x2="1203.5" y1="861.2656" y2="861.2656"/><line style="stroke:#181818;stroke-width:0.5;" x1="1056.5" x2="1203.5" y1="869.2656" y2="869.2656"/></g><g id="elem_GMN85"><path d="M1056,681 L1056,706.1328 A0,0 0 0 0 1056,706.1328 L1175.94,706.1328 L1139.57,820.81 L1183.94,706.1328 L1312,706.1328 A0,0 0 0 0 1312,706.1328 L1312,691 L1302,681 L1056,681 A0,0 0 0 0 1056,681 " fill="#FEFFDD" style="stroke:#181818;stroke-width:0.5;"/><path d="M1302,681 L1302,691 L1312,691 L1302,681 " fill="#FEFFDD" style="stroke:#181818;stroke-width:0.5;"/><text fill="#000000" font-family="sans-serif" font-size="13" lengthAdjust="spacing" textLength="235" x="1062" y="698.0669">Recursive rendering of AnyUi widgets</text></g><!--class AnyUiDialogueDataStar--><g id="elem_AnyUiDialogueDataStar"><rect codeLine="183" fill="#F1F1F1" height="48" id="AnyUiDialogueDataStar" rx="2.5" ry="2.5" style="stroke:#181818;stroke-width:0.5;" width="170" x="2150" y="1050.5"/><ellipse cx="2165" cy="1066.5" fill="#ADD1B2" rx="11" ry="11" style="stroke:#181818;stroke-width:1.0;"/><path d="M2167.9688,1072.1406 Q2167.3906,1072.4375 2166.75,1072.5781 Q2166.1094,1072.7344 2165.4063,1072.7344 Q2162.9063,1072.7344 2161.5781,1071.0938 Q2160.2656,1069.4375 2160.2656,1066.3125 Q2160.2656,1063.1875 2161.5781,1061.5313 Q2162.9063,1059.875 2165.4063,1059.875 Q2166.1094,1059.875 2166.75,1060.0313 Q2167.4063,1060.1875 2167.9688,1060.4844 L2167.9688,1063.2031 Q2167.3438,1062.625 2166.75,1062.3594 Q2166.1563,1062.0781 2165.5313,1062.0781 Q2164.1875,1062.0781 2163.5,1063.1563 Q2162.8125,1064.2188 2162.8125,1066.3125 Q2162.8125,1068.4063 2163.5,1069.4844 Q2164.1875,1070.5469 2165.5313,1070.5469 Q2166.1563,1070.5469 2166.75,1070.2813 Q2167.3438,1070 2167.9688,1069.4219 L2167.9688,1072.1406 Z " fill="#000000"/><text fill="#000000" font-family="sans-serif" font-size="14" lengthAdjust="spacing" textLength="138" x="2179" y="1071.3467">AnyUiDialogueData*</text><line style="stroke:#181818;stroke-width:0.5;" x1="2151" x2="2319" y1="1082.5" y2="1082.5"/><line style="stroke:#181818;stroke-width:0.5;" x1="2151" x2="2319" y1="1090.5" y2="1090.5"/></g><g id="elem_GMN89"><path d="M1976,829 L1976,869.2656 A0,0 0 0 0 1976,869.2656 L2077.32,869.2656 L2217.48,1050.2 L2085.32,869.2656 L2158,869.2656 A0,0 0 0 0 2158,869.2656 L2158,839 L2148,829 L1976,829 A0,0 0 0 0 1976,829 " fill="#FEFFDD" style="stroke:#181818;stroke-width:0.5;"/><path d="M2148,829 L2148,839 L2158,839 L2148,829 " fill="#FEFFDD" style="stroke:#181818;stroke-width:0.5;"/><text fill="#000000" font-family="sans-serif" font-size="13" lengthAdjust="spacing" textLength="150" x="1982" y="846.0669">Derived classes holding</text><text fill="#000000" font-family="sans-serif" font-size="13" lengthAdjust="spacing" textLength="161" x="1982" y="861.1997">abstracted dialogue infos</text></g><!--class AnyUiFlyoutStar--><g id="elem_AnyUiFlyoutStar"><rect codeLine="189" fill="#F1F1F1" height="56.2656" id="AnyUiFlyoutStar" rx="2.5" ry="2.5" style="stroke:#181818;stroke-width:0.5;" width="149" x="2193.5" y="821"/><ellipse cx="2208.5" cy="841.1328" fill="#ADD1B2" rx="11" ry="11" style="stroke:#181818;stroke-width:1.0;"/><path d="M2211.4688,846.7734 Q2210.8906,847.0703 2210.25,847.2109 Q2209.6094,847.3672 2208.9063,847.3672 Q2206.4063,847.3672 2205.0781,845.7266 Q2203.7656,844.0703 2203.7656,840.9453 Q2203.7656,837.8203 2205.0781,836.1641 Q2206.4063,834.5078 2208.9063,834.5078 Q2209.6094,834.5078 2210.25,834.6641 Q2210.9063,834.8203 2211.4688,835.1172 L2211.4688,837.8359 Q2210.8438,837.2578 2210.25,836.9922 Q2209.6563,836.7109 2209.0313,836.7109 Q2207.6875,836.7109 2207,837.7891 Q2206.3125,838.8516 2206.3125,840.9453 Q2206.3125,843.0391 2207,844.1172 Q2207.6875,845.1797 2209.0313,845.1797 Q2209.6563,845.1797 2210.25,844.9141 Q2210.8438,844.6328 2211.4688,844.0547 L2211.4688,846.7734 Z " fill="#000000"/><text fill="#000000" font-family="sans-serif" font-size="12" font-style="italic" lengthAdjust="spacing" textLength="121" x="2220.5" y="837.1387">«RazorComponent»</text><text fill="#000000" font-family="sans-serif" font-size="14" lengthAdjust="spacing" textLength="86" x="2238" y="852.9639">AnyUiFlyout*</text><line style="stroke:#181818;stroke-width:0.5;" x1="2194.5" x2="2341.5" y1="861.2656" y2="861.2656"/><line style="stroke:#181818;stroke-width:0.5;" x1="2194.5" x2="2341.5" y1="869.2656" y2="869.2656"/></g><g id="elem_GMN93"><path d="M2150.5,673.5 L2150.5,713.7656 A0,0 0 0 0 2150.5,713.7656 L2254.37,713.7656 L2266.05,820.86 L2262.37,713.7656 L2363.5,713.7656 A0,0 0 0 0 2363.5,713.7656 L2363.5,683.5 L2353.5,673.5 L2150.5,673.5 A0,0 0 0 0 2150.5,673.5 " fill="#FEFFDD" style="stroke:#181818;stroke-width:0.5;"/><path d="M2353.5,673.5 L2353.5,683.5 L2363.5,683.5 L2353.5,673.5 " fill="#FEFFDD" style="stroke:#181818;stroke-width:0.5;"/><text fill="#000000" font-family="sans-serif" font-size="13" lengthAdjust="spacing" textLength="188" x="2156.5" y="690.5669">Handcrafted modal dialogues</text><text fill="#000000" font-family="sans-serif" font-size="13" lengthAdjust="spacing" textLength="114" x="2156.5" y="705.6997">to input user data</text></g><!--class StylePile--><g id="elem_StylePile"><rect codeLine="195" fill="#F1F1F1" height="48" id="StylePile" rx="2.5" ry="2.5" style="stroke:#181818;stroke-width:0.5;" width="89" x="1684.5" y="1471"/><ellipse cx="1699.5" cy="1487" fill="#ADD1B2" rx="11" ry="11" style="stroke:#181818;stroke-width:1.0;"/><path d="M1702.4688,1492.6406 Q1701.8906,1492.9375 1701.25,1493.0781 Q1700.6094,1493.2344 1699.9063,1493.2344 Q1697.4063,1493.2344 1696.0781,1491.5938 Q1694.7656,1489.9375 1694.7656,1486.8125 Q1694.7656,1483.6875 1696.0781,1482.0313 Q1697.4063,1480.375 1699.9063,1480.375 Q1700.6094,1480.375 1701.25,1480.5313 Q1701.9063,1480.6875 1702.4688,1480.9844 L1702.4688,1483.7031 Q1701.8438,1483.125 1701.25,1482.8594 Q1700.6563,1482.5781 1700.0313,1482.5781 Q1698.6875,1482.5781 1698,1483.6563 Q1697.3125,1484.7188 1697.3125,1486.8125 Q1697.3125,1488.9063 1698,1489.9844 Q1698.6875,1491.0469 1700.0313,1491.0469 Q1700.6563,1491.0469 1701.25,1490.7813 Q1701.8438,1490.5 1702.4688,1489.9219 L1702.4688,1492.6406 Z " fill="#000000"/><text fill="#000000" font-family="sans-serif" font-size="14" lengthAdjust="spacing" textLength="57" x="1713.5" y="1491.8467">StylePile</text><line style="stroke:#181818;stroke-width:0.5;" x1="1685.5" x2="1772.5" y1="1503" y2="1503"/><line style="stroke:#181818;stroke-width:0.5;" x1="1685.5" x2="1772.5" y1="1511" y2="1511"/></g><g id="elem_GMN97"><path d="M1617.5,1301.5 L1617.5,1341.7656 A0,0 0 0 0 1617.5,1341.7656 L1725,1341.7656 L1729,1470.82 L1733,1341.7656 L1840.5,1341.7656 A0,0 0 0 0 1840.5,1341.7656 L1840.5,1311.5 L1830.5,1301.5 L1617.5,1301.5 A0,0 0 0 0 1617.5,1301.5 " fill="#FEFFDD" style="stroke:#181818;stroke-width:0.5;"/><path d="M1830.5,1301.5 L1830.5,1311.5 L1840.5,1311.5 L1830.5,1301.5 " fill="#FEFFDD" style="stroke:#181818;stroke-width:0.5;"/><text fill="#000000" font-family="sans-serif" font-size="13" lengthAdjust="spacing" textLength="202" x="1623.5" y="1318.5669">Composing of style="..." strings</text><text fill="#000000" font-family="sans-serif" font-size="13" lengthAdjust="spacing" textLength="190" x="1623.5" y="1333.6997">out of individual C# attributes</text></g><!--class AasxMenuBlazor--><g id="elem_AasxMenuBlazor"><rect codeLine="201" fill="#F1F1F1" height="64.2969" id="AasxMenuBlazor" rx="2.5" ry="2.5" style="stroke:#181818;stroke-width:0.5;" width="146" x="1835" y="1463"/><ellipse cx="1850" cy="1479" fill="#ADD1B2" rx="11" ry="11" style="stroke:#181818;stroke-width:1.0;"/><path d="M1852.9688,1484.6406 Q1852.3906,1484.9375 1851.75,1485.0781 Q1851.1094,1485.2344 1850.4063,1485.2344 Q1847.9063,1485.2344 1846.5781,1483.5938 Q1845.2656,1481.9375 1845.2656,1478.8125 Q1845.2656,1475.6875 1846.5781,1474.0313 Q1847.9063,1472.375 1850.4063,1472.375 Q1851.1094,1472.375 1851.75,1472.5313 Q1852.4063,1472.6875 1852.9688,1472.9844 L1852.9688,1475.7031 Q1852.3438,1475.125 1851.75,1474.8594 Q1851.1563,1474.5781 1850.5313,1474.5781 Q1849.1875,1474.5781 1848.5,1475.6563 Q1847.8125,1476.7188 1847.8125,1478.8125 Q1847.8125,1480.9063 1848.5,1481.9844 Q1849.1875,1483.0469 1850.5313,1483.0469 Q1851.1563,1483.0469 1851.75,1482.7813 Q1852.3438,1482.5 1852.9688,1481.9219 L1852.9688,1484.6406 Z " fill="#000000"/><text fill="#000000" font-family="sans-serif" font-size="14" lengthAdjust="spacing" textLength="114" x="1864" y="1483.8467">AasxMenuBlazor</text><line style="stroke:#181818;stroke-width:0.5;" x1="1836" x2="1980" y1="1495" y2="1495"/><text fill="#000000" font-family="sans-serif" font-size="14" lengthAdjust="spacing" textLength="119" x="1841" y="1511.9951">Menu: AasxMenu</text><line style="stroke:#181818;stroke-width:0.5;" x1="1836" x2="1980" y1="1519.2969" y2="1519.2969"/></g><g id="elem_GMN110"><path d="M2833.5,1781 L2833.5,1806.1328 L3152.5,1806.1328 L3152.5,1791 L3142.5,1781 L2833.5,1781 " fill="#FEFFDD" style="stroke:#181818;stroke-width:0.5;"/><path d="M3142.5,1781 L3142.5,1791 L3152.5,1791 L3142.5,1781 " fill="#FEFFDD" style="stroke:#181818;stroke-width:1.0;"/><text fill="#000000" font-family="sans-serif" font-size="13" lengthAdjust="spacing" textLength="298" x="2839.5" y="1798.0669">Files here will be automatically served via HTTP</text></g><!--class ToBeDone--><g id="elem_ToBeDone"><rect codeLine="261" fill="#F1F1F1" height="48" id="ToBeDone" rx="2.5" ry="2.5" style="stroke:#181818;stroke-width:0.5;" width="107" x="1833.5" y="825"/><ellipse cx="1848.5" cy="841" fill="#ADD1B2" rx="11" ry="11" style="stroke:#181818;stroke-width:1.0;"/><path d="M1851.4688,846.6406 Q1850.8906,846.9375 1850.25,847.0781 Q1849.6094,847.2344 1848.9063,847.2344 Q1846.4063,847.2344 1845.0781,845.5938 Q1843.7656,843.9375 1843.7656,840.8125 Q1843.7656,837.6875 1845.0781,836.0313 Q1846.4063,834.375 1848.9063,834.375 Q1849.6094,834.375 1850.25,834.5313 Q1850.9063,834.6875 1851.4688,834.9844 L1851.4688,837.7031 Q1850.8438,837.125 1850.25,836.8594 Q1849.6563,836.5781 1849.0313,836.5781 Q1847.6875,836.5781 1847,837.6563 Q1846.3125,838.7188 1846.3125,840.8125 Q1846.3125,842.9063 1847,843.9844 Q1847.6875,845.0469 1849.0313,845.0469 Q1849.6563,845.0469 1850.25,844.7813 Q1850.8438,844.5 1851.4688,843.9219 L1851.4688,846.6406 Z " fill="#000000"/><text fill="#000000" font-family="sans-serif" font-size="14" lengthAdjust="spacing" textLength="75" x="1862.5" y="845.8467">ToBeDone</text><line style="stroke:#181818;stroke-width:0.5;" x1="1834.5" x2="1939.5" y1="857" y2="857"/><line style="stroke:#181818;stroke-width:0.5;" x1="1834.5" x2="1939.5" y1="865" y2="865"/></g><!--class AnyUiDisplayDataHtml--><g id="elem_AnyUiDisplayDataHtml"><rect codeLine="120" fill="#F1F1F1" height="48" id="AnyUiDisplayDataHtml" rx="2.5" ry="2.5" style="stroke:#181818;stroke-width:0.5;" width="182" x="1933" y="1050.5"/><ellipse cx="1948" cy="1066.5" fill="#ADD1B2" rx="11" ry="11" style="stroke:#181818;stroke-width:1.0;"/><path d="M1950.9688,1072.1406 Q1950.3906,1072.4375 1949.75,1072.5781 Q1949.1094,1072.7344 1948.4063,1072.7344 Q1945.9063,1072.7344 1944.5781,1071.0938 Q1943.2656,1069.4375 1943.2656,1066.3125 Q1943.2656,1063.1875 1944.5781,1061.5313 Q1945.9063,1059.875 1948.4063,1059.875 Q1949.1094,1059.875 1949.75,1060.0313 Q1950.4063,1060.1875 1950.9688,1060.4844 L1950.9688,1063.2031 Q1950.3438,1062.625 1949.75,1062.3594 Q1949.1563,1062.0781 1948.5313,1062.0781 Q1947.1875,1062.0781 1946.5,1063.1563 Q1945.8125,1064.2188 1945.8125,1066.3125 Q1945.8125,1068.4063 1946.5,1069.4844 Q1947.1875,1070.5469 1948.5313,1070.5469 Q1949.1563,1070.5469 1949.75,1070.2813 Q1950.3438,1070 1950.9688,1069.4219 L1950.9688,1072.1406 Z " fill="#000000"/><text fill="#000000" font-family="sans-serif" font-size="14" lengthAdjust="spacing" textLength="150" x="1962" y="1071.3467">AnyUiDisplayDataHtml</text><line style="stroke:#181818;stroke-width:0.5;" x1="1934" x2="2114" y1="1082.5" y2="1082.5"/><line style="stroke:#181818;stroke-width:0.5;" x1="1934" x2="2114" y1="1090.5" y2="1090.5"/></g><!--class AnyUiDisplayContextHtml--><g id="elem_AnyUiDisplayContextHtml"><rect codeLine="121" fill="#F1F1F1" height="48" id="AnyUiDisplayContextHtml" rx="2.5" ry="2.5" style="stroke:#181818;stroke-width:0.5;" width="204" x="1694" y="1050.5"/><ellipse cx="1709" cy="1066.5" fill="#ADD1B2" rx="11" ry="11" style="stroke:#181818;stroke-width:1.0;"/><path d="M1711.9688,1072.1406 Q1711.3906,1072.4375 1710.75,1072.5781 Q1710.1094,1072.7344 1709.4063,1072.7344 Q1706.9063,1072.7344 1705.5781,1071.0938 Q1704.2656,1069.4375 1704.2656,1066.3125 Q1704.2656,1063.1875 1705.5781,1061.5313 Q1706.9063,1059.875 1709.4063,1059.875 Q1710.1094,1059.875 1710.75,1060.0313 Q1711.4063,1060.1875 1711.9688,1060.4844 L1711.9688,1063.2031 Q1711.3438,1062.625 1710.75,1062.3594 Q1710.1563,1062.0781 1709.5313,1062.0781 Q1708.1875,1062.0781 1707.5,1063.1563 Q1706.8125,1064.2188 1706.8125,1066.3125 Q1706.8125,1068.4063 1707.5,1069.4844 Q1708.1875,1070.5469 1709.5313,1070.5469 Q1710.1563,1070.5469 1710.75,1070.2813 Q1711.3438,1070 1711.9688,1069.4219 L1711.9688,1072.1406 Z " fill="#000000"/><text fill="#000000" font-family="sans-serif" font-size="14" lengthAdjust="spacing" textLength="172" x="1723" y="1071.3467">AnyUiDisplayContextHtml</text><line style="stroke:#181818;stroke-width:0.5;" x1="1695" x2="1897" y1="1082.5" y2="1082.5"/><line style="stroke:#181818;stroke-width:0.5;" x1="1695" x2="1897" y1="1090.5" y2="1090.5"/></g><!--class MainLayoutJs--><g id="elem_MainLayoutJs"><rect codeLine="208" fill="#F1F1F1" height="56.2656" id="MainLayoutJs" rx="2.5" ry="2.5" style="stroke:#181818;stroke-width:0.5;" width="126" x="2493" y="1641"/><ellipse cx="2508" cy="1661.1328" fill="#ADD1B2" rx="11" ry="11" style="stroke:#181818;stroke-width:1.0;"/><path d="M2510.9688,1666.7734 Q2510.3906,1667.0703 2509.75,1667.2109 Q2509.1094,1667.3672 2508.4063,1667.3672 Q2505.9063,1667.3672 2504.5781,1665.7266 Q2503.2656,1664.0703 2503.2656,1660.9453 Q2503.2656,1657.8203 2504.5781,1656.1641 Q2505.9063,1654.5078 2508.4063,1654.5078 Q2509.1094,1654.5078 2509.75,1654.6641 Q2510.4063,1654.8203 2510.9688,1655.1172 L2510.9688,1657.8359 Q2510.3438,1657.2578 2509.75,1656.9922 Q2509.1563,1656.7109 2508.5313,1656.7109 Q2507.1875,1656.7109 2506.5,1657.7891 Q2505.8125,1658.8516 2505.8125,1660.9453 Q2505.8125,1663.0391 2506.5,1664.1172 Q2507.1875,1665.1797 2508.5313,1665.1797 Q2509.1563,1665.1797 2509.75,1664.9141 Q2510.3438,1664.6328 2510.9688,1664.0547 L2510.9688,1666.7734 Z " fill="#000000"/><text fill="#000000" font-family="sans-serif" font-size="12" font-style="italic" lengthAdjust="spacing" textLength="76" x="2531" y="1657.1387">«JavaScript»</text><text fill="#000000" font-family="sans-serif" font-size="14" lengthAdjust="spacing" textLength="94" x="2522" y="1672.9639">main-layout.js</text><line style="stroke:#181818;stroke-width:0.5;" x1="2494" x2="2618" y1="1681.2656" y2="1681.2656"/><line style="stroke:#181818;stroke-width:0.5;" x1="2494" x2="2618" y1="1689.2656" y2="1689.2656"/></g><!--class BlazorModalJs--><g id="elem_BlazorModalJs"><rect codeLine="210" fill="#F1F1F1" height="56.2656" id="BlazorModalJs" rx="2.5" ry="2.5" style="stroke:#181818;stroke-width:0.5;" width="136" x="2322" y="1641"/><ellipse cx="2337" cy="1661.1328" fill="#ADD1B2" rx="11" ry="11" style="stroke:#181818;stroke-width:1.0;"/><path d="M2339.9688,1666.7734 Q2339.3906,1667.0703 2338.75,1667.2109 Q2338.1094,1667.3672 2337.4063,1667.3672 Q2334.9063,1667.3672 2333.5781,1665.7266 Q2332.2656,1664.0703 2332.2656,1660.9453 Q2332.2656,1657.8203 2333.5781,1656.1641 Q2334.9063,1654.5078 2337.4063,1654.5078 Q2338.1094,1654.5078 2338.75,1654.6641 Q2339.4063,1654.8203 2339.9688,1655.1172 L2339.9688,1657.8359 Q2339.3438,1657.2578 2338.75,1656.9922 Q2338.1563,1656.7109 2337.5313,1656.7109 Q2336.1875,1656.7109 2335.5,1657.7891 Q2334.8125,1658.8516 2334.8125,1660.9453 Q2334.8125,1663.0391 2335.5,1664.1172 Q2336.1875,1665.1797 2337.5313,1665.1797 Q2338.1563,1665.1797 2338.75,1664.9141 Q2339.3438,1664.6328 2339.9688,1664.0547 L2339.9688,1666.7734 Z " fill="#000000"/><text fill="#000000" font-family="sans-serif" font-size="12" font-style="italic" lengthAdjust="spacing" textLength="76" x="2365" y="1657.1387">«JavaScript»</text><text fill="#000000" font-family="sans-serif" font-size="14" lengthAdjust="spacing" textLength="104" x="2351" y="1672.9639">blazor-modal.js</text><line style="stroke:#181818;stroke-width:0.5;" x1="2323" x2="2457" y1="1681.2656" y2="1681.2656"/><line style="stroke:#181818;stroke-width:0.5;" x1="2323" x2="2457" y1="1689.2656" y2="1689.2656"/></g><!--class KeyboardJs--><g id="elem_KeyboardJs"><rect codeLine="212" fill="#F1F1F1" height="56.2656" id="KeyboardJs" rx="2.5" ry="2.5" style="stroke:#181818;stroke-width:0.5;" width="111" x="2654.5" y="1641"/><ellipse cx="2669.5" cy="1661.1328" fill="#ADD1B2" rx="11" ry="11" style="stroke:#181818;stroke-width:1.0;"/><path d="M2672.4688,1666.7734 Q2671.8906,1667.0703 2671.25,1667.2109 Q2670.6094,1667.3672 2669.9063,1667.3672 Q2667.4063,1667.3672 2666.0781,1665.7266 Q2664.7656,1664.0703 2664.7656,1660.9453 Q2664.7656,1657.8203 2666.0781,1656.1641 Q2667.4063,1654.5078 2669.9063,1654.5078 Q2670.6094,1654.5078 2671.25,1654.6641 Q2671.9063,1654.8203 2672.4688,1655.1172 L2672.4688,1657.8359 Q2671.8438,1657.2578 2671.25,1656.9922 Q2670.6563,1656.7109 2670.0313,1656.7109 Q2668.6875,1656.7109 2668,1657.7891 Q2667.3125,1658.8516 2667.3125,1660.9453 Q2667.3125,1663.0391 2668,1664.1172 Q2668.6875,1665.1797 2670.0313,1665.1797 Q2670.6563,1665.1797 2671.25,1664.9141 Q2671.8438,1664.6328 2672.4688,1664.0547 L2672.4688,1666.7734 Z " fill="#000000"/><text fill="#000000" font-family="sans-serif" font-size="12" font-style="italic" lengthAdjust="spacing" textLength="76" x="2685" y="1657.1387">«JavaScript»</text><text fill="#000000" font-family="sans-serif" font-size="14" lengthAdjust="spacing" textLength="79" x="2683.5" y="1672.9639">keyboard.js</text><line style="stroke:#181818;stroke-width:0.5;" x1="2655.5" x2="2764.5" y1="1681.2656" y2="1681.2656"/><line style="stroke:#181818;stroke-width:0.5;" x1="2655.5" x2="2764.5" y1="1689.2656" y2="1689.2656"/></g><!--class TreeStyleCss--><g id="elem_TreeStyleCss"><rect codeLine="214" fill="#F1F1F1" height="48" id="TreeStyleCss" rx="2.5" ry="2.5" style="stroke:#181818;stroke-width:0.5;" width="121" x="2165.5" y="1645"/><ellipse cx="2180.5" cy="1661" fill="#ADD1B2" rx="11" ry="11" style="stroke:#181818;stroke-width:1.0;"/><path d="M2183.4688,1666.6406 Q2182.8906,1666.9375 2182.25,1667.0781 Q2181.6094,1667.2344 2180.9063,1667.2344 Q2178.4063,1667.2344 2177.0781,1665.5938 Q2175.7656,1663.9375 2175.7656,1660.8125 Q2175.7656,1657.6875 2177.0781,1656.0313 Q2178.4063,1654.375 2180.9063,1654.375 Q2181.6094,1654.375 2182.25,1654.5313 Q2182.9063,1654.6875 2183.4688,1654.9844 L2183.4688,1657.7031 Q2182.8438,1657.125 2182.25,1656.8594 Q2181.6563,1656.5781 2181.0313,1656.5781 Q2179.6875,1656.5781 2179,1657.6563 Q2178.3125,1658.7188 2178.3125,1660.8125 Q2178.3125,1662.9063 2179,1663.9844 Q2179.6875,1665.0469 2181.0313,1665.0469 Q2181.6563,1665.0469 2182.25,1664.7813 Q2182.8438,1664.5 2183.4688,1663.9219 L2183.4688,1666.6406 Z " fill="#000000"/><text fill="#000000" font-family="sans-serif" font-size="14" lengthAdjust="spacing" textLength="89" x="2194.5" y="1665.8467">treeStyle.css</text><line style="stroke:#181818;stroke-width:0.5;" x1="2166.5" x2="2285.5" y1="1677" y2="1677"/><line style="stroke:#181818;stroke-width:0.5;" x1="2166.5" x2="2285.5" y1="1685" y2="1685"/></g><!--class SiteCss--><g id="elem_SiteCss"><rect codeLine="216" fill="#F1F1F1" height="48" id="SiteCss" rx="2.5" ry="2.5" style="stroke:#181818;stroke-width:0.5;" width="85" x="2045.5" y="1645"/><ellipse cx="2060.5" cy="1661" fill="#ADD1B2" rx="11" ry="11" style="stroke:#181818;stroke-width:1.0;"/><path d="M2063.4688,1666.6406 Q2062.8906,1666.9375 2062.25,1667.0781 Q2061.6094,1667.2344 2060.9063,1667.2344 Q2058.4063,1667.2344 2057.0781,1665.5938 Q2055.7656,1663.9375 2055.7656,1660.8125 Q2055.7656,1657.6875 2057.0781,1656.0313 Q2058.4063,1654.375 2060.9063,1654.375 Q2061.6094,1654.375 2062.25,1654.5313 Q2062.9063,1654.6875 2063.4688,1654.9844 L2063.4688,1657.7031 Q2062.8438,1657.125 2062.25,1656.8594 Q2061.6563,1656.5781 2061.0313,1656.5781 Q2059.6875,1656.5781 2059,1657.6563 Q2058.3125,1658.7188 2058.3125,1660.8125 Q2058.3125,1662.9063 2059,1663.9844 Q2059.6875,1665.0469 2061.0313,1665.0469 Q2061.6563,1665.0469 2062.25,1664.7813 Q2062.8438,1664.5 2063.4688,1663.9219 L2063.4688,1666.6406 Z " fill="#000000"/><text fill="#000000" font-family="sans-serif" font-size="14" lengthAdjust="spacing" textLength="53" x="2074.5" y="1665.8467">site.css</text><line style="stroke:#181818;stroke-width:0.5;" x1="2046.5" x2="2129.5" y1="1677" y2="1677"/><line style="stroke:#181818;stroke-width:0.5;" x1="2046.5" x2="2129.5" y1="1685" y2="1685"/></g><g id="elem_GMN107"><path d="M2045,1758 L2045,1828.5313 A0,0 0 0 0 2045,1828.5313 L2241,1828.5313 A0,0 0 0 0 2241,1828.5313 L2241,1768 L2231,1758 L2131.5,1758 L2098.35,1693.04 L2123.5,1758 L2045,1758 A0,0 0 0 0 2045,1758 " fill="#FEFFDD" style="stroke:#181818;stroke-width:0.5;"/><path d="M2231,1758 L2231,1768 L2241,1768 L2231,1758 " fill="#FEFFDD" style="stroke:#181818;stroke-width:0.5;"/><text fill="#000000" font-family="sans-serif" font-size="13" lengthAdjust="spacing" textLength="140" x="2051" y="1775.0669">General place for CSS</text><text fill="#000000" font-family="sans-serif" font-size="13" lengthAdjust="spacing" textLength="65" x="2051" y="1790.1997">definitions</text><text fill="#000000" font-family="sans-serif" font-size="13" lengthAdjust="spacing" textLength="175" x="2051" y="1805.3325">overwriting some bootstrap</text><text fill="#000000" font-family="sans-serif" font-size="13" lengthAdjust="spacing" textLength="65" x="2051" y="1820.4653">definitions</text></g><!--link MainWindowLogic to GMN4--><g id="link_MainWindowLogic_GMN4"><path d="M122.91,383.95 C143.35,359.46 175.16,327.57 211.5,313.5 C267.97,291.63 699.67,292.6 756.5,313.5 C796.71,328.29 832.66,363.12 854.61,388.07 " fill="none" id="MainWindowLogic-GMN4" style="stroke:#181818;stroke-width:1.0;stroke-dasharray:7.0,7.0;"/></g><!--reverse link MainWindowLogic to MainWindowTools--><g id="link_MainWindowLogic_MainWindowTools"><path codeLine="20" d="M102.81,468.48 C104.36,489.31 106.06,512.29 107.29,528.87 " fill="none" id="MainWindowLogic-backto-MainWindowTools" style="stroke:#181818;stroke-width:1.0;"/><polygon fill="none" points="95.82,468.77,101.32,448.31,109.78,467.74,95.82,468.77" style="stroke:#181818;stroke-width:1.0;"/></g><!--reverse link MainWindowTools to MainWindowDispatch--><g id="link_MainWindowTools_MainWindowDispatch"><path codeLine="31" d="M188.43,584.14 C248.75,607.03 331.42,638.4 392.3,661.5 " fill="none" id="MainWindowTools-backto-MainWindowDispatch" style="stroke:#181818;stroke-width:1.0;"/><polygon fill="none" points="185.9,590.67,169.68,577.03,190.86,577.58,185.9,590.67" style="stroke:#181818;stroke-width:1.0;"/></g><!--reverse link IMainWindow to MainWindowDispatch--><g id="link_IMainWindow_MainWindowDispatch"><path codeLine="33" d="M348.71,451.5 C371.09,471.06 397.28,497.14 415,525 C442.56,568.31 459.22,626.14 467.51,661.28 " fill="none" id="IMainWindow-backto-MainWindowDispatch" style="stroke:#181818;stroke-width:1.0;"/><polygon fill="#181818" points="344.87,448.17,349.0643,457.0811,348.6532,451.4392,354.295,451.0281,344.87,448.17" style="stroke:#181818;stroke-width:1.0;"/><text fill="#000000" font-family="sans-serif" font-size="13" lengthAdjust="spacing" textLength="30" x="443" y="557.5669">uses</text></g><!--link GMN33 to BlazorSession--><g id="link_GMN33_BlazorSession"><path d="M1582.04,876.67 C1550.53,894.99 1507.2,919.44 1468,939 C1416.09,964.9 1358.06,991.14 1306.67,1013.49 " fill="none" id="GMN33-BlazorSession" style="stroke:#181818;stroke-width:1.0;stroke-dasharray:7.0,7.0;"/></g><!--reverse link BlazorSession to BlazorSessionCommandBindings--><g id="link_BlazorSession_BlazorSessionCommandBindings"><path codeLine="96" d="M1162.52,1193.16 C1162.37,1228.68 1162.23,1264.76 1162.13,1289.39 " fill="none" id="BlazorSession-backto-BlazorSessionCommandBindings" style="stroke:#181818;stroke-width:1.0;"/><polygon fill="#181818" points="1162.57,1180.11,1158.5437,1186.0924,1162.5173,1192.1099,1166.5436,1186.1275,1162.57,1180.11" style="stroke:#181818;stroke-width:1.0;"/><text fill="#000000" font-family="sans-serif" font-size="13" lengthAdjust="spacing" textLength="40" x="1163" y="1223.0669">partial</text></g><!--reverse link MainWindowDispatch to BlazorSessionCommandBindings--><g id="link_MainWindowDispatch_BlazorSessionCommandBindings"><path codeLine="98" d="M508.57,729.61 C548.18,769.56 615.32,836.47 675,892 C816.79,1023.92 856.57,1052.11 1002,1180 C1044.75,1217.6 1093.97,1260.8 1126.4,1289.27 " fill="none" id="MainWindowDispatch-backto-BlazorSessionCommandBindings" style="stroke:#181818;stroke-width:1.0;"/><polygon fill="#181818" points="504.82,725.82,508.337,735.0195,508.3484,729.3627,514.0052,729.3741,504.82,725.82" style="stroke:#181818;stroke-width:1.0;"/><text fill="#000000" font-family="sans-serif" font-size="13" lengthAdjust="spacing" textLength="30" x="726" y="935.0669">uses</text></g><!--link GMN43 to BlazorVisualElements--><g id="link_GMN43_BlazorVisualElements"><path d="M2559.34,1087.34 C2531.24,1113.45 2461.2,1177.58 2399,1227 C2386.48,1236.94 2373.03,1247.14 2359.7,1256.97 " fill="none" id="GMN43-BlazorVisualElements" style="stroke:#181818;stroke-width:1.0;stroke-dasharray:7.0,7.0;"/></g><!--reverse link MainLayout to MainMenu--><g id="link_MainLayout_MainMenu"><path codeLine="139" d="M3428.37,884.04 C3382.45,912.08 3321.89,950.18 3300,969 C3272.69,992.48 3246.01,1024.03 3228.47,1046.3 " fill="none" id="MainLayout-backto-MainMenu" style="stroke:#181818;stroke-width:1.0;"/><polygon fill="#181818" points="3439.69,877.15,3432.485,876.8532,3429.4399,883.3898,3436.6449,883.6866,3439.69,877.15" style="stroke:#181818;stroke-width:1.0;"/></g><!--reverse link MainLayout to StatusBar--><g id="link_MainLayout_StatusBar"><path codeLine="150" d="M3468.52,889.62 C3449.77,934.68 3419.65,1007.06 3403.35,1046.22 " fill="none" id="MainLayout-backto-StatusBar" style="stroke:#181818;stroke-width:1.0;"/><polygon fill="#181818" points="3473.6,877.41,3467.6,881.41,3468.9846,888.4869,3474.9846,884.4869,3473.6,877.41" style="stroke:#181818;stroke-width:1.0;"/></g><!--link GMN81 to DynamicMenuItem--><g id="link_GMN81_DynamicMenuItem"><path d="M2796.12,1087.3 C2774.17,1107.21 2727.81,1148.42 2686,1180 C2630.35,1222.04 2562.82,1266.06 2519.63,1293.38 " fill="none" id="GMN81-DynamicMenuItem" style="stroke:#181818;stroke-width:1.0;stroke-dasharray:7.0,7.0;"/></g><!--link wwwroot to GMN110--><g id="link_wwwroot_GMN110"><path d="M2809.1484,1675.199 C2809.2779,1675.2817 2809.4089,1675.3652 2809.5412,1675.4496 C2810.0704,1675.7873 2810.6217,1676.139 2811.1942,1676.5043 C2812.3393,1677.2349 2813.5696,1678.0199 2814.8792,1678.8555 C2817.4985,1680.5267 2820.435,1682.4003 2823.6419,1684.4464 C2836.4694,1692.6309 2853.6225,1703.5756 2872.0975,1715.3638 C2909.0475,1738.94 2951.285,1765.89 2974.78,1780.88 " fill="none" id="wwwroot-GMN110" style="stroke:#181818;stroke-width:1.0;stroke-dasharray:7.0,7.0;"/></g><!--reverse link Program to BlazorSession--><g id="link_Program_BlazorSession"><path codeLine="229" d="M1463.92,237.25 C1305.43,262.86 1020,321.91 1020,415 C1020,415 1020,415 1020,850 C1020,892.72 1038.77,933.83 1062.71,968.88 " fill="none" id="Program-backto-BlazorSession" style="stroke:#181818;stroke-width:1.0;"/><polygon fill="#181818" points="1476.98,235.17,1470.4261,232.1622,1465.129,237.0551,1471.6829,240.0629,1476.98,235.17" style="stroke:#181818;stroke-width:1.0;"/><text fill="#000000" font-family="sans-serif" font-size="13" lengthAdjust="spacing" textLength="24" x="1030.8146" y="957.9989">1..n</text></g><!--reverse link MainWindowDispatch to BlazorSession--><g id="link_MainWindowDispatch_BlazorSession"><path codeLine="231" d="M534.79,727.94 C642.51,787.19 869.61,912.11 1019.19,994.39 " fill="none" id="MainWindowDispatch-backto-BlazorSession" style="stroke:#181818;stroke-width:1.0;"/><polygon fill="#181818" points="530.38,725.52,536.3353,733.3644,534.7602,727.9312,540.1933,726.3561,530.38,725.52" style="stroke:#181818;stroke-width:1.0;"/></g><!--reverse link IMainWindow to BlazorSession--><g id="link_IMainWindow_BlazorSession"><path codeLine="232" d="M418.57,447.38 C574.17,472.21 964,433.7 964,552 C964,552 964,552 964,850 C964,896.24 988.05,937.34 1019.43,971.29 " fill="none" id="IMainWindow-backto-BlazorSession" style="stroke:#181818;stroke-width:1.0;"/><polygon fill="none" points="416.97,454.2,398.66,443.53,419.62,440.45,416.97,454.2" style="stroke:#181818;stroke-width:1.0;"/></g><!--reverse link BlazorSession to BlazorVisualElements--><g id="link_BlazorSession_BlazorVisualElements"><path codeLine="234" d="M1317.75,1187.3 C1346.71,1206.14 1373.15,1221.43 1390,1227 C1515.91,1268.64 1854.6,1239.08 1986,1257 C2050.61,1265.81 2122.27,1281.96 2177.32,1295.76 " fill="none" id="BlazorSession-backto-BlazorVisualElements" style="stroke:#181818;stroke-width:1.0;"/><polygon fill="#181818" points="1306.54,1179.92,1309.354,1186.5594,1316.565,1186.5154,1313.751,1179.876,1306.54,1179.92" style="stroke:#181818;stroke-width:1.0;"/><text fill="#000000" font-family="sans-serif" font-size="13" lengthAdjust="spacing" textLength="106" x="1391" y="1223.0669">DisplayElements</text></g><!--reverse link BlazorSession to AasxMenuBlazor--><g id="link_BlazorSession_AasxMenuBlazor"><path codeLine="235" d="M1284.57,1187.74 C1307.26,1203.46 1331.81,1217.48 1357,1227 C1461.33,1266.44 1770.49,1187.85 1858,1257 C1919.86,1305.88 1917.93,1410.3 1912.46,1462.67 " fill="none" id="BlazorSession-backto-AasxMenuBlazor" style="stroke:#181818;stroke-width:1.0;"/><polygon fill="#181818" points="1273.94,1180.16,1276.5052,1186.8994,1283.7128,1187.1236,1281.1476,1180.3842,1273.94,1180.16" style="stroke:#181818;stroke-width:1.0;"/><text fill="#000000" font-family="sans-serif" font-size="13" lengthAdjust="spacing" textLength="65" x="1914" y="1326.0669">MainMenu</text></g><!--link Program to Index--><g id="link_Program_Index"><path codeLine="237" d="M1569.89,286.06 C1576.01,361.83 1595.03,489.66 1654,581 C1676.05,615.16 1712.25,643.23 1742.71,662.66 " fill="none" id="Program-to-Index" style="stroke:#181818;stroke-width:1.0;"/><polygon fill="#181818" points="1747.16,665.46,1741.6876,657.2714,1742.9329,662.7895,1737.4148,664.0348,1747.16,665.46" style="stroke:#181818;stroke-width:1.0;"/><text fill="#000000" font-family="sans-serif" font-size="13" lengthAdjust="spacing" textLength="37" x="1613" y="491.0669">starts</text></g><!--link Program to Startup--><g id="link_Program_Startup"><path codeLine="239" d="M1617.52,286.07 C1644.95,320.58 1677.44,361.45 1698.37,387.78 " fill="none" id="Program-to-Startup" style="stroke:#181818;stroke-width:1.0;"/><polygon fill="#181818" points="1701.62,391.88,1699.1681,382.3412,1698.5158,387.9604,1692.8966,387.308,1701.62,391.88" style="stroke:#181818;stroke-width:1.0;"/><text fill="#000000" font-family="sans-serif" font-size="13" lengthAdjust="spacing" textLength="30" x="1653" y="329.0669">uses</text></g><!--link Startup to AppRazor--><g id="link_Startup_AppRazor"><path codeLine="240" d="M1720,440.21 C1720,462.17 1720,495.32 1720,519.83 " fill="none" id="Startup-to-AppRazor" style="stroke:#181818;stroke-width:1.0;"/><polygon fill="#181818" points="1720,524.92,1724,515.92,1720,519.92,1716,515.92,1720,524.92" style="stroke:#181818;stroke-width:1.0;"/><text fill="#000000" font-family="sans-serif" font-size="13" lengthAdjust="spacing" textLength="91" x="1721" y="491.0669">defines routes</text></g><!--link AppRazor to Index--><g id="link_AppRazor_Index"><path codeLine="242" d="M1735.03,581.03 C1747.72,603.86 1765.91,636.58 1779.3,660.67 " fill="none" id="AppRazor-to-Index" style="stroke:#181818;stroke-width:1.0;"/><polygon fill="#181818" points="1781.75,665.06,1780.8758,655.25,1779.3218,660.6892,1773.8826,659.1352,1781.75,665.06" style="stroke:#181818;stroke-width:1.0;"/><text fill="#000000" font-family="sans-serif" font-size="13" lengthAdjust="spacing" textLength="41" x="1761" y="624.0669">routes</text></g><!--link Index to BlazorSession--><g id="link_Index_BlazorSession"><path codeLine="244" d="M1742.79,704.03 C1675.62,717.82 1559.94,748.28 1477,806 C1436.32,834.31 1441.89,857.81 1406,892 C1376.9,919.72 1343.55,947.04 1311.08,971.74 " fill="none" id="Index-to-BlazorSession" style="stroke:#181818;stroke-width:1.0;"/><polygon fill="#181818" points="1306.71,975.05,1316.3011,972.8116,1310.698,972.034,1311.4755,966.4309,1306.71,975.05" style="stroke:#181818;stroke-width:1.0;"/><text fill="#000000" font-family="sans-serif" font-size="13" lengthAdjust="spacing" textLength="34" x="1478" y="853.5669">views</text></g><!--link Index to MainLayout--><g id="link_Index_MainLayout"><path codeLine="245" d="M1851.15,705.39 C1917.34,718.23 2032.9,739.13 2133,749.5 C2416.21,778.83 3139.85,725.65 3413,806 C3422.78,808.88 3432.64,813.35 3441.78,818.33 " fill="none" id="Index-to-MainLayout" style="stroke:#181818;stroke-width:1.0;"/><polygon fill="#181818" points="3446.21,820.81,3440.3158,812.9196,3441.8487,818.3648,3436.4035,819.8977,3446.21,820.81" style="stroke:#181818;stroke-width:1.0;"/><text fill="#000000" font-family="sans-serif" font-size="13" lengthAdjust="spacing" textLength="30" x="3227" y="772.0669">uses</text></g><!--link Index to TreeOfAasxVisualElements--><g id="link_Index_TreeOfAasxVisualElements"><path codeLine="246" d="M1851.17,706.04 C1908.27,718.4 2000.74,738.94 2080,759 C2107.28,765.91 2113.28,771.15 2141,776 C2317.92,806.93 2367.9,770.66 2544,806 C2560.49,809.31 2577.82,814.14 2594.16,819.36 " fill="none" id="Index-to-TreeOfAasxVisualElements" style="stroke:#181818;stroke-width:1.0;"/><polygon fill="#181818" points="2599.2,821,2591.873,814.4186,2594.4439,819.4575,2589.405,822.0283,2599.2,821" style="stroke:#181818;stroke-width:1.0;"/><text fill="#000000" font-family="sans-serif" font-size="13" lengthAdjust="spacing" textLength="30" x="2142" y="772.0669">uses</text></g><!--link Index to AnyUiFlyoutStar--><g id="link_Index_AnyUiFlyoutStar"><path codeLine="247" d="M1851.38,717.3 C1895.83,735.24 1960.64,759.83 2019,776 C2087.46,794.97 2108.31,784.43 2176,806 C2187.12,809.55 2198.68,814.08 2209.69,818.86 " fill="none" id="Index-to-AnyUiFlyoutStar" style="stroke:#181818;stroke-width:1.0;"/><polygon fill="#181818" points="2214.37,820.92,2207.7386,813.6382,2209.7922,818.9092,2204.5212,820.9628,2214.37,820.92" style="stroke:#181818;stroke-width:1.0;"/><text fill="#000000" font-family="sans-serif" font-size="13" lengthAdjust="spacing" textLength="30" x="2020" y="772.0669">uses</text></g><!--link TreeOfAasxVisualElements to AnyUiDialogueDataStar--><g id="link_TreeOfAasxVisualElements_AnyUiDialogueDataStar"><path codeLine="249" d="M2596.37,877.1 C2579.35,882.65 2561.18,888.01 2544,892 C2447.45,914.44 2405.38,866.87 2323,922 C2279.27,951.26 2254.46,1010.16 2242.96,1045.27 " fill="none" id="TreeOfAasxVisualElements-to-AnyUiDialogueDataStar" style="stroke:#181818;stroke-width:1.0;"/><polygon fill="#181818" points="2241.36,1050.28,2247.9215,1042.9351,2242.8896,1045.5197,2240.305,1040.4878,2241.36,1050.28" style="stroke:#181818;stroke-width:1.0;"/><text fill="#000000" font-family="sans-serif" font-size="13" lengthAdjust="spacing" textLength="56" x="2324" y="935.0669">works on</text></g><!--link TreeOfAasxVisualElements to Tree--><g id="link_TreeOfAasxVisualElements_Tree"><path codeLine="251" d="M2752.15,877.05 C2806.36,897.27 2877.21,928.41 2932,969 C2955.03,986.06 2976.46,1009.73 2992.83,1030.23 " fill="none" id="TreeOfAasxVisualElements-to-Tree" style="stroke:#181818;stroke-width:1.0;"/><polygon fill="none" points="2998.43,1026.02,3005.07,1046.15,2987.33,1034.56,2998.43,1026.02" style="stroke:#181818;stroke-width:1.0;"/><text fill="#000000" font-family="sans-serif" font-size="13" lengthAdjust="spacing" textLength="37" x="2880" y="935.0669">wraps</text></g><!--link Index to MultiLineText--><g id="link_Index_MultiLineText"><path codeLine="253" d="M1742.85,694.78 C1666.79,697.1 1525.58,708.59 1418,759 C1388.55,772.8 1360.86,797.29 1341.47,817.09 " fill="none" id="Index-to-MultiLineText" style="stroke:#181818;stroke-width:1.0;"/><polygon fill="#181818" points="1337.7,820.98,1346.8266,817.2779,1341.1707,817.3808,1341.0678,811.7249,1337.7,820.98" style="stroke:#181818;stroke-width:1.0;"/><text fill="#000000" font-family="sans-serif" font-size="13" lengthAdjust="spacing" textLength="30" x="1419" y="772.0669">uses</text></g><!--link Index to AnyUiRenderStar--><g id="link_Index_AnyUiRenderStar"><path codeLine="254" d="M1742.84,698.58 C1657.88,705.8 1488.57,723.55 1349,759 C1290.67,773.82 1277.64,783.04 1222,806 C1212.38,809.97 1202.27,814.36 1192.43,818.75 " fill="none" id="Index-to-AnyUiRenderStar" style="stroke:#181818;stroke-width:1.0;"/><polygon fill="#181818" points="1187.63,820.91,1197.4788,820.89,1192.1949,818.87,1194.2149,813.5861,1187.63,820.91" style="stroke:#181818;stroke-width:1.0;"/><text fill="#000000" font-family="sans-serif" font-size="13" lengthAdjust="spacing" textLength="30" x="1350" y="772.0669">uses</text></g><!--link AnyUiRenderStar to BlazorSession--><g id="link_AnyUiRenderStar_BlazorSession"><path codeLine="256" d="M1134.05,877.41 C1137.29,899.37 1142.07,931.72 1146.81,963.85 " fill="none" id="AnyUiRenderStar-to-BlazorSession" style="stroke:#181818;stroke-width:1.0;"/><polygon fill="#181818" points="1147.57,969,1150.2148,959.5129,1146.8409,964.0534,1142.3003,960.6795,1147.57,969" style="stroke:#181818;stroke-width:1.0;"/><text fill="#000000" font-family="sans-serif" font-size="13" lengthAdjust="spacing" textLength="141" x="1143" y="935.0669">renders ElementPanel</text></g><!--link TreeOfAasxVisualElements to BlazorVisualElements--><g id="link_TreeOfAasxVisualElements_BlazorVisualElements"><path codeLine="259" d="M2593.23,877.02 C2525.65,902.17 2434.06,940.02 2408,969 C2341.93,1042.47 2375.42,1088.56 2338,1180 C2328.16,1204.05 2316.04,1229.74 2304.72,1252.48 " fill="none" id="TreeOfAasxVisualElements-to-BlazorVisualElements" style="stroke:#181818;stroke-width:1.0;"/><polygon fill="#181818" points="2302.47,1256.99,2310.0646,1250.7193,2304.7003,1252.515,2302.9046,1247.1507,2302.47,1256.99" style="stroke:#181818;stroke-width:1.0;"/><text fill="#000000" font-family="sans-serif" font-size="13" lengthAdjust="spacing" textLength="49" x="2409" y="1079.0669">renders</text></g><!--reverse link ToBeDone to AnyUiDisplayContextHtml--><g id="link_ToBeDone_AnyUiDisplayContextHtml"><path codeLine="262" d="M1869.11,885.03 C1863.4,896.68 1857.21,909.8 1852,922 C1832.91,966.75 1813.97,1020.43 1803.75,1050.38 " fill="none" id="ToBeDone-backto-AnyUiDisplayContextHtml" style="stroke:#181818;stroke-width:1.0;"/><polygon fill="#181818" points="1875.06,873.08,1868.8061,876.67,1869.7146,883.8237,1875.9685,880.2336,1875.06,873.08" style="stroke:#181818;stroke-width:1.0;"/><text fill="#000000" font-family="sans-serif" font-size="13" lengthAdjust="spacing" textLength="94" x="1853" y="935.0669">displayContext</text></g><!--reverse link ToBeDone to AnyUiDisplayDataHtml--><g id="link_ToBeDone_AnyUiDisplayDataHtml"><path codeLine="263" d="M1920.42,882.94 C1931.29,894.66 1942.88,908.35 1952,922 C1980.31,964.37 2003.56,1019.61 2015.44,1050.32 " fill="none" id="ToBeDone-backto-AnyUiDisplayDataHtml" style="stroke:#181818;stroke-width:1.0;"/><polygon fill="#181818" points="1911.14,873.19,1912.3835,880.2931,1919.4185,881.8771,1918.175,874.7741,1911.14,873.19" style="stroke:#181818;stroke-width:1.0;"/><text fill="#000000" font-family="sans-serif" font-size="13" lengthAdjust="spacing" textLength="75" x="1962" y="935.0669">displayData</text></g><!--link Index to ToBeDone--><g id="link_Index_ToBeDone"><path codeLine="265" d="M1812.88,721.59 C1829.17,749.37 1854.37,792.35 1870.78,820.34 " fill="none" id="Index-to-ToBeDone" style="stroke:#181818;stroke-width:1.0;"/><polygon fill="#181818" points="1873.34,824.69,1872.2401,814.9027,1870.8118,820.3763,1865.3382,818.9479,1873.34,824.69" style="stroke:#181818;stroke-width:1.0;"/><text fill="#000000" font-family="sans-serif" font-size="13" lengthAdjust="spacing" textLength="52" x="1845" y="772.0669">includes</text></g><!--link AnyUiRenderStar to StylePile--><g id="link_AnyUiRenderStar_StylePile"><path codeLine="267" d="M1188.78,877.14 C1199.8,882.14 1211.23,887.27 1222,892 C1253.36,905.78 1266.18,900.69 1293,922 C1433.42,1033.57 1462.79,1086.35 1518,1257 C1543.19,1334.85 1516.29,1373.07 1572,1433 C1600.09,1463.21 1644.89,1478.65 1679.46,1486.42 " fill="none" id="AnyUiRenderStar-to-StylePile" style="stroke:#181818;stroke-width:1.0;"/><polygon fill="#181818" points="1684.48,1487.51,1676.5457,1481.675,1679.5961,1486.439,1674.8321,1489.4893,1684.48,1487.51" style="stroke:#181818;stroke-width:1.0;"/><text fill="#000000" font-family="sans-serif" font-size="13" lengthAdjust="spacing" textLength="30" x="1509" y="1223.0669">uses</text></g><!--link Index to StylePile--><g id="link_Index_StylePile"><path codeLine="268" d="M1791.82,721.72 C1782.35,769.27 1761.37,864.96 1741,892 C1721.48,917.91 1633.59,941.13 1617,969 C1569.55,1048.69 1560.76,1301.97 1600,1386 C1616.67,1421.69 1651.58,1449.75 1680.88,1468.32 " fill="none" id="Index-to-StylePile" style="stroke:#181818;stroke-width:1.0;"/><polygon fill="#181818" points="1685.16,1470.99,1679.6554,1462.823,1680.9224,1468.3362,1675.4093,1469.6032,1685.16,1470.99" style="stroke:#181818;stroke-width:1.0;"/><text fill="#000000" font-family="sans-serif" font-size="13" lengthAdjust="spacing" textLength="30" x="1618" y="1079.0669">uses</text></g><!--link DynamicMenuItem to StylePile--><g id="link_DynamicMenuItem_StylePile"><path codeLine="269" d="M2443.28,1349.71 C2425.2,1363.13 2401.65,1378.09 2378,1386 C2197.99,1446.18 2137.89,1377.66 1952,1416 C1890.57,1428.67 1822.95,1454.04 1778.46,1472.41 " fill="none" id="DynamicMenuItem-to-StylePile" style="stroke:#181818;stroke-width:1.0;"/><polygon fill="#181818" points="1773.7,1474.39,1783.5458,1474.6359,1778.3183,1472.474,1780.4802,1467.2466,1773.7,1474.39" style="stroke:#181818;stroke-width:1.0;"/><text fill="#000000" font-family="sans-serif" font-size="13" lengthAdjust="spacing" textLength="30" x="1953" y="1429.0669">uses</text></g><!--link DynamicMenuItem to SiteCss--><g id="link_DynamicMenuItem_SiteCss"><path codeLine="270" d="M2434.23,1349.63 C2368.61,1393.48 2239.46,1484.86 2148,1582 C2131.2,1599.84 2115.48,1622.69 2104.35,1640.36 " fill="none" id="DynamicMenuItem-to-SiteCss" style="stroke:#181818;stroke-width:1.0;"/><polygon fill="#181818" points="2101.62,1644.73,2109.7736,1639.2057,2104.2636,1640.486,2102.9832,1634.9759,2101.62,1644.73" style="stroke:#181818;stroke-width:1.0;"/><text fill="#000000" font-family="sans-serif" font-size="13" lengthAdjust="spacing" textLength="30" x="2276" y="1499.5669">uses</text></g><!--link DynamicMenuItem to AasxMenuBlazor--><g id="link_DynamicMenuItem_AasxMenuBlazor"><path codeLine="271" d="M2443.23,1349.56 C2425.13,1362.94 2401.59,1377.91 2378,1386 C2230.31,1436.62 2175.65,1365.27 2028,1416 C1999.57,1425.77 1971.22,1443.72 1949.21,1459.94 " fill="none" id="DynamicMenuItem-to-AasxMenuBlazor" style="stroke:#181818;stroke-width:1.0;"/><polygon fill="#181818" points="1945.18,1462.95,1954.785,1460.772,1949.1869,1459.9592,1949.9997,1454.361,1945.18,1462.95" style="stroke:#181818;stroke-width:1.0;"/><text fill="#000000" font-family="sans-serif" font-size="13" lengthAdjust="spacing" textLength="49" x="2029" y="1429.0669">renders</text></g><!--link MainLayout to MainLayoutJs--><g id="link_MainLayout_MainLayoutJs"><path codeLine="273" d="M3488.52,877.15 C3497,946.85 3515.61,1130.17 3484,1180 C3260.77,1531.86 2973.89,1336.77 2637,1582 C2615.73,1597.49 2595.43,1619.05 2580.48,1636.71 " fill="none" id="MainLayout-to-MainLayoutJs" style="stroke:#181818;stroke-width:1.0;"/><polygon fill="#181818" points="2577.18,1640.65,2586.0304,1636.3291,2580.395,1636.8206,2579.9034,1631.1852,2577.18,1640.65" style="stroke:#181818;stroke-width:1.0;"/><text fill="#000000" font-family="sans-serif" font-size="13" lengthAdjust="spacing" textLength="30" x="3424" y="1326.0669">uses</text></g><!--link MainMenu to DynamicMenuItem--><g id="link_MainMenu_DynamicMenuItem"><path codeLine="274" d="M3191.41,1102.58 C3175.2,1126.68 3148.28,1160.98 3116,1180 C2937.89,1284.96 2690.14,1311.7 2561.37,1318.39 " fill="none" id="MainMenu-to-DynamicMenuItem" style="stroke:#181818;stroke-width:1.0;"/><polygon fill="#181818" points="2556.09,1318.65,2565.2836,1322.1825,2561.0834,1318.3932,2564.8727,1314.193,2556.09,1318.65" style="stroke:#181818;stroke-width:1.0;"/><text fill="#000000" font-family="sans-serif" font-size="13" lengthAdjust="spacing" textLength="30" x="3054" y="1223.0669">uses</text></g><!--link Index to Modal--><g id="link_Index_Modal"><path codeLine="276" d="M1851.04,704.02 C1904.06,714.29 1986.68,732.77 2055,759 C2070.03,764.77 2071.61,771.26 2087,776 C2203.65,811.94 2242.32,773.58 2360,806 C2371.7,809.22 2383.79,813.77 2395.21,818.69 " fill="none" id="Index-to-Modal" style="stroke:#181818;stroke-width:1.0;"/><polygon fill="#181818" points="2400.05,820.81,2393.4186,813.5282,2395.4722,818.7992,2390.2012,820.8528,2400.05,820.81" style="stroke:#181818;stroke-width:1.0;"/></g><!--link Index to BlazorModalJs--><g id="link_Index_BlazorModalJs"><path codeLine="277" d="M1798.61,721.82 C1799.71,761.97 1796.88,838.01 1765,892 C1738.75,936.46 1699.2,921.92 1678,969 C1658.75,1011.75 1649.12,1143.06 1678,1180 C1765.45,1291.83 1868.99,1179.6 1988,1257 C2115.44,1339.88 2081.16,1429.74 2198,1527 C2238.79,1560.96 2261.18,1550.64 2304,1582 C2325.7,1597.89 2347.09,1619.25 2363.12,1636.72 " fill="none" id="Index-to-BlazorModalJs" style="stroke:#181818;stroke-width:1.0;"/><polygon fill="#181818" points="2366.66,1640.61,2363.5549,1631.2634,2363.2924,1636.9142,2357.6416,1636.6516,2366.66,1640.61" style="stroke:#181818;stroke-width:1.0;"/></g><!--link MainLayout to KeyboardJs--><g id="link_MainLayout_KeyboardJs"><path codeLine="279" d="M3495.93,877.02 C3511.71,918.53 3539,1000.85 3539,1073.5 C3539,1073.5 3539,1073.5 3539,1496 C3539,1539.47 3518.81,1554.42 3480,1574 C3444.78,1591.77 2804.87,1563.56 2770,1582 C2748.34,1593.45 2732.87,1616.64 2723.07,1636.05 " fill="none" id="MainLayout-to-KeyboardJs" style="stroke:#181818;stroke-width:1.0;"/><polygon fill="#181818" points="2720.7,1640.89,2728.2464,1634.5614,2722.8961,1636.3981,2721.0594,1631.0477,2720.7,1640.89" style="stroke:#181818;stroke-width:1.0;"/></g><!--link StylePile to SiteCss--><g id="link_StylePile_SiteCss"><path codeLine="281" d="M1778.32,1519.63 C1847.53,1552.79 1972.59,1612.7 2040.69,1645.33 " fill="none" id="StylePile-SiteCss" style="stroke:#181818;stroke-width:1.0;"/><polygon fill="#181818" points="1773.74,1517.44,1780.1073,1524.9538,1778.2431,1519.6129,1783.584,1517.7488,1773.74,1517.44" style="stroke:#181818;stroke-width:1.0;"/><polygon fill="#181818" points="2045.49,1647.63,2039.1033,1640.1326,2040.9813,1645.4687,2035.6452,1647.3466,2045.49,1647.63" style="stroke:#181818;stroke-width:1.0;"/><text fill="#000000" font-family="sans-serif" font-size="13" lengthAdjust="spacing" textLength="57" x="1888" y="1570.0669">co-exists</text></g><!--SRC=[bLTBSnev4BxFhr2nbyHhgDehvNMLZUErisP31M8VjyIC0CM3D2Lfm2JnVz-lfH7C0-BiYQ7LwdT_tIfu-ioNWbrn-p89tmzwALFsFKdId5lBnbog9waolOq7Z5MS8w6SuNdocYZj13DokN8ulUPMi71veGtZSmkkr34SlLDQzR_SlsThI6LRBnRa5LTPBjLoa0YLCHBMrJxJEhTDHLEz5imHdRsxKfaHt9w3R4LQ6kbsxrbfHSRcEz3MPUvaaGks5gfaYrAbJcfbQ_hQVbxywFSxwZjMtKXRS9UkV5X-PoEzNiENQvp1dN__4aeWG97ftVjsgAvYRBnPqecr7O1yht2FfTe8fXUjioUPvsmksDRmee1xYEFJvFQStSt63-UCp7oMRd3KCUz3sx5eN9BS7uZied-KYGqffliur6zG0Bx81yspgZgUf5lz8xP7d5Rrz3CbH6QPN2CxyDGnjv8MMMKypt4A_dbffH9Gb_l4uCX1r18HmYLj7CSbwpWqW3b5BIs5PHjfvJmNddibo6fppiHWEO0KdhLgxJL9YcuZV7WfSgJ077fXOlJIy7KIalsf23L4tnCZ5lIrqJ9ZKxbKF8VlDznn-5-HALY7VoEKgnDtshhhKkQPC8T0ELrGTSF8N3YjAEkLPlBJE2B4Z829YGtYvcE6t5X9DzfzDALxPL6NVwrb3kUAd2ANwanqBlMkYc9W-3TjUenRXd-VwG-xkF2_PvUNaVCw9y8qQFVXgRxlCvICL9Jsq5R3OwKNtCdvxaEe0Gks8F9HsfBdaGn6kZscXXZwLD5du2GXEyNNCZrv77HGKkXOxRx86kdEhNCmLQecN8aySY5uwREd44CctHZHmk4S_GJA7VnhKb0D1JUY9XtmL9VSplMCQfxAVkKfY1WIhLBX0PG0KkTKip6_B8F801HVHUey2Y3xFbMiGEdQRWNq6ZaQD97A3bBhSznWQl7u5l-_23Tku2tRhYHG17IfDZhV2CRHZuvGZl2hRdN34dO6EFgfRKFuRPp4D4gEmDR5szVhk7QqzaBJpumGzuJ5_jzKv3x-HEaGYEMpc5DtKor6GHu2PcONM1jAscKnvWh9zAY823ce3dEWaznxbOcNs9SJt45hDkG0RbEj74cY-Y0KbkiXUvHYInDa_FWuhWdTWo5LlsyCSZweEj4ttSCHwNjn_lorFZaV-4wN3jQ6ZwQfdyoIA_aD2ExhcEMUXxeCI1c9ADJAcm2D6vc1UhklietaL6CZRbEFzHCEx1HEcAFxXI_HAdQeYq8h26vQ5PGV1Z78e6O1Rp2eTYprS9xHga719bRH6iALtsVLP2MrDNXsfRtcvWqxfYkzjNxObGWDfYAIHy7N65H-EvWIy0H0hmG4KzTIoJN2olH6c9NW6JfHq5K36p45_FmSd3PuRs0IJQP6UCDQ3mx0_Bejp4U8ofgj9A034mm1zBNTIGwf-BIWtccsubj1AaGA882tsK4rw8IbNM7Tag1LyG6ndQ5wZwcAV3g3uRyMWIoq17Kn-UzlLXNSDQ0snWX6tb3nsIUGXWE4nvbt0YPwlZ_3ZRCmqmy4MX7Ur8NDsah0jcbe9I5OvxAbSAUKtY0ZUbaAWeoQwZgP3AXhku623UMGnA2_un34KNnJu3Ih9A0J5lgKzjkSAhccDn1-mUKxJ8dKy0Mf2dcB2YqPWeAMga2Jq8Bfn_AHrMkNYmbshRfOhyrMyRF4yMTlC1Zqy4rHfT51hOT3cb30DrGi6_t6kCFvl7IYwsbht_bU3T_38aGeNAssRBlT6grT3TTxX5lz0BU3hs4RE830HsgwZtp3fwcH1SM8iSFLkLVPz_69TuCPlab-VlbPxEQQconU_Blwtxrrk4DmuUEAlINScaNAoDeQeqKZx7cc-4F7pCSDovfpciPsrQU8C9gqMhf6qodpHvbO03lZfiyyW6xnlFJh63r0iVCvgiQYpUwTh3yoQbefip47ZDsYEb3V0k-zRVMyuoMukAkc2ugBEe7csjriDgdbFZuC2AHxVmm6gjTQna-iGwrzgFdu-z4zFxcFjQ1vs5xbZrniLchr90ZZCBhJxrzMIyqml7biywnwpyIzBVwbe_qpPHYIWSWQxJicsH_LnSV3y9zEcXOF4NQnjRNpscoiz1_EJiwi3cSRX-8AUbB2_b8RD75rgyspPPIddrp_4SmZTfHhm-Ncq3jkQsrCH5lRz6FH2wF2DbvMoHjkdYYjIjH-Fz3NuWQOdSIFK5t7Tr0gXmRnzAsurkvl4A4UhVrDUjkcUPcTYiKU-xiXxHornlulymHGEy4HijVkjtqSQvNSBEoFUu7x3PaOsj9Z7TGAYG2_qqlL6EWeF61zaXoSlMZwbUg-U96M8E0r-Gy0]--></g></svg>