<?xml version="1.0" encoding="UTF-8" standalone="no"?><svg xmlns="http://www.w3.org/2000/svg" xmlns:xlink="http://www.w3.org/1999/xlink" contentStyleType="text/css" height="1535px" preserveAspectRatio="none" style="width:2127px;height:1535px;background:#FFFFFF;" version="1.1" viewBox="0 0 2127 1535" width="2127px" zoomAndPan="magnify"><defs/><g><!--cluster AnyUiHtml--><g id="cluster_AnyUiHtml"><path d="M1643.5,872.5 L1729.5,872.5 A3.75,3.75 0 0 1 1732,875 L1739,894.7969 L2117.5,894.7969 A2.5,2.5 0 0 1 2120,897.2969 L2120,969 A2.5,2.5 0 0 1 2117.5,971.5 L1643.5,971.5 A2.5,2.5 0 0 1 1641,969 L1641,875 A2.5,2.5 0 0 1 1643.5,872.5 " fill="none" style="stroke:#000000;stroke-width:1.5;"/><line style="stroke:#000000;stroke-width:1.5;" x1="1641" x2="1739" y1="894.7969" y2="894.7969"/><text fill="#000000" font-family="sans-serif" font-size="14" font-weight="bold" lengthAdjust="spacing" textLength="85" x="1645" y="887.4951">AnyUiHtml</text></g><!--cluster wwwroot--><g id="cluster_wwwroot"><path d="M851.5,1273 L926.5,1273 A3.75,3.75 0 0 1 929,1275.5 L936,1295.2969 L1660.5,1295.2969 A2.5,2.5 0 0 1 1663,1297.7969 L1663,1525.5 A2.5,2.5 0 0 1 1660.5,1528 L851.5,1528 A2.5,2.5 0 0 1 849,1525.5 L849,1275.5 A2.5,2.5 0 0 1 851.5,1273 " fill="none" style="stroke:#000000;stroke-width:1.5;"/><line style="stroke:#000000;stroke-width:1.5;" x1="849" x2="936" y1="1295.2969" y2="1295.2969"/><text fill="#000000" font-family="sans-serif" font-size="14" font-weight="bold" lengthAdjust="spacing" textLength="74" x="853" y="1287.9951">wwwroot</text></g><!--class AnyUiDisplayDataHtml--><g id="elem_AnyUiDisplayDataHtml"><rect codeLine="56" fill="#F1F1F1" height="48" id="AnyUiDisplayDataHtml" rx="2.5" ry="2.5" style="stroke:#181818;stroke-width:0.5;" width="193" x="1910.5" y="907.5"/><ellipse cx="1925.5" cy="923.5" fill="#ADD1B2" rx="11" ry="11" style="stroke:#181818;stroke-width:1.0;"/><path d="M1927.8438,919.1719 C1926.9063,918.7344 1926.3125,918.5938 1925.4375,918.5938 C1922.8125,918.5938 1920.8125,920.6719 1920.8125,923.3906 L1920.8125,924.5156 C1920.8125,927.0938 1922.9219,928.9844 1925.8125,928.9844 C1927.0313,928.9844 1928.1875,928.6875 1928.9375,928.1406 C1929.5156,927.7344 1929.8438,927.2813 1929.8438,926.8906 C1929.8438,926.4375 1929.4531,926.0469 1928.9844,926.0469 C1928.7656,926.0469 1928.5625,926.125 1928.375,926.3125 C1927.9219,926.7969 1927.9219,926.7969 1927.7344,926.8906 C1927.3125,927.1563 1926.625,927.2813 1925.8594,927.2813 C1923.8125,927.2813 1922.5156,926.1875 1922.5156,924.4844 L1922.5156,923.3906 C1922.5156,921.6094 1923.7656,920.2969 1925.5,920.2969 C1926.0781,920.2969 1926.6875,920.4531 1927.1563,920.7031 C1927.6406,920.9844 1927.8125,921.2031 1927.9063,921.6094 C1927.9688,922.0156 1928,922.1406 1928.1406,922.2656 C1928.2813,922.4063 1928.5156,922.5156 1928.7344,922.5156 C1929,922.5156 1929.2656,922.375 1929.4375,922.1563 C1929.5469,922 1929.5781,921.8125 1929.5781,921.3906 L1929.5781,919.9688 C1929.5781,919.5313 1929.5625,919.4063 1929.4688,919.25 C1929.3125,918.9844 1929.0313,918.8438 1928.7344,918.8438 C1928.4375,918.8438 1928.2344,918.9375 1928.0156,919.25 L1927.8438,919.1719 Z " fill="#000000"/><text fill="#000000" font-family="sans-serif" font-size="14" lengthAdjust="spacing" textLength="161" x="1939.5" y="928.3467">AnyUiDisplayDataHtml</text><line style="stroke:#181818;stroke-width:0.5;" x1="1911.5" x2="2102.5" y1="939.5" y2="939.5"/><line style="stroke:#181818;stroke-width:0.5;" x1="1911.5" x2="2102.5" y1="947.5" y2="947.5"/></g><!--class AnyUiDisplayContextHtml--><g id="elem_AnyUiDisplayContextHtml"><rect codeLine="57" fill="#F1F1F1" height="48" id="AnyUiDisplayContextHtml" rx="2.5" ry="2.5" style="stroke:#181818;stroke-width:0.5;" width="218" x="1657" y="907.5"/><ellipse cx="1672" cy="923.5" fill="#ADD1B2" rx="11" ry="11" style="stroke:#181818;stroke-width:1.0;"/><path d="M1674.3438,919.1719 C1673.4063,918.7344 1672.8125,918.5938 1671.9375,918.5938 C1669.3125,918.5938 1667.3125,920.6719 1667.3125,923.3906 L1667.3125,924.5156 C1667.3125,927.0938 1669.4219,928.9844 1672.3125,928.9844 C1673.5313,928.9844 1674.6875,928.6875 1675.4375,928.1406 C1676.0156,927.7344 1676.3438,927.2813 1676.3438,926.8906 C1676.3438,926.4375 1675.9531,926.0469 1675.4844,926.0469 C1675.2656,926.0469 1675.0625,926.125 1674.875,926.3125 C1674.4219,926.7969 1674.4219,926.7969 1674.2344,926.8906 C1673.8125,927.1563 1673.125,927.2813 1672.3594,927.2813 C1670.3125,927.2813 1669.0156,926.1875 1669.0156,924.4844 L1669.0156,923.3906 C1669.0156,921.6094 1670.2656,920.2969 1672,920.2969 C1672.5781,920.2969 1673.1875,920.4531 1673.6563,920.7031 C1674.1406,920.9844 1674.3125,921.2031 1674.4063,921.6094 C1674.4688,922.0156 1674.5,922.1406 1674.6406,922.2656 C1674.7813,922.4063 1675.0156,922.5156 1675.2344,922.5156 C1675.5,922.5156 1675.7656,922.375 1675.9375,922.1563 C1676.0469,922 1676.0781,921.8125 1676.0781,921.3906 L1676.0781,919.9688 C1676.0781,919.5313 1676.0625,919.4063 1675.9688,919.25 C1675.8125,918.9844 1675.5313,918.8438 1675.2344,918.8438 C1674.9375,918.8438 1674.7344,918.9375 1674.5156,919.25 L1674.3438,919.1719 Z " fill="#000000"/><text fill="#000000" font-family="sans-serif" font-size="14" lengthAdjust="spacing" textLength="186" x="1686" y="928.3467">AnyUiDisplayContextHtml</text><line style="stroke:#181818;stroke-width:0.5;" x1="1658" x2="1874" y1="939.5" y2="939.5"/><line style="stroke:#181818;stroke-width:0.5;" x1="1658" x2="1874" y1="947.5" y2="947.5"/></g><!--class MainLayoutJs--><g id="elem_MainLayoutJs"><rect codeLine="105" fill="#F1F1F1" height="56.2656" id="MainLayoutJs" rx="2.5" ry="2.5" style="stroke:#181818;stroke-width:0.5;" width="133" x="1335.5" y="1316"/><ellipse cx="1350.5" cy="1336.1328" fill="#ADD1B2" rx="11" ry="11" style="stroke:#181818;stroke-width:1.0;"/><path d="M1352.8438,1331.8047 C1351.9063,1331.3672 1351.3125,1331.2266 1350.4375,1331.2266 C1347.8125,1331.2266 1345.8125,1333.3047 1345.8125,1336.0234 L1345.8125,1337.1484 C1345.8125,1339.7266 1347.9219,1341.6172 1350.8125,1341.6172 C1352.0313,1341.6172 1353.1875,1341.3203 1353.9375,1340.7734 C1354.5156,1340.3672 1354.8438,1339.9141 1354.8438,1339.5234 C1354.8438,1339.0703 1354.4531,1338.6797 1353.9844,1338.6797 C1353.7656,1338.6797 1353.5625,1338.7578 1353.375,1338.9453 C1352.9219,1339.4297 1352.9219,1339.4297 1352.7344,1339.5234 C1352.3125,1339.7891 1351.625,1339.9141 1350.8594,1339.9141 C1348.8125,1339.9141 1347.5156,1338.8203 1347.5156,1337.1172 L1347.5156,1336.0234 C1347.5156,1334.2422 1348.7656,1332.9297 1350.5,1332.9297 C1351.0781,1332.9297 1351.6875,1333.0859 1352.1563,1333.3359 C1352.6406,1333.6172 1352.8125,1333.8359 1352.9063,1334.2422 C1352.9688,1334.6484 1353,1334.7734 1353.1406,1334.8984 C1353.2813,1335.0391 1353.5156,1335.1484 1353.7344,1335.1484 C1354,1335.1484 1354.2656,1335.0078 1354.4375,1334.7891 C1354.5469,1334.6328 1354.5781,1334.4453 1354.5781,1334.0234 L1354.5781,1332.6016 C1354.5781,1332.1641 1354.5625,1332.0391 1354.4688,1331.8828 C1354.3125,1331.6172 1354.0313,1331.4766 1353.7344,1331.4766 C1353.4375,1331.4766 1353.2344,1331.5703 1353.0156,1331.8828 L1352.8438,1331.8047 Z " fill="#000000"/><text fill="#000000" font-family="sans-serif" font-size="12" font-style="italic" lengthAdjust="spacing" textLength="75" x="1377.5" y="1332.1387">«JavaScript»</text><text fill="#000000" font-family="sans-serif" font-size="14" lengthAdjust="spacing" textLength="101" x="1364.5" y="1347.9639">main-layout.js</text><line style="stroke:#181818;stroke-width:0.5;" x1="1336.5" x2="1467.5" y1="1356.2656" y2="1356.2656"/><line style="stroke:#181818;stroke-width:0.5;" x1="1336.5" x2="1467.5" y1="1364.2656" y2="1364.2656"/></g><!--class BlazorModalJs--><g id="elem_BlazorModalJs"><rect codeLine="107" fill="#F1F1F1" height="56.2656" id="BlazorModalJs" rx="2.5" ry="2.5" style="stroke:#181818;stroke-width:0.5;" width="143" x="873.5" y="1316"/><ellipse cx="888.5" cy="1336.1328" fill="#ADD1B2" rx="11" ry="11" style="stroke:#181818;stroke-width:1.0;"/><path d="M890.8438,1331.8047 C889.9063,1331.3672 889.3125,1331.2266 888.4375,1331.2266 C885.8125,1331.2266 883.8125,1333.3047 883.8125,1336.0234 L883.8125,1337.1484 C883.8125,1339.7266 885.9219,1341.6172 888.8125,1341.6172 C890.0313,1341.6172 891.1875,1341.3203 891.9375,1340.7734 C892.5156,1340.3672 892.8438,1339.9141 892.8438,1339.5234 C892.8438,1339.0703 892.4531,1338.6797 891.9844,1338.6797 C891.7656,1338.6797 891.5625,1338.7578 891.375,1338.9453 C890.9219,1339.4297 890.9219,1339.4297 890.7344,1339.5234 C890.3125,1339.7891 889.625,1339.9141 888.8594,1339.9141 C886.8125,1339.9141 885.5156,1338.8203 885.5156,1337.1172 L885.5156,1336.0234 C885.5156,1334.2422 886.7656,1332.9297 888.5,1332.9297 C889.0781,1332.9297 889.6875,1333.0859 890.1563,1333.3359 C890.6406,1333.6172 890.8125,1333.8359 890.9063,1334.2422 C890.9688,1334.6484 891,1334.7734 891.1406,1334.8984 C891.2813,1335.0391 891.5156,1335.1484 891.7344,1335.1484 C892,1335.1484 892.2656,1335.0078 892.4375,1334.7891 C892.5469,1334.6328 892.5781,1334.4453 892.5781,1334.0234 L892.5781,1332.6016 C892.5781,1332.1641 892.5625,1332.0391 892.4688,1331.8828 C892.3125,1331.6172 892.0313,1331.4766 891.7344,1331.4766 C891.4375,1331.4766 891.2344,1331.5703 891.0156,1331.8828 L890.8438,1331.8047 Z " fill="#000000"/><text fill="#000000" font-family="sans-serif" font-size="12" font-style="italic" lengthAdjust="spacing" textLength="75" x="920.5" y="1332.1387">«JavaScript»</text><text fill="#000000" font-family="sans-serif" font-size="14" lengthAdjust="spacing" textLength="111" x="902.5" y="1347.9639">blazor-modal.js</text><line style="stroke:#181818;stroke-width:0.5;" x1="874.5" x2="1015.5" y1="1356.2656" y2="1356.2656"/><line style="stroke:#181818;stroke-width:0.5;" x1="874.5" x2="1015.5" y1="1364.2656" y2="1364.2656"/></g><!--class KeyboardJs--><g id="elem_KeyboardJs"><rect codeLine="109" fill="#F1F1F1" height="56.2656" id="KeyboardJs" rx="2.5" ry="2.5" style="stroke:#181818;stroke-width:0.5;" width="116" x="1504" y="1316"/><ellipse cx="1519" cy="1336.1328" fill="#ADD1B2" rx="11" ry="11" style="stroke:#181818;stroke-width:1.0;"/><path d="M1521.3438,1331.8047 C1520.4063,1331.3672 1519.8125,1331.2266 1518.9375,1331.2266 C1516.3125,1331.2266 1514.3125,1333.3047 1514.3125,1336.0234 L1514.3125,1337.1484 C1514.3125,1339.7266 1516.4219,1341.6172 1519.3125,1341.6172 C1520.5313,1341.6172 1521.6875,1341.3203 1522.4375,1340.7734 C1523.0156,1340.3672 1523.3438,1339.9141 1523.3438,1339.5234 C1523.3438,1339.0703 1522.9531,1338.6797 1522.4844,1338.6797 C1522.2656,1338.6797 1522.0625,1338.7578 1521.875,1338.9453 C1521.4219,1339.4297 1521.4219,1339.4297 1521.2344,1339.5234 C1520.8125,1339.7891 1520.125,1339.9141 1519.3594,1339.9141 C1517.3125,1339.9141 1516.0156,1338.8203 1516.0156,1337.1172 L1516.0156,1336.0234 C1516.0156,1334.2422 1517.2656,1332.9297 1519,1332.9297 C1519.5781,1332.9297 1520.1875,1333.0859 1520.6563,1333.3359 C1521.1406,1333.6172 1521.3125,1333.8359 1521.4063,1334.2422 C1521.4688,1334.6484 1521.5,1334.7734 1521.6406,1334.8984 C1521.7813,1335.0391 1522.0156,1335.1484 1522.2344,1335.1484 C1522.5,1335.1484 1522.7656,1335.0078 1522.9375,1334.7891 C1523.0469,1334.6328 1523.0781,1334.4453 1523.0781,1334.0234 L1523.0781,1332.6016 C1523.0781,1332.1641 1523.0625,1332.0391 1522.9688,1331.8828 C1522.8125,1331.6172 1522.5313,1331.4766 1522.2344,1331.4766 C1521.9375,1331.4766 1521.7344,1331.5703 1521.5156,1331.8828 L1521.3438,1331.8047 Z " fill="#000000"/><text fill="#000000" font-family="sans-serif" font-size="12" font-style="italic" lengthAdjust="spacing" textLength="75" x="1537.5" y="1332.1387">«JavaScript»</text><text fill="#000000" font-family="sans-serif" font-size="14" lengthAdjust="spacing" textLength="84" x="1533" y="1347.9639">keyboard.js</text><line style="stroke:#181818;stroke-width:0.5;" x1="1505" x2="1619" y1="1356.2656" y2="1356.2656"/><line style="stroke:#181818;stroke-width:0.5;" x1="1505" x2="1619" y1="1364.2656" y2="1364.2656"/></g><!--class TreeStyleCss--><g id="elem_TreeStyleCss"><rect codeLine="111" fill="#F1F1F1" height="48" id="TreeStyleCss" rx="2.5" ry="2.5" style="stroke:#181818;stroke-width:0.5;" width="127" x="1051.5" y="1320"/><ellipse cx="1066.5" cy="1336" fill="#ADD1B2" rx="11" ry="11" style="stroke:#181818;stroke-width:1.0;"/><path d="M1068.8438,1331.6719 C1067.9063,1331.2344 1067.3125,1331.0938 1066.4375,1331.0938 C1063.8125,1331.0938 1061.8125,1333.1719 1061.8125,1335.8906 L1061.8125,1337.0156 C1061.8125,1339.5938 1063.9219,1341.4844 1066.8125,1341.4844 C1068.0313,1341.4844 1069.1875,1341.1875 1069.9375,1340.6406 C1070.5156,1340.2344 1070.8438,1339.7813 1070.8438,1339.3906 C1070.8438,1338.9375 1070.4531,1338.5469 1069.9844,1338.5469 C1069.7656,1338.5469 1069.5625,1338.625 1069.375,1338.8125 C1068.9219,1339.2969 1068.9219,1339.2969 1068.7344,1339.3906 C1068.3125,1339.6563 1067.625,1339.7813 1066.8594,1339.7813 C1064.8125,1339.7813 1063.5156,1338.6875 1063.5156,1336.9844 L1063.5156,1335.8906 C1063.5156,1334.1094 1064.7656,1332.7969 1066.5,1332.7969 C1067.0781,1332.7969 1067.6875,1332.9531 1068.1563,1333.2031 C1068.6406,1333.4844 1068.8125,1333.7031 1068.9063,1334.1094 C1068.9688,1334.5156 1069,1334.6406 1069.1406,1334.7656 C1069.2813,1334.9063 1069.5156,1335.0156 1069.7344,1335.0156 C1070,1335.0156 1070.2656,1334.875 1070.4375,1334.6563 C1070.5469,1334.5 1070.5781,1334.3125 1070.5781,1333.8906 L1070.5781,1332.4688 C1070.5781,1332.0313 1070.5625,1331.9063 1070.4688,1331.75 C1070.3125,1331.4844 1070.0313,1331.3438 1069.7344,1331.3438 C1069.4375,1331.3438 1069.2344,1331.4375 1069.0156,1331.75 L1068.8438,1331.6719 Z " fill="#000000"/><text fill="#000000" font-family="sans-serif" font-size="14" lengthAdjust="spacing" textLength="95" x="1080.5" y="1340.8467">treeStyle.css</text><line style="stroke:#181818;stroke-width:0.5;" x1="1052.5" x2="1177.5" y1="1352" y2="1352"/><line style="stroke:#181818;stroke-width:0.5;" x1="1052.5" x2="1177.5" y1="1360" y2="1360"/></g><!--class SiteCss--><g id="elem_SiteCss"><rect codeLine="113" fill="#F1F1F1" height="48" id="SiteCss" rx="2.5" ry="2.5" style="stroke:#181818;stroke-width:0.5;" width="86" x="1214" y="1320"/><ellipse cx="1229" cy="1336" fill="#ADD1B2" rx="11" ry="11" style="stroke:#181818;stroke-width:1.0;"/><path d="M1231.3438,1331.6719 C1230.4063,1331.2344 1229.8125,1331.0938 1228.9375,1331.0938 C1226.3125,1331.0938 1224.3125,1333.1719 1224.3125,1335.8906 L1224.3125,1337.0156 C1224.3125,1339.5938 1226.4219,1341.4844 1229.3125,1341.4844 C1230.5313,1341.4844 1231.6875,1341.1875 1232.4375,1340.6406 C1233.0156,1340.2344 1233.3438,1339.7813 1233.3438,1339.3906 C1233.3438,1338.9375 1232.9531,1338.5469 1232.4844,1338.5469 C1232.2656,1338.5469 1232.0625,1338.625 1231.875,1338.8125 C1231.4219,1339.2969 1231.4219,1339.2969 1231.2344,1339.3906 C1230.8125,1339.6563 1230.125,1339.7813 1229.3594,1339.7813 C1227.3125,1339.7813 1226.0156,1338.6875 1226.0156,1336.9844 L1226.0156,1335.8906 C1226.0156,1334.1094 1227.2656,1332.7969 1229,1332.7969 C1229.5781,1332.7969 1230.1875,1332.9531 1230.6563,1333.2031 C1231.1406,1333.4844 1231.3125,1333.7031 1231.4063,1334.1094 C1231.4688,1334.5156 1231.5,1334.6406 1231.6406,1334.7656 C1231.7813,1334.9063 1232.0156,1335.0156 1232.2344,1335.0156 C1232.5,1335.0156 1232.7656,1334.875 1232.9375,1334.6563 C1233.0469,1334.5 1233.0781,1334.3125 1233.0781,1333.8906 L1233.0781,1332.4688 C1233.0781,1332.0313 1233.0625,1331.9063 1232.9688,1331.75 C1232.8125,1331.4844 1232.5313,1331.3438 1232.2344,1331.3438 C1231.9375,1331.3438 1231.7344,1331.4375 1231.5156,1331.75 L1231.3438,1331.6719 Z " fill="#000000"/><text fill="#000000" font-family="sans-serif" font-size="14" lengthAdjust="spacing" textLength="54" x="1243" y="1340.8467">site.css</text><line style="stroke:#181818;stroke-width:0.5;" x1="1215" x2="1299" y1="1352" y2="1352"/><line style="stroke:#181818;stroke-width:0.5;" x1="1215" x2="1299" y1="1360" y2="1360"/></g><g id="elem_GMN58"><path d="M1157.5,1433 L1157.5,1503.5313 A0,0 0 0 0 1157.5,1503.5313 L1356.5,1503.5313 A0,0 0 0 0 1356.5,1503.5313 L1356.5,1443 L1346.5,1433 L1261,1433 L1257,1368.041 L1253,1433 L1157.5,1433 A0,0 0 0 0 1157.5,1433 " fill="#FEFFDD" style="stroke:#181818;stroke-width:0.5;"/><path d="M1346.5,1433 L1346.5,1443 L1356.5,1443 L1346.5,1433 " fill="#FEFFDD" style="stroke:#181818;stroke-width:0.5;"/><text fill="#000000" font-family="sans-serif" font-size="13" lengthAdjust="spacing" textLength="139" x="1163.5" y="1450.0669">General place for CSS</text><text fill="#000000" font-family="sans-serif" font-size="13" lengthAdjust="spacing" textLength="66" x="1163.5" y="1465.1997">definitions</text><text fill="#000000" font-family="sans-serif" font-size="13" lengthAdjust="spacing" textLength="178" x="1163.5" y="1480.3325">overwriting some bootstrap</text><text fill="#000000" font-family="sans-serif" font-size="13" lengthAdjust="spacing" textLength="66" x="1163.5" y="1495.4653">definitions</text></g><!--class Program--><g id="elem_Program"><rect codeLine="1" fill="#F1F1F1" height="129.4844" id="Program" rx="2.5" ry="2.5" style="stroke:#181818;stroke-width:0.5;" width="188" x="888" y="122"/><ellipse cx="947.25" cy="138" fill="#ADD1B2" rx="11" ry="11" style="stroke:#181818;stroke-width:1.0;"/><path d="M949.5938,133.6719 C948.6563,133.2344 948.0625,133.0938 947.1875,133.0938 C944.5625,133.0938 942.5625,135.1719 942.5625,137.8906 L942.5625,139.0156 C942.5625,141.5938 944.6719,143.4844 947.5625,143.4844 C948.7813,143.4844 949.9375,143.1875 950.6875,142.6406 C951.2656,142.2344 951.5938,141.7813 951.5938,141.3906 C951.5938,140.9375 951.2031,140.5469 950.7344,140.5469 C950.5156,140.5469 950.3125,140.625 950.125,140.8125 C949.6719,141.2969 949.6719,141.2969 949.4844,141.3906 C949.0625,141.6563 948.375,141.7813 947.6094,141.7813 C945.5625,141.7813 944.2656,140.6875 944.2656,138.9844 L944.2656,137.8906 C944.2656,136.1094 945.5156,134.7969 947.25,134.7969 C947.8281,134.7969 948.4375,134.9531 948.9063,135.2031 C949.3906,135.4844 949.5625,135.7031 949.6563,136.1094 C949.7188,136.5156 949.75,136.6406 949.8906,136.7656 C950.0313,136.9063 950.2656,137.0156 950.4844,137.0156 C950.75,137.0156 951.0156,136.875 951.1875,136.6563 C951.2969,136.5 951.3281,136.3125 951.3281,135.8906 L951.3281,134.4688 C951.3281,134.0313 951.3125,133.9063 951.2188,133.75 C951.0625,133.4844 950.7813,133.3438 950.4844,133.3438 C950.1875,133.3438 949.9844,133.4375 949.7656,133.75 L949.5938,133.6719 Z " fill="#000000"/><text fill="#000000" font-family="sans-serif" font-size="14" lengthAdjust="spacing" textLength="61" x="967.75" y="142.8467">Program</text><line style="stroke:#181818;stroke-width:0.5;" x1="889" x2="1075" y1="154" y2="154"/><ellipse cx="899" cy="167.6484" fill="none" rx="3" ry="3" style="stroke:#038048;stroke-width:1.0;"/><text fill="#000000" font-family="sans-serif" font-size="14" lengthAdjust="spacing" textLength="57" x="908" y="170.9951">Options</text><ellipse cx="899" cy="183.9453" fill="none" rx="3" ry="3" style="stroke:#038048;stroke-width:1.0;"/><text fill="#000000" font-family="sans-serif" font-size="14" lengthAdjust="spacing" textLength="37" x="908" y="187.292">Prefs</text><line style="stroke:#181818;stroke-width:0.5;" x1="889" x2="1075" y1="194.5938" y2="194.5938"/><text fill="#000000" font-family="sans-serif" font-size="14" lengthAdjust="spacing" textLength="151" x="894" y="211.5889">void SignalNewData()</text><text fill="#000000" font-family="sans-serif" font-size="14" lengthAdjust="spacing" textLength="77" x="894" y="227.8857">void Main()</text><text fill="#000000" font-family="sans-serif" font-size="14" lengthAdjust="spacing" textLength="176" x="894" y="244.1826">void CreateHostBuilder()</text></g><g id="elem_GMN3"><path d="M877.5,6 L877.5,61.3984 A0,0 0 0 0 877.5,61.3984 L978,61.3984 L982,121.79 L986,61.3984 L1086.5,61.3984 A0,0 0 0 0 1086.5,61.3984 L1086.5,16 L1076.5,6 L877.5,6 A0,0 0 0 0 877.5,6 " fill="#FEFFDD" style="stroke:#181818;stroke-width:0.5;"/><path d="M1076.5,6 L1076.5,16 L1086.5,16 L1076.5,6 " fill="#FEFFDD" style="stroke:#181818;stroke-width:0.5;"/><text fill="#000000" font-family="sans-serif" font-size="13" lengthAdjust="spacing" textLength="59" x="883.5" y="23.0669">Singleton</text><text fill="#000000" font-family="sans-serif" font-size="13" lengthAdjust="spacing" textLength="89" x="883.5" y="38.1997">Program start</text><text fill="#000000" font-family="sans-serif" font-size="13" lengthAdjust="spacing" textLength="188" x="883.5" y="53.3325">Dispacting events to session.</text></g><!--class Startup--><g id="elem_Startup"><rect codeLine="15" fill="#F1F1F1" height="48" id="Startup" rx="2.5" ry="2.5" style="stroke:#181818;stroke-width:0.5;" width="87" x="1072.5" y="328"/><ellipse cx="1087.5" cy="344" fill="#ADD1B2" rx="11" ry="11" style="stroke:#181818;stroke-width:1.0;"/><path d="M1089.8438,339.6719 C1088.9063,339.2344 1088.3125,339.0938 1087.4375,339.0938 C1084.8125,339.0938 1082.8125,341.1719 1082.8125,343.8906 L1082.8125,345.0156 C1082.8125,347.5938 1084.9219,349.4844 1087.8125,349.4844 C1089.0313,349.4844 1090.1875,349.1875 1090.9375,348.6406 C1091.5156,348.2344 1091.8438,347.7813 1091.8438,347.3906 C1091.8438,346.9375 1091.4531,346.5469 1090.9844,346.5469 C1090.7656,346.5469 1090.5625,346.625 1090.375,346.8125 C1089.9219,347.2969 1089.9219,347.2969 1089.7344,347.3906 C1089.3125,347.6563 1088.625,347.7813 1087.8594,347.7813 C1085.8125,347.7813 1084.5156,346.6875 1084.5156,344.9844 L1084.5156,343.8906 C1084.5156,342.1094 1085.7656,340.7969 1087.5,340.7969 C1088.0781,340.7969 1088.6875,340.9531 1089.1563,341.2031 C1089.6406,341.4844 1089.8125,341.7031 1089.9063,342.1094 C1089.9688,342.5156 1090,342.6406 1090.1406,342.7656 C1090.2813,342.9063 1090.5156,343.0156 1090.7344,343.0156 C1091,343.0156 1091.2656,342.875 1091.4375,342.6563 C1091.5469,342.5 1091.5781,342.3125 1091.5781,341.8906 L1091.5781,340.4688 C1091.5781,340.0313 1091.5625,339.9063 1091.4688,339.75 C1091.3125,339.4844 1091.0313,339.3438 1090.7344,339.3438 C1090.4375,339.3438 1090.2344,339.4375 1090.0156,339.75 L1089.8438,339.6719 Z " fill="#000000"/><text fill="#000000" font-family="sans-serif" font-size="14" lengthAdjust="spacing" textLength="55" x="1101.5" y="348.8467">Startup</text><line style="stroke:#181818;stroke-width:0.5;" x1="1073.5" x2="1158.5" y1="360" y2="360"/><line style="stroke:#181818;stroke-width:0.5;" x1="1073.5" x2="1158.5" y1="368" y2="368"/></g><g id="elem_GMN7"><path d="M1111.5,174 L1111.5,199.1328 A0,0 0 0 0 1111.5,199.1328 L1166.76,199.1328 L1124.35,327.85 L1174.76,199.1328 L1238.5,199.1328 A0,0 0 0 0 1238.5,199.1328 L1238.5,184 L1228.5,174 L1111.5,174 A0,0 0 0 0 1111.5,174 " fill="#FEFFDD" style="stroke:#181818;stroke-width:0.5;"/><path d="M1228.5,174 L1228.5,184 L1238.5,184 L1228.5,174 " fill="#FEFFDD" style="stroke:#181818;stroke-width:0.5;"/><text fill="#000000" font-family="sans-serif" font-size="13" lengthAdjust="spacing" textLength="106" x="1117.5" y="191.0669">Boiler plate code</text></g><!--class AppRazor--><g id="elem_AppRazor"><rect codeLine="20" fill="#F1F1F1" height="56.2656" id="AppRazor" rx="2.5" ry="2.5" style="stroke:#181818;stroke-width:0.5;" width="104" x="1064" y="453"/><ellipse cx="1079" cy="473.1328" fill="#ADD1B2" rx="11" ry="11" style="stroke:#181818;stroke-width:1.0;"/><path d="M1081.3438,468.8047 C1080.4063,468.3672 1079.8125,468.2266 1078.9375,468.2266 C1076.3125,468.2266 1074.3125,470.3047 1074.3125,473.0234 L1074.3125,474.1484 C1074.3125,476.7266 1076.4219,478.6172 1079.3125,478.6172 C1080.5313,478.6172 1081.6875,478.3203 1082.4375,477.7734 C1083.0156,477.3672 1083.3438,476.9141 1083.3438,476.5234 C1083.3438,476.0703 1082.9531,475.6797 1082.4844,475.6797 C1082.2656,475.6797 1082.0625,475.7578 1081.875,475.9453 C1081.4219,476.4297 1081.4219,476.4297 1081.2344,476.5234 C1080.8125,476.7891 1080.125,476.9141 1079.3594,476.9141 C1077.3125,476.9141 1076.0156,475.8203 1076.0156,474.1172 L1076.0156,473.0234 C1076.0156,471.2422 1077.2656,469.9297 1079,469.9297 C1079.5781,469.9297 1080.1875,470.0859 1080.6563,470.3359 C1081.1406,470.6172 1081.3125,470.8359 1081.4063,471.2422 C1081.4688,471.6484 1081.5,471.7734 1081.6406,471.8984 C1081.7813,472.0391 1082.0156,472.1484 1082.2344,472.1484 C1082.5,472.1484 1082.7656,472.0078 1082.9375,471.7891 C1083.0469,471.6328 1083.0781,471.4453 1083.0781,471.0234 L1083.0781,469.6016 C1083.0781,469.1641 1083.0625,469.0391 1082.9688,468.8828 C1082.8125,468.6172 1082.5313,468.4766 1082.2344,468.4766 C1081.9375,468.4766 1081.7344,468.5703 1081.5156,468.8828 L1081.3438,468.8047 Z " fill="#000000"/><text fill="#000000" font-family="sans-serif" font-size="12" font-style="italic" lengthAdjust="spacing" textLength="53" x="1102.5" y="469.1387">«Razor*»</text><text fill="#000000" font-family="sans-serif" font-size="14" lengthAdjust="spacing" textLength="72" x="1093" y="484.9639">App.razor</text><line style="stroke:#181818;stroke-width:0.5;" x1="1065" x2="1167" y1="493.2656" y2="493.2656"/><line style="stroke:#181818;stroke-width:0.5;" x1="1065" x2="1167" y1="501.2656" y2="501.2656"/></g><!--class BlazorSession--><g id="elem_BlazorSession"><rect codeLine="22" fill="#F1F1F1" height="129.4844" id="BlazorSession" rx="2.5" ry="2.5" style="stroke:#181818;stroke-width:0.5;" width="251" x="400.5" y="867"/><ellipse cx="472.25" cy="883" fill="#ADD1B2" rx="11" ry="11" style="stroke:#181818;stroke-width:1.0;"/><path d="M474.5938,878.6719 C473.6563,878.2344 473.0625,878.0938 472.1875,878.0938 C469.5625,878.0938 467.5625,880.1719 467.5625,882.8906 L467.5625,884.0156 C467.5625,886.5938 469.6719,888.4844 472.5625,888.4844 C473.7813,888.4844 474.9375,888.1875 475.6875,887.6406 C476.2656,887.2344 476.5938,886.7813 476.5938,886.3906 C476.5938,885.9375 476.2031,885.5469 475.7344,885.5469 C475.5156,885.5469 475.3125,885.625 475.125,885.8125 C474.6719,886.2969 474.6719,886.2969 474.4844,886.3906 C474.0625,886.6563 473.375,886.7813 472.6094,886.7813 C470.5625,886.7813 469.2656,885.6875 469.2656,883.9844 L469.2656,882.8906 C469.2656,881.1094 470.5156,879.7969 472.25,879.7969 C472.8281,879.7969 473.4375,879.9531 473.9063,880.2031 C474.3906,880.4844 474.5625,880.7031 474.6563,881.1094 C474.7188,881.5156 474.75,881.6406 474.8906,881.7656 C475.0313,881.9063 475.2656,882.0156 475.4844,882.0156 C475.75,882.0156 476.0156,881.875 476.1875,881.6563 C476.2969,881.5 476.3281,881.3125 476.3281,880.8906 L476.3281,879.4688 C476.3281,879.0313 476.3125,878.9063 476.2188,878.75 C476.0625,878.4844 475.7813,878.3438 475.4844,878.3438 C475.1875,878.3438 474.9844,878.4375 474.7656,878.75 L474.5938,878.6719 Z " fill="#000000"/><text fill="#000000" font-family="sans-serif" font-size="14" lengthAdjust="spacing" textLength="99" x="492.75" y="887.8467">BlazorSession</text><line style="stroke:#181818;stroke-width:0.5;" x1="401.5" x2="650.5" y1="899" y2="899"/><text fill="#000000" font-family="sans-serif" font-size="14" lengthAdjust="spacing" textLength="100" x="406.5" y="915.9951">SessionId : int</text><text fill="#000000" font-family="sans-serif" font-size="14" lengthAdjust="spacing" textLength="239" x="406.5" y="932.292">PackageCentral : PackageCentral</text><text fill="#000000" font-family="sans-serif" font-size="14" lengthAdjust="spacing" textLength="233" x="406.5" y="948.5889">ElementPanel : AnyUiStackPanel</text><text fill="#000000" font-family="sans-serif" font-size="14" lengthAdjust="spacing" textLength="113" x="406.5" y="964.8857">EditMode : bool</text><text fill="#000000" font-family="sans-serif" font-size="14" lengthAdjust="spacing" textLength="114" x="406.5" y="981.1826">HintMode : bool</text><line style="stroke:#181818;stroke-width:0.5;" x1="401.5" x2="650.5" y1="988.4844" y2="988.4844"/></g><g id="elem_GMN12"><path d="M514.5,734.5 L514.5,789.8984 A0,0 0 0 0 514.5,789.8984 L594.373,789.8984 L558.682,866.846 L602.373,789.8984 L709.5,789.8984 A0,0 0 0 0 709.5,789.8984 L709.5,744.5 L699.5,734.5 L514.5,734.5 A0,0 0 0 0 514.5,734.5 " fill="#FEFFDD" style="stroke:#181818;stroke-width:0.5;"/><path d="M699.5,734.5 L699.5,744.5 L709.5,744.5 L699.5,734.5 " fill="#FEFFDD" style="stroke:#181818;stroke-width:0.5;"/><text fill="#000000" font-family="sans-serif" font-size="13" lengthAdjust="spacing" textLength="170" x="520.5" y="751.5669">This is the top instance for</text><text fill="#000000" font-family="sans-serif" font-size="13" lengthAdjust="spacing" textLength="135" x="520.5" y="766.6997">holding session data.</text><text fill="#000000" font-family="sans-serif" font-size="13" lengthAdjust="spacing" textLength="162" x="520.5" y="781.8325">Injected into razor pages.</text></g><!--class BlazorVisualElements--><g id="elem_BlazorVisualElements"><rect codeLine="36" fill="#F1F1F1" height="129.4844" id="BlazorVisualElements" rx="2.5" ry="2.5" style="stroke:#181818;stroke-width:0.5;" width="193" x="171.5" y="1073"/><ellipse cx="189.65" cy="1089" fill="#ADD1B2" rx="11" ry="11" style="stroke:#181818;stroke-width:1.0;"/><path d="M191.9938,1084.6719 C191.0563,1084.2344 190.4625,1084.0938 189.5875,1084.0938 C186.9625,1084.0938 184.9625,1086.1719 184.9625,1088.8906 L184.9625,1090.0156 C184.9625,1092.5938 187.0719,1094.4844 189.9625,1094.4844 C191.1813,1094.4844 192.3375,1094.1875 193.0875,1093.6406 C193.6656,1093.2344 193.9938,1092.7813 193.9938,1092.3906 C193.9938,1091.9375 193.6031,1091.5469 193.1344,1091.5469 C192.9156,1091.5469 192.7125,1091.625 192.525,1091.8125 C192.0719,1092.2969 192.0719,1092.2969 191.8844,1092.3906 C191.4625,1092.6563 190.775,1092.7813 190.0094,1092.7813 C187.9625,1092.7813 186.6656,1091.6875 186.6656,1089.9844 L186.6656,1088.8906 C186.6656,1087.1094 187.9156,1085.7969 189.65,1085.7969 C190.2281,1085.7969 190.8375,1085.9531 191.3063,1086.2031 C191.7906,1086.4844 191.9625,1086.7031 192.0563,1087.1094 C192.1188,1087.5156 192.15,1087.6406 192.2906,1087.7656 C192.4313,1087.9063 192.6656,1088.0156 192.8844,1088.0156 C193.15,1088.0156 193.4156,1087.875 193.5875,1087.6563 C193.6969,1087.5 193.7281,1087.3125 193.7281,1086.8906 L193.7281,1085.4688 C193.7281,1085.0313 193.7125,1084.9063 193.6188,1084.75 C193.4625,1084.4844 193.1813,1084.3438 192.8844,1084.3438 C192.5875,1084.3438 192.3844,1084.4375 192.1656,1084.75 L191.9938,1084.6719 Z " fill="#000000"/><text fill="#000000" font-family="sans-serif" font-size="14" lengthAdjust="spacing" textLength="154" x="204.35" y="1093.8467">BlazorVisualElements</text><line style="stroke:#181818;stroke-width:0.5;" x1="172.5" x2="363.5" y1="1105" y2="1105"/><ellipse cx="182.5" cy="1118.6484" fill="none" rx="3" ry="3" style="stroke:#038048;stroke-width:1.0;"/><text fill="#000000" font-family="sans-serif" font-size="14" lengthAdjust="spacing" textLength="74" x="191.5" y="1121.9951">TreeItems</text><ellipse cx="182.5" cy="1134.9453" fill="none" rx="3" ry="3" style="stroke:#038048;stroke-width:1.0;"/><text fill="#000000" font-family="sans-serif" font-size="14" lengthAdjust="spacing" textLength="98" x="191.5" y="1138.292">SelectedItem</text><ellipse cx="182.5" cy="1151.2422" fill="none" rx="3" ry="3" style="stroke:#038048;stroke-width:1.0;"/><text fill="#000000" font-family="sans-serif" font-size="14" lengthAdjust="spacing" textLength="105" x="191.5" y="1154.5889">SelectedItems</text><line style="stroke:#181818;stroke-width:0.5;" x1="172.5" x2="363.5" y1="1161.8906" y2="1161.8906"/><text fill="#000000" font-family="sans-serif" font-size="14" lengthAdjust="spacing" textLength="165" x="177.5" y="1178.8857">RebuildAasxElements()</text><text fill="#000000" font-family="sans-serif" font-size="14" lengthAdjust="spacing" textLength="181" x="177.5" y="1195.1826">TrySelectVisualElement()</text></g><g id="elem_GMN16"><path d="M6,919 L6,944.1328 A0,0 0 0 0 6,944.1328 L107.401,944.1328 L216.037,1072.642 L115.401,944.1328 L198,944.1328 A0,0 0 0 0 198,944.1328 L198,929 L188,919 L6,919 A0,0 0 0 0 6,919 " fill="#FEFFDD" style="stroke:#181818;stroke-width:0.5;"/><path d="M188,919 L188,929 L198,929 L188,919 " fill="#FEFFDD" style="stroke:#181818;stroke-width:0.5;"/><text fill="#000000" font-family="sans-serif" font-size="13" lengthAdjust="spacing" textLength="171" x="12" y="936.0669">Management of tree items</text></g><!--class Index--><g id="elem_Index"><rect codeLine="48" fill="#F1F1F1" height="56.2656" id="Index" rx="2.5" ry="2.5" style="stroke:#181818;stroke-width:0.5;" width="104" x="1000" y="593.5"/><ellipse cx="1015" cy="613.6328" fill="#ADD1B2" rx="11" ry="11" style="stroke:#181818;stroke-width:1.0;"/><path d="M1017.3438,609.3047 C1016.4063,608.8672 1015.8125,608.7266 1014.9375,608.7266 C1012.3125,608.7266 1010.3125,610.8047 1010.3125,613.5234 L1010.3125,614.6484 C1010.3125,617.2266 1012.4219,619.1172 1015.3125,619.1172 C1016.5313,619.1172 1017.6875,618.8203 1018.4375,618.2734 C1019.0156,617.8672 1019.3438,617.4141 1019.3438,617.0234 C1019.3438,616.5703 1018.9531,616.1797 1018.4844,616.1797 C1018.2656,616.1797 1018.0625,616.2578 1017.875,616.4453 C1017.4219,616.9297 1017.4219,616.9297 1017.2344,617.0234 C1016.8125,617.2891 1016.125,617.4141 1015.3594,617.4141 C1013.3125,617.4141 1012.0156,616.3203 1012.0156,614.6172 L1012.0156,613.5234 C1012.0156,611.7422 1013.2656,610.4297 1015,610.4297 C1015.5781,610.4297 1016.1875,610.5859 1016.6563,610.8359 C1017.1406,611.1172 1017.3125,611.3359 1017.4063,611.7422 C1017.4688,612.1484 1017.5,612.2734 1017.6406,612.3984 C1017.7813,612.5391 1018.0156,612.6484 1018.2344,612.6484 C1018.5,612.6484 1018.7656,612.5078 1018.9375,612.2891 C1019.0469,612.1328 1019.0781,611.9453 1019.0781,611.5234 L1019.0781,610.1016 C1019.0781,609.6641 1019.0625,609.5391 1018.9688,609.3828 C1018.8125,609.1172 1018.5313,608.9766 1018.2344,608.9766 C1017.9375,608.9766 1017.7344,609.0703 1017.5156,609.3828 L1017.3438,609.3047 Z " fill="#000000"/><text fill="#000000" font-family="sans-serif" font-size="12" font-style="italic" lengthAdjust="spacing" textLength="76" x="1027" y="609.6387">«RazorPage»</text><text fill="#000000" font-family="sans-serif" font-size="14" lengthAdjust="spacing" textLength="39" x="1045.5" y="625.4639">Index</text><line style="stroke:#181818;stroke-width:0.5;" x1="1001" x2="1103" y1="633.7656" y2="633.7656"/><line style="stroke:#181818;stroke-width:0.5;" x1="1001" x2="1103" y1="641.7656" y2="641.7656"/></g><g id="elem_GMN20"><path d="M814.5,461 L814.5,501.2656 A0,0 0 0 0 814.5,501.2656 L905.082,501.2656 L1019.41,593.312 L913.082,501.2656 L957.5,501.2656 A0,0 0 0 0 957.5,501.2656 L957.5,471 L947.5,461 L814.5,461 A0,0 0 0 0 814.5,461 " fill="#FEFFDD" style="stroke:#181818;stroke-width:0.5;"/><path d="M947.5,461 L947.5,471 L957.5,471 L947.5,461 " fill="#FEFFDD" style="stroke:#181818;stroke-width:0.5;"/><text fill="#000000" font-family="sans-serif" font-size="13" lengthAdjust="spacing" textLength="118" x="820.5" y="478.0669">Main content page</text><text fill="#000000" font-family="sans-serif" font-size="13" lengthAdjust="spacing" textLength="122" x="820.5" y="493.1997">Aim: View in MVVM</text></g><!--class MainLayout--><g id="elem_MainLayout"><rect codeLine="60" fill="#F1F1F1" height="56.2656" id="MainLayout" rx="2.5" ry="2.5" style="stroke:#181818;stroke-width:0.5;" width="113" x="1515.5" y="734"/><ellipse cx="1530.5" cy="754.1328" fill="#ADD1B2" rx="11" ry="11" style="stroke:#181818;stroke-width:1.0;"/><path d="M1532.8438,749.8047 C1531.9063,749.3672 1531.3125,749.2266 1530.4375,749.2266 C1527.8125,749.2266 1525.8125,751.3047 1525.8125,754.0234 L1525.8125,755.1484 C1525.8125,757.7266 1527.9219,759.6172 1530.8125,759.6172 C1532.0313,759.6172 1533.1875,759.3203 1533.9375,758.7734 C1534.5156,758.3672 1534.8438,757.9141 1534.8438,757.5234 C1534.8438,757.0703 1534.4531,756.6797 1533.9844,756.6797 C1533.7656,756.6797 1533.5625,756.7578 1533.375,756.9453 C1532.9219,757.4297 1532.9219,757.4297 1532.7344,757.5234 C1532.3125,757.7891 1531.625,757.9141 1530.8594,757.9141 C1528.8125,757.9141 1527.5156,756.8203 1527.5156,755.1172 L1527.5156,754.0234 C1527.5156,752.2422 1528.7656,750.9297 1530.5,750.9297 C1531.0781,750.9297 1531.6875,751.0859 1532.1563,751.3359 C1532.6406,751.6172 1532.8125,751.8359 1532.9063,752.2422 C1532.9688,752.6484 1533,752.7734 1533.1406,752.8984 C1533.2813,753.0391 1533.5156,753.1484 1533.7344,753.1484 C1534,753.1484 1534.2656,753.0078 1534.4375,752.7891 C1534.5469,752.6328 1534.5781,752.4453 1534.5781,752.0234 L1534.5781,750.6016 C1534.5781,750.1641 1534.5625,750.0391 1534.4688,749.8828 C1534.3125,749.6172 1534.0313,749.4766 1533.7344,749.4766 C1533.4375,749.4766 1533.2344,749.5703 1533.0156,749.8828 L1532.8438,749.8047 Z " fill="#000000"/><text fill="#000000" font-family="sans-serif" font-size="12" font-style="italic" lengthAdjust="spacing" textLength="55" x="1557.5" y="750.1387">«Layout»</text><text fill="#000000" font-family="sans-serif" font-size="14" lengthAdjust="spacing" textLength="81" x="1544.5" y="765.9639">MainLayout</text><line style="stroke:#181818;stroke-width:0.5;" x1="1516.5" x2="1627.5" y1="774.2656" y2="774.2656"/><line style="stroke:#181818;stroke-width:0.5;" x1="1516.5" x2="1627.5" y1="782.2656" y2="782.2656"/></g><g id="elem_GMN27"><path d="M1489,586 L1489,656.5313 A0,0 0 0 0 1489,656.5313 L1570.25,656.5313 L1572.59,733.787 L1578.25,656.5313 L1661,656.5313 A0,0 0 0 0 1661,656.5313 L1661,596 L1651,586 L1489,586 A0,0 0 0 0 1489,586 " fill="#FEFFDD" style="stroke:#181818;stroke-width:0.5;"/><path d="M1651,586 L1651,596 L1661,596 L1651,586 " fill="#FEFFDD" style="stroke:#181818;stroke-width:0.5;"/><text fill="#000000" font-family="sans-serif" font-size="13" lengthAdjust="spacing" textLength="90" x="1495" y="603.0669">Blazor feature</text><text fill="#000000" font-family="sans-serif" font-size="13" lengthAdjust="spacing" textLength="151" x="1495" y="618.1997">Hosts pages as content</text><text fill="#000000" font-family="sans-serif" font-size="13" lengthAdjust="spacing" textLength="143" x="1495" y="633.3325">Provides Functions via</text><text fill="#000000" font-family="sans-serif" font-size="13" lengthAdjust="spacing" textLength="134" x="1495" y="648.4653">CascadingParameter</text></g><!--class Tree--><g id="elem_Tree"><rect codeLine="68" fill="#F1F1F1" height="56.2656" id="Tree" rx="2.5" ry="2.5" style="stroke:#181818;stroke-width:0.5;" width="145" x="153.5" y="734"/><ellipse cx="168.5" cy="754.1328" fill="#ADD1B2" rx="11" ry="11" style="stroke:#181818;stroke-width:1.0;"/><path d="M170.8438,749.8047 C169.9063,749.3672 169.3125,749.2266 168.4375,749.2266 C165.8125,749.2266 163.8125,751.3047 163.8125,754.0234 L163.8125,755.1484 C163.8125,757.7266 165.9219,759.6172 168.8125,759.6172 C170.0313,759.6172 171.1875,759.3203 171.9375,758.7734 C172.5156,758.3672 172.8438,757.9141 172.8438,757.5234 C172.8438,757.0703 172.4531,756.6797 171.9844,756.6797 C171.7656,756.6797 171.5625,756.7578 171.375,756.9453 C170.9219,757.4297 170.9219,757.4297 170.7344,757.5234 C170.3125,757.7891 169.625,757.9141 168.8594,757.9141 C166.8125,757.9141 165.5156,756.8203 165.5156,755.1172 L165.5156,754.0234 C165.5156,752.2422 166.7656,750.9297 168.5,750.9297 C169.0781,750.9297 169.6875,751.0859 170.1563,751.3359 C170.6406,751.6172 170.8125,751.8359 170.9063,752.2422 C170.9688,752.6484 171,752.7734 171.1406,752.8984 C171.2813,753.0391 171.5156,753.1484 171.7344,753.1484 C172,753.1484 172.2656,753.0078 172.4375,752.7891 C172.5469,752.6328 172.5781,752.4453 172.5781,752.0234 L172.5781,750.6016 C172.5781,750.1641 172.5625,750.0391 172.4688,749.8828 C172.3125,749.6172 172.0313,749.4766 171.7344,749.4766 C171.4375,749.4766 171.2344,749.5703 171.0156,749.8828 L170.8438,749.8047 Z " fill="#000000"/><text fill="#000000" font-family="sans-serif" font-size="12" font-style="italic" lengthAdjust="spacing" textLength="117" x="180.5" y="750.1387">«RazorComponent»</text><text fill="#000000" font-family="sans-serif" font-size="14" lengthAdjust="spacing" textLength="33" x="222.5" y="765.9639">Tree</text><line style="stroke:#181818;stroke-width:0.5;" x1="154.5" x2="297.5" y1="774.2656" y2="774.2656"/><line style="stroke:#181818;stroke-width:0.5;" x1="154.5" x2="297.5" y1="782.2656" y2="782.2656"/></g><g id="elem_GMN31"><path d="M123,601.5 L123,641.7656 A0,0 0 0 0 123,641.7656 L209.086,641.7656 L223.055,733.812 L217.086,641.7656 L299,641.7656 A0,0 0 0 0 299,641.7656 L299,611.5 L289,601.5 L123,601.5 A0,0 0 0 0 123,601.5 " fill="#FEFFDD" style="stroke:#181818;stroke-width:0.5;"/><path d="M289,601.5 L289,611.5 L299,611.5 L289,601.5 " fill="#FEFFDD" style="stroke:#181818;stroke-width:0.5;"/><text fill="#000000" font-family="sans-serif" font-size="13" lengthAdjust="spacing" textLength="143" x="129" y="618.5669">Generic component to</text><text fill="#000000" font-family="sans-serif" font-size="13" lengthAdjust="spacing" textLength="155" x="129" y="633.6997">manage hierachical tree</text></g><!--class MultiLineText--><g id="elem_MultiLineText"><rect codeLine="74" fill="#F1F1F1" height="56.2656" id="MultiLineText" rx="2.5" ry="2.5" style="stroke:#181818;stroke-width:0.5;" width="145" x="996.5" y="734"/><ellipse cx="1011.5" cy="754.1328" fill="#ADD1B2" rx="11" ry="11" style="stroke:#181818;stroke-width:1.0;"/><path d="M1013.8438,749.8047 C1012.9063,749.3672 1012.3125,749.2266 1011.4375,749.2266 C1008.8125,749.2266 1006.8125,751.3047 1006.8125,754.0234 L1006.8125,755.1484 C1006.8125,757.7266 1008.9219,759.6172 1011.8125,759.6172 C1013.0313,759.6172 1014.1875,759.3203 1014.9375,758.7734 C1015.5156,758.3672 1015.8438,757.9141 1015.8438,757.5234 C1015.8438,757.0703 1015.4531,756.6797 1014.9844,756.6797 C1014.7656,756.6797 1014.5625,756.7578 1014.375,756.9453 C1013.9219,757.4297 1013.9219,757.4297 1013.7344,757.5234 C1013.3125,757.7891 1012.625,757.9141 1011.8594,757.9141 C1009.8125,757.9141 1008.5156,756.8203 1008.5156,755.1172 L1008.5156,754.0234 C1008.5156,752.2422 1009.7656,750.9297 1011.5,750.9297 C1012.0781,750.9297 1012.6875,751.0859 1013.1563,751.3359 C1013.6406,751.6172 1013.8125,751.8359 1013.9063,752.2422 C1013.9688,752.6484 1014,752.7734 1014.1406,752.8984 C1014.2813,753.0391 1014.5156,753.1484 1014.7344,753.1484 C1015,753.1484 1015.2656,753.0078 1015.4375,752.7891 C1015.5469,752.6328 1015.5781,752.4453 1015.5781,752.0234 L1015.5781,750.6016 C1015.5781,750.1641 1015.5625,750.0391 1015.4688,749.8828 C1015.3125,749.6172 1015.0313,749.4766 1014.7344,749.4766 C1014.4375,749.4766 1014.2344,749.5703 1014.0156,749.8828 L1013.8438,749.8047 Z " fill="#000000"/><text fill="#000000" font-family="sans-serif" font-size="12" font-style="italic" lengthAdjust="spacing" textLength="117" x="1023.5" y="750.1387">«RazorComponent»</text><text fill="#000000" font-family="sans-serif" font-size="14" lengthAdjust="spacing" textLength="98" x="1033" y="765.9639">MultiLineText</text><line style="stroke:#181818;stroke-width:0.5;" x1="997.5" x2="1140.5" y1="774.2656" y2="774.2656"/><line style="stroke:#181818;stroke-width:0.5;" x1="997.5" x2="1140.5" y1="782.2656" y2="782.2656"/></g><!--class Modal--><g id="elem_Modal"><rect codeLine="76" fill="#F1F1F1" height="56.2656" id="Modal" rx="2.5" ry="2.5" style="stroke:#181818;stroke-width:0.5;" width="145" x="1817.5" y="734"/><ellipse cx="1832.5" cy="754.1328" fill="#ADD1B2" rx="11" ry="11" style="stroke:#181818;stroke-width:1.0;"/><path d="M1834.8438,749.8047 C1833.9063,749.3672 1833.3125,749.2266 1832.4375,749.2266 C1829.8125,749.2266 1827.8125,751.3047 1827.8125,754.0234 L1827.8125,755.1484 C1827.8125,757.7266 1829.9219,759.6172 1832.8125,759.6172 C1834.0313,759.6172 1835.1875,759.3203 1835.9375,758.7734 C1836.5156,758.3672 1836.8438,757.9141 1836.8438,757.5234 C1836.8438,757.0703 1836.4531,756.6797 1835.9844,756.6797 C1835.7656,756.6797 1835.5625,756.7578 1835.375,756.9453 C1834.9219,757.4297 1834.9219,757.4297 1834.7344,757.5234 C1834.3125,757.7891 1833.625,757.9141 1832.8594,757.9141 C1830.8125,757.9141 1829.5156,756.8203 1829.5156,755.1172 L1829.5156,754.0234 C1829.5156,752.2422 1830.7656,750.9297 1832.5,750.9297 C1833.0781,750.9297 1833.6875,751.0859 1834.1563,751.3359 C1834.6406,751.6172 1834.8125,751.8359 1834.9063,752.2422 C1834.9688,752.6484 1835,752.7734 1835.1406,752.8984 C1835.2813,753.0391 1835.5156,753.1484 1835.7344,753.1484 C1836,753.1484 1836.2656,753.0078 1836.4375,752.7891 C1836.5469,752.6328 1836.5781,752.4453 1836.5781,752.0234 L1836.5781,750.6016 C1836.5781,750.1641 1836.5625,750.0391 1836.4688,749.8828 C1836.3125,749.6172 1836.0313,749.4766 1835.7344,749.4766 C1835.4375,749.4766 1835.2344,749.5703 1835.0156,749.8828 L1834.8438,749.8047 Z " fill="#000000"/><text fill="#000000" font-family="sans-serif" font-size="12" font-style="italic" lengthAdjust="spacing" textLength="117" x="1844.5" y="750.1387">«RazorComponent»</text><text fill="#000000" font-family="sans-serif" font-size="14" lengthAdjust="spacing" textLength="42" x="1882" y="765.9639">Modal</text><line style="stroke:#181818;stroke-width:0.5;" x1="1818.5" x2="1961.5" y1="774.2656" y2="774.2656"/><line style="stroke:#181818;stroke-width:0.5;" x1="1818.5" x2="1961.5" y1="782.2656" y2="782.2656"/></g><g id="elem_GMN36"><path d="M1820,601.5 L1820,641.7656 A0,0 0 0 0 1820,641.7656 L1886,641.7656 L1890,733.812 L1894,641.7656 L1960,641.7656 A0,0 0 0 0 1960,641.7656 L1960,611.5 L1950,601.5 L1820,601.5 A0,0 0 0 0 1820,601.5 " fill="#FEFFDD" style="stroke:#181818;stroke-width:0.5;"/><path d="M1950,601.5 L1950,611.5 L1960,611.5 L1950,601.5 " fill="#FEFFDD" style="stroke:#181818;stroke-width:0.5;"/><text fill="#000000" font-family="sans-serif" font-size="13" lengthAdjust="spacing" textLength="115" x="1826" y="618.5669">Generic display of</text><text fill="#000000" font-family="sans-serif" font-size="13" lengthAdjust="spacing" textLength="100" x="1826" y="633.6997">modal contents</text></g><!--class DynamicMenuItem--><g id="elem_DynamicMenuItem"><rect codeLine="82" fill="#F1F1F1" height="56.2656" id="DynamicMenuItem" rx="2.5" ry="2.5" style="stroke:#181818;stroke-width:0.5;" width="166" x="882" y="903.5"/><ellipse cx="897" cy="923.6328" fill="#ADD1B2" rx="11" ry="11" style="stroke:#181818;stroke-width:1.0;"/><path d="M899.3438,919.3047 C898.4063,918.8672 897.8125,918.7266 896.9375,918.7266 C894.3125,918.7266 892.3125,920.8047 892.3125,923.5234 L892.3125,924.6484 C892.3125,927.2266 894.4219,929.1172 897.3125,929.1172 C898.5313,929.1172 899.6875,928.8203 900.4375,928.2734 C901.0156,927.8672 901.3438,927.4141 901.3438,927.0234 C901.3438,926.5703 900.9531,926.1797 900.4844,926.1797 C900.2656,926.1797 900.0625,926.2578 899.875,926.4453 C899.4219,926.9297 899.4219,926.9297 899.2344,927.0234 C898.8125,927.2891 898.125,927.4141 897.3594,927.4141 C895.3125,927.4141 894.0156,926.3203 894.0156,924.6172 L894.0156,923.5234 C894.0156,921.7422 895.2656,920.4297 897,920.4297 C897.5781,920.4297 898.1875,920.5859 898.6563,920.8359 C899.1406,921.1172 899.3125,921.3359 899.4063,921.7422 C899.4688,922.1484 899.5,922.2734 899.6406,922.3984 C899.7813,922.5391 900.0156,922.6484 900.2344,922.6484 C900.5,922.6484 900.7656,922.5078 900.9375,922.2891 C901.0469,922.1328 901.0781,921.9453 901.0781,921.5234 L901.0781,920.1016 C901.0781,919.6641 901.0625,919.5391 900.9688,919.3828 C900.8125,919.1172 900.5313,918.9766 900.2344,918.9766 C899.9375,918.9766 899.7344,919.0703 899.5156,919.3828 L899.3438,919.3047 Z " fill="#000000"/><text fill="#000000" font-family="sans-serif" font-size="12" font-style="italic" lengthAdjust="spacing" textLength="117" x="919.5" y="919.6387">«RazorComponent»</text><text fill="#000000" font-family="sans-serif" font-size="14" lengthAdjust="spacing" textLength="134" x="911" y="935.4639">DynamicMenuItem</text><line style="stroke:#181818;stroke-width:0.5;" x1="883" x2="1047" y1="943.7656" y2="943.7656"/><line style="stroke:#181818;stroke-width:0.5;" x1="883" x2="1047" y1="951.7656" y2="951.7656"/></g><g id="elem_GMN40"><path d="M1176.5,749.5 L1176.5,774.6328 L1389.5,774.6328 L1389.5,759.5 L1379.5,749.5 L1176.5,749.5 " fill="#FEFFDD" style="stroke:#181818;stroke-width:0.5;"/><path d="M1379.5,749.5 L1379.5,759.5 L1389.5,759.5 L1379.5,749.5 " fill="#FEFFDD" style="stroke:#181818;stroke-width:1.0;"/><text fill="#000000" font-family="sans-serif" font-size="13" lengthAdjust="spacing" textLength="192" x="1182.5" y="766.5669">Rendering of AasxMenu items</text></g><!--class AnyUiRenderStar--><g id="elem_AnyUiRenderStar"><rect codeLine="87" fill="#F1F1F1" height="56.2656" id="AnyUiRenderStar" rx="2.5" ry="2.5" style="stroke:#181818;stroke-width:0.5;" width="145" x="744.5" y="734"/><ellipse cx="759.5" cy="754.1328" fill="#ADD1B2" rx="11" ry="11" style="stroke:#181818;stroke-width:1.0;"/><path d="M761.8438,749.8047 C760.9063,749.3672 760.3125,749.2266 759.4375,749.2266 C756.8125,749.2266 754.8125,751.3047 754.8125,754.0234 L754.8125,755.1484 C754.8125,757.7266 756.9219,759.6172 759.8125,759.6172 C761.0313,759.6172 762.1875,759.3203 762.9375,758.7734 C763.5156,758.3672 763.8438,757.9141 763.8438,757.5234 C763.8438,757.0703 763.4531,756.6797 762.9844,756.6797 C762.7656,756.6797 762.5625,756.7578 762.375,756.9453 C761.9219,757.4297 761.9219,757.4297 761.7344,757.5234 C761.3125,757.7891 760.625,757.9141 759.8594,757.9141 C757.8125,757.9141 756.5156,756.8203 756.5156,755.1172 L756.5156,754.0234 C756.5156,752.2422 757.7656,750.9297 759.5,750.9297 C760.0781,750.9297 760.6875,751.0859 761.1563,751.3359 C761.6406,751.6172 761.8125,751.8359 761.9063,752.2422 C761.9688,752.6484 762,752.7734 762.1406,752.8984 C762.2813,753.0391 762.5156,753.1484 762.7344,753.1484 C763,753.1484 763.2656,753.0078 763.4375,752.7891 C763.5469,752.6328 763.5781,752.4453 763.5781,752.0234 L763.5781,750.6016 C763.5781,750.1641 763.5625,750.0391 763.4688,749.8828 C763.3125,749.6172 763.0313,749.4766 762.7344,749.4766 C762.4375,749.4766 762.2344,749.5703 762.0156,749.8828 L761.8438,749.8047 Z " fill="#000000"/><text fill="#000000" font-family="sans-serif" font-size="12" font-style="italic" lengthAdjust="spacing" textLength="117" x="771.5" y="750.1387">«RazorComponent»</text><text fill="#000000" font-family="sans-serif" font-size="14" lengthAdjust="spacing" textLength="99" x="780.5" y="765.9639">AnyUiRender*</text><line style="stroke:#181818;stroke-width:0.5;" x1="745.5" x2="888.5" y1="774.2656" y2="774.2656"/><line style="stroke:#181818;stroke-width:0.5;" x1="745.5" x2="888.5" y1="782.2656" y2="782.2656"/></g><g id="elem_GMN44"><path d="M686.5,609 L686.5,634.1328 A0,0 0 0 0 686.5,634.1328 L813,634.1328 L817,733.903 L821,634.1328 L947.5,634.1328 A0,0 0 0 0 947.5,634.1328 L947.5,619 L937.5,609 L686.5,609 A0,0 0 0 0 686.5,609 " fill="#FEFFDD" style="stroke:#181818;stroke-width:0.5;"/><path d="M937.5,609 L937.5,619 L947.5,619 L937.5,609 " fill="#FEFFDD" style="stroke:#181818;stroke-width:0.5;"/><text fill="#000000" font-family="sans-serif" font-size="13" lengthAdjust="spacing" textLength="240" x="692.5" y="626.0669">Recursive rendering of AnyUi widgets</text></g><!--class StylePile--><g id="elem_StylePile"><rect codeLine="92" fill="#F1F1F1" height="48" id="StylePile" rx="2.5" ry="2.5" style="stroke:#181818;stroke-width:0.5;" width="95" x="1209.5" y="1113.5"/><ellipse cx="1224.5" cy="1129.5" fill="#ADD1B2" rx="11" ry="11" style="stroke:#181818;stroke-width:1.0;"/><path d="M1226.8438,1125.1719 C1225.9063,1124.7344 1225.3125,1124.5938 1224.4375,1124.5938 C1221.8125,1124.5938 1219.8125,1126.6719 1219.8125,1129.3906 L1219.8125,1130.5156 C1219.8125,1133.0938 1221.9219,1134.9844 1224.8125,1134.9844 C1226.0313,1134.9844 1227.1875,1134.6875 1227.9375,1134.1406 C1228.5156,1133.7344 1228.8438,1133.2813 1228.8438,1132.8906 C1228.8438,1132.4375 1228.4531,1132.0469 1227.9844,1132.0469 C1227.7656,1132.0469 1227.5625,1132.125 1227.375,1132.3125 C1226.9219,1132.7969 1226.9219,1132.7969 1226.7344,1132.8906 C1226.3125,1133.1563 1225.625,1133.2813 1224.8594,1133.2813 C1222.8125,1133.2813 1221.5156,1132.1875 1221.5156,1130.4844 L1221.5156,1129.3906 C1221.5156,1127.6094 1222.7656,1126.2969 1224.5,1126.2969 C1225.0781,1126.2969 1225.6875,1126.4531 1226.1563,1126.7031 C1226.6406,1126.9844 1226.8125,1127.2031 1226.9063,1127.6094 C1226.9688,1128.0156 1227,1128.1406 1227.1406,1128.2656 C1227.2813,1128.4063 1227.5156,1128.5156 1227.7344,1128.5156 C1228,1128.5156 1228.2656,1128.375 1228.4375,1128.1563 C1228.5469,1128 1228.5781,1127.8125 1228.5781,1127.3906 L1228.5781,1125.9688 C1228.5781,1125.5313 1228.5625,1125.4063 1228.4688,1125.25 C1228.3125,1124.9844 1228.0313,1124.8438 1227.7344,1124.8438 C1227.4375,1124.8438 1227.2344,1124.9375 1227.0156,1125.25 L1226.8438,1125.1719 Z " fill="#000000"/><text fill="#000000" font-family="sans-serif" font-size="14" lengthAdjust="spacing" textLength="63" x="1238.5" y="1134.3467">StylePile</text><line style="stroke:#181818;stroke-width:0.5;" x1="1210.5" x2="1303.5" y1="1145.5" y2="1145.5"/><line style="stroke:#181818;stroke-width:0.5;" x1="1210.5" x2="1303.5" y1="1153.5" y2="1153.5"/></g><g id="elem_GMN48"><path d="M1083,911.5 L1083,951.7656 A0,0 0 0 0 1083,951.7656 L1196.83,951.7656 L1250.01,1113.498 L1204.83,951.7656 L1307,951.7656 A0,0 0 0 0 1307,951.7656 L1307,921.5 L1297,911.5 L1083,911.5 A0,0 0 0 0 1083,911.5 " fill="#FEFFDD" style="stroke:#181818;stroke-width:0.5;"/><path d="M1297,911.5 L1297,921.5 L1307,921.5 L1297,911.5 " fill="#FEFFDD" style="stroke:#181818;stroke-width:0.5;"/><text fill="#000000" font-family="sans-serif" font-size="13" lengthAdjust="spacing" textLength="203" x="1089" y="928.5669">Composing of style="..." strings</text><text fill="#000000" font-family="sans-serif" font-size="13" lengthAdjust="spacing" textLength="192" x="1089" y="943.6997">out of individual C# attributes</text></g><!--class AasxMenuBlazor--><g id="elem_AasxMenuBlazor"><rect codeLine="98" fill="#F1F1F1" height="64.2969" id="AasxMenuBlazor" rx="2.5" ry="2.5" style="stroke:#181818;stroke-width:0.5;" width="148" x="882" y="1105.5"/><ellipse cx="897" cy="1121.5" fill="#ADD1B2" rx="11" ry="11" style="stroke:#181818;stroke-width:1.0;"/><path d="M899.3438,1117.1719 C898.4063,1116.7344 897.8125,1116.5938 896.9375,1116.5938 C894.3125,1116.5938 892.3125,1118.6719 892.3125,1121.3906 L892.3125,1122.5156 C892.3125,1125.0938 894.4219,1126.9844 897.3125,1126.9844 C898.5313,1126.9844 899.6875,1126.6875 900.4375,1126.1406 C901.0156,1125.7344 901.3438,1125.2813 901.3438,1124.8906 C901.3438,1124.4375 900.9531,1124.0469 900.4844,1124.0469 C900.2656,1124.0469 900.0625,1124.125 899.875,1124.3125 C899.4219,1124.7969 899.4219,1124.7969 899.2344,1124.8906 C898.8125,1125.1563 898.125,1125.2813 897.3594,1125.2813 C895.3125,1125.2813 894.0156,1124.1875 894.0156,1122.4844 L894.0156,1121.3906 C894.0156,1119.6094 895.2656,1118.2969 897,1118.2969 C897.5781,1118.2969 898.1875,1118.4531 898.6563,1118.7031 C899.1406,1118.9844 899.3125,1119.2031 899.4063,1119.6094 C899.4688,1120.0156 899.5,1120.1406 899.6406,1120.2656 C899.7813,1120.4063 900.0156,1120.5156 900.2344,1120.5156 C900.5,1120.5156 900.7656,1120.375 900.9375,1120.1563 C901.0469,1120 901.0781,1119.8125 901.0781,1119.3906 L901.0781,1117.9688 C901.0781,1117.5313 901.0625,1117.4063 900.9688,1117.25 C900.8125,1116.9844 900.5313,1116.8438 900.2344,1116.8438 C899.9375,1116.8438 899.7344,1116.9375 899.5156,1117.25 L899.3438,1117.1719 Z " fill="#000000"/><text fill="#000000" font-family="sans-serif" font-size="14" lengthAdjust="spacing" textLength="116" x="911" y="1126.3467">AasxMenuBlazor</text><line style="stroke:#181818;stroke-width:0.5;" x1="883" x2="1029" y1="1137.5" y2="1137.5"/><text fill="#000000" font-family="sans-serif" font-size="14" lengthAdjust="spacing" textLength="118" x="888" y="1154.4951">Menu: AasxMenu</text><line style="stroke:#181818;stroke-width:0.5;" x1="883" x2="1029" y1="1161.7969" y2="1161.7969"/></g><g id="elem_GMN61"><path d="M1687.5,1456 L1687.5,1481.1328 L2012.5,1481.1328 L2012.5,1466 L2002.5,1456 L1687.5,1456 " fill="#FEFFDD" style="stroke:#181818;stroke-width:0.5;"/><path d="M2002.5,1456 L2002.5,1466 L2012.5,1466 L2002.5,1456 " fill="#FEFFDD" style="stroke:#181818;stroke-width:1.0;"/><text fill="#000000" font-family="sans-serif" font-size="13" lengthAdjust="spacing" textLength="304" x="1693.5" y="1473.0669">Files here will be automatically served via HTTP</text></g><!--class ToBeDone--><g id="elem_ToBeDone"><rect codeLine="149" fill="#F1F1F1" height="48" id="ToBeDone" rx="2.5" ry="2.5" style="stroke:#181818;stroke-width:0.5;" width="107" x="1675.5" y="738"/><ellipse cx="1690.5" cy="754" fill="#ADD1B2" rx="11" ry="11" style="stroke:#181818;stroke-width:1.0;"/><path d="M1692.8438,749.6719 C1691.9063,749.2344 1691.3125,749.0938 1690.4375,749.0938 C1687.8125,749.0938 1685.8125,751.1719 1685.8125,753.8906 L1685.8125,755.0156 C1685.8125,757.5938 1687.9219,759.4844 1690.8125,759.4844 C1692.0313,759.4844 1693.1875,759.1875 1693.9375,758.6406 C1694.5156,758.2344 1694.8438,757.7813 1694.8438,757.3906 C1694.8438,756.9375 1694.4531,756.5469 1693.9844,756.5469 C1693.7656,756.5469 1693.5625,756.625 1693.375,756.8125 C1692.9219,757.2969 1692.9219,757.2969 1692.7344,757.3906 C1692.3125,757.6563 1691.625,757.7813 1690.8594,757.7813 C1688.8125,757.7813 1687.5156,756.6875 1687.5156,754.9844 L1687.5156,753.8906 C1687.5156,752.1094 1688.7656,750.7969 1690.5,750.7969 C1691.0781,750.7969 1691.6875,750.9531 1692.1563,751.2031 C1692.6406,751.4844 1692.8125,751.7031 1692.9063,752.1094 C1692.9688,752.5156 1693,752.6406 1693.1406,752.7656 C1693.2813,752.9063 1693.5156,753.0156 1693.7344,753.0156 C1694,753.0156 1694.2656,752.875 1694.4375,752.6563 C1694.5469,752.5 1694.5781,752.3125 1694.5781,751.8906 L1694.5781,750.4688 C1694.5781,750.0313 1694.5625,749.9063 1694.4688,749.75 C1694.3125,749.4844 1694.0313,749.3438 1693.7344,749.3438 C1693.4375,749.3438 1693.2344,749.4375 1693.0156,749.75 L1692.8438,749.6719 Z " fill="#000000"/><text fill="#000000" font-family="sans-serif" font-size="14" lengthAdjust="spacing" textLength="75" x="1704.5" y="758.8467">ToBeDone</text><line style="stroke:#181818;stroke-width:0.5;" x1="1676.5" x2="1781.5" y1="770" y2="770"/><line style="stroke:#181818;stroke-width:0.5;" x1="1676.5" x2="1781.5" y1="778" y2="778"/></g><!--link GMN40 to DynamicMenuItem--><g id="link_GMN40_DynamicMenuItem"><path d="M1254.82,774.54 C1212.63,792.163 1130.96,827.64 1065,864.5 C1043.94,876.27 1021.43,890.925 1003.111,903.434 " fill="none" id="GMN40-DynamicMenuItem" style="stroke:#181818;stroke-width:1.0;stroke-dasharray:7.0,7.0;"/></g><!--link wwwroot to GMN61--><g id="link_wwwroot_GMN61"><path d="M1663.2726,1350.1985 C1663.4042,1350.2811 1663.5371,1350.3646 1663.6715,1350.4491 C1664.209,1350.7867 1664.7688,1351.1384 1665.3503,1351.5037 C1666.5133,1352.2343 1667.7628,1353.0193 1669.0928,1353.8549 C1671.753,1355.526 1674.7354,1357.3996 1677.9923,1359.4456 C1691.0203,1367.6299 1708.4419,1378.574 1727.2063,1390.3616 C1764.735,1413.9366 1807.635,1440.8852 1831.5,1455.8754 " fill="none" id="wwwroot-GMN61" style="stroke:#181818;stroke-width:1.0;stroke-dasharray:7.0,7.0;"/></g><!--reverse link Program to BlazorSession--><g id="link_Program_BlazorSession"><path codeLine="126" d="M874.489,193.34 C694.573,206.08 352,244.34 352,351 C352,351 352,351 352,763 C352,805.14 378.816,840.009 411.394,866.82 " fill="none" id="Program-backto-BlazorSession" style="stroke:#181818;stroke-width:1.0;"/><polygon fill="#181818" points="887.683,192.43,881.4225,188.8515,875.7113,193.254,881.9718,196.8326,887.683,192.43" style="stroke:#181818;stroke-width:1.0;"/><text fill="#000000" font-family="sans-serif" font-size="13" lengthAdjust="spacing" textLength="24" x="373.5465" y="855.973">1..n</text></g><!--reverse link BlazorSession to BlazorVisualElements--><g id="link_BlazorSession_BlazorVisualElements"><path codeLine="128" d="M435.145,1004.339 C406.871,1026.695 375.911,1051.175 348.404,1072.925 " fill="none" id="BlazorSession-backto-BlazorVisualElements" style="stroke:#181818;stroke-width:1.0;"/><polygon fill="#181818" points="445.428,996.208,438.2406,996.7918,436.015,1003.6508,443.2024,1003.0671,445.428,996.208" style="stroke:#181818;stroke-width:1.0;"/><text fill="#000000" font-family="sans-serif" font-size="13" lengthAdjust="spacing" textLength="107" x="406" y="1039.0669">DisplayElements</text></g><!--reverse link BlazorSession to AasxMenuBlazor--><g id="link_BlazorSession_AasxMenuBlazor"><path codeLine="129" d="M663.586,997.773 C739.547,1033.811 830.387,1076.907 890.443,1105.398 " fill="none" id="BlazorSession-backto-AasxMenuBlazor" style="stroke:#181818;stroke-width:1.0;"/><polygon fill="#181818" points="651.53,992.054,655.2368,998.2394,662.3721,997.1968,658.6653,991.0114,651.53,992.054" style="stroke:#181818;stroke-width:1.0;"/><text fill="#000000" font-family="sans-serif" font-size="13" lengthAdjust="spacing" textLength="63" x="755" y="1039.0669">MainMenu</text></g><!--link Program to Index--><g id="link_Program_Index"><path codeLine="131" d="M992.329,251.39 C1007.52,345.35 1035.32,517.34 1046.82,588.436 " fill="none" id="Program-to-Index" style="stroke:#181818;stroke-width:1.0;"/><polygon fill="#181818" points="1047.62,593.378,1050.1317,583.8548,1046.8217,588.4421,1042.2343,585.1321,1047.62,593.378" style="stroke:#181818;stroke-width:1.0;"/><text fill="#000000" font-family="sans-serif" font-size="13" lengthAdjust="spacing" textLength="37" x="1021" y="419.0669">starts</text></g><!--link Program to Startup--><g id="link_Program_Startup"><path codeLine="133" d="M1034.19,251.18 C1054.69,276.19 1077.13,303.57 1093.32,323.32 " fill="none" id="Program-to-Startup" style="stroke:#181818;stroke-width:1.0;"/><polygon fill="#181818" points="1096.88,327.67,1094.271,318.173,1093.7115,323.8021,1088.0824,323.2426,1096.88,327.67" style="stroke:#181818;stroke-width:1.0;"/><text fill="#000000" font-family="sans-serif" font-size="13" lengthAdjust="spacing" textLength="30" x="1070" y="294.0669">uses</text></g><!--link Startup to AppRazor--><g id="link_Startup_AppRazor"><path codeLine="134" d="M1116,376.29 C1116,396.31 1116,425.39 1116,447.67 " fill="none" id="Startup-to-AppRazor" style="stroke:#181818;stroke-width:1.0;"/><polygon fill="#181818" points="1116,452.89,1120,443.89,1116,447.89,1112,443.89,1116,452.89" style="stroke:#181818;stroke-width:1.0;"/><text fill="#000000" font-family="sans-serif" font-size="13" lengthAdjust="spacing" textLength="92" x="1117" y="419.0669">defines routes</text></g><!--link AppRazor to Index--><g id="link_AppRazor_Index"><path codeLine="136" d="M1103.51,509.03 C1093,531.76 1077.97,564.309 1066.85,588.369 " fill="none" id="AppRazor-to-Index" style="stroke:#181818;stroke-width:1.0;"/><polygon fill="#181818" points="1064.68,593.062,1072.0839,586.5672,1066.7757,588.5224,1064.8205,583.2141,1064.68,593.062" style="stroke:#181818;stroke-width:1.0;"/><text fill="#000000" font-family="sans-serif" font-size="13" lengthAdjust="spacing" textLength="41" x="1089" y="552.0669">routes</text></g><!--link Index to BlazorSession--><g id="link_Index_BlazorSession"><path codeLine="138" d="M999.741,645.437 C988.444,649.768 976.45,653.903 965,657 C854.993,686.751 532.285,647.581 458,734 C426.895,770.186 446.041,821.392 471.837,862.46 " fill="none" id="Index-to-BlazorSession" style="stroke:#181818;stroke-width:1.0;"/><polygon fill="#181818" points="474.682,866.907,473.2028,857.1699,471.9881,862.6948,466.4632,861.4801,474.682,866.907" style="stroke:#181818;stroke-width:1.0;"/><text fill="#000000" font-family="sans-serif" font-size="13" lengthAdjust="spacing" textLength="37" x="459" y="766.5669">views</text></g><!--link Index to MainLayout--><g id="link_Index_MainLayout"><path codeLine="139" d="M1104.29,621.645 C1187.62,622.156 1354.06,630.925 1481,687 C1504.03,697.174 1526.04,714.784 1542.65,730.272 " fill="none" id="Index-to-MainLayout" style="stroke:#181818;stroke-width:1.0;"/><polygon fill="#181818" points="1546.32,733.746,1542.5201,724.6597,1542.6837,730.3142,1537.0292,730.4778,1546.32,733.746" style="stroke:#181818;stroke-width:1.0;"/><text fill="#000000" font-family="sans-serif" font-size="13" lengthAdjust="spacing" textLength="30" x="1510" y="700.0669">uses</text></g><!--link Index to Tree--><g id="link_Index_Tree"><path codeLine="140" d="M999.955,646.314 C988.644,650.585 976.59,654.476 965,657 C711.49,712.22 633.569,623.522 382,687 C344.617,696.433 305.42,715.067 275.667,731.275 " fill="none" id="Index-to-Tree" style="stroke:#181818;stroke-width:1.0;"/><polygon fill="#181818" points="270.975,733.854,280.7888,733.0237,275.3566,731.4453,276.9349,726.0131,270.975,733.854" style="stroke:#181818;stroke-width:1.0;"/><text fill="#000000" font-family="sans-serif" font-size="13" lengthAdjust="spacing" textLength="30" x="383" y="700.0669">uses</text></g><!--link Index to MultiLineText--><g id="link_Index_MultiLineText"><path codeLine="141" d="M1055.32,649.533 C1058.1,672.169 1062.07,704.538 1065.02,728.567 " fill="none" id="Index-to-MultiLineText" style="stroke:#181818;stroke-width:1.0;"/><polygon fill="#181818" points="1065.63,733.562,1068.5035,724.1417,1065.0207,728.5993,1060.5631,725.1165,1065.63,733.562" style="stroke:#181818;stroke-width:1.0;"/><text fill="#000000" font-family="sans-serif" font-size="13" lengthAdjust="spacing" textLength="30" x="1063" y="700.0669">uses</text></g><!--link Index to AnyUiRenderStar--><g id="link_Index_AnyUiRenderStar"><path codeLine="142" d="M999.616,643.457 C988.22,647.964 976.218,652.673 965,657 C929.571,670.666 916.486,665.772 885,687 C867.942,698.501 852.171,715.106 840.121,729.674 " fill="none" id="Index-to-AnyUiRenderStar" style="stroke:#181818;stroke-width:1.0;"/><polygon fill="#181818" points="836.823,733.723,845.6094,729.2734,839.9817,729.8471,839.408,724.2194,836.823,733.723" style="stroke:#181818;stroke-width:1.0;"/><text fill="#000000" font-family="sans-serif" font-size="13" lengthAdjust="spacing" textLength="30" x="886" y="700.0669">uses</text></g><!--link AnyUiRenderStar to BlazorSession--><g id="link_AnyUiRenderStar_BlazorSession"><path codeLine="144" d="M769.922,790.098 C735.016,810.19 685.883,838.471 640.852,864.391 " fill="none" id="AnyUiRenderStar-to-BlazorSession" style="stroke:#181818;stroke-width:1.0;"/><polygon fill="#181818" points="636.507,866.892,646.3025,865.8685,640.8403,864.3975,642.3113,858.9352,636.507,866.892" style="stroke:#181818;stroke-width:1.0;"/><text fill="#000000" font-family="sans-serif" font-size="13" lengthAdjust="spacing" textLength="141" x="716" y="833.0669">renders ElementPanel</text></g><!--link Tree to BlazorVisualElements--><g id="link_Tree_BlazorVisualElements"><path codeLine="147" d="M229.054,790.162 C235.538,847.818 250.848,983.972 260.226,1067.363 " fill="none" id="Tree-to-BlazorVisualElements" style="stroke:#181818;stroke-width:1.0;"/><polygon fill="#181818" points="260.834,1072.778,263.8035,1063.3875,260.2754,1067.8093,255.8536,1064.2812,260.834,1072.778" style="stroke:#181818;stroke-width:1.0;"/><text fill="#000000" font-family="sans-serif" font-size="13" lengthAdjust="spacing" textLength="49" x="253" y="936.0669">renders</text></g><!--reverse link ToBeDone to AnyUiDisplayContextHtml--><g id="link_ToBeDone_AnyUiDisplayContextHtml"><path codeLine="150" d="M1737.03,799.374 C1744.29,832.201 1754.73,879.498 1760.9,907.408 " fill="none" id="ToBeDone-backto-AnyUiDisplayContextHtml" style="stroke:#181818;stroke-width:1.0;"/><polygon fill="#181818" points="1734.14,786.29,1731.5294,793.012,1736.7302,798.0071,1739.3408,791.2852,1734.14,786.29" style="stroke:#181818;stroke-width:1.0;"/><text fill="#000000" font-family="sans-serif" font-size="13" lengthAdjust="spacing" textLength="96" x="1747" y="833.0669">displayContext</text></g><!--reverse link ToBeDone to AnyUiDisplayDataHtml--><g id="link_ToBeDone_AnyUiDisplayDataHtml"><path codeLine="151" d="M1794.61,790.676 C1813.5,799.371 1833.89,809.47 1852,820 C1898.14,846.827 1947.75,883.783 1978.09,907.411 " fill="none" id="ToBeDone-backto-AnyUiDisplayDataHtml" style="stroke:#181818;stroke-width:1.0;"/><polygon fill="#181818" points="1782.76,785.315,1786.5781,791.4323,1793.6934,790.2608,1789.8753,784.1434,1782.76,785.315" style="stroke:#181818;stroke-width:1.0;"/><text fill="#000000" font-family="sans-serif" font-size="13" lengthAdjust="spacing" textLength="76" x="1880" y="833.0669">displayData</text></g><!--link Index to ToBeDone--><g id="link_Index_ToBeDone"><path codeLine="153" d="M1104.01,624.789 C1195.43,629.792 1390.27,644.851 1549,687 C1593.85,698.909 1642.38,719.337 1677.74,735.717 " fill="none" id="Index-to-ToBeDone" style="stroke:#181818;stroke-width:1.0;"/><polygon fill="#181818" points="1682.42,737.897,1675.9353,730.4843,1677.8832,735.7952,1672.5723,737.7432,1682.42,737.897" style="stroke:#181818;stroke-width:1.0;"/><text fill="#000000" font-family="sans-serif" font-size="13" lengthAdjust="spacing" textLength="52" x="1601" y="700.0669">includes</text></g><!--link AnyUiRenderStar to StylePile--><g id="link_AnyUiRenderStar_StylePile"><path codeLine="155" d="M889.821,776.25 C917.658,781.022 949.739,786.169 979,790 C1048.5,799.101 1232.48,784.637 1293,820 C1361.58,860.07 1341.53,918.531 1324,996 C1314.59,1037.61 1291.3,1081.33 1274.84,1108.735 " fill="none" id="AnyUiRenderStar-to-StylePile" style="stroke:#181818;stroke-width:1.0;"/><polygon fill="#181818" points="1272.05,1113.323,1280.1408,1107.7071,1274.6456,1109.0495,1273.3032,1103.5542,1272.05,1113.323" style="stroke:#181818;stroke-width:1.0;"/><text fill="#000000" font-family="sans-serif" font-size="13" lengthAdjust="spacing" textLength="30" x="1342" y="936.0669">uses</text></g><!--link Index to StylePile--><g id="link_Index_StylePile"><path codeLine="156" d="M1104.09,631.174 C1193.66,647.269 1370.78,684.658 1407,734 C1437.42,775.436 1456,829.991 1381,996 C1360.11,1042.25 1318.63,1084.305 1289.42,1110.103 " fill="none" id="Index-to-StylePile" style="stroke:#181818;stroke-width:1.0;"/><polygon fill="#181818" points="1285.56,1113.479,1294.9639,1110.5522,1289.3192,1110.1822,1289.6891,1104.5375,1285.56,1113.479" style="stroke:#181818;stroke-width:1.0;"/><text fill="#000000" font-family="sans-serif" font-size="13" lengthAdjust="spacing" textLength="30" x="1435" y="833.0669">uses</text></g><!--link DynamicMenuItem to StylePile--><g id="link_DynamicMenuItem_StylePile"><path codeLine="157" d="M1006.5,959.622 C1024.36,971.089 1045.56,984.439 1065,996 C1088.6,1010.031 1096.2,1010.699 1119,1026 C1157.98,1052.167 1199.66,1086.519 1226.88,1109.93 " fill="none" id="DynamicMenuItem-to-StylePile" style="stroke:#181818;stroke-width:1.0;"/><polygon fill="#181818" points="1230.79,1113.302,1226.594,1104.3917,1227.0062,1110.0335,1221.3644,1110.4457,1230.79,1113.302" style="stroke:#181818;stroke-width:1.0;"/><text fill="#000000" font-family="sans-serif" font-size="13" lengthAdjust="spacing" textLength="30" x="1144" y="1039.0669">uses</text></g><!--link DynamicMenuItem to SiteCss--><g id="link_DynamicMenuItem_SiteCss"><path codeLine="158" d="M984.486,959.839 C1024.27,1015.664 1117.69,1146.795 1196,1257 C1209.98,1276.671 1225.74,1298.888 1237.73,1315.812 " fill="none" id="DynamicMenuItem-to-SiteCss" style="stroke:#181818;stroke-width:1.0;"/><polygon fill="#181818" points="1240.7,1319.996,1238.7661,1310.3389,1237.8117,1315.9146,1232.2359,1314.9602,1240.7,1319.996" style="stroke:#181818;stroke-width:1.0;"/><text fill="#000000" font-family="sans-serif" font-size="13" lengthAdjust="spacing" textLength="30" x="1155" y="1142.0669">uses</text></g><!--link DynamicMenuItem to AasxMenuBlazor--><g id="link_DynamicMenuItem_AasxMenuBlazor"><path codeLine="159" d="M963.805,959.59 C962.212,995.686 959.389,1059.678 957.61,1100.001 " fill="none" id="DynamicMenuItem-to-AasxMenuBlazor" style="stroke:#181818;stroke-width:1.0;"/><polygon fill="#181818" points="957.377,1105.284,961.7691,1096.4687,957.597,1100.2888,953.7768,1096.1167,957.377,1105.284" style="stroke:#181818;stroke-width:1.0;"/><text fill="#000000" font-family="sans-serif" font-size="13" lengthAdjust="spacing" textLength="49" x="962" y="1039.0669">renders</text></g><!--link MainLayout to MainLayoutJs--><g id="link_MainLayout_MainLayoutJs"><path codeLine="161" d="M1564.03,790.197 C1535.95,886.002 1441.68,1207.61 1411.43,1310.824 " fill="none" id="MainLayout-to-MainLayoutJs" style="stroke:#181818;stroke-width:1.0;"/><polygon fill="#181818" points="1409.95,1315.862,1416.3182,1308.349,1411.3553,1311.0635,1408.6407,1306.1006,1409.95,1315.862" style="stroke:#181818;stroke-width:1.0;"/><text fill="#000000" font-family="sans-serif" font-size="13" lengthAdjust="spacing" textLength="30" x="1496" y="1039.0669">uses</text></g><!--link MainLayout to DynamicMenuItem--><g id="link_MainLayout_DynamicMenuItem"><path codeLine="162" d="M1515.33,773.076 C1391.89,795.206 1106.45,847.437 1065,864.5 C1043.19,873.478 1021.08,887.451 1003.217,900.233 " fill="none" id="MainLayout-to-DynamicMenuItem" style="stroke:#181818;stroke-width:1.0;"/><polygon fill="#181818" points="998.77,903.453,1008.4055,901.414,1002.8197,900.5204,1003.7133,894.9346,998.77,903.453" style="stroke:#181818;stroke-width:1.0;"/><text fill="#000000" font-family="sans-serif" font-size="13" lengthAdjust="spacing" textLength="30" x="1254" y="833.0669">uses</text></g><!--link Index to Modal--><g id="link_Index_Modal"><path codeLine="164" d="M1104.13,626.605 C1231.48,636.861 1555.75,664.4 1662,687 C1714.04,698.069 1770.96,716.537 1814.91,732.254 " fill="none" id="Index-to-Modal" style="stroke:#181818;stroke-width:1.0;"/><polygon fill="#181818" points="1819.67,733.96,1812.5462,727.1592,1814.9629,732.2738,1809.8483,734.6905,1819.67,733.96" style="stroke:#181818;stroke-width:1.0;"/></g><!--link Index to BlazorModalJs--><g id="link_Index_BlazorModalJs"><path codeLine="165" d="M1027.55,649.743 C981.013,702.223 882.681,816.394 864,864.5 C809.702,1004.328 819.456,1058.766 864,1202 C876.613,1242.558 902.377,1284.144 921.479,1311.542 " fill="none" id="Index-to-BlazorModalJs" style="stroke:#181818;stroke-width:1.0;"/><polygon fill="#181818" points="924.484,1315.815,922.5774,1306.1525,921.6072,1311.7255,916.0342,1310.7553,924.484,1315.815" style="stroke:#181818;stroke-width:1.0;"/></g><!--link MainLayout to KeyboardJs--><g id="link_MainLayout_KeyboardJs"><path codeLine="167" d="M1572.14,790.26 C1572.37,838.019 1572.84,939.931 1573,1026 C1573.01,1033.556 1573.14,1035.446 1573,1043 C1571.21,1140.429 1566.17,1255.566 1563.58,1310.576 " fill="none" id="MainLayout-to-KeyboardJs" style="stroke:#181818;stroke-width:1.0;"/><polygon fill="#181818" points="1563.34,1315.709,1567.7594,1306.9073,1563.5755,1310.7145,1559.7683,1306.5306,1563.34,1315.709" style="stroke:#181818;stroke-width:1.0;"/></g><!--link StylePile to SiteCss--><g id="link_StylePile_SiteCss"><path codeLine="169" d="M1257,1166.84 C1257,1205.839 1257,1275.642 1257,1314.647 " fill="none" id="StylePile-SiteCss" style="stroke:#181818;stroke-width:1.0;"/><polygon fill="#181818" points="1257,1161.561,1253,1170.561,1257,1166.561,1261,1170.561,1257,1161.561" style="stroke:#181818;stroke-width:1.0;"/><polygon fill="#181818" points="1257,1319.709,1261,1310.709,1257,1314.709,1253,1310.709,1257,1319.709" style="stroke:#181818;stroke-width:1.0;"/><text fill="#000000" font-family="sans-serif" font-size="13" lengthAdjust="spacing" textLength="58" x="1258" y="1245.0669">co-exists</text></g><!--SRC=[ZLRRRkCs47tNLmpSbpQ53VJLI0CaJhT9kcwDsCqxBOrZRYXI82axRh7_tXcIkbbETu404UVECuSppfLm3bRMl5fHPlzc03_3NvMNHhlmlRAuuw-3aGMivQiMwayytWilVlof4I-5rDrfOL5uV33EtzLI5MX9zJNJnYDuKv7LMkfNXTve-aw9mNbXFPtlfQj4xia2y83QE_81XyvHGRCCTG4SACloKFQQlUgg7_pEI8KMAaKrG6uA73bDRgjgPiK_nav0EA3JCn_W-ZhylxgvQIpl50lMCNl09dq_5Z07gRdWbSZVn2ikg5Oh58c70hBuJM59XvNGoFfRVVfRKk7vMv2mGI7zaYebvTOObZnGxBva0DzcBntGdzy72TL1uEaSOKUN8FtUg8BnIwX1GRsQaVnHVy7SOy656mW0G4MLkZ6kyU8lqjL2fV9TuiR68ZvwB2CxrgX2J9QC16poZ5icmQrmxqsWm9IDFKNJGP9pfYo5fW9P0sO7dbA3387F2txK1Rut7LoH3pLn44Tg8eFs78dlJB9RMSxXHUAHy83boyko5xIAFOozUl2b2fUFgOACQQh4YPz1K5zIBZZVkm_whqsXNCbdSJArfshZnx3K23tiw0tLbklaX-HYevYkwHRnwHnaGT9FjSx3WuM35Co0XN2vO0wi1Bqjz6X7W74R6xmMfgoCfg33Idv7ZLRcb36f-IcIl0nDWRr4A_Azp8drt9bHYcMjlFmiDMu8XKkv6ZjJK8ZlgwM8q38Rk9BWcH0Pa-B-f4KfyoNgckduZHJFv4uvwE5GSEOh-tr0jqdeS_IuYbEa4_1G-cQklBPE7X3i82i7WQCiNl72TTR-f715qwqVAIHmoT-nnQ-JsMmseM-Eoa-GkKPAgGj9VA771eiVG7ZIRskFuppDtICJ0_FvE6yLpEOqvU1uF5fZVEzzJ4gY-5G5Qi- -k81En_edHz0yYODOvrPM30j0vxeDAQUXhurlB2EGvF-Tt_2qDS8MZUCVwJpswdoOk07NMUwYrwQHB9ph6JeYGckpfWEh8U168zfxm-ClyPGG9fAcWRnOho6e2jn9BPl5Icqve3rQ6LQTCoM7CPww9gfpyt39hajfGiQitDcc1m2VY1qEzcYfCL8fs2A8cgo4vsUgJhGJx84s0C-9XyrcrUjziuYlfbEO_3ARwSdP-ii6ns1tQKtGoahphrqSOySXnSY52HAerTOndTwagJwFFmxSK9TMFsbhMdHPSsHLkz7d4KM2n9f0zQnLzSCtodXcpR3YEU65HzVJzwPuoj_fmcGTIOV3SAG-7n_983kNNoekZX0t-9sHPLceexCVTIcvjGl1tE4zZQgi-OYDkhpF6Dc1y6ElPaMs7YpeOzrwyY-gNDN5H_TkvzyOlf7gRFH_jqrys1zOn4wTKxV5iKUA8KUUse1d9kVncwxtQCDZRqJCD0n7ARk9bsNTTQ-7DylD5Dyb_QRu3m00]--></g></svg>